%TF.GenerationSoftware,KiCad,Pcbnew,(5.1.6)-1*%
%TF.CreationDate,2020-08-08T14:22:08+05:30*%
%TF.ProjectId,F745_DISC,46373435-5f44-4495-9343-2e6b69636164,rev?*%
%TF.SameCoordinates,Original*%
%TF.FileFunction,Soldermask,Bot*%
%TF.FilePolarity,Negative*%
%FSLAX46Y46*%
G04 Gerber Fmt 4.6, Leading zero omitted, Abs format (unit mm)*
G04 Created by KiCad (PCBNEW (5.1.6)-1) date 2020-08-08 14:22:08*
%MOMM*%
%LPD*%
G01*
G04 APERTURE LIST*
%ADD10O,1.100000X1.100000*%
%ADD11R,1.100000X1.100000*%
%ADD12O,1.800000X1.800000*%
%ADD13R,1.800000X1.800000*%
%ADD14R,2.100000X1.600000*%
%ADD15R,2.100000X3.900000*%
%ADD16C,0.750000*%
%ADD17O,1.700000X1.100000*%
%ADD18O,2.200000X1.100000*%
%ADD19R,1.650000X1.100000*%
%ADD20R,1.600000X1.600000*%
%ADD21R,1.850000X0.800000*%
%ADD22R,1.500000X0.900000*%
%ADD23R,1.100000X1.550000*%
%ADD24R,1.600000X0.900000*%
%ADD25R,1.600000X1.400000*%
%ADD26C,0.900000*%
%ADD27C,6.500000*%
G04 APERTURE END LIST*
D10*
%TO.C,SPI*%
X42450000Y-59430000D03*
X41180000Y-59430000D03*
X39910000Y-59430000D03*
D11*
X38640000Y-59430000D03*
%TD*%
D10*
%TO.C,SWD*%
X42450000Y-56290000D03*
X41180000Y-56290000D03*
X39910000Y-56290000D03*
D11*
X38640000Y-56290000D03*
%TD*%
D10*
%TO.C,UART*%
X42450000Y-53150000D03*
X41180000Y-53150000D03*
X39910000Y-53150000D03*
D11*
X38640000Y-53150000D03*
%TD*%
D12*
%TO.C,J4*%
X82630000Y-64910000D03*
X82630000Y-67450000D03*
X80090000Y-64910000D03*
X80090000Y-67450000D03*
X77550000Y-64910000D03*
X77550000Y-67450000D03*
X75010000Y-64910000D03*
X75010000Y-67450000D03*
X72470000Y-64910000D03*
X72470000Y-67450000D03*
X69930000Y-64910000D03*
X69930000Y-67450000D03*
X67390000Y-64910000D03*
X67390000Y-67450000D03*
X64850000Y-64910000D03*
X64850000Y-67450000D03*
X62310000Y-64910000D03*
X62310000Y-67450000D03*
X59770000Y-64910000D03*
X59770000Y-67450000D03*
X57230000Y-64910000D03*
X57230000Y-67450000D03*
X54690000Y-64910000D03*
X54690000Y-67450000D03*
X52150000Y-64910000D03*
X52150000Y-67450000D03*
X49610000Y-64910000D03*
X49610000Y-67450000D03*
X47070000Y-64910000D03*
X47070000Y-67450000D03*
X44530000Y-64910000D03*
D13*
X44530000Y-67450000D03*
%TD*%
D12*
%TO.C,J3*%
X82580000Y-32740000D03*
X82580000Y-35280000D03*
X80040000Y-32740000D03*
X80040000Y-35280000D03*
X77500000Y-32740000D03*
X77500000Y-35280000D03*
X74960000Y-32740000D03*
X74960000Y-35280000D03*
X72420000Y-32740000D03*
X72420000Y-35280000D03*
X69880000Y-32740000D03*
X69880000Y-35280000D03*
X67340000Y-32740000D03*
X67340000Y-35280000D03*
X64800000Y-32740000D03*
X64800000Y-35280000D03*
X62260000Y-32740000D03*
X62260000Y-35280000D03*
X59720000Y-32740000D03*
X59720000Y-35280000D03*
X57180000Y-32740000D03*
X57180000Y-35280000D03*
X54640000Y-32740000D03*
X54640000Y-35280000D03*
X52100000Y-32740000D03*
X52100000Y-35280000D03*
X49560000Y-32740000D03*
X49560000Y-35280000D03*
X47020000Y-32740000D03*
X47020000Y-35280000D03*
X44480000Y-32740000D03*
D13*
X44480000Y-35280000D03*
%TD*%
D14*
%TO.C,3.3 VREG*%
X75560000Y-52150000D03*
X75560000Y-47550000D03*
X75560000Y-49850000D03*
D15*
X81860000Y-49850000D03*
%TD*%
D12*
%TO.C,I2C*%
X90370000Y-59480000D03*
D13*
X87830000Y-59480000D03*
%TD*%
D12*
%TO.C,CAN*%
X90080000Y-40140000D03*
D13*
X87540000Y-40140000D03*
%TD*%
D16*
%TO.C,USBC*%
X86895000Y-52690000D03*
X86895000Y-46910000D03*
D17*
X90575000Y-45480000D03*
X90575000Y-54120000D03*
D18*
X86395000Y-45480000D03*
X86395000Y-54120000D03*
%TD*%
D19*
%TO.C,J1*%
X33650000Y-49985000D03*
D20*
X44325000Y-50035000D03*
D21*
X44450000Y-47585000D03*
X44450000Y-46485000D03*
X44450000Y-45385000D03*
X44450000Y-44285000D03*
X44450000Y-43185000D03*
X44450000Y-42085000D03*
X44450000Y-40985000D03*
D22*
X36075000Y-50385000D03*
D23*
X35225000Y-38760000D03*
D24*
X36725000Y-38435000D03*
D25*
X44325000Y-38685000D03*
D21*
X44450000Y-39885000D03*
%TD*%
D26*
%TO.C,H3*%
X38897056Y-64402944D03*
X37200000Y-63700000D03*
X35502944Y-64402944D03*
X34800000Y-66100000D03*
X35502944Y-67797056D03*
X37200000Y-68500000D03*
X38897056Y-67797056D03*
X39600000Y-66100000D03*
D27*
X37200000Y-66100000D03*
%TD*%
D26*
%TO.C,H2*%
X91297056Y-32202944D03*
X89600000Y-31500000D03*
X87902944Y-32202944D03*
X87200000Y-33900000D03*
X87902944Y-35597056D03*
X89600000Y-36300000D03*
X91297056Y-35597056D03*
X92000000Y-33900000D03*
D27*
X89600000Y-33900000D03*
%TD*%
D26*
%TO.C,H1*%
X91297056Y-64602944D03*
X89600000Y-63900000D03*
X87902944Y-64602944D03*
X87200000Y-66300000D03*
X87902944Y-67997056D03*
X89600000Y-68700000D03*
X91297056Y-67997056D03*
X92000000Y-66300000D03*
D27*
X89600000Y-66300000D03*
%TD*%
D26*
%TO.C,H0*%
X38897056Y-32202944D03*
X37200000Y-31500000D03*
X35502944Y-32202944D03*
X34800000Y-33900000D03*
X35502944Y-35597056D03*
X37200000Y-36300000D03*
X38897056Y-35597056D03*
X39600000Y-33900000D03*
D27*
X37200000Y-33900000D03*
%TD*%
%TO.C,C4_ST1*%
G36*
G01*
X45695000Y-55922500D02*
X45695000Y-55527500D01*
G75*
G02*
X45867500Y-55355000I172500J0D01*
G01*
X46212500Y-55355000D01*
G75*
G02*
X46385000Y-55527500I0J-172500D01*
G01*
X46385000Y-55922500D01*
G75*
G02*
X46212500Y-56095000I-172500J0D01*
G01*
X45867500Y-56095000D01*
G75*
G02*
X45695000Y-55922500I0J172500D01*
G01*
G37*
G36*
G01*
X46665000Y-55922500D02*
X46665000Y-55527500D01*
G75*
G02*
X46837500Y-55355000I172500J0D01*
G01*
X47182500Y-55355000D01*
G75*
G02*
X47355000Y-55527500I0J-172500D01*
G01*
X47355000Y-55922500D01*
G75*
G02*
X47182500Y-56095000I-172500J0D01*
G01*
X46837500Y-56095000D01*
G75*
G02*
X46665000Y-55922500I0J172500D01*
G01*
G37*
%TD*%
%TO.C,C3_ST1*%
G36*
G01*
X45685000Y-54972500D02*
X45685000Y-54577500D01*
G75*
G02*
X45857500Y-54405000I172500J0D01*
G01*
X46202500Y-54405000D01*
G75*
G02*
X46375000Y-54577500I0J-172500D01*
G01*
X46375000Y-54972500D01*
G75*
G02*
X46202500Y-55145000I-172500J0D01*
G01*
X45857500Y-55145000D01*
G75*
G02*
X45685000Y-54972500I0J172500D01*
G01*
G37*
G36*
G01*
X46655000Y-54972500D02*
X46655000Y-54577500D01*
G75*
G02*
X46827500Y-54405000I172500J0D01*
G01*
X47172500Y-54405000D01*
G75*
G02*
X47345000Y-54577500I0J-172500D01*
G01*
X47345000Y-54972500D01*
G75*
G02*
X47172500Y-55145000I-172500J0D01*
G01*
X46827500Y-55145000D01*
G75*
G02*
X46655000Y-54972500I0J172500D01*
G01*
G37*
%TD*%
%TO.C,C2_VREG1*%
G36*
G01*
X72580000Y-50362500D02*
X72580000Y-50757500D01*
G75*
G02*
X72407500Y-50930000I-172500J0D01*
G01*
X72062500Y-50930000D01*
G75*
G02*
X71890000Y-50757500I0J172500D01*
G01*
X71890000Y-50362500D01*
G75*
G02*
X72062500Y-50190000I172500J0D01*
G01*
X72407500Y-50190000D01*
G75*
G02*
X72580000Y-50362500I0J-172500D01*
G01*
G37*
G36*
G01*
X73550000Y-50362500D02*
X73550000Y-50757500D01*
G75*
G02*
X73377500Y-50930000I-172500J0D01*
G01*
X73032500Y-50930000D01*
G75*
G02*
X72860000Y-50757500I0J172500D01*
G01*
X72860000Y-50362500D01*
G75*
G02*
X73032500Y-50190000I172500J0D01*
G01*
X73377500Y-50190000D01*
G75*
G02*
X73550000Y-50362500I0J-172500D01*
G01*
G37*
%TD*%
%TO.C,C1_VREG1*%
G36*
G01*
X72860000Y-49767500D02*
X72860000Y-49372500D01*
G75*
G02*
X73032500Y-49200000I172500J0D01*
G01*
X73377500Y-49200000D01*
G75*
G02*
X73550000Y-49372500I0J-172500D01*
G01*
X73550000Y-49767500D01*
G75*
G02*
X73377500Y-49940000I-172500J0D01*
G01*
X73032500Y-49940000D01*
G75*
G02*
X72860000Y-49767500I0J172500D01*
G01*
G37*
G36*
G01*
X71890000Y-49767500D02*
X71890000Y-49372500D01*
G75*
G02*
X72062500Y-49200000I172500J0D01*
G01*
X72407500Y-49200000D01*
G75*
G02*
X72580000Y-49372500I0J-172500D01*
G01*
X72580000Y-49767500D01*
G75*
G02*
X72407500Y-49940000I-172500J0D01*
G01*
X72062500Y-49940000D01*
G75*
G02*
X71890000Y-49767500I0J172500D01*
G01*
G37*
%TD*%
M02*
