%TF.GenerationSoftware,KiCad,Pcbnew,(5.1.6)-1*%
%TF.CreationDate,2020-08-08T14:22:08+05:30*%
%TF.ProjectId,F745_DISC,46373435-5f44-4495-9343-2e6b69636164,rev?*%
%TF.SameCoordinates,Original*%
%TF.FileFunction,Legend,Top*%
%TF.FilePolarity,Positive*%
%FSLAX46Y46*%
G04 Gerber Fmt 4.6, Leading zero omitted, Abs format (unit mm)*
G04 Created by KiCad (PCBNEW (5.1.6)-1) date 2020-08-08 14:22:08*
%MOMM*%
%LPD*%
G01*
G04 APERTURE LIST*
%ADD10C,0.080000*%
%ADD11C,0.100000*%
%ADD12C,0.300000*%
%ADD13C,0.120000*%
%ADD14C,0.130000*%
%ADD15C,0.150000*%
G04 APERTURE END LIST*
D10*
X89848809Y-62011904D02*
X89905952Y-62030952D01*
X90001190Y-62030952D01*
X90039285Y-62011904D01*
X90058333Y-61992857D01*
X90077380Y-61954761D01*
X90077380Y-61916666D01*
X90058333Y-61878571D01*
X90039285Y-61859523D01*
X90001190Y-61840476D01*
X89925000Y-61821428D01*
X89886904Y-61802380D01*
X89867857Y-61783333D01*
X89848809Y-61745238D01*
X89848809Y-61707142D01*
X89867857Y-61669047D01*
X89886904Y-61650000D01*
X89925000Y-61630952D01*
X90020238Y-61630952D01*
X90077380Y-61650000D01*
X90477380Y-61992857D02*
X90458333Y-62011904D01*
X90401190Y-62030952D01*
X90363095Y-62030952D01*
X90305952Y-62011904D01*
X90267857Y-61973809D01*
X90248809Y-61935714D01*
X90229761Y-61859523D01*
X90229761Y-61802380D01*
X90248809Y-61726190D01*
X90267857Y-61688095D01*
X90305952Y-61650000D01*
X90363095Y-61630952D01*
X90401190Y-61630952D01*
X90458333Y-61650000D01*
X90477380Y-61669047D01*
X90839285Y-62030952D02*
X90648809Y-62030952D01*
X90648809Y-61630952D01*
X87339285Y-62011904D02*
X87396428Y-62030952D01*
X87491666Y-62030952D01*
X87529761Y-62011904D01*
X87548809Y-61992857D01*
X87567857Y-61954761D01*
X87567857Y-61916666D01*
X87548809Y-61878571D01*
X87529761Y-61859523D01*
X87491666Y-61840476D01*
X87415476Y-61821428D01*
X87377380Y-61802380D01*
X87358333Y-61783333D01*
X87339285Y-61745238D01*
X87339285Y-61707142D01*
X87358333Y-61669047D01*
X87377380Y-61650000D01*
X87415476Y-61630952D01*
X87510714Y-61630952D01*
X87567857Y-61650000D01*
X87739285Y-62030952D02*
X87739285Y-61630952D01*
X87834523Y-61630952D01*
X87891666Y-61650000D01*
X87929761Y-61688095D01*
X87948809Y-61726190D01*
X87967857Y-61802380D01*
X87967857Y-61859523D01*
X87948809Y-61935714D01*
X87929761Y-61973809D01*
X87891666Y-62011904D01*
X87834523Y-62030952D01*
X87739285Y-62030952D01*
X88120238Y-61916666D02*
X88310714Y-61916666D01*
X88082142Y-62030952D02*
X88215476Y-61630952D01*
X88348809Y-62030952D01*
X90008333Y-42580952D02*
X89875000Y-42390476D01*
X89779761Y-42580952D02*
X89779761Y-42180952D01*
X89932142Y-42180952D01*
X89970238Y-42200000D01*
X89989285Y-42219047D01*
X90008333Y-42257142D01*
X90008333Y-42314285D01*
X89989285Y-42352380D01*
X89970238Y-42371428D01*
X89932142Y-42390476D01*
X89779761Y-42390476D01*
X90141666Y-42180952D02*
X90408333Y-42580952D01*
X90408333Y-42180952D02*
X90141666Y-42580952D01*
X87295238Y-42180952D02*
X87523809Y-42180952D01*
X87409523Y-42580952D02*
X87409523Y-42180952D01*
X87619047Y-42180952D02*
X87885714Y-42580952D01*
X87885714Y-42180952D02*
X87619047Y-42580952D01*
D11*
X42500000Y-50934523D02*
X42461904Y-51010714D01*
X42461904Y-51125000D01*
X42500000Y-51239285D01*
X42576190Y-51315476D01*
X42652380Y-51353571D01*
X42804761Y-51391666D01*
X42919047Y-51391666D01*
X43071428Y-51353571D01*
X43147619Y-51315476D01*
X43223809Y-51239285D01*
X43261904Y-51125000D01*
X43261904Y-51048809D01*
X43223809Y-50934523D01*
X43185714Y-50896428D01*
X42919047Y-50896428D01*
X42919047Y-51048809D01*
X43261904Y-50553571D02*
X42461904Y-50553571D01*
X43261904Y-50096428D01*
X42461904Y-50096428D01*
X43261904Y-49715476D02*
X42461904Y-49715476D01*
X42461904Y-49525000D01*
X42500000Y-49410714D01*
X42576190Y-49334523D01*
X42652380Y-49296428D01*
X42804761Y-49258333D01*
X42919047Y-49258333D01*
X43071428Y-49296428D01*
X43147619Y-49334523D01*
X43223809Y-49410714D01*
X43261904Y-49525000D01*
X43261904Y-49715476D01*
X41136904Y-51369047D02*
X41936904Y-51102380D01*
X41136904Y-50835714D01*
X41936904Y-50569047D02*
X41403571Y-50569047D01*
X41136904Y-50569047D02*
X41175000Y-50607142D01*
X41213095Y-50569047D01*
X41175000Y-50530952D01*
X41136904Y-50569047D01*
X41213095Y-50569047D01*
X41403571Y-50188095D02*
X41936904Y-50188095D01*
X41479761Y-50188095D02*
X41441666Y-50150000D01*
X41403571Y-50073809D01*
X41403571Y-49959523D01*
X41441666Y-49883333D01*
X41517857Y-49845238D01*
X41936904Y-49845238D01*
X40436904Y-50933333D02*
X40055952Y-51200000D01*
X40436904Y-51390476D02*
X39636904Y-51390476D01*
X39636904Y-51085714D01*
X39675000Y-51009523D01*
X39713095Y-50971428D01*
X39789285Y-50933333D01*
X39903571Y-50933333D01*
X39979761Y-50971428D01*
X40017857Y-51009523D01*
X40055952Y-51085714D01*
X40055952Y-51390476D01*
X39636904Y-50666666D02*
X40436904Y-50133333D01*
X39636904Y-50133333D02*
X40436904Y-50666666D01*
X38136904Y-51459523D02*
X38136904Y-51002380D01*
X38936904Y-51230952D02*
X38136904Y-51230952D01*
X38136904Y-50811904D02*
X38936904Y-50278571D01*
X38136904Y-50278571D02*
X38936904Y-50811904D01*
D12*
X83275000Y-38925000D02*
X83417857Y-38996428D01*
X83632142Y-38996428D01*
X83846428Y-38925000D01*
X83989285Y-38782142D01*
X84060714Y-38639285D01*
X84132142Y-38353571D01*
X84132142Y-38139285D01*
X84060714Y-37853571D01*
X83989285Y-37710714D01*
X83846428Y-37567857D01*
X83632142Y-37496428D01*
X83489285Y-37496428D01*
X83275000Y-37567857D01*
X83203571Y-37639285D01*
X83203571Y-38139285D01*
X83489285Y-38139285D01*
X82560714Y-37496428D02*
X82560714Y-38996428D01*
X81989285Y-38996428D01*
X81846428Y-38925000D01*
X81775000Y-38853571D01*
X81703571Y-38710714D01*
X81703571Y-38496428D01*
X81775000Y-38353571D01*
X81846428Y-38282142D01*
X81989285Y-38210714D01*
X82560714Y-38210714D01*
X81060714Y-37496428D02*
X81060714Y-38996428D01*
X80060714Y-38996428D02*
X79775000Y-38996428D01*
X79632142Y-38925000D01*
X79489285Y-38782142D01*
X79417857Y-38496428D01*
X79417857Y-37996428D01*
X79489285Y-37710714D01*
X79632142Y-37567857D01*
X79775000Y-37496428D01*
X80060714Y-37496428D01*
X80203571Y-37567857D01*
X80346428Y-37710714D01*
X80417857Y-37996428D01*
X80417857Y-38496428D01*
X80346428Y-38782142D01*
X80203571Y-38925000D01*
X80060714Y-38996428D01*
X43575000Y-61100000D02*
X43432142Y-61028571D01*
X43217857Y-61028571D01*
X43003571Y-61100000D01*
X42860714Y-61242857D01*
X42789285Y-61385714D01*
X42717857Y-61671428D01*
X42717857Y-61885714D01*
X42789285Y-62171428D01*
X42860714Y-62314285D01*
X43003571Y-62457142D01*
X43217857Y-62528571D01*
X43360714Y-62528571D01*
X43575000Y-62457142D01*
X43646428Y-62385714D01*
X43646428Y-61885714D01*
X43360714Y-61885714D01*
X44289285Y-62528571D02*
X44289285Y-61028571D01*
X44860714Y-61028571D01*
X45003571Y-61100000D01*
X45075000Y-61171428D01*
X45146428Y-61314285D01*
X45146428Y-61528571D01*
X45075000Y-61671428D01*
X45003571Y-61742857D01*
X44860714Y-61814285D01*
X44289285Y-61814285D01*
X45789285Y-62528571D02*
X45789285Y-61028571D01*
X46789285Y-61028571D02*
X47075000Y-61028571D01*
X47217857Y-61100000D01*
X47360714Y-61242857D01*
X47432142Y-61528571D01*
X47432142Y-62028571D01*
X47360714Y-62314285D01*
X47217857Y-62457142D01*
X47075000Y-62528571D01*
X46789285Y-62528571D01*
X46646428Y-62457142D01*
X46503571Y-62314285D01*
X46432142Y-62028571D01*
X46432142Y-61528571D01*
X46503571Y-61242857D01*
X46646428Y-61100000D01*
X46789285Y-61028571D01*
D13*
%TO.C,SPI*%
X37880000Y-60540000D02*
X37880000Y-59430000D01*
X38640000Y-60540000D02*
X37880000Y-60540000D01*
X39400000Y-58866529D02*
X39400000Y-58320000D01*
X39400000Y-60540000D02*
X39400000Y-59993471D01*
X39400000Y-58320000D02*
X43145000Y-58320000D01*
X39400000Y-60540000D02*
X43145000Y-60540000D01*
X43145000Y-59122470D02*
X43145000Y-58320000D01*
X43145000Y-60540000D02*
X43145000Y-59737530D01*
%TO.C,SWD*%
X37880000Y-57400000D02*
X37880000Y-56290000D01*
X38640000Y-57400000D02*
X37880000Y-57400000D01*
X39400000Y-55726529D02*
X39400000Y-55180000D01*
X39400000Y-57400000D02*
X39400000Y-56853471D01*
X39400000Y-55180000D02*
X43145000Y-55180000D01*
X39400000Y-57400000D02*
X43145000Y-57400000D01*
X43145000Y-55982470D02*
X43145000Y-55180000D01*
X43145000Y-57400000D02*
X43145000Y-56597530D01*
%TO.C,UART*%
X37880000Y-54260000D02*
X37880000Y-53150000D01*
X38640000Y-54260000D02*
X37880000Y-54260000D01*
X39400000Y-52586529D02*
X39400000Y-52040000D01*
X39400000Y-54260000D02*
X39400000Y-53713471D01*
X39400000Y-52040000D02*
X43145000Y-52040000D01*
X39400000Y-54260000D02*
X43145000Y-54260000D01*
X43145000Y-52842470D02*
X43145000Y-52040000D01*
X43145000Y-54260000D02*
X43145000Y-53457530D01*
%TO.C,J4*%
X83960000Y-68780000D02*
X83960000Y-63580000D01*
X45800000Y-68780000D02*
X83960000Y-68780000D01*
X43200000Y-63580000D02*
X83960000Y-63580000D01*
X45800000Y-68780000D02*
X45800000Y-66180000D01*
X45800000Y-66180000D02*
X43200000Y-66180000D01*
X43200000Y-66180000D02*
X43200000Y-63580000D01*
X44530000Y-68780000D02*
X43200000Y-68780000D01*
X43200000Y-68780000D02*
X43200000Y-67450000D01*
%TO.C,J3*%
X83910000Y-36610000D02*
X83910000Y-31410000D01*
X45750000Y-36610000D02*
X83910000Y-36610000D01*
X43150000Y-31410000D02*
X83910000Y-31410000D01*
X45750000Y-36610000D02*
X45750000Y-34010000D01*
X45750000Y-34010000D02*
X43150000Y-34010000D01*
X43150000Y-34010000D02*
X43150000Y-31410000D01*
X44480000Y-36610000D02*
X43150000Y-36610000D01*
X43150000Y-36610000D02*
X43150000Y-35280000D01*
%TO.C,Y1*%
X49700000Y-51400000D02*
X49700000Y-50600000D01*
X52100000Y-51400000D02*
X50100000Y-51400000D01*
X52100000Y-50600000D02*
X52100000Y-51400000D01*
X52100000Y-47800000D02*
X52100000Y-48800000D01*
X50100000Y-47800000D02*
X52100000Y-47800000D01*
X49700000Y-48800000D02*
X49700000Y-47800000D01*
X49700000Y-48800000D02*
X49300000Y-48800000D01*
X52100000Y-47600000D02*
X50100000Y-47600000D01*
X50100000Y-51400000D02*
X49700000Y-51400000D01*
X50100000Y-47800000D02*
X49700000Y-47800000D01*
X50100000Y-47600000D02*
X49700000Y-47600000D01*
%TO.C,U1*%
X68810000Y-57110000D02*
X69510000Y-57110000D01*
X69510000Y-57110000D02*
X69510000Y-56410000D01*
X55990000Y-57110000D02*
X55290000Y-57110000D01*
X55290000Y-57110000D02*
X55290000Y-56410000D01*
X68810000Y-42890000D02*
X69510000Y-42890000D01*
X69510000Y-42890000D02*
X69510000Y-43590000D01*
X55990000Y-42890000D02*
X55290000Y-42890000D01*
X55290000Y-42890000D02*
X55290000Y-43590000D01*
X55290000Y-43590000D02*
X53925000Y-43590000D01*
%TO.C,I2C*%
X91700000Y-60810000D02*
X91700000Y-58150000D01*
X89100000Y-60810000D02*
X91700000Y-60810000D01*
X89100000Y-58150000D02*
X91700000Y-58150000D01*
X89100000Y-60810000D02*
X89100000Y-58150000D01*
X87830000Y-60810000D02*
X86500000Y-60810000D01*
X86500000Y-60810000D02*
X86500000Y-59480000D01*
%TO.C,CAN*%
X91410000Y-41470000D02*
X91410000Y-38810000D01*
X88810000Y-41470000D02*
X91410000Y-41470000D01*
X88810000Y-38810000D02*
X91410000Y-38810000D01*
X88810000Y-41470000D02*
X88810000Y-38810000D01*
X87540000Y-41470000D02*
X86210000Y-41470000D01*
X86210000Y-41470000D02*
X86210000Y-40140000D01*
%TO.C,USBC*%
X87650000Y-54380000D02*
X89570000Y-54380000D01*
X89570000Y-45220000D02*
X87650000Y-45220000D01*
X91580000Y-45220000D02*
X93285000Y-45220000D01*
X93285000Y-54380000D02*
X91580000Y-54380000D01*
X93285000Y-45220000D02*
X93285000Y-54380000D01*
%TO.C,ESD*%
X80960000Y-46300000D02*
X80030000Y-46300000D01*
X77800000Y-46300000D02*
X78730000Y-46300000D01*
X77800000Y-46300000D02*
X77800000Y-48460000D01*
X80960000Y-46300000D02*
X80960000Y-47760000D01*
%TO.C,LED*%
X51450000Y-42390000D02*
X49165000Y-42390000D01*
X49165000Y-42390000D02*
X49165000Y-43860000D01*
X49165000Y-43860000D02*
X51450000Y-43860000D01*
%TO.C,TX*%
X47200000Y-52265000D02*
X44915000Y-52265000D01*
X44915000Y-52265000D02*
X44915000Y-53735000D01*
X44915000Y-53735000D02*
X47200000Y-53735000D01*
%TO.C,RX*%
X47200000Y-53765000D02*
X44915000Y-53765000D01*
X44915000Y-53765000D02*
X44915000Y-55235000D01*
X44915000Y-55235000D02*
X47200000Y-55235000D01*
%TO.C,D1*%
X82700000Y-54755000D02*
X80415000Y-54755000D01*
X80415000Y-54755000D02*
X80415000Y-56225000D01*
X80415000Y-56225000D02*
X82700000Y-56225000D01*
%TO.C,RESET*%
X42170000Y-47320000D02*
X38030000Y-47320000D01*
X38030000Y-44480000D02*
X38030000Y-44180000D01*
X38030000Y-44180000D02*
X42170000Y-44180000D01*
X42170000Y-47020000D02*
X42170000Y-47320000D01*
X42170000Y-44180000D02*
X42170000Y-44480000D01*
X38030000Y-47320000D02*
X38030000Y-47020000D01*
%TO.C,BOOT*%
X42170000Y-43845000D02*
X38030000Y-43845000D01*
X38030000Y-41005000D02*
X38030000Y-40705000D01*
X38030000Y-40705000D02*
X42170000Y-40705000D01*
X42170000Y-43545000D02*
X42170000Y-43845000D01*
X42170000Y-40705000D02*
X42170000Y-41005000D01*
X38030000Y-43845000D02*
X38030000Y-43545000D01*
%TO.C,SPI*%
D14*
X35580952Y-59763809D02*
X35695238Y-59801904D01*
X35885714Y-59801904D01*
X35961904Y-59763809D01*
X36000000Y-59725714D01*
X36038095Y-59649523D01*
X36038095Y-59573333D01*
X36000000Y-59497142D01*
X35961904Y-59459047D01*
X35885714Y-59420952D01*
X35733333Y-59382857D01*
X35657142Y-59344761D01*
X35619047Y-59306666D01*
X35580952Y-59230476D01*
X35580952Y-59154285D01*
X35619047Y-59078095D01*
X35657142Y-59040000D01*
X35733333Y-59001904D01*
X35923809Y-59001904D01*
X36038095Y-59040000D01*
X36380952Y-59801904D02*
X36380952Y-59001904D01*
X36685714Y-59001904D01*
X36761904Y-59040000D01*
X36800000Y-59078095D01*
X36838095Y-59154285D01*
X36838095Y-59268571D01*
X36800000Y-59344761D01*
X36761904Y-59382857D01*
X36685714Y-59420952D01*
X36380952Y-59420952D01*
X37180952Y-59801904D02*
X37180952Y-59001904D01*
%TO.C,SWD*%
X35114285Y-56523809D02*
X35228571Y-56561904D01*
X35419047Y-56561904D01*
X35495238Y-56523809D01*
X35533333Y-56485714D01*
X35571428Y-56409523D01*
X35571428Y-56333333D01*
X35533333Y-56257142D01*
X35495238Y-56219047D01*
X35419047Y-56180952D01*
X35266666Y-56142857D01*
X35190476Y-56104761D01*
X35152380Y-56066666D01*
X35114285Y-55990476D01*
X35114285Y-55914285D01*
X35152380Y-55838095D01*
X35190476Y-55800000D01*
X35266666Y-55761904D01*
X35457142Y-55761904D01*
X35571428Y-55800000D01*
X35838095Y-55761904D02*
X36028571Y-56561904D01*
X36180952Y-55990476D01*
X36333333Y-56561904D01*
X36523809Y-55761904D01*
X36828571Y-56561904D02*
X36828571Y-55761904D01*
X37019047Y-55761904D01*
X37133333Y-55800000D01*
X37209523Y-55876190D01*
X37247619Y-55952380D01*
X37285714Y-56104761D01*
X37285714Y-56219047D01*
X37247619Y-56371428D01*
X37209523Y-56447619D01*
X37133333Y-56523809D01*
X37019047Y-56561904D01*
X36828571Y-56561904D01*
%TO.C,UART*%
X34633809Y-52861904D02*
X34633809Y-53509523D01*
X34671904Y-53585714D01*
X34710000Y-53623809D01*
X34786190Y-53661904D01*
X34938571Y-53661904D01*
X35014761Y-53623809D01*
X35052857Y-53585714D01*
X35090952Y-53509523D01*
X35090952Y-52861904D01*
X35433809Y-53433333D02*
X35814761Y-53433333D01*
X35357619Y-53661904D02*
X35624285Y-52861904D01*
X35890952Y-53661904D01*
X36614761Y-53661904D02*
X36348095Y-53280952D01*
X36157619Y-53661904D02*
X36157619Y-52861904D01*
X36462380Y-52861904D01*
X36538571Y-52900000D01*
X36576666Y-52938095D01*
X36614761Y-53014285D01*
X36614761Y-53128571D01*
X36576666Y-53204761D01*
X36538571Y-53242857D01*
X36462380Y-53280952D01*
X36157619Y-53280952D01*
X36843333Y-52861904D02*
X37300476Y-52861904D01*
X37071904Y-53661904D02*
X37071904Y-52861904D01*
%TO.C,Y1*%
D11*
X49709523Y-47240476D02*
X49709523Y-47430952D01*
X49576190Y-47030952D02*
X49709523Y-47240476D01*
X49842857Y-47030952D01*
X50185714Y-47430952D02*
X49957142Y-47430952D01*
X50071428Y-47430952D02*
X50071428Y-47030952D01*
X50033333Y-47088095D01*
X49995238Y-47126190D01*
X49957142Y-47145238D01*
%TO.C,U1*%
D15*
X61638095Y-40032380D02*
X61638095Y-40841904D01*
X61685714Y-40937142D01*
X61733333Y-40984761D01*
X61828571Y-41032380D01*
X62019047Y-41032380D01*
X62114285Y-40984761D01*
X62161904Y-40937142D01*
X62209523Y-40841904D01*
X62209523Y-40032380D01*
X63209523Y-41032380D02*
X62638095Y-41032380D01*
X62923809Y-41032380D02*
X62923809Y-40032380D01*
X62828571Y-40175238D01*
X62733333Y-40270476D01*
X62638095Y-40318095D01*
%TO.C,R2_USB1*%
D11*
X78425476Y-51080952D02*
X78292142Y-50890476D01*
X78196904Y-51080952D02*
X78196904Y-50680952D01*
X78349285Y-50680952D01*
X78387380Y-50700000D01*
X78406428Y-50719047D01*
X78425476Y-50757142D01*
X78425476Y-50814285D01*
X78406428Y-50852380D01*
X78387380Y-50871428D01*
X78349285Y-50890476D01*
X78196904Y-50890476D01*
X78577857Y-50719047D02*
X78596904Y-50700000D01*
X78635000Y-50680952D01*
X78730238Y-50680952D01*
X78768333Y-50700000D01*
X78787380Y-50719047D01*
X78806428Y-50757142D01*
X78806428Y-50795238D01*
X78787380Y-50852380D01*
X78558809Y-51080952D01*
X78806428Y-51080952D01*
X78882619Y-51119047D02*
X79187380Y-51119047D01*
X79282619Y-50680952D02*
X79282619Y-51004761D01*
X79301666Y-51042857D01*
X79320714Y-51061904D01*
X79358809Y-51080952D01*
X79435000Y-51080952D01*
X79473095Y-51061904D01*
X79492142Y-51042857D01*
X79511190Y-51004761D01*
X79511190Y-50680952D01*
X79682619Y-51061904D02*
X79739761Y-51080952D01*
X79835000Y-51080952D01*
X79873095Y-51061904D01*
X79892142Y-51042857D01*
X79911190Y-51004761D01*
X79911190Y-50966666D01*
X79892142Y-50928571D01*
X79873095Y-50909523D01*
X79835000Y-50890476D01*
X79758809Y-50871428D01*
X79720714Y-50852380D01*
X79701666Y-50833333D01*
X79682619Y-50795238D01*
X79682619Y-50757142D01*
X79701666Y-50719047D01*
X79720714Y-50700000D01*
X79758809Y-50680952D01*
X79854047Y-50680952D01*
X79911190Y-50700000D01*
X80215952Y-50871428D02*
X80273095Y-50890476D01*
X80292142Y-50909523D01*
X80311190Y-50947619D01*
X80311190Y-51004761D01*
X80292142Y-51042857D01*
X80273095Y-51061904D01*
X80235000Y-51080952D01*
X80082619Y-51080952D01*
X80082619Y-50680952D01*
X80215952Y-50680952D01*
X80254047Y-50700000D01*
X80273095Y-50719047D01*
X80292142Y-50757142D01*
X80292142Y-50795238D01*
X80273095Y-50833333D01*
X80254047Y-50852380D01*
X80215952Y-50871428D01*
X80082619Y-50871428D01*
X80692142Y-51080952D02*
X80463571Y-51080952D01*
X80577857Y-51080952D02*
X80577857Y-50680952D01*
X80539761Y-50738095D01*
X80501666Y-50776190D01*
X80463571Y-50795238D01*
%TO.C,R2_TX1*%
X46272619Y-51105952D02*
X46139285Y-50915476D01*
X46044047Y-51105952D02*
X46044047Y-50705952D01*
X46196428Y-50705952D01*
X46234523Y-50725000D01*
X46253571Y-50744047D01*
X46272619Y-50782142D01*
X46272619Y-50839285D01*
X46253571Y-50877380D01*
X46234523Y-50896428D01*
X46196428Y-50915476D01*
X46044047Y-50915476D01*
X46425000Y-50744047D02*
X46444047Y-50725000D01*
X46482142Y-50705952D01*
X46577380Y-50705952D01*
X46615476Y-50725000D01*
X46634523Y-50744047D01*
X46653571Y-50782142D01*
X46653571Y-50820238D01*
X46634523Y-50877380D01*
X46405952Y-51105952D01*
X46653571Y-51105952D01*
X46729761Y-51144047D02*
X47034523Y-51144047D01*
X47072619Y-50705952D02*
X47301190Y-50705952D01*
X47186904Y-51105952D02*
X47186904Y-50705952D01*
X47396428Y-50705952D02*
X47663095Y-51105952D01*
X47663095Y-50705952D02*
X47396428Y-51105952D01*
X48025000Y-51105952D02*
X47796428Y-51105952D01*
X47910714Y-51105952D02*
X47910714Y-50705952D01*
X47872619Y-50763095D01*
X47834523Y-50801190D01*
X47796428Y-50820238D01*
%TO.C,R2_SCL1*%
X79288095Y-58905952D02*
X79154761Y-58715476D01*
X79059523Y-58905952D02*
X79059523Y-58505952D01*
X79211904Y-58505952D01*
X79250000Y-58525000D01*
X79269047Y-58544047D01*
X79288095Y-58582142D01*
X79288095Y-58639285D01*
X79269047Y-58677380D01*
X79250000Y-58696428D01*
X79211904Y-58715476D01*
X79059523Y-58715476D01*
X79440476Y-58544047D02*
X79459523Y-58525000D01*
X79497619Y-58505952D01*
X79592857Y-58505952D01*
X79630952Y-58525000D01*
X79650000Y-58544047D01*
X79669047Y-58582142D01*
X79669047Y-58620238D01*
X79650000Y-58677380D01*
X79421428Y-58905952D01*
X79669047Y-58905952D01*
X79745238Y-58944047D02*
X80050000Y-58944047D01*
X80126190Y-58886904D02*
X80183333Y-58905952D01*
X80278571Y-58905952D01*
X80316666Y-58886904D01*
X80335714Y-58867857D01*
X80354761Y-58829761D01*
X80354761Y-58791666D01*
X80335714Y-58753571D01*
X80316666Y-58734523D01*
X80278571Y-58715476D01*
X80202380Y-58696428D01*
X80164285Y-58677380D01*
X80145238Y-58658333D01*
X80126190Y-58620238D01*
X80126190Y-58582142D01*
X80145238Y-58544047D01*
X80164285Y-58525000D01*
X80202380Y-58505952D01*
X80297619Y-58505952D01*
X80354761Y-58525000D01*
X80754761Y-58867857D02*
X80735714Y-58886904D01*
X80678571Y-58905952D01*
X80640476Y-58905952D01*
X80583333Y-58886904D01*
X80545238Y-58848809D01*
X80526190Y-58810714D01*
X80507142Y-58734523D01*
X80507142Y-58677380D01*
X80526190Y-58601190D01*
X80545238Y-58563095D01*
X80583333Y-58525000D01*
X80640476Y-58505952D01*
X80678571Y-58505952D01*
X80735714Y-58525000D01*
X80754761Y-58544047D01*
X81116666Y-58905952D02*
X80926190Y-58905952D01*
X80926190Y-58505952D01*
X81459523Y-58905952D02*
X81230952Y-58905952D01*
X81345238Y-58905952D02*
X81345238Y-58505952D01*
X81307142Y-58563095D01*
X81269047Y-58601190D01*
X81230952Y-58620238D01*
%TO.C,R1_USB3*%
X78440476Y-53080952D02*
X78307142Y-52890476D01*
X78211904Y-53080952D02*
X78211904Y-52680952D01*
X78364285Y-52680952D01*
X78402380Y-52700000D01*
X78421428Y-52719047D01*
X78440476Y-52757142D01*
X78440476Y-52814285D01*
X78421428Y-52852380D01*
X78402380Y-52871428D01*
X78364285Y-52890476D01*
X78211904Y-52890476D01*
X78821428Y-53080952D02*
X78592857Y-53080952D01*
X78707142Y-53080952D02*
X78707142Y-52680952D01*
X78669047Y-52738095D01*
X78630952Y-52776190D01*
X78592857Y-52795238D01*
X78897619Y-53119047D02*
X79202380Y-53119047D01*
X79297619Y-52680952D02*
X79297619Y-53004761D01*
X79316666Y-53042857D01*
X79335714Y-53061904D01*
X79373809Y-53080952D01*
X79450000Y-53080952D01*
X79488095Y-53061904D01*
X79507142Y-53042857D01*
X79526190Y-53004761D01*
X79526190Y-52680952D01*
X79697619Y-53061904D02*
X79754761Y-53080952D01*
X79850000Y-53080952D01*
X79888095Y-53061904D01*
X79907142Y-53042857D01*
X79926190Y-53004761D01*
X79926190Y-52966666D01*
X79907142Y-52928571D01*
X79888095Y-52909523D01*
X79850000Y-52890476D01*
X79773809Y-52871428D01*
X79735714Y-52852380D01*
X79716666Y-52833333D01*
X79697619Y-52795238D01*
X79697619Y-52757142D01*
X79716666Y-52719047D01*
X79735714Y-52700000D01*
X79773809Y-52680952D01*
X79869047Y-52680952D01*
X79926190Y-52700000D01*
X80230952Y-52871428D02*
X80288095Y-52890476D01*
X80307142Y-52909523D01*
X80326190Y-52947619D01*
X80326190Y-53004761D01*
X80307142Y-53042857D01*
X80288095Y-53061904D01*
X80250000Y-53080952D01*
X80097619Y-53080952D01*
X80097619Y-52680952D01*
X80230952Y-52680952D01*
X80269047Y-52700000D01*
X80288095Y-52719047D01*
X80307142Y-52757142D01*
X80307142Y-52795238D01*
X80288095Y-52833333D01*
X80269047Y-52852380D01*
X80230952Y-52871428D01*
X80097619Y-52871428D01*
X80459523Y-52680952D02*
X80707142Y-52680952D01*
X80573809Y-52833333D01*
X80630952Y-52833333D01*
X80669047Y-52852380D01*
X80688095Y-52871428D01*
X80707142Y-52909523D01*
X80707142Y-53004761D01*
X80688095Y-53042857D01*
X80669047Y-53061904D01*
X80630952Y-53080952D01*
X80516666Y-53080952D01*
X80478571Y-53061904D01*
X80459523Y-53042857D01*
%TO.C,R1_USB2*%
X78430476Y-52040952D02*
X78297142Y-51850476D01*
X78201904Y-52040952D02*
X78201904Y-51640952D01*
X78354285Y-51640952D01*
X78392380Y-51660000D01*
X78411428Y-51679047D01*
X78430476Y-51717142D01*
X78430476Y-51774285D01*
X78411428Y-51812380D01*
X78392380Y-51831428D01*
X78354285Y-51850476D01*
X78201904Y-51850476D01*
X78811428Y-52040952D02*
X78582857Y-52040952D01*
X78697142Y-52040952D02*
X78697142Y-51640952D01*
X78659047Y-51698095D01*
X78620952Y-51736190D01*
X78582857Y-51755238D01*
X78887619Y-52079047D02*
X79192380Y-52079047D01*
X79287619Y-51640952D02*
X79287619Y-51964761D01*
X79306666Y-52002857D01*
X79325714Y-52021904D01*
X79363809Y-52040952D01*
X79440000Y-52040952D01*
X79478095Y-52021904D01*
X79497142Y-52002857D01*
X79516190Y-51964761D01*
X79516190Y-51640952D01*
X79687619Y-52021904D02*
X79744761Y-52040952D01*
X79840000Y-52040952D01*
X79878095Y-52021904D01*
X79897142Y-52002857D01*
X79916190Y-51964761D01*
X79916190Y-51926666D01*
X79897142Y-51888571D01*
X79878095Y-51869523D01*
X79840000Y-51850476D01*
X79763809Y-51831428D01*
X79725714Y-51812380D01*
X79706666Y-51793333D01*
X79687619Y-51755238D01*
X79687619Y-51717142D01*
X79706666Y-51679047D01*
X79725714Y-51660000D01*
X79763809Y-51640952D01*
X79859047Y-51640952D01*
X79916190Y-51660000D01*
X80220952Y-51831428D02*
X80278095Y-51850476D01*
X80297142Y-51869523D01*
X80316190Y-51907619D01*
X80316190Y-51964761D01*
X80297142Y-52002857D01*
X80278095Y-52021904D01*
X80240000Y-52040952D01*
X80087619Y-52040952D01*
X80087619Y-51640952D01*
X80220952Y-51640952D01*
X80259047Y-51660000D01*
X80278095Y-51679047D01*
X80297142Y-51717142D01*
X80297142Y-51755238D01*
X80278095Y-51793333D01*
X80259047Y-51812380D01*
X80220952Y-51831428D01*
X80087619Y-51831428D01*
X80468571Y-51679047D02*
X80487619Y-51660000D01*
X80525714Y-51640952D01*
X80620952Y-51640952D01*
X80659047Y-51660000D01*
X80678095Y-51679047D01*
X80697142Y-51717142D01*
X80697142Y-51755238D01*
X80678095Y-51812380D01*
X80449523Y-52040952D01*
X80697142Y-52040952D01*
%TO.C,R1_USB1*%
X78440476Y-50080952D02*
X78307142Y-49890476D01*
X78211904Y-50080952D02*
X78211904Y-49680952D01*
X78364285Y-49680952D01*
X78402380Y-49700000D01*
X78421428Y-49719047D01*
X78440476Y-49757142D01*
X78440476Y-49814285D01*
X78421428Y-49852380D01*
X78402380Y-49871428D01*
X78364285Y-49890476D01*
X78211904Y-49890476D01*
X78821428Y-50080952D02*
X78592857Y-50080952D01*
X78707142Y-50080952D02*
X78707142Y-49680952D01*
X78669047Y-49738095D01*
X78630952Y-49776190D01*
X78592857Y-49795238D01*
X78897619Y-50119047D02*
X79202380Y-50119047D01*
X79297619Y-49680952D02*
X79297619Y-50004761D01*
X79316666Y-50042857D01*
X79335714Y-50061904D01*
X79373809Y-50080952D01*
X79450000Y-50080952D01*
X79488095Y-50061904D01*
X79507142Y-50042857D01*
X79526190Y-50004761D01*
X79526190Y-49680952D01*
X79697619Y-50061904D02*
X79754761Y-50080952D01*
X79850000Y-50080952D01*
X79888095Y-50061904D01*
X79907142Y-50042857D01*
X79926190Y-50004761D01*
X79926190Y-49966666D01*
X79907142Y-49928571D01*
X79888095Y-49909523D01*
X79850000Y-49890476D01*
X79773809Y-49871428D01*
X79735714Y-49852380D01*
X79716666Y-49833333D01*
X79697619Y-49795238D01*
X79697619Y-49757142D01*
X79716666Y-49719047D01*
X79735714Y-49700000D01*
X79773809Y-49680952D01*
X79869047Y-49680952D01*
X79926190Y-49700000D01*
X80230952Y-49871428D02*
X80288095Y-49890476D01*
X80307142Y-49909523D01*
X80326190Y-49947619D01*
X80326190Y-50004761D01*
X80307142Y-50042857D01*
X80288095Y-50061904D01*
X80250000Y-50080952D01*
X80097619Y-50080952D01*
X80097619Y-49680952D01*
X80230952Y-49680952D01*
X80269047Y-49700000D01*
X80288095Y-49719047D01*
X80307142Y-49757142D01*
X80307142Y-49795238D01*
X80288095Y-49833333D01*
X80269047Y-49852380D01*
X80230952Y-49871428D01*
X80097619Y-49871428D01*
X80707142Y-50080952D02*
X80478571Y-50080952D01*
X80592857Y-50080952D02*
X80592857Y-49680952D01*
X80554761Y-49738095D01*
X80516666Y-49776190D01*
X80478571Y-49795238D01*
%TO.C,R1_SDA1*%
X79278571Y-60005952D02*
X79145238Y-59815476D01*
X79050000Y-60005952D02*
X79050000Y-59605952D01*
X79202380Y-59605952D01*
X79240476Y-59625000D01*
X79259523Y-59644047D01*
X79278571Y-59682142D01*
X79278571Y-59739285D01*
X79259523Y-59777380D01*
X79240476Y-59796428D01*
X79202380Y-59815476D01*
X79050000Y-59815476D01*
X79659523Y-60005952D02*
X79430952Y-60005952D01*
X79545238Y-60005952D02*
X79545238Y-59605952D01*
X79507142Y-59663095D01*
X79469047Y-59701190D01*
X79430952Y-59720238D01*
X79735714Y-60044047D02*
X80040476Y-60044047D01*
X80116666Y-59986904D02*
X80173809Y-60005952D01*
X80269047Y-60005952D01*
X80307142Y-59986904D01*
X80326190Y-59967857D01*
X80345238Y-59929761D01*
X80345238Y-59891666D01*
X80326190Y-59853571D01*
X80307142Y-59834523D01*
X80269047Y-59815476D01*
X80192857Y-59796428D01*
X80154761Y-59777380D01*
X80135714Y-59758333D01*
X80116666Y-59720238D01*
X80116666Y-59682142D01*
X80135714Y-59644047D01*
X80154761Y-59625000D01*
X80192857Y-59605952D01*
X80288095Y-59605952D01*
X80345238Y-59625000D01*
X80516666Y-60005952D02*
X80516666Y-59605952D01*
X80611904Y-59605952D01*
X80669047Y-59625000D01*
X80707142Y-59663095D01*
X80726190Y-59701190D01*
X80745238Y-59777380D01*
X80745238Y-59834523D01*
X80726190Y-59910714D01*
X80707142Y-59948809D01*
X80669047Y-59986904D01*
X80611904Y-60005952D01*
X80516666Y-60005952D01*
X80897619Y-59891666D02*
X81088095Y-59891666D01*
X80859523Y-60005952D02*
X80992857Y-59605952D01*
X81126190Y-60005952D01*
X81469047Y-60005952D02*
X81240476Y-60005952D01*
X81354761Y-60005952D02*
X81354761Y-59605952D01*
X81316666Y-59663095D01*
X81278571Y-59701190D01*
X81240476Y-59720238D01*
%TO.C,R1_RX1*%
X46275000Y-56730952D02*
X46141666Y-56540476D01*
X46046428Y-56730952D02*
X46046428Y-56330952D01*
X46198809Y-56330952D01*
X46236904Y-56350000D01*
X46255952Y-56369047D01*
X46275000Y-56407142D01*
X46275000Y-56464285D01*
X46255952Y-56502380D01*
X46236904Y-56521428D01*
X46198809Y-56540476D01*
X46046428Y-56540476D01*
X46655952Y-56730952D02*
X46427380Y-56730952D01*
X46541666Y-56730952D02*
X46541666Y-56330952D01*
X46503571Y-56388095D01*
X46465476Y-56426190D01*
X46427380Y-56445238D01*
X46732142Y-56769047D02*
X47036904Y-56769047D01*
X47360714Y-56730952D02*
X47227380Y-56540476D01*
X47132142Y-56730952D02*
X47132142Y-56330952D01*
X47284523Y-56330952D01*
X47322619Y-56350000D01*
X47341666Y-56369047D01*
X47360714Y-56407142D01*
X47360714Y-56464285D01*
X47341666Y-56502380D01*
X47322619Y-56521428D01*
X47284523Y-56540476D01*
X47132142Y-56540476D01*
X47494047Y-56330952D02*
X47760714Y-56730952D01*
X47760714Y-56330952D02*
X47494047Y-56730952D01*
X48122619Y-56730952D02*
X47894047Y-56730952D01*
X48008333Y-56730952D02*
X48008333Y-56330952D01*
X47970238Y-56388095D01*
X47932142Y-56426190D01*
X47894047Y-56445238D01*
%TO.C,R1_RST1*%
X47105952Y-47737380D02*
X46915476Y-47870714D01*
X47105952Y-47965952D02*
X46705952Y-47965952D01*
X46705952Y-47813571D01*
X46725000Y-47775476D01*
X46744047Y-47756428D01*
X46782142Y-47737380D01*
X46839285Y-47737380D01*
X46877380Y-47756428D01*
X46896428Y-47775476D01*
X46915476Y-47813571D01*
X46915476Y-47965952D01*
X47105952Y-47356428D02*
X47105952Y-47585000D01*
X47105952Y-47470714D02*
X46705952Y-47470714D01*
X46763095Y-47508809D01*
X46801190Y-47546904D01*
X46820238Y-47585000D01*
X47144047Y-47280238D02*
X47144047Y-46975476D01*
X47105952Y-46651666D02*
X46915476Y-46785000D01*
X47105952Y-46880238D02*
X46705952Y-46880238D01*
X46705952Y-46727857D01*
X46725000Y-46689761D01*
X46744047Y-46670714D01*
X46782142Y-46651666D01*
X46839285Y-46651666D01*
X46877380Y-46670714D01*
X46896428Y-46689761D01*
X46915476Y-46727857D01*
X46915476Y-46880238D01*
X47086904Y-46499285D02*
X47105952Y-46442142D01*
X47105952Y-46346904D01*
X47086904Y-46308809D01*
X47067857Y-46289761D01*
X47029761Y-46270714D01*
X46991666Y-46270714D01*
X46953571Y-46289761D01*
X46934523Y-46308809D01*
X46915476Y-46346904D01*
X46896428Y-46423095D01*
X46877380Y-46461190D01*
X46858333Y-46480238D01*
X46820238Y-46499285D01*
X46782142Y-46499285D01*
X46744047Y-46480238D01*
X46725000Y-46461190D01*
X46705952Y-46423095D01*
X46705952Y-46327857D01*
X46725000Y-46270714D01*
X46705952Y-46156428D02*
X46705952Y-45927857D01*
X47105952Y-46042142D02*
X46705952Y-46042142D01*
X47105952Y-45585000D02*
X47105952Y-45813571D01*
X47105952Y-45699285D02*
X46705952Y-45699285D01*
X46763095Y-45737380D01*
X46801190Y-45775476D01*
X46820238Y-45813571D01*
%TO.C,R1_PC13*%
X47875000Y-44605952D02*
X47741666Y-44415476D01*
X47646428Y-44605952D02*
X47646428Y-44205952D01*
X47798809Y-44205952D01*
X47836904Y-44225000D01*
X47855952Y-44244047D01*
X47875000Y-44282142D01*
X47875000Y-44339285D01*
X47855952Y-44377380D01*
X47836904Y-44396428D01*
X47798809Y-44415476D01*
X47646428Y-44415476D01*
X48255952Y-44605952D02*
X48027380Y-44605952D01*
X48141666Y-44605952D02*
X48141666Y-44205952D01*
X48103571Y-44263095D01*
X48065476Y-44301190D01*
X48027380Y-44320238D01*
X48332142Y-44644047D02*
X48636904Y-44644047D01*
X48732142Y-44605952D02*
X48732142Y-44205952D01*
X48884523Y-44205952D01*
X48922619Y-44225000D01*
X48941666Y-44244047D01*
X48960714Y-44282142D01*
X48960714Y-44339285D01*
X48941666Y-44377380D01*
X48922619Y-44396428D01*
X48884523Y-44415476D01*
X48732142Y-44415476D01*
X49360714Y-44567857D02*
X49341666Y-44586904D01*
X49284523Y-44605952D01*
X49246428Y-44605952D01*
X49189285Y-44586904D01*
X49151190Y-44548809D01*
X49132142Y-44510714D01*
X49113095Y-44434523D01*
X49113095Y-44377380D01*
X49132142Y-44301190D01*
X49151190Y-44263095D01*
X49189285Y-44225000D01*
X49246428Y-44205952D01*
X49284523Y-44205952D01*
X49341666Y-44225000D01*
X49360714Y-44244047D01*
X49741666Y-44605952D02*
X49513095Y-44605952D01*
X49627380Y-44605952D02*
X49627380Y-44205952D01*
X49589285Y-44263095D01*
X49551190Y-44301190D01*
X49513095Y-44320238D01*
X49875000Y-44205952D02*
X50122619Y-44205952D01*
X49989285Y-44358333D01*
X50046428Y-44358333D01*
X50084523Y-44377380D01*
X50103571Y-44396428D01*
X50122619Y-44434523D01*
X50122619Y-44529761D01*
X50103571Y-44567857D01*
X50084523Y-44586904D01*
X50046428Y-44605952D01*
X49932142Y-44605952D01*
X49894047Y-44586904D01*
X49875000Y-44567857D01*
%TO.C,R1_L1*%
X79378571Y-54360952D02*
X79245238Y-54170476D01*
X79150000Y-54360952D02*
X79150000Y-53960952D01*
X79302380Y-53960952D01*
X79340476Y-53980000D01*
X79359523Y-53999047D01*
X79378571Y-54037142D01*
X79378571Y-54094285D01*
X79359523Y-54132380D01*
X79340476Y-54151428D01*
X79302380Y-54170476D01*
X79150000Y-54170476D01*
X79759523Y-54360952D02*
X79530952Y-54360952D01*
X79645238Y-54360952D02*
X79645238Y-53960952D01*
X79607142Y-54018095D01*
X79569047Y-54056190D01*
X79530952Y-54075238D01*
X79835714Y-54399047D02*
X80140476Y-54399047D01*
X80426190Y-54360952D02*
X80235714Y-54360952D01*
X80235714Y-53960952D01*
X80769047Y-54360952D02*
X80540476Y-54360952D01*
X80654761Y-54360952D02*
X80654761Y-53960952D01*
X80616666Y-54018095D01*
X80578571Y-54056190D01*
X80540476Y-54075238D01*
%TO.C,R1_BOOT1*%
X47155952Y-41355952D02*
X46965476Y-41489285D01*
X47155952Y-41584523D02*
X46755952Y-41584523D01*
X46755952Y-41432142D01*
X46775000Y-41394047D01*
X46794047Y-41375000D01*
X46832142Y-41355952D01*
X46889285Y-41355952D01*
X46927380Y-41375000D01*
X46946428Y-41394047D01*
X46965476Y-41432142D01*
X46965476Y-41584523D01*
X47155952Y-40975000D02*
X47155952Y-41203571D01*
X47155952Y-41089285D02*
X46755952Y-41089285D01*
X46813095Y-41127380D01*
X46851190Y-41165476D01*
X46870238Y-41203571D01*
X47194047Y-40898809D02*
X47194047Y-40594047D01*
X46946428Y-40365476D02*
X46965476Y-40308333D01*
X46984523Y-40289285D01*
X47022619Y-40270238D01*
X47079761Y-40270238D01*
X47117857Y-40289285D01*
X47136904Y-40308333D01*
X47155952Y-40346428D01*
X47155952Y-40498809D01*
X46755952Y-40498809D01*
X46755952Y-40365476D01*
X46775000Y-40327380D01*
X46794047Y-40308333D01*
X46832142Y-40289285D01*
X46870238Y-40289285D01*
X46908333Y-40308333D01*
X46927380Y-40327380D01*
X46946428Y-40365476D01*
X46946428Y-40498809D01*
X46755952Y-40022619D02*
X46755952Y-39946428D01*
X46775000Y-39908333D01*
X46813095Y-39870238D01*
X46889285Y-39851190D01*
X47022619Y-39851190D01*
X47098809Y-39870238D01*
X47136904Y-39908333D01*
X47155952Y-39946428D01*
X47155952Y-40022619D01*
X47136904Y-40060714D01*
X47098809Y-40098809D01*
X47022619Y-40117857D01*
X46889285Y-40117857D01*
X46813095Y-40098809D01*
X46775000Y-40060714D01*
X46755952Y-40022619D01*
X46755952Y-39603571D02*
X46755952Y-39527380D01*
X46775000Y-39489285D01*
X46813095Y-39451190D01*
X46889285Y-39432142D01*
X47022619Y-39432142D01*
X47098809Y-39451190D01*
X47136904Y-39489285D01*
X47155952Y-39527380D01*
X47155952Y-39603571D01*
X47136904Y-39641666D01*
X47098809Y-39679761D01*
X47022619Y-39698809D01*
X46889285Y-39698809D01*
X46813095Y-39679761D01*
X46775000Y-39641666D01*
X46755952Y-39603571D01*
X46755952Y-39317857D02*
X46755952Y-39089285D01*
X47155952Y-39203571D02*
X46755952Y-39203571D01*
X47155952Y-38746428D02*
X47155952Y-38975000D01*
X47155952Y-38860714D02*
X46755952Y-38860714D01*
X46813095Y-38898809D01*
X46851190Y-38936904D01*
X46870238Y-38975000D01*
%TO.C,I2C*%
D15*
X85952380Y-60456190D02*
X84952380Y-60456190D01*
X85047619Y-60027619D02*
X85000000Y-59980000D01*
X84952380Y-59884761D01*
X84952380Y-59646666D01*
X85000000Y-59551428D01*
X85047619Y-59503809D01*
X85142857Y-59456190D01*
X85238095Y-59456190D01*
X85380952Y-59503809D01*
X85952380Y-60075238D01*
X85952380Y-59456190D01*
X85857142Y-58456190D02*
X85904761Y-58503809D01*
X85952380Y-58646666D01*
X85952380Y-58741904D01*
X85904761Y-58884761D01*
X85809523Y-58980000D01*
X85714285Y-59027619D01*
X85523809Y-59075238D01*
X85380952Y-59075238D01*
X85190476Y-59027619D01*
X85095238Y-58980000D01*
X85000000Y-58884761D01*
X84952380Y-58741904D01*
X84952380Y-58646666D01*
X85000000Y-58503809D01*
X85047619Y-58456190D01*
%TO.C,CAN*%
X85567142Y-40782857D02*
X85614761Y-40830476D01*
X85662380Y-40973333D01*
X85662380Y-41068571D01*
X85614761Y-41211428D01*
X85519523Y-41306666D01*
X85424285Y-41354285D01*
X85233809Y-41401904D01*
X85090952Y-41401904D01*
X84900476Y-41354285D01*
X84805238Y-41306666D01*
X84710000Y-41211428D01*
X84662380Y-41068571D01*
X84662380Y-40973333D01*
X84710000Y-40830476D01*
X84757619Y-40782857D01*
X85376666Y-40401904D02*
X85376666Y-39925714D01*
X85662380Y-40497142D02*
X84662380Y-40163809D01*
X85662380Y-39830476D01*
X85662380Y-39497142D02*
X84662380Y-39497142D01*
X85662380Y-38925714D01*
X84662380Y-38925714D01*
%TO.C,USBC*%
X84770476Y-43421904D02*
X84770476Y-44069523D01*
X84808571Y-44145714D01*
X84846666Y-44183809D01*
X84922857Y-44221904D01*
X85075238Y-44221904D01*
X85151428Y-44183809D01*
X85189523Y-44145714D01*
X85227619Y-44069523D01*
X85227619Y-43421904D01*
X85570476Y-44183809D02*
X85684761Y-44221904D01*
X85875238Y-44221904D01*
X85951428Y-44183809D01*
X85989523Y-44145714D01*
X86027619Y-44069523D01*
X86027619Y-43993333D01*
X85989523Y-43917142D01*
X85951428Y-43879047D01*
X85875238Y-43840952D01*
X85722857Y-43802857D01*
X85646666Y-43764761D01*
X85608571Y-43726666D01*
X85570476Y-43650476D01*
X85570476Y-43574285D01*
X85608571Y-43498095D01*
X85646666Y-43460000D01*
X85722857Y-43421904D01*
X85913333Y-43421904D01*
X86027619Y-43460000D01*
X86637142Y-43802857D02*
X86751428Y-43840952D01*
X86789523Y-43879047D01*
X86827619Y-43955238D01*
X86827619Y-44069523D01*
X86789523Y-44145714D01*
X86751428Y-44183809D01*
X86675238Y-44221904D01*
X86370476Y-44221904D01*
X86370476Y-43421904D01*
X86637142Y-43421904D01*
X86713333Y-43460000D01*
X86751428Y-43498095D01*
X86789523Y-43574285D01*
X86789523Y-43650476D01*
X86751428Y-43726666D01*
X86713333Y-43764761D01*
X86637142Y-43802857D01*
X86370476Y-43802857D01*
X87627619Y-44145714D02*
X87589523Y-44183809D01*
X87475238Y-44221904D01*
X87399047Y-44221904D01*
X87284761Y-44183809D01*
X87208571Y-44107619D01*
X87170476Y-44031428D01*
X87132380Y-43879047D01*
X87132380Y-43764761D01*
X87170476Y-43612380D01*
X87208571Y-43536190D01*
X87284761Y-43460000D01*
X87399047Y-43421904D01*
X87475238Y-43421904D01*
X87589523Y-43460000D01*
X87627619Y-43498095D01*
%TO.C,ESD*%
D11*
X77251428Y-47566190D02*
X77251428Y-47432857D01*
X77460952Y-47375714D02*
X77460952Y-47566190D01*
X77060952Y-47566190D01*
X77060952Y-47375714D01*
X77441904Y-47223333D02*
X77460952Y-47166190D01*
X77460952Y-47070952D01*
X77441904Y-47032857D01*
X77422857Y-47013809D01*
X77384761Y-46994761D01*
X77346666Y-46994761D01*
X77308571Y-47013809D01*
X77289523Y-47032857D01*
X77270476Y-47070952D01*
X77251428Y-47147142D01*
X77232380Y-47185238D01*
X77213333Y-47204285D01*
X77175238Y-47223333D01*
X77137142Y-47223333D01*
X77099047Y-47204285D01*
X77080000Y-47185238D01*
X77060952Y-47147142D01*
X77060952Y-47051904D01*
X77080000Y-46994761D01*
X77460952Y-46823333D02*
X77060952Y-46823333D01*
X77060952Y-46728095D01*
X77080000Y-46670952D01*
X77118095Y-46632857D01*
X77156190Y-46613809D01*
X77232380Y-46594761D01*
X77289523Y-46594761D01*
X77365714Y-46613809D01*
X77403809Y-46632857D01*
X77441904Y-46670952D01*
X77460952Y-46728095D01*
X77460952Y-46823333D01*
%TO.C,LED*%
X48267857Y-43280952D02*
X48077380Y-43280952D01*
X48077380Y-42880952D01*
X48401190Y-43071428D02*
X48534523Y-43071428D01*
X48591666Y-43280952D02*
X48401190Y-43280952D01*
X48401190Y-42880952D01*
X48591666Y-42880952D01*
X48763095Y-43280952D02*
X48763095Y-42880952D01*
X48858333Y-42880952D01*
X48915476Y-42900000D01*
X48953571Y-42938095D01*
X48972619Y-42976190D01*
X48991666Y-43052380D01*
X48991666Y-43109523D01*
X48972619Y-43185714D01*
X48953571Y-43223809D01*
X48915476Y-43261904D01*
X48858333Y-43280952D01*
X48763095Y-43280952D01*
%TO.C,TX*%
X44045238Y-52805952D02*
X44273809Y-52805952D01*
X44159523Y-53205952D02*
X44159523Y-52805952D01*
X44369047Y-52805952D02*
X44635714Y-53205952D01*
X44635714Y-52805952D02*
X44369047Y-53205952D01*
%TO.C,RX*%
X44308333Y-54780952D02*
X44175000Y-54590476D01*
X44079761Y-54780952D02*
X44079761Y-54380952D01*
X44232142Y-54380952D01*
X44270238Y-54400000D01*
X44289285Y-54419047D01*
X44308333Y-54457142D01*
X44308333Y-54514285D01*
X44289285Y-54552380D01*
X44270238Y-54571428D01*
X44232142Y-54590476D01*
X44079761Y-54590476D01*
X44441666Y-54380952D02*
X44708333Y-54780952D01*
X44708333Y-54380952D02*
X44441666Y-54780952D01*
%TO.C,D1*%
X79654761Y-55670952D02*
X79654761Y-55270952D01*
X79750000Y-55270952D01*
X79807142Y-55290000D01*
X79845238Y-55328095D01*
X79864285Y-55366190D01*
X79883333Y-55442380D01*
X79883333Y-55499523D01*
X79864285Y-55575714D01*
X79845238Y-55613809D01*
X79807142Y-55651904D01*
X79750000Y-55670952D01*
X79654761Y-55670952D01*
X80264285Y-55670952D02*
X80035714Y-55670952D01*
X80150000Y-55670952D02*
X80150000Y-55270952D01*
X80111904Y-55328095D01*
X80073809Y-55366190D01*
X80035714Y-55385238D01*
%TO.C,C7_ST2*%
X52297619Y-39792857D02*
X52278571Y-39811904D01*
X52221428Y-39830952D01*
X52183333Y-39830952D01*
X52126190Y-39811904D01*
X52088095Y-39773809D01*
X52069047Y-39735714D01*
X52050000Y-39659523D01*
X52050000Y-39602380D01*
X52069047Y-39526190D01*
X52088095Y-39488095D01*
X52126190Y-39450000D01*
X52183333Y-39430952D01*
X52221428Y-39430952D01*
X52278571Y-39450000D01*
X52297619Y-39469047D01*
X52430952Y-39430952D02*
X52697619Y-39430952D01*
X52526190Y-39830952D01*
X52754761Y-39869047D02*
X53059523Y-39869047D01*
X53135714Y-39811904D02*
X53192857Y-39830952D01*
X53288095Y-39830952D01*
X53326190Y-39811904D01*
X53345238Y-39792857D01*
X53364285Y-39754761D01*
X53364285Y-39716666D01*
X53345238Y-39678571D01*
X53326190Y-39659523D01*
X53288095Y-39640476D01*
X53211904Y-39621428D01*
X53173809Y-39602380D01*
X53154761Y-39583333D01*
X53135714Y-39545238D01*
X53135714Y-39507142D01*
X53154761Y-39469047D01*
X53173809Y-39450000D01*
X53211904Y-39430952D01*
X53307142Y-39430952D01*
X53364285Y-39450000D01*
X53478571Y-39430952D02*
X53707142Y-39430952D01*
X53592857Y-39830952D02*
X53592857Y-39430952D01*
X53821428Y-39469047D02*
X53840476Y-39450000D01*
X53878571Y-39430952D01*
X53973809Y-39430952D01*
X54011904Y-39450000D01*
X54030952Y-39469047D01*
X54050000Y-39507142D01*
X54050000Y-39545238D01*
X54030952Y-39602380D01*
X53802380Y-39830952D01*
X54050000Y-39830952D01*
%TO.C,C7_ST1*%
X74172619Y-42442857D02*
X74153571Y-42461904D01*
X74096428Y-42480952D01*
X74058333Y-42480952D01*
X74001190Y-42461904D01*
X73963095Y-42423809D01*
X73944047Y-42385714D01*
X73925000Y-42309523D01*
X73925000Y-42252380D01*
X73944047Y-42176190D01*
X73963095Y-42138095D01*
X74001190Y-42100000D01*
X74058333Y-42080952D01*
X74096428Y-42080952D01*
X74153571Y-42100000D01*
X74172619Y-42119047D01*
X74305952Y-42080952D02*
X74572619Y-42080952D01*
X74401190Y-42480952D01*
X74629761Y-42519047D02*
X74934523Y-42519047D01*
X75010714Y-42461904D02*
X75067857Y-42480952D01*
X75163095Y-42480952D01*
X75201190Y-42461904D01*
X75220238Y-42442857D01*
X75239285Y-42404761D01*
X75239285Y-42366666D01*
X75220238Y-42328571D01*
X75201190Y-42309523D01*
X75163095Y-42290476D01*
X75086904Y-42271428D01*
X75048809Y-42252380D01*
X75029761Y-42233333D01*
X75010714Y-42195238D01*
X75010714Y-42157142D01*
X75029761Y-42119047D01*
X75048809Y-42100000D01*
X75086904Y-42080952D01*
X75182142Y-42080952D01*
X75239285Y-42100000D01*
X75353571Y-42080952D02*
X75582142Y-42080952D01*
X75467857Y-42480952D02*
X75467857Y-42080952D01*
X75925000Y-42480952D02*
X75696428Y-42480952D01*
X75810714Y-42480952D02*
X75810714Y-42080952D01*
X75772619Y-42138095D01*
X75734523Y-42176190D01*
X75696428Y-42195238D01*
%TO.C,C6_ST1*%
X48372619Y-45492857D02*
X48353571Y-45511904D01*
X48296428Y-45530952D01*
X48258333Y-45530952D01*
X48201190Y-45511904D01*
X48163095Y-45473809D01*
X48144047Y-45435714D01*
X48125000Y-45359523D01*
X48125000Y-45302380D01*
X48144047Y-45226190D01*
X48163095Y-45188095D01*
X48201190Y-45150000D01*
X48258333Y-45130952D01*
X48296428Y-45130952D01*
X48353571Y-45150000D01*
X48372619Y-45169047D01*
X48715476Y-45130952D02*
X48639285Y-45130952D01*
X48601190Y-45150000D01*
X48582142Y-45169047D01*
X48544047Y-45226190D01*
X48525000Y-45302380D01*
X48525000Y-45454761D01*
X48544047Y-45492857D01*
X48563095Y-45511904D01*
X48601190Y-45530952D01*
X48677380Y-45530952D01*
X48715476Y-45511904D01*
X48734523Y-45492857D01*
X48753571Y-45454761D01*
X48753571Y-45359523D01*
X48734523Y-45321428D01*
X48715476Y-45302380D01*
X48677380Y-45283333D01*
X48601190Y-45283333D01*
X48563095Y-45302380D01*
X48544047Y-45321428D01*
X48525000Y-45359523D01*
X48829761Y-45569047D02*
X49134523Y-45569047D01*
X49210714Y-45511904D02*
X49267857Y-45530952D01*
X49363095Y-45530952D01*
X49401190Y-45511904D01*
X49420238Y-45492857D01*
X49439285Y-45454761D01*
X49439285Y-45416666D01*
X49420238Y-45378571D01*
X49401190Y-45359523D01*
X49363095Y-45340476D01*
X49286904Y-45321428D01*
X49248809Y-45302380D01*
X49229761Y-45283333D01*
X49210714Y-45245238D01*
X49210714Y-45207142D01*
X49229761Y-45169047D01*
X49248809Y-45150000D01*
X49286904Y-45130952D01*
X49382142Y-45130952D01*
X49439285Y-45150000D01*
X49553571Y-45130952D02*
X49782142Y-45130952D01*
X49667857Y-45530952D02*
X49667857Y-45130952D01*
X50125000Y-45530952D02*
X49896428Y-45530952D01*
X50010714Y-45530952D02*
X50010714Y-45130952D01*
X49972619Y-45188095D01*
X49934523Y-45226190D01*
X49896428Y-45245238D01*
%TO.C,C5_ST1*%
X48397619Y-46517857D02*
X48378571Y-46536904D01*
X48321428Y-46555952D01*
X48283333Y-46555952D01*
X48226190Y-46536904D01*
X48188095Y-46498809D01*
X48169047Y-46460714D01*
X48150000Y-46384523D01*
X48150000Y-46327380D01*
X48169047Y-46251190D01*
X48188095Y-46213095D01*
X48226190Y-46175000D01*
X48283333Y-46155952D01*
X48321428Y-46155952D01*
X48378571Y-46175000D01*
X48397619Y-46194047D01*
X48759523Y-46155952D02*
X48569047Y-46155952D01*
X48550000Y-46346428D01*
X48569047Y-46327380D01*
X48607142Y-46308333D01*
X48702380Y-46308333D01*
X48740476Y-46327380D01*
X48759523Y-46346428D01*
X48778571Y-46384523D01*
X48778571Y-46479761D01*
X48759523Y-46517857D01*
X48740476Y-46536904D01*
X48702380Y-46555952D01*
X48607142Y-46555952D01*
X48569047Y-46536904D01*
X48550000Y-46517857D01*
X48854761Y-46594047D02*
X49159523Y-46594047D01*
X49235714Y-46536904D02*
X49292857Y-46555952D01*
X49388095Y-46555952D01*
X49426190Y-46536904D01*
X49445238Y-46517857D01*
X49464285Y-46479761D01*
X49464285Y-46441666D01*
X49445238Y-46403571D01*
X49426190Y-46384523D01*
X49388095Y-46365476D01*
X49311904Y-46346428D01*
X49273809Y-46327380D01*
X49254761Y-46308333D01*
X49235714Y-46270238D01*
X49235714Y-46232142D01*
X49254761Y-46194047D01*
X49273809Y-46175000D01*
X49311904Y-46155952D01*
X49407142Y-46155952D01*
X49464285Y-46175000D01*
X49578571Y-46155952D02*
X49807142Y-46155952D01*
X49692857Y-46555952D02*
X49692857Y-46155952D01*
X50150000Y-46555952D02*
X49921428Y-46555952D01*
X50035714Y-46555952D02*
X50035714Y-46155952D01*
X49997619Y-46213095D01*
X49959523Y-46251190D01*
X49921428Y-46270238D01*
%TO.C,C2_ST1*%
X51522619Y-60092857D02*
X51503571Y-60111904D01*
X51446428Y-60130952D01*
X51408333Y-60130952D01*
X51351190Y-60111904D01*
X51313095Y-60073809D01*
X51294047Y-60035714D01*
X51275000Y-59959523D01*
X51275000Y-59902380D01*
X51294047Y-59826190D01*
X51313095Y-59788095D01*
X51351190Y-59750000D01*
X51408333Y-59730952D01*
X51446428Y-59730952D01*
X51503571Y-59750000D01*
X51522619Y-59769047D01*
X51675000Y-59769047D02*
X51694047Y-59750000D01*
X51732142Y-59730952D01*
X51827380Y-59730952D01*
X51865476Y-59750000D01*
X51884523Y-59769047D01*
X51903571Y-59807142D01*
X51903571Y-59845238D01*
X51884523Y-59902380D01*
X51655952Y-60130952D01*
X51903571Y-60130952D01*
X51979761Y-60169047D02*
X52284523Y-60169047D01*
X52360714Y-60111904D02*
X52417857Y-60130952D01*
X52513095Y-60130952D01*
X52551190Y-60111904D01*
X52570238Y-60092857D01*
X52589285Y-60054761D01*
X52589285Y-60016666D01*
X52570238Y-59978571D01*
X52551190Y-59959523D01*
X52513095Y-59940476D01*
X52436904Y-59921428D01*
X52398809Y-59902380D01*
X52379761Y-59883333D01*
X52360714Y-59845238D01*
X52360714Y-59807142D01*
X52379761Y-59769047D01*
X52398809Y-59750000D01*
X52436904Y-59730952D01*
X52532142Y-59730952D01*
X52589285Y-59750000D01*
X52703571Y-59730952D02*
X52932142Y-59730952D01*
X52817857Y-60130952D02*
X52817857Y-59730952D01*
X53275000Y-60130952D02*
X53046428Y-60130952D01*
X53160714Y-60130952D02*
X53160714Y-59730952D01*
X53122619Y-59788095D01*
X53084523Y-59826190D01*
X53046428Y-59845238D01*
%TO.C,C1_VCAP2*%
X74877619Y-46067857D02*
X74858571Y-46086904D01*
X74801428Y-46105952D01*
X74763333Y-46105952D01*
X74706190Y-46086904D01*
X74668095Y-46048809D01*
X74649047Y-46010714D01*
X74630000Y-45934523D01*
X74630000Y-45877380D01*
X74649047Y-45801190D01*
X74668095Y-45763095D01*
X74706190Y-45725000D01*
X74763333Y-45705952D01*
X74801428Y-45705952D01*
X74858571Y-45725000D01*
X74877619Y-45744047D01*
X75258571Y-46105952D02*
X75030000Y-46105952D01*
X75144285Y-46105952D02*
X75144285Y-45705952D01*
X75106190Y-45763095D01*
X75068095Y-45801190D01*
X75030000Y-45820238D01*
X75334761Y-46144047D02*
X75639523Y-46144047D01*
X75677619Y-45705952D02*
X75810952Y-46105952D01*
X75944285Y-45705952D01*
X76306190Y-46067857D02*
X76287142Y-46086904D01*
X76230000Y-46105952D01*
X76191904Y-46105952D01*
X76134761Y-46086904D01*
X76096666Y-46048809D01*
X76077619Y-46010714D01*
X76058571Y-45934523D01*
X76058571Y-45877380D01*
X76077619Y-45801190D01*
X76096666Y-45763095D01*
X76134761Y-45725000D01*
X76191904Y-45705952D01*
X76230000Y-45705952D01*
X76287142Y-45725000D01*
X76306190Y-45744047D01*
X76458571Y-45991666D02*
X76649047Y-45991666D01*
X76420476Y-46105952D02*
X76553809Y-45705952D01*
X76687142Y-46105952D01*
X76820476Y-46105952D02*
X76820476Y-45705952D01*
X76972857Y-45705952D01*
X77010952Y-45725000D01*
X77030000Y-45744047D01*
X77049047Y-45782142D01*
X77049047Y-45839285D01*
X77030000Y-45877380D01*
X77010952Y-45896428D01*
X76972857Y-45915476D01*
X76820476Y-45915476D01*
X77201428Y-45744047D02*
X77220476Y-45725000D01*
X77258571Y-45705952D01*
X77353809Y-45705952D01*
X77391904Y-45725000D01*
X77410952Y-45744047D01*
X77430000Y-45782142D01*
X77430000Y-45820238D01*
X77410952Y-45877380D01*
X77182380Y-46105952D01*
X77430000Y-46105952D01*
%TO.C,C1_VCAP1*%
X66512619Y-60237857D02*
X66493571Y-60256904D01*
X66436428Y-60275952D01*
X66398333Y-60275952D01*
X66341190Y-60256904D01*
X66303095Y-60218809D01*
X66284047Y-60180714D01*
X66265000Y-60104523D01*
X66265000Y-60047380D01*
X66284047Y-59971190D01*
X66303095Y-59933095D01*
X66341190Y-59895000D01*
X66398333Y-59875952D01*
X66436428Y-59875952D01*
X66493571Y-59895000D01*
X66512619Y-59914047D01*
X66893571Y-60275952D02*
X66665000Y-60275952D01*
X66779285Y-60275952D02*
X66779285Y-59875952D01*
X66741190Y-59933095D01*
X66703095Y-59971190D01*
X66665000Y-59990238D01*
X66969761Y-60314047D02*
X67274523Y-60314047D01*
X67312619Y-59875952D02*
X67445952Y-60275952D01*
X67579285Y-59875952D01*
X67941190Y-60237857D02*
X67922142Y-60256904D01*
X67865000Y-60275952D01*
X67826904Y-60275952D01*
X67769761Y-60256904D01*
X67731666Y-60218809D01*
X67712619Y-60180714D01*
X67693571Y-60104523D01*
X67693571Y-60047380D01*
X67712619Y-59971190D01*
X67731666Y-59933095D01*
X67769761Y-59895000D01*
X67826904Y-59875952D01*
X67865000Y-59875952D01*
X67922142Y-59895000D01*
X67941190Y-59914047D01*
X68093571Y-60161666D02*
X68284047Y-60161666D01*
X68055476Y-60275952D02*
X68188809Y-59875952D01*
X68322142Y-60275952D01*
X68455476Y-60275952D02*
X68455476Y-59875952D01*
X68607857Y-59875952D01*
X68645952Y-59895000D01*
X68665000Y-59914047D01*
X68684047Y-59952142D01*
X68684047Y-60009285D01*
X68665000Y-60047380D01*
X68645952Y-60066428D01*
X68607857Y-60085476D01*
X68455476Y-60085476D01*
X69065000Y-60275952D02*
X68836428Y-60275952D01*
X68950714Y-60275952D02*
X68950714Y-59875952D01*
X68912619Y-59933095D01*
X68874523Y-59971190D01*
X68836428Y-59990238D01*
%TO.C,C1_ST1*%
X73167857Y-60502380D02*
X73186904Y-60521428D01*
X73205952Y-60578571D01*
X73205952Y-60616666D01*
X73186904Y-60673809D01*
X73148809Y-60711904D01*
X73110714Y-60730952D01*
X73034523Y-60750000D01*
X72977380Y-60750000D01*
X72901190Y-60730952D01*
X72863095Y-60711904D01*
X72825000Y-60673809D01*
X72805952Y-60616666D01*
X72805952Y-60578571D01*
X72825000Y-60521428D01*
X72844047Y-60502380D01*
X73205952Y-60121428D02*
X73205952Y-60350000D01*
X73205952Y-60235714D02*
X72805952Y-60235714D01*
X72863095Y-60273809D01*
X72901190Y-60311904D01*
X72920238Y-60350000D01*
X73244047Y-60045238D02*
X73244047Y-59740476D01*
X73186904Y-59664285D02*
X73205952Y-59607142D01*
X73205952Y-59511904D01*
X73186904Y-59473809D01*
X73167857Y-59454761D01*
X73129761Y-59435714D01*
X73091666Y-59435714D01*
X73053571Y-59454761D01*
X73034523Y-59473809D01*
X73015476Y-59511904D01*
X72996428Y-59588095D01*
X72977380Y-59626190D01*
X72958333Y-59645238D01*
X72920238Y-59664285D01*
X72882142Y-59664285D01*
X72844047Y-59645238D01*
X72825000Y-59626190D01*
X72805952Y-59588095D01*
X72805952Y-59492857D01*
X72825000Y-59435714D01*
X72805952Y-59321428D02*
X72805952Y-59092857D01*
X73205952Y-59207142D02*
X72805952Y-59207142D01*
X73205952Y-58750000D02*
X73205952Y-58978571D01*
X73205952Y-58864285D02*
X72805952Y-58864285D01*
X72863095Y-58902380D01*
X72901190Y-58940476D01*
X72920238Y-58978571D01*
%TO.C,RESET*%
X43538095Y-46336904D02*
X43271428Y-45955952D01*
X43080952Y-46336904D02*
X43080952Y-45536904D01*
X43385714Y-45536904D01*
X43461904Y-45575000D01*
X43500000Y-45613095D01*
X43538095Y-45689285D01*
X43538095Y-45803571D01*
X43500000Y-45879761D01*
X43461904Y-45917857D01*
X43385714Y-45955952D01*
X43080952Y-45955952D01*
X43880952Y-45917857D02*
X44147619Y-45917857D01*
X44261904Y-46336904D02*
X43880952Y-46336904D01*
X43880952Y-45536904D01*
X44261904Y-45536904D01*
X44566666Y-46298809D02*
X44680952Y-46336904D01*
X44871428Y-46336904D01*
X44947619Y-46298809D01*
X44985714Y-46260714D01*
X45023809Y-46184523D01*
X45023809Y-46108333D01*
X44985714Y-46032142D01*
X44947619Y-45994047D01*
X44871428Y-45955952D01*
X44719047Y-45917857D01*
X44642857Y-45879761D01*
X44604761Y-45841666D01*
X44566666Y-45765476D01*
X44566666Y-45689285D01*
X44604761Y-45613095D01*
X44642857Y-45575000D01*
X44719047Y-45536904D01*
X44909523Y-45536904D01*
X45023809Y-45575000D01*
X45366666Y-45917857D02*
X45633333Y-45917857D01*
X45747619Y-46336904D02*
X45366666Y-46336904D01*
X45366666Y-45536904D01*
X45747619Y-45536904D01*
X45976190Y-45536904D02*
X46433333Y-45536904D01*
X46204761Y-46336904D02*
X46204761Y-45536904D01*
%TO.C,BOOT*%
X43364285Y-42167857D02*
X43478571Y-42205952D01*
X43516666Y-42244047D01*
X43554761Y-42320238D01*
X43554761Y-42434523D01*
X43516666Y-42510714D01*
X43478571Y-42548809D01*
X43402380Y-42586904D01*
X43097619Y-42586904D01*
X43097619Y-41786904D01*
X43364285Y-41786904D01*
X43440476Y-41825000D01*
X43478571Y-41863095D01*
X43516666Y-41939285D01*
X43516666Y-42015476D01*
X43478571Y-42091666D01*
X43440476Y-42129761D01*
X43364285Y-42167857D01*
X43097619Y-42167857D01*
X44050000Y-41786904D02*
X44202380Y-41786904D01*
X44278571Y-41825000D01*
X44354761Y-41901190D01*
X44392857Y-42053571D01*
X44392857Y-42320238D01*
X44354761Y-42472619D01*
X44278571Y-42548809D01*
X44202380Y-42586904D01*
X44050000Y-42586904D01*
X43973809Y-42548809D01*
X43897619Y-42472619D01*
X43859523Y-42320238D01*
X43859523Y-42053571D01*
X43897619Y-41901190D01*
X43973809Y-41825000D01*
X44050000Y-41786904D01*
X44888095Y-41786904D02*
X45040476Y-41786904D01*
X45116666Y-41825000D01*
X45192857Y-41901190D01*
X45230952Y-42053571D01*
X45230952Y-42320238D01*
X45192857Y-42472619D01*
X45116666Y-42548809D01*
X45040476Y-42586904D01*
X44888095Y-42586904D01*
X44811904Y-42548809D01*
X44735714Y-42472619D01*
X44697619Y-42320238D01*
X44697619Y-42053571D01*
X44735714Y-41901190D01*
X44811904Y-41825000D01*
X44888095Y-41786904D01*
X45459523Y-41786904D02*
X45916666Y-41786904D01*
X45688095Y-42586904D02*
X45688095Y-41786904D01*
%TD*%
M02*
