%TF.GenerationSoftware,KiCad,Pcbnew,(5.1.6)-1*%
%TF.CreationDate,2020-08-08T14:22:08+05:30*%
%TF.ProjectId,F745_DISC,46373435-5f44-4495-9343-2e6b69636164,rev?*%
%TF.SameCoordinates,Original*%
%TF.FileFunction,Copper,L2,Bot*%
%TF.FilePolarity,Positive*%
%FSLAX46Y46*%
G04 Gerber Fmt 4.6, Leading zero omitted, Abs format (unit mm)*
G04 Created by KiCad (PCBNEW (5.1.6)-1) date 2020-08-08 14:22:08*
%MOMM*%
%LPD*%
G01*
G04 APERTURE LIST*
%TA.AperFunction,ComponentPad*%
%ADD10O,1.000000X1.000000*%
%TD*%
%TA.AperFunction,ComponentPad*%
%ADD11R,1.000000X1.000000*%
%TD*%
%TA.AperFunction,ComponentPad*%
%ADD12O,1.700000X1.700000*%
%TD*%
%TA.AperFunction,ComponentPad*%
%ADD13R,1.700000X1.700000*%
%TD*%
%TA.AperFunction,SMDPad,CuDef*%
%ADD14R,2.000000X1.500000*%
%TD*%
%TA.AperFunction,SMDPad,CuDef*%
%ADD15R,2.000000X3.800000*%
%TD*%
%TA.AperFunction,ComponentPad*%
%ADD16O,1.600000X1.000000*%
%TD*%
%TA.AperFunction,ComponentPad*%
%ADD17O,2.100000X1.000000*%
%TD*%
%TA.AperFunction,SMDPad,CuDef*%
%ADD18R,1.550000X1.000000*%
%TD*%
%TA.AperFunction,SMDPad,CuDef*%
%ADD19R,1.500000X1.500000*%
%TD*%
%TA.AperFunction,SMDPad,CuDef*%
%ADD20R,1.750000X0.700000*%
%TD*%
%TA.AperFunction,SMDPad,CuDef*%
%ADD21R,1.400000X0.800000*%
%TD*%
%TA.AperFunction,SMDPad,CuDef*%
%ADD22R,1.000000X1.450000*%
%TD*%
%TA.AperFunction,SMDPad,CuDef*%
%ADD23R,1.500000X0.800000*%
%TD*%
%TA.AperFunction,SMDPad,CuDef*%
%ADD24R,1.500000X1.300000*%
%TD*%
%TA.AperFunction,ComponentPad*%
%ADD25C,0.800000*%
%TD*%
%TA.AperFunction,ComponentPad*%
%ADD26C,6.400000*%
%TD*%
%TA.AperFunction,ViaPad*%
%ADD27C,0.800000*%
%TD*%
%TA.AperFunction,Conductor*%
%ADD28C,0.250000*%
%TD*%
%TA.AperFunction,Conductor*%
%ADD29C,0.254000*%
%TD*%
G04 APERTURE END LIST*
D10*
%TO.P,SPI,4*%
%TO.N,MOSI*%
X42450000Y-59430000D03*
%TO.P,SPI,3*%
%TO.N,MISO*%
X41180000Y-59430000D03*
%TO.P,SPI,2*%
%TO.N,SCK*%
X39910000Y-59430000D03*
D11*
%TO.P,SPI,1*%
%TO.N,NSS*%
X38640000Y-59430000D03*
%TD*%
D10*
%TO.P,SWD,4*%
%TO.N,GND*%
X42450000Y-56290000D03*
%TO.P,SWD,3*%
%TO.N,BOOT*%
X41180000Y-56290000D03*
%TO.P,SWD,2*%
%TO.N,SWCLK*%
X39910000Y-56290000D03*
D11*
%TO.P,SWD,1*%
%TO.N,SWDIO*%
X38640000Y-56290000D03*
%TD*%
D10*
%TO.P,UART,4*%
%TO.N,GND*%
X42450000Y-53150000D03*
%TO.P,UART,3*%
%TO.N,5V_IN*%
X41180000Y-53150000D03*
%TO.P,UART,2*%
%TO.N,RX*%
X39910000Y-53150000D03*
D11*
%TO.P,UART,1*%
%TO.N,TX*%
X38640000Y-53150000D03*
%TD*%
D12*
%TO.P,J4,32*%
%TO.N,GND*%
X82630000Y-64910000D03*
%TO.P,J4,31*%
%TO.N,BOOT*%
X82630000Y-67450000D03*
%TO.P,J4,30*%
%TO.N,PB11*%
X80090000Y-64910000D03*
%TO.P,J4,29*%
%TO.N,5V_IN*%
X80090000Y-67450000D03*
%TO.P,J4,28*%
%TO.N,PE15*%
X77550000Y-64910000D03*
%TO.P,J4,27*%
%TO.N,PB10*%
X77550000Y-67450000D03*
%TO.P,J4,26*%
%TO.N,PE13*%
X75010000Y-64910000D03*
%TO.P,J4,25*%
%TO.N,PE14*%
X75010000Y-67450000D03*
%TO.P,J4,24*%
%TO.N,PE11*%
X72470000Y-64910000D03*
%TO.P,J4,23*%
%TO.N,PE12*%
X72470000Y-67450000D03*
%TO.P,J4,22*%
%TO.N,PE9*%
X69930000Y-64910000D03*
%TO.P,J4,21*%
%TO.N,PE10*%
X69930000Y-67450000D03*
%TO.P,J4,20*%
%TO.N,PE7*%
X67390000Y-64910000D03*
%TO.P,J4,19*%
%TO.N,PE8*%
X67390000Y-67450000D03*
%TO.P,J4,18*%
%TO.N,PB1*%
X64850000Y-64910000D03*
%TO.P,J4,17*%
%TO.N,PB2*%
X64850000Y-67450000D03*
%TO.P,J4,16*%
%TO.N,PC5*%
X62310000Y-64910000D03*
%TO.P,J4,15*%
%TO.N,PB0*%
X62310000Y-67450000D03*
%TO.P,J4,14*%
%TO.N,PA3*%
X59770000Y-64910000D03*
%TO.P,J4,13*%
%TO.N,PC4*%
X59770000Y-67450000D03*
%TO.P,J4,12*%
%TO.N,PA1*%
X57230000Y-64910000D03*
%TO.P,J4,11*%
%TO.N,PA2*%
X57230000Y-67450000D03*
%TO.P,J4,10*%
%TO.N,PC3*%
X54690000Y-64910000D03*
%TO.P,J4,9*%
%TO.N,PA0*%
X54690000Y-67450000D03*
%TO.P,J4,8*%
%TO.N,PC1*%
X52150000Y-64910000D03*
%TO.P,J4,7*%
%TO.N,PC2*%
X52150000Y-67450000D03*
%TO.P,J4,6*%
%TO.N,PC15*%
X49610000Y-64910000D03*
%TO.P,J4,5*%
%TO.N,PC0*%
X49610000Y-67450000D03*
%TO.P,J4,4*%
%TO.N,PE3*%
X47070000Y-64910000D03*
%TO.P,J4,3*%
%TO.N,PC14*%
X47070000Y-67450000D03*
%TO.P,J4,2*%
%TO.N,PE0*%
X44530000Y-64910000D03*
D13*
%TO.P,J4,1*%
%TO.N,PE1*%
X44530000Y-67450000D03*
%TD*%
D12*
%TO.P,J3,32*%
%TO.N,PB13*%
X82580000Y-32740000D03*
%TO.P,J3,31*%
%TO.N,PB12*%
X82580000Y-35280000D03*
%TO.P,J3,30*%
%TO.N,PB15*%
X80040000Y-32740000D03*
%TO.P,J3,29*%
%TO.N,PB14*%
X80040000Y-35280000D03*
%TO.P,J3,28*%
%TO.N,PD9*%
X77500000Y-32740000D03*
%TO.P,J3,27*%
%TO.N,PD8*%
X77500000Y-35280000D03*
%TO.P,J3,26*%
%TO.N,PD11*%
X74960000Y-32740000D03*
%TO.P,J3,25*%
%TO.N,PD10*%
X74960000Y-35280000D03*
%TO.P,J3,24*%
%TO.N,PD13*%
X72420000Y-32740000D03*
%TO.P,J3,23*%
%TO.N,PD12*%
X72420000Y-35280000D03*
%TO.P,J3,22*%
%TO.N,PD3*%
X69880000Y-32740000D03*
%TO.P,J3,21*%
%TO.N,PD2*%
X69880000Y-35280000D03*
%TO.P,J3,20*%
%TO.N,PD5*%
X67340000Y-32740000D03*
%TO.P,J3,19*%
%TO.N,PD4*%
X67340000Y-35280000D03*
%TO.P,J3,18*%
%TO.N,PC9*%
X64800000Y-32740000D03*
%TO.P,J3,17*%
%TO.N,PB5*%
X64800000Y-35280000D03*
%TO.P,J3,16*%
%TO.N,PA8*%
X62260000Y-32740000D03*
%TO.P,J3,15*%
%TO.N,N/C*%
X62260000Y-35280000D03*
%TO.P,J3,14*%
%TO.N,GND*%
X59720000Y-32740000D03*
%TO.P,J3,13*%
%TO.N,PC11*%
X59720000Y-35280000D03*
%TO.P,J3,12*%
%TO.N,GND*%
X57180000Y-32740000D03*
%TO.P,J3,11*%
%TO.N,PD6*%
X57180000Y-35280000D03*
%TO.P,J3,10*%
%TO.N,GND*%
X54640000Y-32740000D03*
%TO.P,J3,9*%
X54640000Y-35280000D03*
%TO.P,J3,8*%
X52100000Y-32740000D03*
%TO.P,J3,7*%
X52100000Y-35280000D03*
%TO.P,J3,6*%
X49560000Y-32740000D03*
%TO.P,J3,5*%
X49560000Y-35280000D03*
%TO.P,J3,4*%
%TO.N,BOOT*%
X47020000Y-32740000D03*
%TO.P,J3,3*%
%TO.N,GND*%
X47020000Y-35280000D03*
%TO.P,J3,2*%
X44480000Y-32740000D03*
D13*
%TO.P,J3,1*%
%TO.N,5V_IN*%
X44480000Y-35280000D03*
%TD*%
D14*
%TO.P,3.3 VREG,1*%
%TO.N,GND*%
X75560000Y-52150000D03*
%TO.P,3.3 VREG,3*%
%TO.N,5V_IN*%
X75560000Y-47550000D03*
%TO.P,3.3 VREG,2*%
%TO.N,BOOT*%
X75560000Y-49850000D03*
D15*
X81860000Y-49850000D03*
%TD*%
D12*
%TO.P,I2C,2*%
%TO.N,SCL*%
X90370000Y-59480000D03*
D13*
%TO.P,I2C,1*%
%TO.N,SDA*%
X87830000Y-59480000D03*
%TD*%
D12*
%TO.P,CAN,2*%
%TO.N,CAN_RX*%
X90080000Y-40140000D03*
D13*
%TO.P,CAN,1*%
%TO.N,CAN_TX*%
X87540000Y-40140000D03*
%TD*%
D16*
%TO.P,USBC,S1*%
%TO.N,GND*%
X90575000Y-45480000D03*
X90575000Y-54120000D03*
D17*
X86395000Y-45480000D03*
X86395000Y-54120000D03*
%TD*%
D18*
%TO.P,J1,10*%
%TO.N,N/C*%
X33650000Y-49985000D03*
D19*
%TO.P,J1,11*%
X44325000Y-50035000D03*
D20*
%TO.P,J1,1*%
%TO.N,Net-(J1-Pad1)*%
X44450000Y-47585000D03*
%TO.P,J1,2*%
%TO.N,NSS1*%
X44450000Y-46485000D03*
%TO.P,J1,3*%
%TO.N,MOSI1*%
X44450000Y-45385000D03*
%TO.P,J1,4*%
%TO.N,BOOT*%
X44450000Y-44285000D03*
%TO.P,J1,5*%
%TO.N,SCK1*%
X44450000Y-43185000D03*
%TO.P,J1,6*%
%TO.N,GND*%
X44450000Y-42085000D03*
%TO.P,J1,7*%
%TO.N,MISO1*%
X44450000Y-40985000D03*
D21*
%TO.P,J1,11*%
%TO.N,N/C*%
X36075000Y-50385000D03*
D22*
%TO.P,J1,9*%
%TO.N,GND*%
X35225000Y-38760000D03*
D23*
%TO.P,J1,11*%
%TO.N,N/C*%
X36725000Y-38435000D03*
D24*
X44325000Y-38685000D03*
D20*
%TO.P,J1,8*%
%TO.N,Net-(J1-Pad8)*%
X44450000Y-39885000D03*
%TD*%
D25*
%TO.P,H3,1*%
%TO.N,GND*%
X38897056Y-64402944D03*
X37200000Y-63700000D03*
X35502944Y-64402944D03*
X34800000Y-66100000D03*
X35502944Y-67797056D03*
X37200000Y-68500000D03*
X38897056Y-67797056D03*
X39600000Y-66100000D03*
D26*
X37200000Y-66100000D03*
%TD*%
D25*
%TO.P,H2,1*%
%TO.N,GND*%
X91297056Y-32202944D03*
X89600000Y-31500000D03*
X87902944Y-32202944D03*
X87200000Y-33900000D03*
X87902944Y-35597056D03*
X89600000Y-36300000D03*
X91297056Y-35597056D03*
X92000000Y-33900000D03*
D26*
X89600000Y-33900000D03*
%TD*%
D25*
%TO.P,H1,1*%
%TO.N,GND*%
X91297056Y-64602944D03*
X89600000Y-63900000D03*
X87902944Y-64602944D03*
X87200000Y-66300000D03*
X87902944Y-67997056D03*
X89600000Y-68700000D03*
X91297056Y-67997056D03*
X92000000Y-66300000D03*
D26*
X89600000Y-66300000D03*
%TD*%
D25*
%TO.P,H0,1*%
%TO.N,GND*%
X38897056Y-32202944D03*
X37200000Y-31500000D03*
X35502944Y-32202944D03*
X34800000Y-33900000D03*
X35502944Y-35597056D03*
X37200000Y-36300000D03*
X38897056Y-35597056D03*
X39600000Y-33900000D03*
D26*
X37200000Y-33900000D03*
%TD*%
%TO.P,C4_ST1,1*%
%TO.N,GND*%
%TA.AperFunction,SMDPad,CuDef*%
G36*
G01*
X45745000Y-55897500D02*
X45745000Y-55552500D01*
G75*
G02*
X45892500Y-55405000I147500J0D01*
G01*
X46187500Y-55405000D01*
G75*
G02*
X46335000Y-55552500I0J-147500D01*
G01*
X46335000Y-55897500D01*
G75*
G02*
X46187500Y-56045000I-147500J0D01*
G01*
X45892500Y-56045000D01*
G75*
G02*
X45745000Y-55897500I0J147500D01*
G01*
G37*
%TD.AperFunction*%
%TO.P,C4_ST1,2*%
%TO.N,BOOT*%
%TA.AperFunction,SMDPad,CuDef*%
G36*
G01*
X46715000Y-55897500D02*
X46715000Y-55552500D01*
G75*
G02*
X46862500Y-55405000I147500J0D01*
G01*
X47157500Y-55405000D01*
G75*
G02*
X47305000Y-55552500I0J-147500D01*
G01*
X47305000Y-55897500D01*
G75*
G02*
X47157500Y-56045000I-147500J0D01*
G01*
X46862500Y-56045000D01*
G75*
G02*
X46715000Y-55897500I0J147500D01*
G01*
G37*
%TD.AperFunction*%
%TD*%
%TO.P,C3_ST1,1*%
%TO.N,GND*%
%TA.AperFunction,SMDPad,CuDef*%
G36*
G01*
X45735000Y-54947500D02*
X45735000Y-54602500D01*
G75*
G02*
X45882500Y-54455000I147500J0D01*
G01*
X46177500Y-54455000D01*
G75*
G02*
X46325000Y-54602500I0J-147500D01*
G01*
X46325000Y-54947500D01*
G75*
G02*
X46177500Y-55095000I-147500J0D01*
G01*
X45882500Y-55095000D01*
G75*
G02*
X45735000Y-54947500I0J147500D01*
G01*
G37*
%TD.AperFunction*%
%TO.P,C3_ST1,2*%
%TO.N,BOOT*%
%TA.AperFunction,SMDPad,CuDef*%
G36*
G01*
X46705000Y-54947500D02*
X46705000Y-54602500D01*
G75*
G02*
X46852500Y-54455000I147500J0D01*
G01*
X47147500Y-54455000D01*
G75*
G02*
X47295000Y-54602500I0J-147500D01*
G01*
X47295000Y-54947500D01*
G75*
G02*
X47147500Y-55095000I-147500J0D01*
G01*
X46852500Y-55095000D01*
G75*
G02*
X46705000Y-54947500I0J147500D01*
G01*
G37*
%TD.AperFunction*%
%TD*%
%TO.P,C2_VREG1,2*%
%TO.N,BOOT*%
%TA.AperFunction,SMDPad,CuDef*%
G36*
G01*
X72530000Y-50387500D02*
X72530000Y-50732500D01*
G75*
G02*
X72382500Y-50880000I-147500J0D01*
G01*
X72087500Y-50880000D01*
G75*
G02*
X71940000Y-50732500I0J147500D01*
G01*
X71940000Y-50387500D01*
G75*
G02*
X72087500Y-50240000I147500J0D01*
G01*
X72382500Y-50240000D01*
G75*
G02*
X72530000Y-50387500I0J-147500D01*
G01*
G37*
%TD.AperFunction*%
%TO.P,C2_VREG1,1*%
%TO.N,GND*%
%TA.AperFunction,SMDPad,CuDef*%
G36*
G01*
X73500000Y-50387500D02*
X73500000Y-50732500D01*
G75*
G02*
X73352500Y-50880000I-147500J0D01*
G01*
X73057500Y-50880000D01*
G75*
G02*
X72910000Y-50732500I0J147500D01*
G01*
X72910000Y-50387500D01*
G75*
G02*
X73057500Y-50240000I147500J0D01*
G01*
X73352500Y-50240000D01*
G75*
G02*
X73500000Y-50387500I0J-147500D01*
G01*
G37*
%TD.AperFunction*%
%TD*%
%TO.P,C1_VREG1,2*%
%TO.N,GND*%
%TA.AperFunction,SMDPad,CuDef*%
G36*
G01*
X72910000Y-49742500D02*
X72910000Y-49397500D01*
G75*
G02*
X73057500Y-49250000I147500J0D01*
G01*
X73352500Y-49250000D01*
G75*
G02*
X73500000Y-49397500I0J-147500D01*
G01*
X73500000Y-49742500D01*
G75*
G02*
X73352500Y-49890000I-147500J0D01*
G01*
X73057500Y-49890000D01*
G75*
G02*
X72910000Y-49742500I0J147500D01*
G01*
G37*
%TD.AperFunction*%
%TO.P,C1_VREG1,1*%
%TO.N,5V_IN*%
%TA.AperFunction,SMDPad,CuDef*%
G36*
G01*
X71940000Y-49742500D02*
X71940000Y-49397500D01*
G75*
G02*
X72087500Y-49250000I147500J0D01*
G01*
X72382500Y-49250000D01*
G75*
G02*
X72530000Y-49397500I0J-147500D01*
G01*
X72530000Y-49742500D01*
G75*
G02*
X72382500Y-49890000I-147500J0D01*
G01*
X72087500Y-49890000D01*
G75*
G02*
X71940000Y-49742500I0J147500D01*
G01*
G37*
%TD.AperFunction*%
%TD*%
D27*
%TO.N,BOOT*%
X74525000Y-53500000D03*
X40825000Y-41975000D03*
X41600000Y-39925000D03*
X47150000Y-56800000D03*
X75600000Y-58800000D03*
X78825000Y-57175000D03*
X41125000Y-48300000D03*
X53625000Y-58100000D03*
X55525000Y-59075000D03*
X44750000Y-57525000D03*
X75450000Y-49800000D03*
X71875000Y-53375000D03*
X49075000Y-39325000D03*
%TO.N,NRST*%
X48832346Y-51492654D03*
%TO.N,GND*%
X48550000Y-49600000D03*
X77030000Y-44050000D03*
X46025000Y-42725000D03*
X41400000Y-64000000D03*
X44887500Y-56350000D03*
%TO.N,5V_IN*%
X87480000Y-48457002D03*
X44150000Y-55600000D03*
X48925000Y-52950000D03*
X34200000Y-40650000D03*
X71700000Y-37900000D03*
X84600000Y-39150000D03*
X89175000Y-47425000D03*
%TO.N,TX*%
X46400000Y-58825000D03*
%TO.N,NSS1*%
X52925000Y-44725000D03*
X48525000Y-45000000D03*
X43150000Y-48500000D03*
%TO.N,MOSI1*%
X52825000Y-45725000D03*
%TO.N,SCK1*%
X54032698Y-42967302D03*
%TO.N,MISO1*%
X42800000Y-40125000D03*
%TO.N,Net-(J2-PadA7)*%
X84025000Y-51325000D03*
X84025000Y-48825000D03*
%TO.N,PD5*%
X61426704Y-39279980D03*
%TO.N,PD3*%
X63425683Y-39279980D03*
%TO.N,PC9*%
X59426975Y-39303479D03*
%TO.N,PD13*%
X61925000Y-47550000D03*
X69775000Y-41600000D03*
%TO.N,PD11*%
X63000000Y-49425000D03*
X71850000Y-41600000D03*
%TO.N,PD9*%
X63450000Y-51775000D03*
X73925000Y-41550000D03*
%TO.N,PB15*%
X64500793Y-53749207D03*
X78375000Y-41725000D03*
%TO.N,PB13*%
X66150000Y-55125000D03*
X79925000Y-43075000D03*
%TO.N,PB12*%
X75900000Y-55825000D03*
X72225000Y-55825000D03*
%TO.N,PB14*%
X65390742Y-54474208D03*
X79925000Y-41950000D03*
%TO.N,PD8*%
X63475000Y-52900000D03*
X76600000Y-41449980D03*
%TO.N,PD10*%
X63475000Y-50525000D03*
X72875000Y-41575000D03*
%TO.N,PD12*%
X62575000Y-48375000D03*
X70853203Y-41679990D03*
%TO.N,PC11*%
X58426980Y-39299726D03*
%TO.N,PD2*%
X64425406Y-39303559D03*
%TO.N,PD4*%
X62426193Y-39311960D03*
%TO.N,PD6*%
X61632963Y-40617037D03*
%TO.N,PB5*%
X60426701Y-39279980D03*
%TO.N,PE3*%
X53159129Y-43752792D03*
%TO.N,PC15*%
X52855858Y-47394142D03*
%TO.N,PC1*%
X51325000Y-54775000D03*
%TO.N,PC3*%
X53187846Y-53339901D03*
%TO.N,PA3*%
X54725000Y-56925000D03*
%TO.N,PE9*%
X62669416Y-60797100D03*
%TO.N,PE13*%
X65775000Y-60759950D03*
%TO.N,PE15*%
X67800000Y-60700000D03*
%TO.N,PB11*%
X66900000Y-56325000D03*
%TO.N,PE14*%
X66775003Y-60759950D03*
%TO.N,PA2*%
X53550000Y-56950000D03*
%TO.N,PC2*%
X52325000Y-54025000D03*
%TO.N,PC0*%
X50600000Y-55662381D03*
%TO.N,PC14*%
X56700000Y-47500000D03*
X48925000Y-62925000D03*
%TO.N,SWDIO*%
X37099970Y-54225000D03*
X85125000Y-66150000D03*
X80400000Y-60859315D03*
X67350000Y-45925000D03*
%TO.N,MOSI*%
X40750000Y-62600000D03*
%TO.N,CAN_RX*%
X68050000Y-39950000D03*
%TO.N,CAN_TX*%
X65425000Y-39275000D03*
%TO.N,SCL*%
X78600000Y-50725000D03*
X85925000Y-57400000D03*
%TO.N,SDA*%
X72050000Y-54425000D03*
X85150000Y-59825000D03*
%TO.N,LED*%
X52275000Y-41775000D03*
X56650000Y-46500000D03*
%TO.N,USB_DP*%
X77375000Y-52575000D03*
X73925000Y-45750010D03*
%TO.N,USB_DM*%
X79650653Y-52453839D03*
X79050000Y-49650000D03*
%TD*%
D28*
%TO.N,BOOT*%
X74204990Y-51205010D02*
X75560000Y-49850000D01*
X72235000Y-50578232D02*
X72861778Y-51205010D01*
X72235000Y-50560000D02*
X72235000Y-50578232D01*
X73680010Y-52655010D02*
X73680010Y-51205010D01*
X74525000Y-53500000D02*
X73680010Y-52655010D01*
X72861778Y-51205010D02*
X73680010Y-51205010D01*
X73680010Y-51205010D02*
X74204990Y-51205010D01*
X40825000Y-41975000D02*
X40825000Y-40700000D01*
X40825000Y-40700000D02*
X41600000Y-39925000D01*
X47010000Y-54785000D02*
X47000000Y-54775000D01*
X47010000Y-55725000D02*
X47010000Y-54785000D01*
X47150000Y-55865000D02*
X47010000Y-55725000D01*
X47150000Y-56800000D02*
X47150000Y-55865000D01*
X41015000Y-41975000D02*
X40825000Y-41975000D01*
X43325000Y-44285000D02*
X41015000Y-41975000D01*
X77225000Y-57175000D02*
X78825000Y-57175000D01*
X75600000Y-58800000D02*
X77225000Y-57175000D01*
X43325000Y-44285000D02*
X44450000Y-44285000D01*
X41125000Y-46485000D02*
X43325000Y-44285000D01*
X41125000Y-48300000D02*
X41125000Y-46485000D01*
X53625000Y-58100000D02*
X54600000Y-59075000D01*
X54600000Y-59075000D02*
X55525000Y-59075000D01*
X47150000Y-56800000D02*
X45475000Y-56800000D01*
X45475000Y-56800000D02*
X44750000Y-57525000D01*
X75560000Y-49850000D02*
X75500000Y-49850000D01*
X75500000Y-49850000D02*
X75450000Y-49800000D01*
X74126998Y-58800000D02*
X75600000Y-58800000D01*
X71324999Y-53925001D02*
X71324999Y-55998001D01*
X71324999Y-55998001D02*
X74126998Y-58800000D01*
X71875000Y-53375000D02*
X71324999Y-53925001D01*
X48195001Y-33915001D02*
X47020000Y-32740000D01*
X48195001Y-38445001D02*
X48195001Y-33915001D01*
X49075000Y-39325000D02*
X48195001Y-38445001D01*
%TO.N,GND*%
X73205000Y-50560000D02*
X73205000Y-50245000D01*
X73205000Y-49570000D02*
X73205000Y-50245000D01*
X74000001Y-48774999D02*
X76804999Y-48774999D01*
X73205000Y-49570000D02*
X74000001Y-48774999D01*
X76804999Y-48774999D02*
X77360000Y-49330000D01*
X77360000Y-50350000D02*
X75560000Y-52150000D01*
X77360000Y-49330000D02*
X77360000Y-50350000D01*
X84965000Y-44050000D02*
X86395000Y-45480000D01*
X77030000Y-44050000D02*
X84965000Y-44050000D01*
X45000000Y-53150000D02*
X48550000Y-49600000D01*
X42450000Y-53150000D02*
X45000000Y-53150000D01*
X42300000Y-53048998D02*
X42300000Y-53300000D01*
X35225000Y-45973998D02*
X42300000Y-53048998D01*
X42300000Y-53300000D02*
X42450000Y-53150000D01*
X35225000Y-38760000D02*
X35225000Y-45973998D01*
X35225000Y-38760000D02*
X35225000Y-38275000D01*
X35225000Y-38275000D02*
X36000000Y-37500000D01*
X36000000Y-37500000D02*
X37200000Y-36300000D01*
X85810000Y-64910000D02*
X87200000Y-66300000D01*
X82630000Y-64910000D02*
X85810000Y-64910000D01*
X46030000Y-55715000D02*
X46040000Y-55725000D01*
X46030000Y-54775000D02*
X46030000Y-55715000D01*
X45125002Y-37500000D02*
X36000000Y-37500000D01*
X46025000Y-38399998D02*
X45125002Y-37500000D01*
X46015000Y-42085000D02*
X46025000Y-42075000D01*
X46025000Y-42725000D02*
X46025000Y-42075000D01*
X44450000Y-42085000D02*
X46015000Y-42085000D01*
X46025000Y-42075000D02*
X46025000Y-38399998D01*
X90575000Y-45480000D02*
X90575000Y-54120000D01*
X90575000Y-45480000D02*
X90575000Y-42450000D01*
X92799999Y-37099999D02*
X91297056Y-35597056D01*
X92799999Y-40225001D02*
X92799999Y-37099999D01*
X90575000Y-42450000D02*
X92799999Y-40225001D01*
X43275001Y-57115001D02*
X43275001Y-62124999D01*
X42450000Y-56290000D02*
X43275001Y-57115001D01*
X43275001Y-62124999D02*
X41400000Y-64000000D01*
X46040000Y-55725000D02*
X45575000Y-55725000D01*
X45575000Y-55725000D02*
X44950000Y-56350000D01*
X44950000Y-56350000D02*
X44887500Y-56350000D01*
X45125002Y-37174998D02*
X47020000Y-35280000D01*
X45125002Y-37500000D02*
X45125002Y-37174998D01*
X47020000Y-35280000D02*
X44480000Y-32740000D01*
X49560000Y-32740000D02*
X59720000Y-32740000D01*
X49560000Y-32740000D02*
X49310000Y-32740000D01*
X49560000Y-32990000D02*
X49560000Y-35280000D01*
X49310000Y-32740000D02*
X49560000Y-32990000D01*
X49560000Y-35280000D02*
X54640000Y-35280000D01*
X45655001Y-31564999D02*
X44480000Y-32740000D01*
X48384999Y-31564999D02*
X45655001Y-31564999D01*
X49560000Y-32740000D02*
X48384999Y-31564999D01*
%TO.N,5V_IN*%
X86572998Y-47550000D02*
X75560000Y-47550000D01*
X87480000Y-48457002D02*
X86572998Y-47550000D01*
X73935000Y-47550000D02*
X75560000Y-47550000D01*
X72235000Y-49250000D02*
X73935000Y-47550000D01*
X72235000Y-49570000D02*
X72235000Y-49250000D01*
X87770010Y-48747012D02*
X87480000Y-48457002D01*
X80090000Y-67450000D02*
X81265001Y-66274999D01*
X44150000Y-55600000D02*
X46800000Y-52950000D01*
X46800000Y-52950000D02*
X48925000Y-52950000D01*
X81265001Y-64535997D02*
X83675998Y-62125000D01*
X81265001Y-66274999D02*
X81265001Y-64535997D01*
X89005001Y-49982003D02*
X87480000Y-48457002D01*
X89005001Y-60590001D02*
X89005001Y-49982003D01*
X87470002Y-62125000D02*
X89005001Y-60590001D01*
X83675998Y-62125000D02*
X87470002Y-62125000D01*
X48925000Y-52950000D02*
X49025000Y-52950000D01*
X42525001Y-53975001D02*
X44150000Y-55600000D01*
X42005001Y-53975001D02*
X42525001Y-53975001D01*
X41180000Y-53150000D02*
X42005001Y-53975001D01*
X41180000Y-53150000D02*
X34200000Y-46170000D01*
X34200000Y-46170000D02*
X34200000Y-40650000D01*
X71700000Y-37900000D02*
X83350000Y-37900000D01*
X83350000Y-37900000D02*
X84600000Y-39150000D01*
X88512002Y-47425000D02*
X87480000Y-48457002D01*
X89175000Y-47425000D02*
X88512002Y-47425000D01*
%TO.N,TX*%
X40954999Y-55464999D02*
X42941997Y-55464999D01*
X38640000Y-53150000D02*
X40954999Y-55464999D01*
X46400000Y-58825000D02*
X44200011Y-58825000D01*
X43725011Y-56248013D02*
X42941997Y-55464999D01*
X43725011Y-58350000D02*
X43725011Y-56248013D01*
X44200011Y-58825000D02*
X43725011Y-58350000D01*
%TO.N,NSS1*%
X52925000Y-44725000D02*
X48800000Y-44725000D01*
X48800000Y-44725000D02*
X48525000Y-45000000D01*
X43325000Y-46485000D02*
X44450000Y-46485000D01*
X43150000Y-46660000D02*
X43325000Y-46485000D01*
X43150000Y-48500000D02*
X43150000Y-46660000D01*
%TO.N,MOSI1*%
X44450000Y-45385000D02*
X47590011Y-45385000D01*
X47930011Y-45725000D02*
X47590011Y-45385000D01*
X52825000Y-45725000D02*
X47930011Y-45725000D01*
%TO.N,SCK1*%
X45676999Y-43450001D02*
X46524999Y-43450001D01*
X44450000Y-43185000D02*
X45411998Y-43185000D01*
X45411998Y-43185000D02*
X45676999Y-43450001D01*
X47474999Y-42500001D02*
X53700001Y-42500001D01*
X46524999Y-43450001D02*
X47474999Y-42500001D01*
X53700001Y-42500001D02*
X54032698Y-42832698D01*
X54032698Y-42832698D02*
X54032698Y-42967302D01*
%TO.N,MISO1*%
X43660000Y-40985000D02*
X44450000Y-40985000D01*
X42800000Y-40125000D02*
X43660000Y-40985000D01*
%TO.N,Net-(J2-PadA7)*%
X84025000Y-51325000D02*
X84025000Y-48825000D01*
%TO.N,PD5*%
X61826703Y-38709355D02*
X63636088Y-36899970D01*
X61426704Y-39279980D02*
X61826703Y-38879981D01*
X61826703Y-38879981D02*
X61826703Y-38709355D01*
X66164999Y-33915001D02*
X67340000Y-32740000D01*
X66164999Y-35654003D02*
X66164999Y-33915001D01*
X64919032Y-36899970D02*
X66164999Y-35654003D01*
X63636088Y-36899970D02*
X64919032Y-36899970D01*
%TO.N,PD3*%
X63825682Y-38701188D02*
X64726880Y-37799990D01*
X63425683Y-39279980D02*
X63825682Y-38879981D01*
X63825682Y-38879981D02*
X63825682Y-38701188D01*
X68704999Y-33915001D02*
X69880000Y-32740000D01*
X66559012Y-37799990D02*
X68704999Y-35654003D01*
X68704999Y-35654003D02*
X68704999Y-33915001D01*
X64726880Y-37799990D02*
X66559012Y-37799990D01*
%TO.N,PC9*%
X63624999Y-33915001D02*
X64800000Y-32740000D01*
X61084999Y-34715999D02*
X61885997Y-33915001D01*
X61084999Y-37079770D02*
X61084999Y-34715999D01*
X59426975Y-38737794D02*
X61084999Y-37079770D01*
X61885997Y-33915001D02*
X63624999Y-33915001D01*
X59426975Y-39303479D02*
X59426975Y-38737794D01*
%TO.N,PD13*%
X61925000Y-47550000D02*
X62549919Y-46925081D01*
X62549919Y-46925081D02*
X62549919Y-44600081D01*
X69774925Y-41599925D02*
X69775000Y-41600000D01*
X65510792Y-41599925D02*
X69774925Y-41599925D01*
X62549919Y-44600081D02*
X62549919Y-44560798D01*
X62549919Y-44560798D02*
X65510792Y-41599925D01*
%TO.N,PD11*%
X63125000Y-49425000D02*
X63449944Y-49100056D01*
X63000000Y-49425000D02*
X63125000Y-49425000D01*
X63449944Y-49100056D02*
X63449945Y-45425055D01*
X63449945Y-45425055D02*
X63449949Y-44933592D01*
X65883596Y-42499945D02*
X68816407Y-42499945D01*
X63449949Y-44933592D02*
X65883596Y-42499945D01*
X70316462Y-44000000D02*
X70783548Y-44000000D01*
X68816407Y-42499945D02*
X70316462Y-44000000D01*
X70783548Y-44000000D02*
X71950000Y-42833548D01*
X71950000Y-42833548D02*
X71950000Y-41700000D01*
X71950000Y-41700000D02*
X71850000Y-41600000D01*
%TO.N,PD9*%
X63450000Y-51775000D02*
X64349962Y-50875038D01*
X64349962Y-50875038D02*
X64349965Y-45306396D01*
X66256402Y-43399962D02*
X68443605Y-43399963D01*
X64349965Y-45306396D02*
X66256402Y-43399962D01*
X70118642Y-45075000D02*
X70981368Y-45075000D01*
X68443605Y-43399963D02*
X70118642Y-45075000D01*
X70981368Y-45075000D02*
X73925000Y-42131368D01*
X73925000Y-42131368D02*
X73925000Y-41550000D01*
%TO.N,PB15*%
X77925020Y-42174980D02*
X78375000Y-41725000D01*
X75154208Y-42174980D02*
X77925020Y-42174980D01*
X70100000Y-46975000D02*
X70354188Y-46975000D01*
X69550020Y-46425020D02*
X70100000Y-46975000D01*
X70354188Y-46975000D02*
X75154208Y-42174980D01*
X69550020Y-45779198D02*
X69550020Y-46425020D01*
X65249980Y-53000020D02*
X65249982Y-45679198D01*
X65249982Y-45679198D02*
X66629200Y-44299980D01*
X64500793Y-53749207D02*
X65249980Y-53000020D01*
X66629200Y-44299980D02*
X68070803Y-44299981D01*
X68070803Y-44299981D02*
X69550020Y-45779198D01*
%TO.N,PB13*%
X67001999Y-45199999D02*
X67698001Y-45199999D01*
X67698001Y-45199999D02*
X68650000Y-46151998D01*
X66150000Y-55125000D02*
X66150000Y-46051998D01*
X66150000Y-46051998D02*
X67001999Y-45199999D01*
X68650000Y-46151998D02*
X68650000Y-48600000D01*
X68650000Y-48600000D02*
X69350000Y-49300000D01*
X73199999Y-45402009D02*
X75527008Y-43075000D01*
X73199999Y-45863591D02*
X73199999Y-45402009D01*
X69350000Y-49300000D02*
X69763590Y-49300000D01*
X69763590Y-49300000D02*
X73199999Y-45863591D01*
X75527008Y-43075000D02*
X79925000Y-43075000D01*
%TO.N,PB12*%
X75900000Y-55825000D02*
X72225000Y-55825000D01*
%TO.N,PB14*%
X65390742Y-54384258D02*
X65699990Y-54075010D01*
X65390742Y-54474208D02*
X65390742Y-54384258D01*
X65699990Y-54075010D02*
X65699990Y-46550000D01*
X67884402Y-44749990D02*
X69100010Y-45965598D01*
X66815599Y-44749989D02*
X67884402Y-44749990D01*
X65699990Y-46550000D02*
X65699991Y-45865597D01*
X65699991Y-45865597D02*
X66815599Y-44749989D01*
X69100010Y-45965598D02*
X69100010Y-47650010D01*
X69450000Y-48000000D02*
X70427180Y-48000000D01*
X69100010Y-47650010D02*
X69450000Y-48000000D01*
X72749989Y-45677191D02*
X72749989Y-45215609D01*
X70427180Y-48000000D02*
X72749989Y-45677191D01*
X72749989Y-45215609D02*
X75340608Y-42624990D01*
X75340608Y-42624990D02*
X79225010Y-42624990D01*
X79225010Y-42624990D02*
X79900000Y-41950000D01*
X79900000Y-41950000D02*
X79925000Y-41950000D01*
%TO.N,PD8*%
X63475000Y-52900000D02*
X64549971Y-52900000D01*
X64799971Y-52650000D02*
X64799973Y-45492797D01*
X64549971Y-52900000D02*
X64799971Y-52650000D01*
X68257204Y-43849972D02*
X70000029Y-45592797D01*
X64799973Y-45492797D02*
X66442801Y-43849971D01*
X66442801Y-43849971D02*
X68257204Y-43849972D01*
X71099981Y-45592797D02*
X75192778Y-41500000D01*
X70000029Y-45592797D02*
X71099981Y-45592797D01*
X75192778Y-41500000D02*
X76549980Y-41500000D01*
X76549980Y-41500000D02*
X76600000Y-41449980D01*
%TO.N,PD10*%
X63475000Y-50525000D02*
X63899953Y-50100047D01*
X63899953Y-50100047D02*
X63899955Y-45325000D01*
X63899957Y-45119995D02*
X66070003Y-42949953D01*
X63899955Y-45325000D02*
X63899957Y-45119995D01*
X66070003Y-42949953D02*
X68630006Y-42949954D01*
X70305052Y-44625000D02*
X70794958Y-44625000D01*
X68630006Y-42949954D02*
X70305052Y-44625000D01*
X70794958Y-44625000D02*
X72875000Y-42544958D01*
X72875000Y-42544958D02*
X72875000Y-41575000D01*
%TO.N,PD12*%
X62999918Y-48125082D02*
X62999942Y-44747185D01*
X62575000Y-48375000D02*
X62750000Y-48375000D01*
X62750000Y-48375000D02*
X62999918Y-48125082D01*
X65697192Y-42049935D02*
X69002807Y-42049935D01*
X62999942Y-44747185D02*
X65697192Y-42049935D01*
X69002807Y-42049935D02*
X70027872Y-43075000D01*
X70027872Y-43075000D02*
X70575000Y-43075000D01*
X70575000Y-43075000D02*
X70853203Y-42796797D01*
X70853203Y-42796797D02*
X70853203Y-41679990D01*
%TO.N,PC11*%
X58426980Y-39299726D02*
X58426980Y-39101379D01*
X59720000Y-37808359D02*
X59720000Y-35280000D01*
X58426980Y-39101379D02*
X59720000Y-37808359D01*
%TO.N,PD2*%
X64425406Y-38737874D02*
X64913280Y-38250000D01*
X64425406Y-39303559D02*
X64425406Y-38737874D01*
X64913280Y-38250000D02*
X68725000Y-38250000D01*
X69880000Y-37095000D02*
X69880000Y-35280000D01*
X68725000Y-38250000D02*
X69880000Y-37095000D01*
%TO.N,PD4*%
X62426193Y-38746275D02*
X63822488Y-37349980D01*
X62426193Y-39311960D02*
X62426193Y-38746275D01*
X63822488Y-37349980D02*
X66372612Y-37349980D01*
X67340000Y-36382592D02*
X67340000Y-35280000D01*
X66372612Y-37349980D02*
X67340000Y-36382592D01*
%TO.N,PD6*%
X57701979Y-39647727D02*
X57701979Y-35801979D01*
X61632963Y-40617037D02*
X58671289Y-40617037D01*
X57701979Y-35801979D02*
X57180000Y-35280000D01*
X58671289Y-40617037D02*
X57701979Y-39647727D01*
%TO.N,PB5*%
X60701703Y-38931979D02*
X63183722Y-36449960D01*
X60701703Y-39173297D02*
X60701703Y-38931979D01*
X60426701Y-39279980D02*
X60595020Y-39279980D01*
X60595020Y-39279980D02*
X60701703Y-39173297D01*
X63183722Y-36449960D02*
X64425040Y-36449960D01*
X64800000Y-36075000D02*
X64800000Y-35280000D01*
X64425040Y-36449960D02*
X64800000Y-36075000D01*
%TO.N,PE3*%
X49775000Y-53236572D02*
X49174990Y-53836582D01*
X49775000Y-49176998D02*
X49775000Y-53236572D01*
X47070000Y-60668590D02*
X47070000Y-64910000D01*
X53159129Y-43752792D02*
X53650001Y-44243664D01*
X52395357Y-46556641D02*
X49775000Y-49176998D01*
X53650001Y-44243664D02*
X53650001Y-45973001D01*
X53650001Y-45973001D02*
X53066361Y-46556641D01*
X53066361Y-46556641D02*
X52395357Y-46556641D01*
X49174990Y-53836582D02*
X48788418Y-53836582D01*
X48788418Y-53836582D02*
X47875001Y-54749999D01*
X47875001Y-54749999D02*
X47875001Y-58574999D01*
X47070000Y-59380000D02*
X47070000Y-60668590D01*
X47875001Y-58574999D02*
X47070000Y-59380000D01*
%TO.N,PC15*%
X47520010Y-62820010D02*
X49610000Y-64910000D01*
X47520010Y-59604990D02*
X47520010Y-62820010D01*
X52855858Y-50792124D02*
X49361391Y-54286591D01*
X48974819Y-54286591D02*
X48325011Y-54936399D01*
X52855858Y-47394142D02*
X52855858Y-50792124D01*
X49361391Y-54286591D02*
X48974819Y-54286591D01*
X48325011Y-58799989D02*
X47520010Y-59604990D01*
X48325011Y-54936399D02*
X48325011Y-58799989D01*
%TO.N,PC1*%
X52150000Y-60374965D02*
X52150000Y-64910000D01*
X51325000Y-59549965D02*
X52150000Y-60374965D01*
X51325000Y-54775000D02*
X51325000Y-59549965D01*
%TO.N,PC3*%
X52282176Y-59234321D02*
X52747855Y-59700000D01*
X53360778Y-55939222D02*
X52282176Y-57017824D01*
X52282176Y-57017824D02*
X52282176Y-59234321D01*
X54350000Y-59700000D02*
X56450000Y-61800000D01*
X52747855Y-59700000D02*
X54350000Y-59700000D01*
X54854588Y-64910000D02*
X54690000Y-64910000D01*
X56450000Y-63314588D02*
X54854588Y-64910000D01*
X56450000Y-61800000D02*
X56450000Y-63314588D01*
X53187846Y-53339901D02*
X53187846Y-54962846D01*
X53360778Y-55135778D02*
X53360778Y-55939222D01*
X53187846Y-54962846D02*
X53360778Y-55135778D01*
%TO.N,PA3*%
X54725000Y-56925000D02*
X55225000Y-57425000D01*
X55225000Y-57425000D02*
X58975000Y-57425000D01*
X59770000Y-58220000D02*
X59770000Y-64910000D01*
X58975000Y-57425000D02*
X59770000Y-58220000D01*
%TO.N,PE9*%
X63275000Y-61475000D02*
X65300000Y-63500000D01*
X68520000Y-63500000D02*
X69930000Y-64910000D01*
X65300000Y-63500000D02*
X68520000Y-63500000D01*
X62669416Y-60797100D02*
X62669416Y-61144416D01*
X63000000Y-61475000D02*
X63275000Y-61475000D01*
X62669416Y-61144416D02*
X63000000Y-61475000D01*
%TO.N,PE13*%
X68706401Y-63049991D02*
X69381410Y-63725000D01*
X69381410Y-63725000D02*
X72175000Y-63725000D01*
X64725000Y-62250000D02*
X65207222Y-62732222D01*
X72175000Y-63725000D02*
X72184999Y-63734999D01*
X64725000Y-61809950D02*
X64725000Y-62250000D01*
X73834999Y-63734999D02*
X75010000Y-64910000D01*
X72184999Y-63734999D02*
X73834999Y-63734999D01*
X66050000Y-63049990D02*
X68706401Y-63049991D01*
X65207222Y-62732222D02*
X65732232Y-62732222D01*
X65732232Y-62732222D02*
X66050000Y-63049990D01*
X65775000Y-60759950D02*
X64725000Y-61809950D01*
%TO.N,PE15*%
X67800000Y-60700000D02*
X67800000Y-60750000D01*
X67800000Y-60750000D02*
X69874980Y-62824980D01*
X75464980Y-62824980D02*
X77550000Y-64910000D01*
X69874980Y-62824980D02*
X75464980Y-62824980D01*
%TO.N,PB11*%
X66900000Y-56325000D02*
X66900000Y-59450000D01*
X66900000Y-59450000D02*
X67275000Y-59825000D01*
X67998002Y-59825000D02*
X70223002Y-62050000D01*
X67275000Y-59825000D02*
X67998002Y-59825000D01*
X77554970Y-62374970D02*
X80090000Y-64910000D01*
X71774970Y-62374970D02*
X77554970Y-62374970D01*
X71450000Y-62050000D02*
X71774970Y-62374970D01*
X70223002Y-62050000D02*
X71450000Y-62050000D01*
%TO.N,PE14*%
X76185001Y-64345999D02*
X76185001Y-66274999D01*
X68892802Y-62599982D02*
X69567810Y-63274990D01*
X75113992Y-63274990D02*
X76185001Y-64345999D01*
X69567810Y-63274990D02*
X75113992Y-63274990D01*
X76185001Y-66274999D02*
X75010000Y-67450000D01*
X66699981Y-62599981D02*
X68892802Y-62599982D01*
X66182242Y-62082242D02*
X66699981Y-62599981D01*
X66182242Y-62017758D02*
X66182242Y-62082242D01*
X66775003Y-61424997D02*
X66182242Y-62017758D01*
X66775003Y-60759950D02*
X66775003Y-61424997D01*
%TO.N,PA2*%
X53550000Y-56950000D02*
X54550000Y-57950000D01*
X58625000Y-57950000D02*
X59319990Y-58644990D01*
X54550000Y-57950000D02*
X58625000Y-57950000D01*
X59319990Y-58644990D02*
X59319990Y-62500000D01*
X58594999Y-63224991D02*
X58594999Y-66085001D01*
X58594999Y-66085001D02*
X57230000Y-67450000D01*
X59319990Y-62500000D02*
X58594999Y-63224991D01*
%TO.N,PA0*%
X55500000Y-67450000D02*
X54690000Y-67450000D01*
%TO.N,PC2*%
X52325000Y-54025000D02*
X52325000Y-56338590D01*
X52325000Y-56338590D02*
X51832166Y-56831424D01*
X51832167Y-59420722D02*
X52561455Y-60150010D01*
X51832166Y-56831424D02*
X51832167Y-59420722D01*
X52561455Y-60150010D02*
X54163600Y-60150010D01*
X56000000Y-61986410D02*
X56000000Y-62825000D01*
X54163600Y-60150010D02*
X56000000Y-61986410D01*
X54125999Y-63734999D02*
X53514999Y-64345999D01*
X53514999Y-64345999D02*
X53514999Y-65989999D01*
X56000000Y-62825000D02*
X55090001Y-63734999D01*
X55090001Y-63734999D02*
X54125999Y-63734999D01*
X52150000Y-67354998D02*
X52150000Y-67450000D01*
X53514999Y-65989999D02*
X52150000Y-67354998D01*
%TO.N,PC0*%
X50874990Y-56249990D02*
X50874991Y-59736366D01*
X50874991Y-59736366D02*
X51699990Y-60561365D01*
X51699990Y-60561365D02*
X51699990Y-63425010D01*
X50785001Y-66274999D02*
X49610000Y-67450000D01*
X50785001Y-64339999D02*
X50785001Y-66274999D01*
X51699990Y-63425010D02*
X50785001Y-64339999D01*
X50600000Y-55975000D02*
X50874990Y-56249990D01*
X50600000Y-55662381D02*
X50600000Y-55975000D01*
%TO.N,PC14*%
X56700000Y-48326998D02*
X48925000Y-56101998D01*
X56700000Y-47500000D02*
X56700000Y-48326998D01*
X48925000Y-56101998D02*
X48925000Y-62925000D01*
%TO.N,SWDIO*%
X43354999Y-68560001D02*
X43944998Y-69150000D01*
X43354999Y-67238057D02*
X43354999Y-68560001D01*
X37099970Y-54225000D02*
X37099970Y-60983028D01*
X37099970Y-60983028D02*
X43354999Y-67238057D01*
X43944998Y-69150000D02*
X84350000Y-69150000D01*
X84350000Y-69150000D02*
X85350000Y-68150000D01*
X85350000Y-68150000D02*
X85350000Y-66375000D01*
X85350000Y-66375000D02*
X85125000Y-66150000D01*
X80400000Y-60859315D02*
X72859315Y-60859315D01*
X72859315Y-60859315D02*
X67350000Y-55350000D01*
X67350000Y-55350000D02*
X67350000Y-45925000D01*
%TO.N,MOSI*%
X40750000Y-61130000D02*
X42450000Y-59430000D01*
X40750000Y-62600000D02*
X40750000Y-61130000D01*
%TO.N,CAN_RX*%
X88365000Y-38425000D02*
X90080000Y-40140000D01*
X85900000Y-39950000D02*
X86364999Y-39485001D01*
X86364999Y-39029999D02*
X86969998Y-38425000D01*
X86969998Y-38425000D02*
X88365000Y-38425000D01*
X68050000Y-39950000D02*
X85900000Y-39950000D01*
X86364999Y-39485001D02*
X86364999Y-39029999D01*
%TO.N,CAN_TX*%
X87005000Y-40675000D02*
X87540000Y-40140000D01*
X65400000Y-40675000D02*
X87005000Y-40675000D01*
X65400000Y-39300000D02*
X65425000Y-39275000D01*
X65400000Y-40675000D02*
X65400000Y-39300000D01*
%TO.N,SCL*%
X78600000Y-52476188D02*
X83523812Y-57400000D01*
X83523812Y-57400000D02*
X85925000Y-57400000D01*
X78600000Y-50725000D02*
X78600000Y-52476188D01*
%TO.N,SDA*%
X72449999Y-54824999D02*
X80149999Y-54824999D01*
X72050000Y-54425000D02*
X72449999Y-54824999D01*
X80149999Y-54824999D02*
X85150000Y-59825000D01*
%TO.N,LED*%
X56650000Y-46150000D02*
X56650000Y-46500000D01*
X52275000Y-41775000D02*
X55225000Y-41775000D01*
X56650000Y-43200000D02*
X56650000Y-46500000D01*
X55225000Y-41775000D02*
X56650000Y-43200000D01*
%TO.N,USB_DP*%
X74176999Y-54225001D02*
X71614990Y-51662992D01*
X77375000Y-52575000D02*
X75724999Y-54225001D01*
X71614990Y-51662992D02*
X71614990Y-48810010D01*
X75724999Y-54225001D02*
X74176999Y-54225001D01*
X71614990Y-48810010D02*
X71614990Y-48085010D01*
X71614990Y-48085010D02*
X73925000Y-45775000D01*
X73925000Y-45775000D02*
X73925000Y-45750010D01*
%TO.N,USB_DM*%
X79650653Y-52453839D02*
X79650653Y-50600653D01*
X79650653Y-50600653D02*
X79050000Y-50000000D01*
X79050000Y-50000000D02*
X79050000Y-49650000D01*
%TD*%
D29*
%TO.N,GND*%
G36*
X87397843Y-30765285D02*
G01*
X87078724Y-31199119D01*
X89600000Y-33720395D01*
X89614143Y-33706253D01*
X89793748Y-33885858D01*
X89779605Y-33900000D01*
X92300881Y-36421276D01*
X92740000Y-36098270D01*
X92740001Y-64101731D01*
X92300881Y-63778724D01*
X89779605Y-66300000D01*
X89793748Y-66314143D01*
X89614143Y-66493748D01*
X89600000Y-66479605D01*
X87078724Y-69000881D01*
X87395538Y-69431582D01*
X85151784Y-69423018D01*
X85861004Y-68713798D01*
X85890001Y-68690001D01*
X85984974Y-68574276D01*
X86055546Y-68442247D01*
X86099003Y-68298986D01*
X86110000Y-68187333D01*
X86110000Y-68187332D01*
X86113677Y-68150000D01*
X86110000Y-68112667D01*
X86110000Y-67903135D01*
X86382445Y-68420670D01*
X86409452Y-68461088D01*
X86899119Y-68821276D01*
X89420395Y-66300000D01*
X86899119Y-63778724D01*
X86409452Y-64138912D01*
X86049151Y-64802882D01*
X85857933Y-65419222D01*
X85784774Y-65346063D01*
X85615256Y-65232795D01*
X85426898Y-65154774D01*
X85226939Y-65115000D01*
X85023061Y-65115000D01*
X84823102Y-65154774D01*
X84634744Y-65232795D01*
X84465226Y-65346063D01*
X84321063Y-65490226D01*
X84207795Y-65659744D01*
X84129774Y-65848102D01*
X84090000Y-66048061D01*
X84090000Y-66251939D01*
X84129774Y-66451898D01*
X84207795Y-66640256D01*
X84321063Y-66809774D01*
X84465226Y-66953937D01*
X84590001Y-67037309D01*
X84590000Y-67835198D01*
X84035199Y-68390000D01*
X83787906Y-68390000D01*
X83945990Y-68153411D01*
X84057932Y-67883158D01*
X84115000Y-67596260D01*
X84115000Y-67303740D01*
X84057932Y-67016842D01*
X83945990Y-66746589D01*
X83783475Y-66503368D01*
X83576632Y-66296525D01*
X83400594Y-66178900D01*
X83630269Y-66007588D01*
X83825178Y-65791355D01*
X83974157Y-65541252D01*
X84071481Y-65266891D01*
X83950814Y-65037000D01*
X82757000Y-65037000D01*
X82757000Y-65057000D01*
X82503000Y-65057000D01*
X82503000Y-65037000D01*
X82483000Y-65037000D01*
X82483000Y-64783000D01*
X82503000Y-64783000D01*
X82503000Y-64763000D01*
X82757000Y-64763000D01*
X82757000Y-64783000D01*
X83950814Y-64783000D01*
X84071481Y-64553109D01*
X83974157Y-64278748D01*
X83825178Y-64028645D01*
X83630269Y-63812412D01*
X83396920Y-63638359D01*
X83314537Y-63599119D01*
X87078724Y-63599119D01*
X89600000Y-66120395D01*
X92121276Y-63599119D01*
X91761088Y-63109452D01*
X91097118Y-62749151D01*
X90375615Y-62525306D01*
X89624305Y-62446520D01*
X88872062Y-62515822D01*
X88147792Y-62730548D01*
X87479330Y-63082445D01*
X87438912Y-63109452D01*
X87078724Y-63599119D01*
X83314537Y-63599119D01*
X83288894Y-63586905D01*
X83990800Y-62885000D01*
X87432680Y-62885000D01*
X87470002Y-62888676D01*
X87507324Y-62885000D01*
X87507335Y-62885000D01*
X87618988Y-62874003D01*
X87762249Y-62830546D01*
X87894278Y-62759974D01*
X88010003Y-62665001D01*
X88033805Y-62635998D01*
X89516010Y-61153795D01*
X89545002Y-61130002D01*
X89568796Y-61101009D01*
X89568800Y-61101005D01*
X89639974Y-61014278D01*
X89639975Y-61014277D01*
X89710547Y-60882248D01*
X89728885Y-60821794D01*
X89936842Y-60907932D01*
X90223740Y-60965000D01*
X90516260Y-60965000D01*
X90803158Y-60907932D01*
X91073411Y-60795990D01*
X91316632Y-60633475D01*
X91523475Y-60426632D01*
X91685990Y-60183411D01*
X91797932Y-59913158D01*
X91855000Y-59626260D01*
X91855000Y-59333740D01*
X91797932Y-59046842D01*
X91685990Y-58776589D01*
X91523475Y-58533368D01*
X91316632Y-58326525D01*
X91073411Y-58164010D01*
X90803158Y-58052068D01*
X90516260Y-57995000D01*
X90223740Y-57995000D01*
X89936842Y-58052068D01*
X89765001Y-58123247D01*
X89765001Y-55137918D01*
X89929013Y-55208415D01*
X90148000Y-55255000D01*
X90448000Y-55255000D01*
X90448000Y-54247000D01*
X90702000Y-54247000D01*
X90702000Y-55255000D01*
X91002000Y-55255000D01*
X91220987Y-55208415D01*
X91426678Y-55120003D01*
X91611169Y-54993161D01*
X91767369Y-54832764D01*
X91889276Y-54644976D01*
X91969119Y-54421874D01*
X91842954Y-54247000D01*
X90702000Y-54247000D01*
X90448000Y-54247000D01*
X90428000Y-54247000D01*
X90428000Y-53993000D01*
X90448000Y-53993000D01*
X90448000Y-52985000D01*
X90702000Y-52985000D01*
X90702000Y-53993000D01*
X91842954Y-53993000D01*
X91969119Y-53818126D01*
X91889276Y-53595024D01*
X91767369Y-53407236D01*
X91611169Y-53246839D01*
X91426678Y-53119997D01*
X91220987Y-53031585D01*
X91002000Y-52985000D01*
X90702000Y-52985000D01*
X90448000Y-52985000D01*
X90148000Y-52985000D01*
X89929013Y-53031585D01*
X89765001Y-53102082D01*
X89765001Y-50019325D01*
X89768677Y-49982002D01*
X89765001Y-49944679D01*
X89765001Y-49944670D01*
X89754004Y-49833017D01*
X89710547Y-49689756D01*
X89702273Y-49674276D01*
X89639975Y-49557726D01*
X89568800Y-49471000D01*
X89545002Y-49442002D01*
X89516004Y-49418204D01*
X88554801Y-48457002D01*
X88675665Y-48336139D01*
X88684744Y-48342205D01*
X88873102Y-48420226D01*
X89073061Y-48460000D01*
X89276939Y-48460000D01*
X89476898Y-48420226D01*
X89665256Y-48342205D01*
X89834774Y-48228937D01*
X89978937Y-48084774D01*
X90092205Y-47915256D01*
X90170226Y-47726898D01*
X90210000Y-47526939D01*
X90210000Y-47323061D01*
X90170226Y-47123102D01*
X90092205Y-46934744D01*
X89978937Y-46765226D01*
X89834774Y-46621063D01*
X89665256Y-46507795D01*
X89476898Y-46429774D01*
X89276939Y-46390000D01*
X89073061Y-46390000D01*
X88873102Y-46429774D01*
X88684744Y-46507795D01*
X88515226Y-46621063D01*
X88470920Y-46665369D01*
X88363016Y-46675997D01*
X88219755Y-46719454D01*
X88087726Y-46790026D01*
X87972001Y-46884999D01*
X87948203Y-46913997D01*
X87854342Y-47007858D01*
X87855000Y-47004552D01*
X87855000Y-46815448D01*
X87818108Y-46629978D01*
X87745741Y-46455269D01*
X87678665Y-46354883D01*
X87681169Y-46353161D01*
X87837369Y-46192764D01*
X87959276Y-46004976D01*
X88039119Y-45781874D01*
X89180881Y-45781874D01*
X89260724Y-46004976D01*
X89382631Y-46192764D01*
X89538831Y-46353161D01*
X89723322Y-46480003D01*
X89929013Y-46568415D01*
X90148000Y-46615000D01*
X90448000Y-46615000D01*
X90448000Y-45607000D01*
X90702000Y-45607000D01*
X90702000Y-46615000D01*
X91002000Y-46615000D01*
X91220987Y-46568415D01*
X91426678Y-46480003D01*
X91611169Y-46353161D01*
X91767369Y-46192764D01*
X91889276Y-46004976D01*
X91969119Y-45781874D01*
X91842954Y-45607000D01*
X90702000Y-45607000D01*
X90448000Y-45607000D01*
X89307046Y-45607000D01*
X89180881Y-45781874D01*
X88039119Y-45781874D01*
X87912954Y-45607000D01*
X86522000Y-45607000D01*
X86522000Y-45627000D01*
X86268000Y-45627000D01*
X86268000Y-45607000D01*
X84877046Y-45607000D01*
X84750881Y-45781874D01*
X84830724Y-46004976D01*
X84952631Y-46192764D01*
X85108831Y-46353161D01*
X85293322Y-46480003D01*
X85499013Y-46568415D01*
X85718000Y-46615000D01*
X85978096Y-46615000D01*
X85971892Y-46629978D01*
X85940062Y-46790000D01*
X77197087Y-46790000D01*
X77185812Y-46675518D01*
X77149502Y-46555820D01*
X77090537Y-46445506D01*
X77011185Y-46348815D01*
X76914494Y-46269463D01*
X76804180Y-46210498D01*
X76684482Y-46174188D01*
X76560000Y-46161928D01*
X74874654Y-46161928D01*
X74920226Y-46051908D01*
X74960000Y-45851949D01*
X74960000Y-45648071D01*
X74920226Y-45448112D01*
X74842205Y-45259754D01*
X74787664Y-45178126D01*
X84750881Y-45178126D01*
X84877046Y-45353000D01*
X86268000Y-45353000D01*
X86268000Y-44345000D01*
X86522000Y-44345000D01*
X86522000Y-45353000D01*
X87912954Y-45353000D01*
X88039119Y-45178126D01*
X89180881Y-45178126D01*
X89307046Y-45353000D01*
X90448000Y-45353000D01*
X90448000Y-44345000D01*
X90702000Y-44345000D01*
X90702000Y-45353000D01*
X91842954Y-45353000D01*
X91969119Y-45178126D01*
X91889276Y-44955024D01*
X91767369Y-44767236D01*
X91611169Y-44606839D01*
X91426678Y-44479997D01*
X91220987Y-44391585D01*
X91002000Y-44345000D01*
X90702000Y-44345000D01*
X90448000Y-44345000D01*
X90148000Y-44345000D01*
X89929013Y-44391585D01*
X89723322Y-44479997D01*
X89538831Y-44606839D01*
X89382631Y-44767236D01*
X89260724Y-44955024D01*
X89180881Y-45178126D01*
X88039119Y-45178126D01*
X87959276Y-44955024D01*
X87837369Y-44767236D01*
X87681169Y-44606839D01*
X87496678Y-44479997D01*
X87290987Y-44391585D01*
X87072000Y-44345000D01*
X86522000Y-44345000D01*
X86268000Y-44345000D01*
X85718000Y-44345000D01*
X85499013Y-44391585D01*
X85293322Y-44479997D01*
X85108831Y-44606839D01*
X84952631Y-44767236D01*
X84830724Y-44955024D01*
X84750881Y-45178126D01*
X74787664Y-45178126D01*
X74728937Y-45090236D01*
X74657755Y-45019054D01*
X75841810Y-43835000D01*
X79221289Y-43835000D01*
X79265226Y-43878937D01*
X79434744Y-43992205D01*
X79623102Y-44070226D01*
X79823061Y-44110000D01*
X80026939Y-44110000D01*
X80226898Y-44070226D01*
X80415256Y-43992205D01*
X80584774Y-43878937D01*
X80728937Y-43734774D01*
X80842205Y-43565256D01*
X80920226Y-43376898D01*
X80960000Y-43176939D01*
X80960000Y-42973061D01*
X80920226Y-42773102D01*
X80842205Y-42584744D01*
X80793933Y-42512500D01*
X80842205Y-42440256D01*
X80920226Y-42251898D01*
X80960000Y-42051939D01*
X80960000Y-41848061D01*
X80920226Y-41648102D01*
X80842205Y-41459744D01*
X80825672Y-41435000D01*
X86233739Y-41435000D01*
X86238815Y-41441185D01*
X86335506Y-41520537D01*
X86445820Y-41579502D01*
X86565518Y-41615812D01*
X86690000Y-41628072D01*
X88390000Y-41628072D01*
X88514482Y-41615812D01*
X88634180Y-41579502D01*
X88744494Y-41520537D01*
X88841185Y-41441185D01*
X88920537Y-41344494D01*
X88979502Y-41234180D01*
X89001513Y-41161620D01*
X89133368Y-41293475D01*
X89376589Y-41455990D01*
X89646842Y-41567932D01*
X89933740Y-41625000D01*
X90226260Y-41625000D01*
X90513158Y-41567932D01*
X90783411Y-41455990D01*
X91026632Y-41293475D01*
X91233475Y-41086632D01*
X91395990Y-40843411D01*
X91507932Y-40573158D01*
X91565000Y-40286260D01*
X91565000Y-39993740D01*
X91507932Y-39706842D01*
X91395990Y-39436589D01*
X91233475Y-39193368D01*
X91026632Y-38986525D01*
X90783411Y-38824010D01*
X90513158Y-38712068D01*
X90226260Y-38655000D01*
X89933740Y-38655000D01*
X89713592Y-38698791D01*
X88928804Y-37914003D01*
X88905001Y-37884999D01*
X88789276Y-37790026D01*
X88657247Y-37719454D01*
X88513986Y-37675997D01*
X88402333Y-37665000D01*
X88402322Y-37665000D01*
X88365000Y-37661324D01*
X88327678Y-37665000D01*
X87007323Y-37665000D01*
X86969998Y-37661324D01*
X86932673Y-37665000D01*
X86932665Y-37665000D01*
X86821012Y-37675997D01*
X86677751Y-37719454D01*
X86545722Y-37790026D01*
X86429997Y-37884999D01*
X86406198Y-37913998D01*
X85853997Y-38466200D01*
X85824999Y-38489998D01*
X85730025Y-38605723D01*
X85659453Y-38737752D01*
X85615996Y-38881013D01*
X85611285Y-38928839D01*
X85595226Y-38848102D01*
X85517205Y-38659744D01*
X85403937Y-38490226D01*
X85259774Y-38346063D01*
X85090256Y-38232795D01*
X84901898Y-38154774D01*
X84701939Y-38115000D01*
X84639802Y-38115000D01*
X83913804Y-37389003D01*
X83890001Y-37359999D01*
X83774276Y-37265026D01*
X83642247Y-37194454D01*
X83498986Y-37150997D01*
X83387333Y-37140000D01*
X83387322Y-37140000D01*
X83350000Y-37136324D01*
X83312678Y-37140000D01*
X72403711Y-37140000D01*
X72359774Y-37096063D01*
X72190256Y-36982795D01*
X72001898Y-36904774D01*
X71801939Y-36865000D01*
X71598061Y-36865000D01*
X71398102Y-36904774D01*
X71209744Y-36982795D01*
X71040226Y-37096063D01*
X70896063Y-37240226D01*
X70782795Y-37409744D01*
X70704774Y-37598102D01*
X70665000Y-37798061D01*
X70665000Y-38001939D01*
X70704774Y-38201898D01*
X70782795Y-38390256D01*
X70896063Y-38559774D01*
X71040226Y-38703937D01*
X71209744Y-38817205D01*
X71398102Y-38895226D01*
X71598061Y-38935000D01*
X71801939Y-38935000D01*
X72001898Y-38895226D01*
X72190256Y-38817205D01*
X72359774Y-38703937D01*
X72403711Y-38660000D01*
X83035199Y-38660000D01*
X83565000Y-39189802D01*
X83565000Y-39190000D01*
X68753711Y-39190000D01*
X68709774Y-39146063D01*
X68540256Y-39032795D01*
X68485224Y-39010000D01*
X68687678Y-39010000D01*
X68725000Y-39013676D01*
X68762322Y-39010000D01*
X68762333Y-39010000D01*
X68873986Y-38999003D01*
X69017247Y-38955546D01*
X69149276Y-38884974D01*
X69265001Y-38790001D01*
X69288804Y-38760997D01*
X70391004Y-37658798D01*
X70420001Y-37635001D01*
X70514974Y-37519276D01*
X70585546Y-37387247D01*
X70629003Y-37243986D01*
X70640000Y-37132333D01*
X70640000Y-37132325D01*
X70643676Y-37095000D01*
X70640000Y-37057675D01*
X70640000Y-36558178D01*
X70826632Y-36433475D01*
X71033475Y-36226632D01*
X71150000Y-36052240D01*
X71266525Y-36226632D01*
X71473368Y-36433475D01*
X71716589Y-36595990D01*
X71986842Y-36707932D01*
X72273740Y-36765000D01*
X72566260Y-36765000D01*
X72853158Y-36707932D01*
X73123411Y-36595990D01*
X73366632Y-36433475D01*
X73573475Y-36226632D01*
X73690000Y-36052240D01*
X73806525Y-36226632D01*
X74013368Y-36433475D01*
X74256589Y-36595990D01*
X74526842Y-36707932D01*
X74813740Y-36765000D01*
X75106260Y-36765000D01*
X75393158Y-36707932D01*
X75663411Y-36595990D01*
X75906632Y-36433475D01*
X76113475Y-36226632D01*
X76230000Y-36052240D01*
X76346525Y-36226632D01*
X76553368Y-36433475D01*
X76796589Y-36595990D01*
X77066842Y-36707932D01*
X77353740Y-36765000D01*
X77646260Y-36765000D01*
X77933158Y-36707932D01*
X78203411Y-36595990D01*
X78446632Y-36433475D01*
X78653475Y-36226632D01*
X78770000Y-36052240D01*
X78886525Y-36226632D01*
X79093368Y-36433475D01*
X79336589Y-36595990D01*
X79606842Y-36707932D01*
X79893740Y-36765000D01*
X80186260Y-36765000D01*
X80473158Y-36707932D01*
X80743411Y-36595990D01*
X80986632Y-36433475D01*
X81193475Y-36226632D01*
X81310000Y-36052240D01*
X81426525Y-36226632D01*
X81633368Y-36433475D01*
X81876589Y-36595990D01*
X82146842Y-36707932D01*
X82433740Y-36765000D01*
X82726260Y-36765000D01*
X83013158Y-36707932D01*
X83271603Y-36600881D01*
X87078724Y-36600881D01*
X87438912Y-37090548D01*
X88102882Y-37450849D01*
X88824385Y-37674694D01*
X89575695Y-37753480D01*
X90327938Y-37684178D01*
X91052208Y-37469452D01*
X91720670Y-37117555D01*
X91761088Y-37090548D01*
X92121276Y-36600881D01*
X89600000Y-34079605D01*
X87078724Y-36600881D01*
X83271603Y-36600881D01*
X83283411Y-36595990D01*
X83526632Y-36433475D01*
X83733475Y-36226632D01*
X83895990Y-35983411D01*
X84007932Y-35713158D01*
X84065000Y-35426260D01*
X84065000Y-35133740D01*
X84007932Y-34846842D01*
X83895990Y-34576589D01*
X83733475Y-34333368D01*
X83526632Y-34126525D01*
X83352240Y-34010000D01*
X83526632Y-33893475D01*
X83544412Y-33875695D01*
X85746520Y-33875695D01*
X85815822Y-34627938D01*
X86030548Y-35352208D01*
X86382445Y-36020670D01*
X86409452Y-36061088D01*
X86899119Y-36421276D01*
X89420395Y-33900000D01*
X86899119Y-31378724D01*
X86409452Y-31738912D01*
X86049151Y-32402882D01*
X85825306Y-33124385D01*
X85746520Y-33875695D01*
X83544412Y-33875695D01*
X83733475Y-33686632D01*
X83895990Y-33443411D01*
X84007932Y-33173158D01*
X84065000Y-32886260D01*
X84065000Y-32593740D01*
X84007932Y-32306842D01*
X83895990Y-32036589D01*
X83733475Y-31793368D01*
X83526632Y-31586525D01*
X83283411Y-31424010D01*
X83013158Y-31312068D01*
X82726260Y-31255000D01*
X82433740Y-31255000D01*
X82146842Y-31312068D01*
X81876589Y-31424010D01*
X81633368Y-31586525D01*
X81426525Y-31793368D01*
X81310000Y-31967760D01*
X81193475Y-31793368D01*
X80986632Y-31586525D01*
X80743411Y-31424010D01*
X80473158Y-31312068D01*
X80186260Y-31255000D01*
X79893740Y-31255000D01*
X79606842Y-31312068D01*
X79336589Y-31424010D01*
X79093368Y-31586525D01*
X78886525Y-31793368D01*
X78770000Y-31967760D01*
X78653475Y-31793368D01*
X78446632Y-31586525D01*
X78203411Y-31424010D01*
X77933158Y-31312068D01*
X77646260Y-31255000D01*
X77353740Y-31255000D01*
X77066842Y-31312068D01*
X76796589Y-31424010D01*
X76553368Y-31586525D01*
X76346525Y-31793368D01*
X76230000Y-31967760D01*
X76113475Y-31793368D01*
X75906632Y-31586525D01*
X75663411Y-31424010D01*
X75393158Y-31312068D01*
X75106260Y-31255000D01*
X74813740Y-31255000D01*
X74526842Y-31312068D01*
X74256589Y-31424010D01*
X74013368Y-31586525D01*
X73806525Y-31793368D01*
X73690000Y-31967760D01*
X73573475Y-31793368D01*
X73366632Y-31586525D01*
X73123411Y-31424010D01*
X72853158Y-31312068D01*
X72566260Y-31255000D01*
X72273740Y-31255000D01*
X71986842Y-31312068D01*
X71716589Y-31424010D01*
X71473368Y-31586525D01*
X71266525Y-31793368D01*
X71150000Y-31967760D01*
X71033475Y-31793368D01*
X70826632Y-31586525D01*
X70583411Y-31424010D01*
X70313158Y-31312068D01*
X70026260Y-31255000D01*
X69733740Y-31255000D01*
X69446842Y-31312068D01*
X69176589Y-31424010D01*
X68933368Y-31586525D01*
X68726525Y-31793368D01*
X68610000Y-31967760D01*
X68493475Y-31793368D01*
X68286632Y-31586525D01*
X68043411Y-31424010D01*
X67773158Y-31312068D01*
X67486260Y-31255000D01*
X67193740Y-31255000D01*
X66906842Y-31312068D01*
X66636589Y-31424010D01*
X66393368Y-31586525D01*
X66186525Y-31793368D01*
X66070000Y-31967760D01*
X65953475Y-31793368D01*
X65746632Y-31586525D01*
X65503411Y-31424010D01*
X65233158Y-31312068D01*
X64946260Y-31255000D01*
X64653740Y-31255000D01*
X64366842Y-31312068D01*
X64096589Y-31424010D01*
X63853368Y-31586525D01*
X63646525Y-31793368D01*
X63530000Y-31967760D01*
X63413475Y-31793368D01*
X63206632Y-31586525D01*
X62963411Y-31424010D01*
X62693158Y-31312068D01*
X62406260Y-31255000D01*
X62113740Y-31255000D01*
X61826842Y-31312068D01*
X61556589Y-31424010D01*
X61313368Y-31586525D01*
X61106525Y-31793368D01*
X60984805Y-31975534D01*
X60915178Y-31858645D01*
X60720269Y-31642412D01*
X60486920Y-31468359D01*
X60224099Y-31343175D01*
X60076890Y-31298524D01*
X59847000Y-31419845D01*
X59847000Y-32613000D01*
X59867000Y-32613000D01*
X59867000Y-32867000D01*
X59847000Y-32867000D01*
X59847000Y-32887000D01*
X59593000Y-32887000D01*
X59593000Y-32867000D01*
X57307000Y-32867000D01*
X57307000Y-32887000D01*
X57053000Y-32887000D01*
X57053000Y-32867000D01*
X54767000Y-32867000D01*
X54767000Y-35153000D01*
X54787000Y-35153000D01*
X54787000Y-35407000D01*
X54767000Y-35407000D01*
X54767000Y-36600155D01*
X54996890Y-36721476D01*
X55144099Y-36676825D01*
X55406920Y-36551641D01*
X55640269Y-36377588D01*
X55835178Y-36161355D01*
X55904805Y-36044466D01*
X56026525Y-36226632D01*
X56233368Y-36433475D01*
X56476589Y-36595990D01*
X56746842Y-36707932D01*
X56941980Y-36746748D01*
X56941979Y-39610404D01*
X56938303Y-39647727D01*
X56941979Y-39685049D01*
X56941979Y-39685059D01*
X56952976Y-39796712D01*
X56994856Y-39934774D01*
X56996433Y-39939973D01*
X57067005Y-40072003D01*
X57089149Y-40098985D01*
X57161978Y-40187728D01*
X57190981Y-40211531D01*
X58107490Y-41128040D01*
X58131288Y-41157038D01*
X58247013Y-41252011D01*
X58379042Y-41322583D01*
X58522303Y-41366040D01*
X58633956Y-41377037D01*
X58633965Y-41377037D01*
X58671288Y-41380713D01*
X58708611Y-41377037D01*
X60929252Y-41377037D01*
X60973189Y-41420974D01*
X61142707Y-41534242D01*
X61331065Y-41612263D01*
X61531024Y-41652037D01*
X61734902Y-41652037D01*
X61934861Y-41612263D01*
X62123219Y-41534242D01*
X62292737Y-41420974D01*
X62436900Y-41276811D01*
X62550168Y-41107293D01*
X62628189Y-40918935D01*
X62667963Y-40718976D01*
X62667963Y-40515098D01*
X62630470Y-40326604D01*
X62728091Y-40307186D01*
X62916449Y-40229165D01*
X62953257Y-40204571D01*
X63123785Y-40275206D01*
X63323744Y-40314980D01*
X63527622Y-40314980D01*
X63727581Y-40275206D01*
X63906014Y-40201296D01*
X63935150Y-40220764D01*
X64123508Y-40298785D01*
X64323467Y-40338559D01*
X64527345Y-40338559D01*
X64640000Y-40316151D01*
X64640000Y-40637667D01*
X64636323Y-40675000D01*
X64650997Y-40823986D01*
X64694454Y-40967247D01*
X64765026Y-41099276D01*
X64838659Y-41188998D01*
X64842381Y-41193534D01*
X62038921Y-43996995D01*
X62009918Y-44020797D01*
X61914945Y-44136522D01*
X61844373Y-44268551D01*
X61800916Y-44411812D01*
X61789919Y-44523465D01*
X61789919Y-44523476D01*
X61786243Y-44560798D01*
X61789919Y-44598120D01*
X61789919Y-44637413D01*
X61789920Y-44637423D01*
X61789919Y-46521592D01*
X61623102Y-46554774D01*
X61434744Y-46632795D01*
X61265226Y-46746063D01*
X61121063Y-46890226D01*
X61007795Y-47059744D01*
X60929774Y-47248102D01*
X60890000Y-47448061D01*
X60890000Y-47651939D01*
X60929774Y-47851898D01*
X61007795Y-48040256D01*
X61121063Y-48209774D01*
X61265226Y-48353937D01*
X61434744Y-48467205D01*
X61547341Y-48513844D01*
X61579774Y-48676898D01*
X61657795Y-48865256D01*
X61771063Y-49034774D01*
X61915226Y-49178937D01*
X61984465Y-49225201D01*
X61965000Y-49323061D01*
X61965000Y-49526939D01*
X62004774Y-49726898D01*
X62082795Y-49915256D01*
X62196063Y-50084774D01*
X62340226Y-50228937D01*
X62462378Y-50310556D01*
X62440000Y-50423061D01*
X62440000Y-50626939D01*
X62479774Y-50826898D01*
X62557795Y-51015256D01*
X62635328Y-51131292D01*
X62532795Y-51284744D01*
X62454774Y-51473102D01*
X62415000Y-51673061D01*
X62415000Y-51876939D01*
X62454774Y-52076898D01*
X62532795Y-52265256D01*
X62593567Y-52356208D01*
X62557795Y-52409744D01*
X62479774Y-52598102D01*
X62440000Y-52798061D01*
X62440000Y-53001939D01*
X62479774Y-53201898D01*
X62557795Y-53390256D01*
X62671063Y-53559774D01*
X62815226Y-53703937D01*
X62984744Y-53817205D01*
X63173102Y-53895226D01*
X63373061Y-53935000D01*
X63482472Y-53935000D01*
X63505567Y-54051105D01*
X63583588Y-54239463D01*
X63696856Y-54408981D01*
X63841019Y-54553144D01*
X64010537Y-54666412D01*
X64198895Y-54744433D01*
X64398854Y-54784207D01*
X64398872Y-54784207D01*
X64473537Y-54964464D01*
X64586805Y-55133982D01*
X64730968Y-55278145D01*
X64900486Y-55391413D01*
X65088844Y-55469434D01*
X65179895Y-55487545D01*
X65232795Y-55615256D01*
X65346063Y-55784774D01*
X65490226Y-55928937D01*
X65659744Y-56042205D01*
X65848102Y-56120226D01*
X65884033Y-56127373D01*
X65865000Y-56223061D01*
X65865000Y-56426939D01*
X65904774Y-56626898D01*
X65982795Y-56815256D01*
X66096063Y-56984774D01*
X66140000Y-57028711D01*
X66140001Y-59412668D01*
X66136324Y-59450000D01*
X66140001Y-59487333D01*
X66150998Y-59598986D01*
X66154342Y-59610009D01*
X66194454Y-59742246D01*
X66243314Y-59833656D01*
X66076898Y-59764724D01*
X65876939Y-59724950D01*
X65673061Y-59724950D01*
X65473102Y-59764724D01*
X65284744Y-59842745D01*
X65115226Y-59956013D01*
X64971063Y-60100176D01*
X64857795Y-60269694D01*
X64779774Y-60458052D01*
X64740000Y-60658011D01*
X64740000Y-60720148D01*
X64214002Y-61246146D01*
X64184999Y-61269949D01*
X64166857Y-61292055D01*
X63838804Y-60964002D01*
X63815001Y-60934999D01*
X63704416Y-60844244D01*
X63704416Y-60695161D01*
X63664642Y-60495202D01*
X63586621Y-60306844D01*
X63473353Y-60137326D01*
X63329190Y-59993163D01*
X63159672Y-59879895D01*
X62971314Y-59801874D01*
X62771355Y-59762100D01*
X62567477Y-59762100D01*
X62367518Y-59801874D01*
X62179160Y-59879895D01*
X62009642Y-59993163D01*
X61865479Y-60137326D01*
X61752211Y-60306844D01*
X61674190Y-60495202D01*
X61634416Y-60695161D01*
X61634416Y-60899039D01*
X61674190Y-61098998D01*
X61752211Y-61287356D01*
X61865479Y-61456874D01*
X62009642Y-61601037D01*
X62123327Y-61676999D01*
X62129415Y-61684417D01*
X62158417Y-61708218D01*
X62436200Y-61986002D01*
X62459999Y-62015001D01*
X62575724Y-62109974D01*
X62707753Y-62180546D01*
X62851014Y-62224003D01*
X62959929Y-62234730D01*
X64268649Y-63543451D01*
X64146589Y-63594010D01*
X63903368Y-63756525D01*
X63696525Y-63963368D01*
X63580000Y-64137760D01*
X63463475Y-63963368D01*
X63256632Y-63756525D01*
X63013411Y-63594010D01*
X62743158Y-63482068D01*
X62456260Y-63425000D01*
X62163740Y-63425000D01*
X61876842Y-63482068D01*
X61606589Y-63594010D01*
X61363368Y-63756525D01*
X61156525Y-63963368D01*
X61040000Y-64137760D01*
X60923475Y-63963368D01*
X60716632Y-63756525D01*
X60530000Y-63631822D01*
X60530000Y-58257325D01*
X60533676Y-58220000D01*
X60530000Y-58182675D01*
X60530000Y-58182667D01*
X60519003Y-58071014D01*
X60475546Y-57927753D01*
X60404974Y-57795724D01*
X60310001Y-57679999D01*
X60281004Y-57656202D01*
X59538803Y-56914002D01*
X59515001Y-56884999D01*
X59399276Y-56790026D01*
X59267247Y-56719454D01*
X59123986Y-56675997D01*
X59012333Y-56665000D01*
X59012322Y-56665000D01*
X58975000Y-56661324D01*
X58937678Y-56665000D01*
X55728560Y-56665000D01*
X55720226Y-56623102D01*
X55642205Y-56434744D01*
X55528937Y-56265226D01*
X55384774Y-56121063D01*
X55215256Y-56007795D01*
X55026898Y-55929774D01*
X54826939Y-55890000D01*
X54623061Y-55890000D01*
X54423102Y-55929774D01*
X54234744Y-56007795D01*
X54118792Y-56085271D01*
X54110609Y-56079803D01*
X54120778Y-55976555D01*
X54124455Y-55939222D01*
X54120778Y-55901889D01*
X54120778Y-55173103D01*
X54124454Y-55135778D01*
X54120778Y-55098453D01*
X54120778Y-55098445D01*
X54109781Y-54986792D01*
X54066324Y-54843531D01*
X53995752Y-54711502D01*
X53947846Y-54653128D01*
X53947846Y-54043612D01*
X53991783Y-53999675D01*
X54105051Y-53830157D01*
X54183072Y-53641799D01*
X54222846Y-53441840D01*
X54222846Y-53237962D01*
X54183072Y-53038003D01*
X54105051Y-52849645D01*
X53991783Y-52680127D01*
X53847620Y-52535964D01*
X53678703Y-52423097D01*
X57211008Y-48890793D01*
X57240001Y-48866999D01*
X57263795Y-48838006D01*
X57263799Y-48838002D01*
X57327813Y-48760000D01*
X57334974Y-48751274D01*
X57405546Y-48619245D01*
X57449003Y-48475984D01*
X57460000Y-48364331D01*
X57460000Y-48364322D01*
X57463676Y-48326999D01*
X57460000Y-48289676D01*
X57460000Y-48203711D01*
X57503937Y-48159774D01*
X57617205Y-47990256D01*
X57695226Y-47801898D01*
X57735000Y-47601939D01*
X57735000Y-47398061D01*
X57695226Y-47198102D01*
X57617205Y-47009744D01*
X57581356Y-46956092D01*
X57645226Y-46801898D01*
X57685000Y-46601939D01*
X57685000Y-46398061D01*
X57645226Y-46198102D01*
X57567205Y-46009744D01*
X57453937Y-45840226D01*
X57410000Y-45796289D01*
X57410000Y-43237322D01*
X57413676Y-43199999D01*
X57410000Y-43162676D01*
X57410000Y-43162667D01*
X57399003Y-43051014D01*
X57355546Y-42907753D01*
X57284974Y-42775724D01*
X57190001Y-42659999D01*
X57161004Y-42636202D01*
X55788804Y-41264003D01*
X55765001Y-41234999D01*
X55649276Y-41140026D01*
X55517247Y-41069454D01*
X55373986Y-41025997D01*
X55262333Y-41015000D01*
X55262322Y-41015000D01*
X55225000Y-41011324D01*
X55187678Y-41015000D01*
X52978711Y-41015000D01*
X52934774Y-40971063D01*
X52765256Y-40857795D01*
X52576898Y-40779774D01*
X52376939Y-40740000D01*
X52173061Y-40740000D01*
X51973102Y-40779774D01*
X51784744Y-40857795D01*
X51615226Y-40971063D01*
X51471063Y-41115226D01*
X51357795Y-41284744D01*
X51279774Y-41473102D01*
X51240000Y-41673061D01*
X51240000Y-41740001D01*
X47512322Y-41740001D01*
X47474999Y-41736325D01*
X47437676Y-41740001D01*
X47437666Y-41740001D01*
X47326013Y-41750998D01*
X47190034Y-41792246D01*
X47182752Y-41794455D01*
X47050722Y-41865027D01*
X46978252Y-41924502D01*
X46934998Y-41960000D01*
X46911200Y-41988998D01*
X46210198Y-42690001D01*
X45991800Y-42690001D01*
X45975802Y-42674003D01*
X45951999Y-42644999D01*
X45930278Y-42627173D01*
X45950812Y-42559482D01*
X45963072Y-42435000D01*
X45960000Y-42370750D01*
X45801250Y-42212000D01*
X45458752Y-42212000D01*
X45449482Y-42209188D01*
X45325000Y-42196928D01*
X43575000Y-42196928D01*
X43450518Y-42209188D01*
X43441248Y-42212000D01*
X43098750Y-42212000D01*
X42940000Y-42370750D01*
X42936928Y-42435000D01*
X42949188Y-42559482D01*
X42972096Y-42635000D01*
X42949188Y-42710518D01*
X42938082Y-42823281D01*
X41828252Y-41713451D01*
X41820226Y-41673102D01*
X41742205Y-41484744D01*
X41628937Y-41315226D01*
X41585000Y-41271289D01*
X41585000Y-41014801D01*
X41639801Y-40960000D01*
X41701939Y-40960000D01*
X41901898Y-40920226D01*
X42064261Y-40852972D01*
X42140226Y-40928937D01*
X42309744Y-41042205D01*
X42498102Y-41120226D01*
X42698061Y-41160000D01*
X42760198Y-41160000D01*
X42937117Y-41336919D01*
X42949188Y-41459482D01*
X42972096Y-41535000D01*
X42949188Y-41610518D01*
X42936928Y-41735000D01*
X42940000Y-41799250D01*
X43098750Y-41958000D01*
X43441248Y-41958000D01*
X43450518Y-41960812D01*
X43575000Y-41973072D01*
X45325000Y-41973072D01*
X45449482Y-41960812D01*
X45458752Y-41958000D01*
X45801250Y-41958000D01*
X45960000Y-41799250D01*
X45963072Y-41735000D01*
X45950812Y-41610518D01*
X45927904Y-41535000D01*
X45950812Y-41459482D01*
X45963072Y-41335000D01*
X45963072Y-40635000D01*
X45950812Y-40510518D01*
X45927904Y-40435000D01*
X45950812Y-40359482D01*
X45963072Y-40235000D01*
X45963072Y-39535000D01*
X45950812Y-39410518D01*
X45914502Y-39290820D01*
X45855537Y-39180506D01*
X45776185Y-39083815D01*
X45713072Y-39032020D01*
X45713072Y-38035000D01*
X45700812Y-37910518D01*
X45664502Y-37790820D01*
X45605537Y-37680506D01*
X45526185Y-37583815D01*
X45429494Y-37504463D01*
X45319180Y-37445498D01*
X45199482Y-37409188D01*
X45075000Y-37396928D01*
X43575000Y-37396928D01*
X43450518Y-37409188D01*
X43330820Y-37445498D01*
X43220506Y-37504463D01*
X43123815Y-37583815D01*
X43044463Y-37680506D01*
X42985498Y-37790820D01*
X42949188Y-37910518D01*
X42936928Y-38035000D01*
X42936928Y-39096960D01*
X42901939Y-39090000D01*
X42698061Y-39090000D01*
X42498102Y-39129774D01*
X42335739Y-39197028D01*
X42259774Y-39121063D01*
X42090256Y-39007795D01*
X41901898Y-38929774D01*
X41701939Y-38890000D01*
X41498061Y-38890000D01*
X41298102Y-38929774D01*
X41109744Y-39007795D01*
X40940226Y-39121063D01*
X40796063Y-39265226D01*
X40682795Y-39434744D01*
X40604774Y-39623102D01*
X40565000Y-39823061D01*
X40565000Y-39885199D01*
X40313998Y-40136201D01*
X40285000Y-40159999D01*
X40261202Y-40188997D01*
X40261201Y-40188998D01*
X40190026Y-40275724D01*
X40119454Y-40407754D01*
X40101164Y-40468050D01*
X40075998Y-40551014D01*
X40073817Y-40573158D01*
X40061324Y-40700000D01*
X40065001Y-40737332D01*
X40065001Y-41271288D01*
X40021063Y-41315226D01*
X39907795Y-41484744D01*
X39829774Y-41673102D01*
X39790000Y-41873061D01*
X39790000Y-42076939D01*
X39829774Y-42276898D01*
X39907795Y-42465256D01*
X40021063Y-42634774D01*
X40165226Y-42778937D01*
X40334744Y-42892205D01*
X40523102Y-42970226D01*
X40723061Y-43010000D01*
X40926939Y-43010000D01*
X40967192Y-43001993D01*
X42250198Y-44285000D01*
X40613998Y-45921201D01*
X40585000Y-45944999D01*
X40561202Y-45973997D01*
X40561201Y-45973998D01*
X40490026Y-46060724D01*
X40419454Y-46192754D01*
X40396188Y-46269454D01*
X40375998Y-46336014D01*
X40368300Y-46414172D01*
X40361324Y-46485000D01*
X40365001Y-46522332D01*
X40365000Y-47596289D01*
X40321063Y-47640226D01*
X40207795Y-47809744D01*
X40129774Y-47998102D01*
X40090000Y-48198061D01*
X40090000Y-48401939D01*
X40129774Y-48601898D01*
X40207795Y-48790256D01*
X40321063Y-48959774D01*
X40465226Y-49103937D01*
X40634744Y-49217205D01*
X40823102Y-49295226D01*
X41023061Y-49335000D01*
X41226939Y-49335000D01*
X41426898Y-49295226D01*
X41615256Y-49217205D01*
X41784774Y-49103937D01*
X41928937Y-48959774D01*
X42042205Y-48790256D01*
X42116690Y-48610435D01*
X42154774Y-48801898D01*
X42232795Y-48990256D01*
X42346063Y-49159774D01*
X42490226Y-49303937D01*
X42659744Y-49417205D01*
X42848102Y-49495226D01*
X42936928Y-49512894D01*
X42936928Y-50785000D01*
X42949188Y-50909482D01*
X42985498Y-51029180D01*
X43044463Y-51139494D01*
X43123815Y-51236185D01*
X43220506Y-51315537D01*
X43330820Y-51374502D01*
X43450518Y-51410812D01*
X43575000Y-51423072D01*
X45075000Y-51423072D01*
X45199482Y-51410812D01*
X45319180Y-51374502D01*
X45429494Y-51315537D01*
X45526185Y-51236185D01*
X45605537Y-51139494D01*
X45664502Y-51029180D01*
X45700812Y-50909482D01*
X45713072Y-50785000D01*
X45713072Y-49285000D01*
X45700812Y-49160518D01*
X45664502Y-49040820D01*
X45605537Y-48930506D01*
X45526185Y-48833815D01*
X45429494Y-48754463D01*
X45319180Y-48695498D01*
X45199482Y-48659188D01*
X45075000Y-48646928D01*
X44176051Y-48646928D01*
X44185000Y-48601939D01*
X44185000Y-48573072D01*
X45325000Y-48573072D01*
X45449482Y-48560812D01*
X45569180Y-48524502D01*
X45679494Y-48465537D01*
X45776185Y-48386185D01*
X45855537Y-48289494D01*
X45914502Y-48179180D01*
X45950812Y-48059482D01*
X45963072Y-47935000D01*
X45963072Y-47235000D01*
X45950812Y-47110518D01*
X45927904Y-47035000D01*
X45950812Y-46959482D01*
X45963072Y-46835000D01*
X45963072Y-46145000D01*
X47275210Y-46145000D01*
X47366207Y-46235997D01*
X47390010Y-46265001D01*
X47505735Y-46359974D01*
X47598922Y-46409784D01*
X47637764Y-46430546D01*
X47781025Y-46474003D01*
X47930011Y-46488677D01*
X47967344Y-46485000D01*
X51392195Y-46485000D01*
X49264003Y-48613194D01*
X49234999Y-48636997D01*
X49186989Y-48695498D01*
X49140026Y-48752722D01*
X49089450Y-48847342D01*
X49069454Y-48884752D01*
X49025997Y-49028013D01*
X49015000Y-49139666D01*
X49015000Y-49139676D01*
X49011324Y-49176998D01*
X49015000Y-49214321D01*
X49015000Y-50473709D01*
X48934285Y-50457654D01*
X48730407Y-50457654D01*
X48530448Y-50497428D01*
X48342090Y-50575449D01*
X48172572Y-50688717D01*
X48028409Y-50832880D01*
X47915141Y-51002398D01*
X47837120Y-51190756D01*
X47797346Y-51390715D01*
X47797346Y-51594593D01*
X47837120Y-51794552D01*
X47915141Y-51982910D01*
X48028409Y-52152428D01*
X48065981Y-52190000D01*
X46837323Y-52190000D01*
X46800000Y-52186324D01*
X46762677Y-52190000D01*
X46762667Y-52190000D01*
X46651014Y-52200997D01*
X46534489Y-52236344D01*
X46507753Y-52244454D01*
X46375723Y-52315026D01*
X46320924Y-52359999D01*
X46259999Y-52409999D01*
X46236201Y-52438997D01*
X44150000Y-54525199D01*
X43394540Y-53769739D01*
X43464210Y-53659529D01*
X43544126Y-53451876D01*
X43419129Y-53277000D01*
X42831363Y-53277000D01*
X42817248Y-53269455D01*
X42673987Y-53225998D01*
X42562334Y-53215001D01*
X42562323Y-53215001D01*
X42525001Y-53211325D01*
X42487679Y-53215001D01*
X42319803Y-53215001D01*
X42315000Y-53210198D01*
X42315000Y-53038212D01*
X42311974Y-53023000D01*
X42323000Y-53023000D01*
X42323000Y-52182046D01*
X42577000Y-52182046D01*
X42577000Y-53023000D01*
X43419129Y-53023000D01*
X43544126Y-52848124D01*
X43464210Y-52640471D01*
X43345318Y-52452399D01*
X43192020Y-52291135D01*
X43010206Y-52162877D01*
X42806864Y-52072554D01*
X42751874Y-52055881D01*
X42577000Y-52182046D01*
X42323000Y-52182046D01*
X42148126Y-52055881D01*
X42093136Y-52072554D01*
X41889794Y-52162877D01*
X41819658Y-52212353D01*
X41717624Y-52144176D01*
X41511067Y-52058617D01*
X41291788Y-52015000D01*
X41119802Y-52015000D01*
X34960000Y-45855199D01*
X34960000Y-41353711D01*
X35003937Y-41309774D01*
X35117205Y-41140256D01*
X35195226Y-40951898D01*
X35235000Y-40751939D01*
X35235000Y-40548061D01*
X35195226Y-40348102D01*
X35117205Y-40159744D01*
X35030007Y-40029243D01*
X35098000Y-39961250D01*
X35098000Y-38887000D01*
X34248750Y-38887000D01*
X34090000Y-39045750D01*
X34086928Y-39485000D01*
X34099188Y-39609482D01*
X34100862Y-39615000D01*
X34098061Y-39615000D01*
X34058918Y-39622786D01*
X34058854Y-38035000D01*
X34086928Y-38035000D01*
X34090000Y-38474250D01*
X34248750Y-38633000D01*
X35098000Y-38633000D01*
X35098000Y-37558750D01*
X34939250Y-37400000D01*
X34725000Y-37396928D01*
X34600518Y-37409188D01*
X34480820Y-37445498D01*
X34370506Y-37504463D01*
X34273815Y-37583815D01*
X34194463Y-37680506D01*
X34135498Y-37790820D01*
X34099188Y-37910518D01*
X34086928Y-38035000D01*
X34058854Y-38035000D01*
X34058795Y-36600881D01*
X34678724Y-36600881D01*
X35038912Y-37090548D01*
X35606643Y-37398625D01*
X35510750Y-37400000D01*
X35352000Y-37558750D01*
X35352000Y-37901248D01*
X35349188Y-37910518D01*
X35336928Y-38035000D01*
X35336928Y-38835000D01*
X35349188Y-38959482D01*
X35352000Y-38968752D01*
X35352000Y-39961250D01*
X35510750Y-40120000D01*
X35725000Y-40123072D01*
X35849482Y-40110812D01*
X35969180Y-40074502D01*
X36079494Y-40015537D01*
X36176185Y-39936185D01*
X36255537Y-39839494D01*
X36314502Y-39729180D01*
X36350812Y-39609482D01*
X36363072Y-39485000D01*
X36362989Y-39473072D01*
X37475000Y-39473072D01*
X37599482Y-39460812D01*
X37719180Y-39424502D01*
X37829494Y-39365537D01*
X37926185Y-39286185D01*
X38005537Y-39189494D01*
X38064502Y-39079180D01*
X38100812Y-38959482D01*
X38113072Y-38835000D01*
X38113072Y-38035000D01*
X38100812Y-37910518D01*
X38064502Y-37790820D01*
X38005537Y-37680506D01*
X37992775Y-37664956D01*
X38652208Y-37469452D01*
X39320670Y-37117555D01*
X39361088Y-37090548D01*
X39721276Y-36600881D01*
X37200000Y-34079605D01*
X34678724Y-36600881D01*
X34058795Y-36600881D01*
X34058774Y-36097368D01*
X34499119Y-36421276D01*
X37020395Y-33900000D01*
X37379605Y-33900000D01*
X39900881Y-36421276D01*
X40390548Y-36061088D01*
X40750849Y-35397118D01*
X40974694Y-34675615D01*
X41000450Y-34430000D01*
X42991928Y-34430000D01*
X42991928Y-36130000D01*
X43004188Y-36254482D01*
X43040498Y-36374180D01*
X43099463Y-36484494D01*
X43178815Y-36581185D01*
X43275506Y-36660537D01*
X43385820Y-36719502D01*
X43505518Y-36755812D01*
X43630000Y-36768072D01*
X45330000Y-36768072D01*
X45454482Y-36755812D01*
X45574180Y-36719502D01*
X45684494Y-36660537D01*
X45781185Y-36581185D01*
X45860537Y-36484494D01*
X45919502Y-36374180D01*
X45943966Y-36293534D01*
X46019731Y-36377588D01*
X46253080Y-36551641D01*
X46515901Y-36676825D01*
X46663110Y-36721476D01*
X46893000Y-36600155D01*
X46893000Y-35407000D01*
X46873000Y-35407000D01*
X46873000Y-35153000D01*
X46893000Y-35153000D01*
X46893000Y-35133000D01*
X47147000Y-35133000D01*
X47147000Y-35153000D01*
X47167000Y-35153000D01*
X47167000Y-35407000D01*
X47147000Y-35407000D01*
X47147000Y-36600155D01*
X47376890Y-36721476D01*
X47435001Y-36703850D01*
X47435001Y-38407678D01*
X47431325Y-38445001D01*
X47435001Y-38482323D01*
X47435001Y-38482333D01*
X47445998Y-38593986D01*
X47478308Y-38700498D01*
X47489455Y-38737247D01*
X47560027Y-38869277D01*
X47597551Y-38915000D01*
X47655000Y-38985002D01*
X47684003Y-39008804D01*
X48040000Y-39364801D01*
X48040000Y-39426939D01*
X48079774Y-39626898D01*
X48157795Y-39815256D01*
X48271063Y-39984774D01*
X48415226Y-40128937D01*
X48584744Y-40242205D01*
X48773102Y-40320226D01*
X48973061Y-40360000D01*
X49176939Y-40360000D01*
X49376898Y-40320226D01*
X49565256Y-40242205D01*
X49734774Y-40128937D01*
X49878937Y-39984774D01*
X49992205Y-39815256D01*
X50070226Y-39626898D01*
X50110000Y-39426939D01*
X50110000Y-39223061D01*
X50070226Y-39023102D01*
X49992205Y-38834744D01*
X49878937Y-38665226D01*
X49734774Y-38521063D01*
X49565256Y-38407795D01*
X49376898Y-38329774D01*
X49176939Y-38290000D01*
X49114801Y-38290000D01*
X48955001Y-38130200D01*
X48955001Y-36628765D01*
X49055901Y-36676825D01*
X49203110Y-36721476D01*
X49433000Y-36600155D01*
X49433000Y-35407000D01*
X49687000Y-35407000D01*
X49687000Y-36600155D01*
X49916890Y-36721476D01*
X50064099Y-36676825D01*
X50326920Y-36551641D01*
X50560269Y-36377588D01*
X50755178Y-36161355D01*
X50830000Y-36035745D01*
X50904822Y-36161355D01*
X51099731Y-36377588D01*
X51333080Y-36551641D01*
X51595901Y-36676825D01*
X51743110Y-36721476D01*
X51973000Y-36600155D01*
X51973000Y-35407000D01*
X52227000Y-35407000D01*
X52227000Y-36600155D01*
X52456890Y-36721476D01*
X52604099Y-36676825D01*
X52866920Y-36551641D01*
X53100269Y-36377588D01*
X53295178Y-36161355D01*
X53370000Y-36035745D01*
X53444822Y-36161355D01*
X53639731Y-36377588D01*
X53873080Y-36551641D01*
X54135901Y-36676825D01*
X54283110Y-36721476D01*
X54513000Y-36600155D01*
X54513000Y-35407000D01*
X52227000Y-35407000D01*
X51973000Y-35407000D01*
X49687000Y-35407000D01*
X49433000Y-35407000D01*
X49413000Y-35407000D01*
X49413000Y-35153000D01*
X49433000Y-35153000D01*
X49433000Y-32867000D01*
X49687000Y-32867000D01*
X49687000Y-35153000D01*
X51973000Y-35153000D01*
X51973000Y-32867000D01*
X52227000Y-32867000D01*
X52227000Y-35153000D01*
X54513000Y-35153000D01*
X54513000Y-32867000D01*
X52227000Y-32867000D01*
X51973000Y-32867000D01*
X49687000Y-32867000D01*
X49433000Y-32867000D01*
X49413000Y-32867000D01*
X49413000Y-32613000D01*
X49433000Y-32613000D01*
X49433000Y-31419845D01*
X49687000Y-31419845D01*
X49687000Y-32613000D01*
X51973000Y-32613000D01*
X51973000Y-31419845D01*
X52227000Y-31419845D01*
X52227000Y-32613000D01*
X54513000Y-32613000D01*
X54513000Y-31419845D01*
X54767000Y-31419845D01*
X54767000Y-32613000D01*
X57053000Y-32613000D01*
X57053000Y-31419845D01*
X57307000Y-31419845D01*
X57307000Y-32613000D01*
X59593000Y-32613000D01*
X59593000Y-31419845D01*
X59363110Y-31298524D01*
X59215901Y-31343175D01*
X58953080Y-31468359D01*
X58719731Y-31642412D01*
X58524822Y-31858645D01*
X58450000Y-31984255D01*
X58375178Y-31858645D01*
X58180269Y-31642412D01*
X57946920Y-31468359D01*
X57684099Y-31343175D01*
X57536890Y-31298524D01*
X57307000Y-31419845D01*
X57053000Y-31419845D01*
X56823110Y-31298524D01*
X56675901Y-31343175D01*
X56413080Y-31468359D01*
X56179731Y-31642412D01*
X55984822Y-31858645D01*
X55910000Y-31984255D01*
X55835178Y-31858645D01*
X55640269Y-31642412D01*
X55406920Y-31468359D01*
X55144099Y-31343175D01*
X54996890Y-31298524D01*
X54767000Y-31419845D01*
X54513000Y-31419845D01*
X54283110Y-31298524D01*
X54135901Y-31343175D01*
X53873080Y-31468359D01*
X53639731Y-31642412D01*
X53444822Y-31858645D01*
X53370000Y-31984255D01*
X53295178Y-31858645D01*
X53100269Y-31642412D01*
X52866920Y-31468359D01*
X52604099Y-31343175D01*
X52456890Y-31298524D01*
X52227000Y-31419845D01*
X51973000Y-31419845D01*
X51743110Y-31298524D01*
X51595901Y-31343175D01*
X51333080Y-31468359D01*
X51099731Y-31642412D01*
X50904822Y-31858645D01*
X50830000Y-31984255D01*
X50755178Y-31858645D01*
X50560269Y-31642412D01*
X50326920Y-31468359D01*
X50064099Y-31343175D01*
X49916890Y-31298524D01*
X49687000Y-31419845D01*
X49433000Y-31419845D01*
X49203110Y-31298524D01*
X49055901Y-31343175D01*
X48793080Y-31468359D01*
X48559731Y-31642412D01*
X48364822Y-31858645D01*
X48295195Y-31975534D01*
X48173475Y-31793368D01*
X47966632Y-31586525D01*
X47723411Y-31424010D01*
X47453158Y-31312068D01*
X47166260Y-31255000D01*
X46873740Y-31255000D01*
X46586842Y-31312068D01*
X46316589Y-31424010D01*
X46073368Y-31586525D01*
X45866525Y-31793368D01*
X45744805Y-31975534D01*
X45675178Y-31858645D01*
X45480269Y-31642412D01*
X45246920Y-31468359D01*
X44984099Y-31343175D01*
X44836890Y-31298524D01*
X44607000Y-31419845D01*
X44607000Y-32613000D01*
X44627000Y-32613000D01*
X44627000Y-32867000D01*
X44607000Y-32867000D01*
X44607000Y-32887000D01*
X44353000Y-32887000D01*
X44353000Y-32867000D01*
X43159186Y-32867000D01*
X43038519Y-33096891D01*
X43135843Y-33371252D01*
X43284822Y-33621355D01*
X43461626Y-33817502D01*
X43385820Y-33840498D01*
X43275506Y-33899463D01*
X43178815Y-33978815D01*
X43099463Y-34075506D01*
X43040498Y-34185820D01*
X43004188Y-34305518D01*
X42991928Y-34430000D01*
X41000450Y-34430000D01*
X41053480Y-33924305D01*
X40984178Y-33172062D01*
X40769452Y-32447792D01*
X40735402Y-32383109D01*
X43038519Y-32383109D01*
X43159186Y-32613000D01*
X44353000Y-32613000D01*
X44353000Y-31419845D01*
X44123110Y-31298524D01*
X43975901Y-31343175D01*
X43713080Y-31468359D01*
X43479731Y-31642412D01*
X43284822Y-31858645D01*
X43135843Y-32108748D01*
X43038519Y-32383109D01*
X40735402Y-32383109D01*
X40417555Y-31779330D01*
X40390548Y-31738912D01*
X39900881Y-31378724D01*
X37379605Y-33900000D01*
X37020395Y-33900000D01*
X37006253Y-33885858D01*
X37185858Y-33706253D01*
X37200000Y-33720395D01*
X39721276Y-31199119D01*
X39398432Y-30760221D01*
X87397843Y-30765285D01*
G37*
X87397843Y-30765285D02*
X87078724Y-31199119D01*
X89600000Y-33720395D01*
X89614143Y-33706253D01*
X89793748Y-33885858D01*
X89779605Y-33900000D01*
X92300881Y-36421276D01*
X92740000Y-36098270D01*
X92740001Y-64101731D01*
X92300881Y-63778724D01*
X89779605Y-66300000D01*
X89793748Y-66314143D01*
X89614143Y-66493748D01*
X89600000Y-66479605D01*
X87078724Y-69000881D01*
X87395538Y-69431582D01*
X85151784Y-69423018D01*
X85861004Y-68713798D01*
X85890001Y-68690001D01*
X85984974Y-68574276D01*
X86055546Y-68442247D01*
X86099003Y-68298986D01*
X86110000Y-68187333D01*
X86110000Y-68187332D01*
X86113677Y-68150000D01*
X86110000Y-68112667D01*
X86110000Y-67903135D01*
X86382445Y-68420670D01*
X86409452Y-68461088D01*
X86899119Y-68821276D01*
X89420395Y-66300000D01*
X86899119Y-63778724D01*
X86409452Y-64138912D01*
X86049151Y-64802882D01*
X85857933Y-65419222D01*
X85784774Y-65346063D01*
X85615256Y-65232795D01*
X85426898Y-65154774D01*
X85226939Y-65115000D01*
X85023061Y-65115000D01*
X84823102Y-65154774D01*
X84634744Y-65232795D01*
X84465226Y-65346063D01*
X84321063Y-65490226D01*
X84207795Y-65659744D01*
X84129774Y-65848102D01*
X84090000Y-66048061D01*
X84090000Y-66251939D01*
X84129774Y-66451898D01*
X84207795Y-66640256D01*
X84321063Y-66809774D01*
X84465226Y-66953937D01*
X84590001Y-67037309D01*
X84590000Y-67835198D01*
X84035199Y-68390000D01*
X83787906Y-68390000D01*
X83945990Y-68153411D01*
X84057932Y-67883158D01*
X84115000Y-67596260D01*
X84115000Y-67303740D01*
X84057932Y-67016842D01*
X83945990Y-66746589D01*
X83783475Y-66503368D01*
X83576632Y-66296525D01*
X83400594Y-66178900D01*
X83630269Y-66007588D01*
X83825178Y-65791355D01*
X83974157Y-65541252D01*
X84071481Y-65266891D01*
X83950814Y-65037000D01*
X82757000Y-65037000D01*
X82757000Y-65057000D01*
X82503000Y-65057000D01*
X82503000Y-65037000D01*
X82483000Y-65037000D01*
X82483000Y-64783000D01*
X82503000Y-64783000D01*
X82503000Y-64763000D01*
X82757000Y-64763000D01*
X82757000Y-64783000D01*
X83950814Y-64783000D01*
X84071481Y-64553109D01*
X83974157Y-64278748D01*
X83825178Y-64028645D01*
X83630269Y-63812412D01*
X83396920Y-63638359D01*
X83314537Y-63599119D01*
X87078724Y-63599119D01*
X89600000Y-66120395D01*
X92121276Y-63599119D01*
X91761088Y-63109452D01*
X91097118Y-62749151D01*
X90375615Y-62525306D01*
X89624305Y-62446520D01*
X88872062Y-62515822D01*
X88147792Y-62730548D01*
X87479330Y-63082445D01*
X87438912Y-63109452D01*
X87078724Y-63599119D01*
X83314537Y-63599119D01*
X83288894Y-63586905D01*
X83990800Y-62885000D01*
X87432680Y-62885000D01*
X87470002Y-62888676D01*
X87507324Y-62885000D01*
X87507335Y-62885000D01*
X87618988Y-62874003D01*
X87762249Y-62830546D01*
X87894278Y-62759974D01*
X88010003Y-62665001D01*
X88033805Y-62635998D01*
X89516010Y-61153795D01*
X89545002Y-61130002D01*
X89568796Y-61101009D01*
X89568800Y-61101005D01*
X89639974Y-61014278D01*
X89639975Y-61014277D01*
X89710547Y-60882248D01*
X89728885Y-60821794D01*
X89936842Y-60907932D01*
X90223740Y-60965000D01*
X90516260Y-60965000D01*
X90803158Y-60907932D01*
X91073411Y-60795990D01*
X91316632Y-60633475D01*
X91523475Y-60426632D01*
X91685990Y-60183411D01*
X91797932Y-59913158D01*
X91855000Y-59626260D01*
X91855000Y-59333740D01*
X91797932Y-59046842D01*
X91685990Y-58776589D01*
X91523475Y-58533368D01*
X91316632Y-58326525D01*
X91073411Y-58164010D01*
X90803158Y-58052068D01*
X90516260Y-57995000D01*
X90223740Y-57995000D01*
X89936842Y-58052068D01*
X89765001Y-58123247D01*
X89765001Y-55137918D01*
X89929013Y-55208415D01*
X90148000Y-55255000D01*
X90448000Y-55255000D01*
X90448000Y-54247000D01*
X90702000Y-54247000D01*
X90702000Y-55255000D01*
X91002000Y-55255000D01*
X91220987Y-55208415D01*
X91426678Y-55120003D01*
X91611169Y-54993161D01*
X91767369Y-54832764D01*
X91889276Y-54644976D01*
X91969119Y-54421874D01*
X91842954Y-54247000D01*
X90702000Y-54247000D01*
X90448000Y-54247000D01*
X90428000Y-54247000D01*
X90428000Y-53993000D01*
X90448000Y-53993000D01*
X90448000Y-52985000D01*
X90702000Y-52985000D01*
X90702000Y-53993000D01*
X91842954Y-53993000D01*
X91969119Y-53818126D01*
X91889276Y-53595024D01*
X91767369Y-53407236D01*
X91611169Y-53246839D01*
X91426678Y-53119997D01*
X91220987Y-53031585D01*
X91002000Y-52985000D01*
X90702000Y-52985000D01*
X90448000Y-52985000D01*
X90148000Y-52985000D01*
X89929013Y-53031585D01*
X89765001Y-53102082D01*
X89765001Y-50019325D01*
X89768677Y-49982002D01*
X89765001Y-49944679D01*
X89765001Y-49944670D01*
X89754004Y-49833017D01*
X89710547Y-49689756D01*
X89702273Y-49674276D01*
X89639975Y-49557726D01*
X89568800Y-49471000D01*
X89545002Y-49442002D01*
X89516004Y-49418204D01*
X88554801Y-48457002D01*
X88675665Y-48336139D01*
X88684744Y-48342205D01*
X88873102Y-48420226D01*
X89073061Y-48460000D01*
X89276939Y-48460000D01*
X89476898Y-48420226D01*
X89665256Y-48342205D01*
X89834774Y-48228937D01*
X89978937Y-48084774D01*
X90092205Y-47915256D01*
X90170226Y-47726898D01*
X90210000Y-47526939D01*
X90210000Y-47323061D01*
X90170226Y-47123102D01*
X90092205Y-46934744D01*
X89978937Y-46765226D01*
X89834774Y-46621063D01*
X89665256Y-46507795D01*
X89476898Y-46429774D01*
X89276939Y-46390000D01*
X89073061Y-46390000D01*
X88873102Y-46429774D01*
X88684744Y-46507795D01*
X88515226Y-46621063D01*
X88470920Y-46665369D01*
X88363016Y-46675997D01*
X88219755Y-46719454D01*
X88087726Y-46790026D01*
X87972001Y-46884999D01*
X87948203Y-46913997D01*
X87854342Y-47007858D01*
X87855000Y-47004552D01*
X87855000Y-46815448D01*
X87818108Y-46629978D01*
X87745741Y-46455269D01*
X87678665Y-46354883D01*
X87681169Y-46353161D01*
X87837369Y-46192764D01*
X87959276Y-46004976D01*
X88039119Y-45781874D01*
X89180881Y-45781874D01*
X89260724Y-46004976D01*
X89382631Y-46192764D01*
X89538831Y-46353161D01*
X89723322Y-46480003D01*
X89929013Y-46568415D01*
X90148000Y-46615000D01*
X90448000Y-46615000D01*
X90448000Y-45607000D01*
X90702000Y-45607000D01*
X90702000Y-46615000D01*
X91002000Y-46615000D01*
X91220987Y-46568415D01*
X91426678Y-46480003D01*
X91611169Y-46353161D01*
X91767369Y-46192764D01*
X91889276Y-46004976D01*
X91969119Y-45781874D01*
X91842954Y-45607000D01*
X90702000Y-45607000D01*
X90448000Y-45607000D01*
X89307046Y-45607000D01*
X89180881Y-45781874D01*
X88039119Y-45781874D01*
X87912954Y-45607000D01*
X86522000Y-45607000D01*
X86522000Y-45627000D01*
X86268000Y-45627000D01*
X86268000Y-45607000D01*
X84877046Y-45607000D01*
X84750881Y-45781874D01*
X84830724Y-46004976D01*
X84952631Y-46192764D01*
X85108831Y-46353161D01*
X85293322Y-46480003D01*
X85499013Y-46568415D01*
X85718000Y-46615000D01*
X85978096Y-46615000D01*
X85971892Y-46629978D01*
X85940062Y-46790000D01*
X77197087Y-46790000D01*
X77185812Y-46675518D01*
X77149502Y-46555820D01*
X77090537Y-46445506D01*
X77011185Y-46348815D01*
X76914494Y-46269463D01*
X76804180Y-46210498D01*
X76684482Y-46174188D01*
X76560000Y-46161928D01*
X74874654Y-46161928D01*
X74920226Y-46051908D01*
X74960000Y-45851949D01*
X74960000Y-45648071D01*
X74920226Y-45448112D01*
X74842205Y-45259754D01*
X74787664Y-45178126D01*
X84750881Y-45178126D01*
X84877046Y-45353000D01*
X86268000Y-45353000D01*
X86268000Y-44345000D01*
X86522000Y-44345000D01*
X86522000Y-45353000D01*
X87912954Y-45353000D01*
X88039119Y-45178126D01*
X89180881Y-45178126D01*
X89307046Y-45353000D01*
X90448000Y-45353000D01*
X90448000Y-44345000D01*
X90702000Y-44345000D01*
X90702000Y-45353000D01*
X91842954Y-45353000D01*
X91969119Y-45178126D01*
X91889276Y-44955024D01*
X91767369Y-44767236D01*
X91611169Y-44606839D01*
X91426678Y-44479997D01*
X91220987Y-44391585D01*
X91002000Y-44345000D01*
X90702000Y-44345000D01*
X90448000Y-44345000D01*
X90148000Y-44345000D01*
X89929013Y-44391585D01*
X89723322Y-44479997D01*
X89538831Y-44606839D01*
X89382631Y-44767236D01*
X89260724Y-44955024D01*
X89180881Y-45178126D01*
X88039119Y-45178126D01*
X87959276Y-44955024D01*
X87837369Y-44767236D01*
X87681169Y-44606839D01*
X87496678Y-44479997D01*
X87290987Y-44391585D01*
X87072000Y-44345000D01*
X86522000Y-44345000D01*
X86268000Y-44345000D01*
X85718000Y-44345000D01*
X85499013Y-44391585D01*
X85293322Y-44479997D01*
X85108831Y-44606839D01*
X84952631Y-44767236D01*
X84830724Y-44955024D01*
X84750881Y-45178126D01*
X74787664Y-45178126D01*
X74728937Y-45090236D01*
X74657755Y-45019054D01*
X75841810Y-43835000D01*
X79221289Y-43835000D01*
X79265226Y-43878937D01*
X79434744Y-43992205D01*
X79623102Y-44070226D01*
X79823061Y-44110000D01*
X80026939Y-44110000D01*
X80226898Y-44070226D01*
X80415256Y-43992205D01*
X80584774Y-43878937D01*
X80728937Y-43734774D01*
X80842205Y-43565256D01*
X80920226Y-43376898D01*
X80960000Y-43176939D01*
X80960000Y-42973061D01*
X80920226Y-42773102D01*
X80842205Y-42584744D01*
X80793933Y-42512500D01*
X80842205Y-42440256D01*
X80920226Y-42251898D01*
X80960000Y-42051939D01*
X80960000Y-41848061D01*
X80920226Y-41648102D01*
X80842205Y-41459744D01*
X80825672Y-41435000D01*
X86233739Y-41435000D01*
X86238815Y-41441185D01*
X86335506Y-41520537D01*
X86445820Y-41579502D01*
X86565518Y-41615812D01*
X86690000Y-41628072D01*
X88390000Y-41628072D01*
X88514482Y-41615812D01*
X88634180Y-41579502D01*
X88744494Y-41520537D01*
X88841185Y-41441185D01*
X88920537Y-41344494D01*
X88979502Y-41234180D01*
X89001513Y-41161620D01*
X89133368Y-41293475D01*
X89376589Y-41455990D01*
X89646842Y-41567932D01*
X89933740Y-41625000D01*
X90226260Y-41625000D01*
X90513158Y-41567932D01*
X90783411Y-41455990D01*
X91026632Y-41293475D01*
X91233475Y-41086632D01*
X91395990Y-40843411D01*
X91507932Y-40573158D01*
X91565000Y-40286260D01*
X91565000Y-39993740D01*
X91507932Y-39706842D01*
X91395990Y-39436589D01*
X91233475Y-39193368D01*
X91026632Y-38986525D01*
X90783411Y-38824010D01*
X90513158Y-38712068D01*
X90226260Y-38655000D01*
X89933740Y-38655000D01*
X89713592Y-38698791D01*
X88928804Y-37914003D01*
X88905001Y-37884999D01*
X88789276Y-37790026D01*
X88657247Y-37719454D01*
X88513986Y-37675997D01*
X88402333Y-37665000D01*
X88402322Y-37665000D01*
X88365000Y-37661324D01*
X88327678Y-37665000D01*
X87007323Y-37665000D01*
X86969998Y-37661324D01*
X86932673Y-37665000D01*
X86932665Y-37665000D01*
X86821012Y-37675997D01*
X86677751Y-37719454D01*
X86545722Y-37790026D01*
X86429997Y-37884999D01*
X86406198Y-37913998D01*
X85853997Y-38466200D01*
X85824999Y-38489998D01*
X85730025Y-38605723D01*
X85659453Y-38737752D01*
X85615996Y-38881013D01*
X85611285Y-38928839D01*
X85595226Y-38848102D01*
X85517205Y-38659744D01*
X85403937Y-38490226D01*
X85259774Y-38346063D01*
X85090256Y-38232795D01*
X84901898Y-38154774D01*
X84701939Y-38115000D01*
X84639802Y-38115000D01*
X83913804Y-37389003D01*
X83890001Y-37359999D01*
X83774276Y-37265026D01*
X83642247Y-37194454D01*
X83498986Y-37150997D01*
X83387333Y-37140000D01*
X83387322Y-37140000D01*
X83350000Y-37136324D01*
X83312678Y-37140000D01*
X72403711Y-37140000D01*
X72359774Y-37096063D01*
X72190256Y-36982795D01*
X72001898Y-36904774D01*
X71801939Y-36865000D01*
X71598061Y-36865000D01*
X71398102Y-36904774D01*
X71209744Y-36982795D01*
X71040226Y-37096063D01*
X70896063Y-37240226D01*
X70782795Y-37409744D01*
X70704774Y-37598102D01*
X70665000Y-37798061D01*
X70665000Y-38001939D01*
X70704774Y-38201898D01*
X70782795Y-38390256D01*
X70896063Y-38559774D01*
X71040226Y-38703937D01*
X71209744Y-38817205D01*
X71398102Y-38895226D01*
X71598061Y-38935000D01*
X71801939Y-38935000D01*
X72001898Y-38895226D01*
X72190256Y-38817205D01*
X72359774Y-38703937D01*
X72403711Y-38660000D01*
X83035199Y-38660000D01*
X83565000Y-39189802D01*
X83565000Y-39190000D01*
X68753711Y-39190000D01*
X68709774Y-39146063D01*
X68540256Y-39032795D01*
X68485224Y-39010000D01*
X68687678Y-39010000D01*
X68725000Y-39013676D01*
X68762322Y-39010000D01*
X68762333Y-39010000D01*
X68873986Y-38999003D01*
X69017247Y-38955546D01*
X69149276Y-38884974D01*
X69265001Y-38790001D01*
X69288804Y-38760997D01*
X70391004Y-37658798D01*
X70420001Y-37635001D01*
X70514974Y-37519276D01*
X70585546Y-37387247D01*
X70629003Y-37243986D01*
X70640000Y-37132333D01*
X70640000Y-37132325D01*
X70643676Y-37095000D01*
X70640000Y-37057675D01*
X70640000Y-36558178D01*
X70826632Y-36433475D01*
X71033475Y-36226632D01*
X71150000Y-36052240D01*
X71266525Y-36226632D01*
X71473368Y-36433475D01*
X71716589Y-36595990D01*
X71986842Y-36707932D01*
X72273740Y-36765000D01*
X72566260Y-36765000D01*
X72853158Y-36707932D01*
X73123411Y-36595990D01*
X73366632Y-36433475D01*
X73573475Y-36226632D01*
X73690000Y-36052240D01*
X73806525Y-36226632D01*
X74013368Y-36433475D01*
X74256589Y-36595990D01*
X74526842Y-36707932D01*
X74813740Y-36765000D01*
X75106260Y-36765000D01*
X75393158Y-36707932D01*
X75663411Y-36595990D01*
X75906632Y-36433475D01*
X76113475Y-36226632D01*
X76230000Y-36052240D01*
X76346525Y-36226632D01*
X76553368Y-36433475D01*
X76796589Y-36595990D01*
X77066842Y-36707932D01*
X77353740Y-36765000D01*
X77646260Y-36765000D01*
X77933158Y-36707932D01*
X78203411Y-36595990D01*
X78446632Y-36433475D01*
X78653475Y-36226632D01*
X78770000Y-36052240D01*
X78886525Y-36226632D01*
X79093368Y-36433475D01*
X79336589Y-36595990D01*
X79606842Y-36707932D01*
X79893740Y-36765000D01*
X80186260Y-36765000D01*
X80473158Y-36707932D01*
X80743411Y-36595990D01*
X80986632Y-36433475D01*
X81193475Y-36226632D01*
X81310000Y-36052240D01*
X81426525Y-36226632D01*
X81633368Y-36433475D01*
X81876589Y-36595990D01*
X82146842Y-36707932D01*
X82433740Y-36765000D01*
X82726260Y-36765000D01*
X83013158Y-36707932D01*
X83271603Y-36600881D01*
X87078724Y-36600881D01*
X87438912Y-37090548D01*
X88102882Y-37450849D01*
X88824385Y-37674694D01*
X89575695Y-37753480D01*
X90327938Y-37684178D01*
X91052208Y-37469452D01*
X91720670Y-37117555D01*
X91761088Y-37090548D01*
X92121276Y-36600881D01*
X89600000Y-34079605D01*
X87078724Y-36600881D01*
X83271603Y-36600881D01*
X83283411Y-36595990D01*
X83526632Y-36433475D01*
X83733475Y-36226632D01*
X83895990Y-35983411D01*
X84007932Y-35713158D01*
X84065000Y-35426260D01*
X84065000Y-35133740D01*
X84007932Y-34846842D01*
X83895990Y-34576589D01*
X83733475Y-34333368D01*
X83526632Y-34126525D01*
X83352240Y-34010000D01*
X83526632Y-33893475D01*
X83544412Y-33875695D01*
X85746520Y-33875695D01*
X85815822Y-34627938D01*
X86030548Y-35352208D01*
X86382445Y-36020670D01*
X86409452Y-36061088D01*
X86899119Y-36421276D01*
X89420395Y-33900000D01*
X86899119Y-31378724D01*
X86409452Y-31738912D01*
X86049151Y-32402882D01*
X85825306Y-33124385D01*
X85746520Y-33875695D01*
X83544412Y-33875695D01*
X83733475Y-33686632D01*
X83895990Y-33443411D01*
X84007932Y-33173158D01*
X84065000Y-32886260D01*
X84065000Y-32593740D01*
X84007932Y-32306842D01*
X83895990Y-32036589D01*
X83733475Y-31793368D01*
X83526632Y-31586525D01*
X83283411Y-31424010D01*
X83013158Y-31312068D01*
X82726260Y-31255000D01*
X82433740Y-31255000D01*
X82146842Y-31312068D01*
X81876589Y-31424010D01*
X81633368Y-31586525D01*
X81426525Y-31793368D01*
X81310000Y-31967760D01*
X81193475Y-31793368D01*
X80986632Y-31586525D01*
X80743411Y-31424010D01*
X80473158Y-31312068D01*
X80186260Y-31255000D01*
X79893740Y-31255000D01*
X79606842Y-31312068D01*
X79336589Y-31424010D01*
X79093368Y-31586525D01*
X78886525Y-31793368D01*
X78770000Y-31967760D01*
X78653475Y-31793368D01*
X78446632Y-31586525D01*
X78203411Y-31424010D01*
X77933158Y-31312068D01*
X77646260Y-31255000D01*
X77353740Y-31255000D01*
X77066842Y-31312068D01*
X76796589Y-31424010D01*
X76553368Y-31586525D01*
X76346525Y-31793368D01*
X76230000Y-31967760D01*
X76113475Y-31793368D01*
X75906632Y-31586525D01*
X75663411Y-31424010D01*
X75393158Y-31312068D01*
X75106260Y-31255000D01*
X74813740Y-31255000D01*
X74526842Y-31312068D01*
X74256589Y-31424010D01*
X74013368Y-31586525D01*
X73806525Y-31793368D01*
X73690000Y-31967760D01*
X73573475Y-31793368D01*
X73366632Y-31586525D01*
X73123411Y-31424010D01*
X72853158Y-31312068D01*
X72566260Y-31255000D01*
X72273740Y-31255000D01*
X71986842Y-31312068D01*
X71716589Y-31424010D01*
X71473368Y-31586525D01*
X71266525Y-31793368D01*
X71150000Y-31967760D01*
X71033475Y-31793368D01*
X70826632Y-31586525D01*
X70583411Y-31424010D01*
X70313158Y-31312068D01*
X70026260Y-31255000D01*
X69733740Y-31255000D01*
X69446842Y-31312068D01*
X69176589Y-31424010D01*
X68933368Y-31586525D01*
X68726525Y-31793368D01*
X68610000Y-31967760D01*
X68493475Y-31793368D01*
X68286632Y-31586525D01*
X68043411Y-31424010D01*
X67773158Y-31312068D01*
X67486260Y-31255000D01*
X67193740Y-31255000D01*
X66906842Y-31312068D01*
X66636589Y-31424010D01*
X66393368Y-31586525D01*
X66186525Y-31793368D01*
X66070000Y-31967760D01*
X65953475Y-31793368D01*
X65746632Y-31586525D01*
X65503411Y-31424010D01*
X65233158Y-31312068D01*
X64946260Y-31255000D01*
X64653740Y-31255000D01*
X64366842Y-31312068D01*
X64096589Y-31424010D01*
X63853368Y-31586525D01*
X63646525Y-31793368D01*
X63530000Y-31967760D01*
X63413475Y-31793368D01*
X63206632Y-31586525D01*
X62963411Y-31424010D01*
X62693158Y-31312068D01*
X62406260Y-31255000D01*
X62113740Y-31255000D01*
X61826842Y-31312068D01*
X61556589Y-31424010D01*
X61313368Y-31586525D01*
X61106525Y-31793368D01*
X60984805Y-31975534D01*
X60915178Y-31858645D01*
X60720269Y-31642412D01*
X60486920Y-31468359D01*
X60224099Y-31343175D01*
X60076890Y-31298524D01*
X59847000Y-31419845D01*
X59847000Y-32613000D01*
X59867000Y-32613000D01*
X59867000Y-32867000D01*
X59847000Y-32867000D01*
X59847000Y-32887000D01*
X59593000Y-32887000D01*
X59593000Y-32867000D01*
X57307000Y-32867000D01*
X57307000Y-32887000D01*
X57053000Y-32887000D01*
X57053000Y-32867000D01*
X54767000Y-32867000D01*
X54767000Y-35153000D01*
X54787000Y-35153000D01*
X54787000Y-35407000D01*
X54767000Y-35407000D01*
X54767000Y-36600155D01*
X54996890Y-36721476D01*
X55144099Y-36676825D01*
X55406920Y-36551641D01*
X55640269Y-36377588D01*
X55835178Y-36161355D01*
X55904805Y-36044466D01*
X56026525Y-36226632D01*
X56233368Y-36433475D01*
X56476589Y-36595990D01*
X56746842Y-36707932D01*
X56941980Y-36746748D01*
X56941979Y-39610404D01*
X56938303Y-39647727D01*
X56941979Y-39685049D01*
X56941979Y-39685059D01*
X56952976Y-39796712D01*
X56994856Y-39934774D01*
X56996433Y-39939973D01*
X57067005Y-40072003D01*
X57089149Y-40098985D01*
X57161978Y-40187728D01*
X57190981Y-40211531D01*
X58107490Y-41128040D01*
X58131288Y-41157038D01*
X58247013Y-41252011D01*
X58379042Y-41322583D01*
X58522303Y-41366040D01*
X58633956Y-41377037D01*
X58633965Y-41377037D01*
X58671288Y-41380713D01*
X58708611Y-41377037D01*
X60929252Y-41377037D01*
X60973189Y-41420974D01*
X61142707Y-41534242D01*
X61331065Y-41612263D01*
X61531024Y-41652037D01*
X61734902Y-41652037D01*
X61934861Y-41612263D01*
X62123219Y-41534242D01*
X62292737Y-41420974D01*
X62436900Y-41276811D01*
X62550168Y-41107293D01*
X62628189Y-40918935D01*
X62667963Y-40718976D01*
X62667963Y-40515098D01*
X62630470Y-40326604D01*
X62728091Y-40307186D01*
X62916449Y-40229165D01*
X62953257Y-40204571D01*
X63123785Y-40275206D01*
X63323744Y-40314980D01*
X63527622Y-40314980D01*
X63727581Y-40275206D01*
X63906014Y-40201296D01*
X63935150Y-40220764D01*
X64123508Y-40298785D01*
X64323467Y-40338559D01*
X64527345Y-40338559D01*
X64640000Y-40316151D01*
X64640000Y-40637667D01*
X64636323Y-40675000D01*
X64650997Y-40823986D01*
X64694454Y-40967247D01*
X64765026Y-41099276D01*
X64838659Y-41188998D01*
X64842381Y-41193534D01*
X62038921Y-43996995D01*
X62009918Y-44020797D01*
X61914945Y-44136522D01*
X61844373Y-44268551D01*
X61800916Y-44411812D01*
X61789919Y-44523465D01*
X61789919Y-44523476D01*
X61786243Y-44560798D01*
X61789919Y-44598120D01*
X61789919Y-44637413D01*
X61789920Y-44637423D01*
X61789919Y-46521592D01*
X61623102Y-46554774D01*
X61434744Y-46632795D01*
X61265226Y-46746063D01*
X61121063Y-46890226D01*
X61007795Y-47059744D01*
X60929774Y-47248102D01*
X60890000Y-47448061D01*
X60890000Y-47651939D01*
X60929774Y-47851898D01*
X61007795Y-48040256D01*
X61121063Y-48209774D01*
X61265226Y-48353937D01*
X61434744Y-48467205D01*
X61547341Y-48513844D01*
X61579774Y-48676898D01*
X61657795Y-48865256D01*
X61771063Y-49034774D01*
X61915226Y-49178937D01*
X61984465Y-49225201D01*
X61965000Y-49323061D01*
X61965000Y-49526939D01*
X62004774Y-49726898D01*
X62082795Y-49915256D01*
X62196063Y-50084774D01*
X62340226Y-50228937D01*
X62462378Y-50310556D01*
X62440000Y-50423061D01*
X62440000Y-50626939D01*
X62479774Y-50826898D01*
X62557795Y-51015256D01*
X62635328Y-51131292D01*
X62532795Y-51284744D01*
X62454774Y-51473102D01*
X62415000Y-51673061D01*
X62415000Y-51876939D01*
X62454774Y-52076898D01*
X62532795Y-52265256D01*
X62593567Y-52356208D01*
X62557795Y-52409744D01*
X62479774Y-52598102D01*
X62440000Y-52798061D01*
X62440000Y-53001939D01*
X62479774Y-53201898D01*
X62557795Y-53390256D01*
X62671063Y-53559774D01*
X62815226Y-53703937D01*
X62984744Y-53817205D01*
X63173102Y-53895226D01*
X63373061Y-53935000D01*
X63482472Y-53935000D01*
X63505567Y-54051105D01*
X63583588Y-54239463D01*
X63696856Y-54408981D01*
X63841019Y-54553144D01*
X64010537Y-54666412D01*
X64198895Y-54744433D01*
X64398854Y-54784207D01*
X64398872Y-54784207D01*
X64473537Y-54964464D01*
X64586805Y-55133982D01*
X64730968Y-55278145D01*
X64900486Y-55391413D01*
X65088844Y-55469434D01*
X65179895Y-55487545D01*
X65232795Y-55615256D01*
X65346063Y-55784774D01*
X65490226Y-55928937D01*
X65659744Y-56042205D01*
X65848102Y-56120226D01*
X65884033Y-56127373D01*
X65865000Y-56223061D01*
X65865000Y-56426939D01*
X65904774Y-56626898D01*
X65982795Y-56815256D01*
X66096063Y-56984774D01*
X66140000Y-57028711D01*
X66140001Y-59412668D01*
X66136324Y-59450000D01*
X66140001Y-59487333D01*
X66150998Y-59598986D01*
X66154342Y-59610009D01*
X66194454Y-59742246D01*
X66243314Y-59833656D01*
X66076898Y-59764724D01*
X65876939Y-59724950D01*
X65673061Y-59724950D01*
X65473102Y-59764724D01*
X65284744Y-59842745D01*
X65115226Y-59956013D01*
X64971063Y-60100176D01*
X64857795Y-60269694D01*
X64779774Y-60458052D01*
X64740000Y-60658011D01*
X64740000Y-60720148D01*
X64214002Y-61246146D01*
X64184999Y-61269949D01*
X64166857Y-61292055D01*
X63838804Y-60964002D01*
X63815001Y-60934999D01*
X63704416Y-60844244D01*
X63704416Y-60695161D01*
X63664642Y-60495202D01*
X63586621Y-60306844D01*
X63473353Y-60137326D01*
X63329190Y-59993163D01*
X63159672Y-59879895D01*
X62971314Y-59801874D01*
X62771355Y-59762100D01*
X62567477Y-59762100D01*
X62367518Y-59801874D01*
X62179160Y-59879895D01*
X62009642Y-59993163D01*
X61865479Y-60137326D01*
X61752211Y-60306844D01*
X61674190Y-60495202D01*
X61634416Y-60695161D01*
X61634416Y-60899039D01*
X61674190Y-61098998D01*
X61752211Y-61287356D01*
X61865479Y-61456874D01*
X62009642Y-61601037D01*
X62123327Y-61676999D01*
X62129415Y-61684417D01*
X62158417Y-61708218D01*
X62436200Y-61986002D01*
X62459999Y-62015001D01*
X62575724Y-62109974D01*
X62707753Y-62180546D01*
X62851014Y-62224003D01*
X62959929Y-62234730D01*
X64268649Y-63543451D01*
X64146589Y-63594010D01*
X63903368Y-63756525D01*
X63696525Y-63963368D01*
X63580000Y-64137760D01*
X63463475Y-63963368D01*
X63256632Y-63756525D01*
X63013411Y-63594010D01*
X62743158Y-63482068D01*
X62456260Y-63425000D01*
X62163740Y-63425000D01*
X61876842Y-63482068D01*
X61606589Y-63594010D01*
X61363368Y-63756525D01*
X61156525Y-63963368D01*
X61040000Y-64137760D01*
X60923475Y-63963368D01*
X60716632Y-63756525D01*
X60530000Y-63631822D01*
X60530000Y-58257325D01*
X60533676Y-58220000D01*
X60530000Y-58182675D01*
X60530000Y-58182667D01*
X60519003Y-58071014D01*
X60475546Y-57927753D01*
X60404974Y-57795724D01*
X60310001Y-57679999D01*
X60281004Y-57656202D01*
X59538803Y-56914002D01*
X59515001Y-56884999D01*
X59399276Y-56790026D01*
X59267247Y-56719454D01*
X59123986Y-56675997D01*
X59012333Y-56665000D01*
X59012322Y-56665000D01*
X58975000Y-56661324D01*
X58937678Y-56665000D01*
X55728560Y-56665000D01*
X55720226Y-56623102D01*
X55642205Y-56434744D01*
X55528937Y-56265226D01*
X55384774Y-56121063D01*
X55215256Y-56007795D01*
X55026898Y-55929774D01*
X54826939Y-55890000D01*
X54623061Y-55890000D01*
X54423102Y-55929774D01*
X54234744Y-56007795D01*
X54118792Y-56085271D01*
X54110609Y-56079803D01*
X54120778Y-55976555D01*
X54124455Y-55939222D01*
X54120778Y-55901889D01*
X54120778Y-55173103D01*
X54124454Y-55135778D01*
X54120778Y-55098453D01*
X54120778Y-55098445D01*
X54109781Y-54986792D01*
X54066324Y-54843531D01*
X53995752Y-54711502D01*
X53947846Y-54653128D01*
X53947846Y-54043612D01*
X53991783Y-53999675D01*
X54105051Y-53830157D01*
X54183072Y-53641799D01*
X54222846Y-53441840D01*
X54222846Y-53237962D01*
X54183072Y-53038003D01*
X54105051Y-52849645D01*
X53991783Y-52680127D01*
X53847620Y-52535964D01*
X53678703Y-52423097D01*
X57211008Y-48890793D01*
X57240001Y-48866999D01*
X57263795Y-48838006D01*
X57263799Y-48838002D01*
X57327813Y-48760000D01*
X57334974Y-48751274D01*
X57405546Y-48619245D01*
X57449003Y-48475984D01*
X57460000Y-48364331D01*
X57460000Y-48364322D01*
X57463676Y-48326999D01*
X57460000Y-48289676D01*
X57460000Y-48203711D01*
X57503937Y-48159774D01*
X57617205Y-47990256D01*
X57695226Y-47801898D01*
X57735000Y-47601939D01*
X57735000Y-47398061D01*
X57695226Y-47198102D01*
X57617205Y-47009744D01*
X57581356Y-46956092D01*
X57645226Y-46801898D01*
X57685000Y-46601939D01*
X57685000Y-46398061D01*
X57645226Y-46198102D01*
X57567205Y-46009744D01*
X57453937Y-45840226D01*
X57410000Y-45796289D01*
X57410000Y-43237322D01*
X57413676Y-43199999D01*
X57410000Y-43162676D01*
X57410000Y-43162667D01*
X57399003Y-43051014D01*
X57355546Y-42907753D01*
X57284974Y-42775724D01*
X57190001Y-42659999D01*
X57161004Y-42636202D01*
X55788804Y-41264003D01*
X55765001Y-41234999D01*
X55649276Y-41140026D01*
X55517247Y-41069454D01*
X55373986Y-41025997D01*
X55262333Y-41015000D01*
X55262322Y-41015000D01*
X55225000Y-41011324D01*
X55187678Y-41015000D01*
X52978711Y-41015000D01*
X52934774Y-40971063D01*
X52765256Y-40857795D01*
X52576898Y-40779774D01*
X52376939Y-40740000D01*
X52173061Y-40740000D01*
X51973102Y-40779774D01*
X51784744Y-40857795D01*
X51615226Y-40971063D01*
X51471063Y-41115226D01*
X51357795Y-41284744D01*
X51279774Y-41473102D01*
X51240000Y-41673061D01*
X51240000Y-41740001D01*
X47512322Y-41740001D01*
X47474999Y-41736325D01*
X47437676Y-41740001D01*
X47437666Y-41740001D01*
X47326013Y-41750998D01*
X47190034Y-41792246D01*
X47182752Y-41794455D01*
X47050722Y-41865027D01*
X46978252Y-41924502D01*
X46934998Y-41960000D01*
X46911200Y-41988998D01*
X46210198Y-42690001D01*
X45991800Y-42690001D01*
X45975802Y-42674003D01*
X45951999Y-42644999D01*
X45930278Y-42627173D01*
X45950812Y-42559482D01*
X45963072Y-42435000D01*
X45960000Y-42370750D01*
X45801250Y-42212000D01*
X45458752Y-42212000D01*
X45449482Y-42209188D01*
X45325000Y-42196928D01*
X43575000Y-42196928D01*
X43450518Y-42209188D01*
X43441248Y-42212000D01*
X43098750Y-42212000D01*
X42940000Y-42370750D01*
X42936928Y-42435000D01*
X42949188Y-42559482D01*
X42972096Y-42635000D01*
X42949188Y-42710518D01*
X42938082Y-42823281D01*
X41828252Y-41713451D01*
X41820226Y-41673102D01*
X41742205Y-41484744D01*
X41628937Y-41315226D01*
X41585000Y-41271289D01*
X41585000Y-41014801D01*
X41639801Y-40960000D01*
X41701939Y-40960000D01*
X41901898Y-40920226D01*
X42064261Y-40852972D01*
X42140226Y-40928937D01*
X42309744Y-41042205D01*
X42498102Y-41120226D01*
X42698061Y-41160000D01*
X42760198Y-41160000D01*
X42937117Y-41336919D01*
X42949188Y-41459482D01*
X42972096Y-41535000D01*
X42949188Y-41610518D01*
X42936928Y-41735000D01*
X42940000Y-41799250D01*
X43098750Y-41958000D01*
X43441248Y-41958000D01*
X43450518Y-41960812D01*
X43575000Y-41973072D01*
X45325000Y-41973072D01*
X45449482Y-41960812D01*
X45458752Y-41958000D01*
X45801250Y-41958000D01*
X45960000Y-41799250D01*
X45963072Y-41735000D01*
X45950812Y-41610518D01*
X45927904Y-41535000D01*
X45950812Y-41459482D01*
X45963072Y-41335000D01*
X45963072Y-40635000D01*
X45950812Y-40510518D01*
X45927904Y-40435000D01*
X45950812Y-40359482D01*
X45963072Y-40235000D01*
X45963072Y-39535000D01*
X45950812Y-39410518D01*
X45914502Y-39290820D01*
X45855537Y-39180506D01*
X45776185Y-39083815D01*
X45713072Y-39032020D01*
X45713072Y-38035000D01*
X45700812Y-37910518D01*
X45664502Y-37790820D01*
X45605537Y-37680506D01*
X45526185Y-37583815D01*
X45429494Y-37504463D01*
X45319180Y-37445498D01*
X45199482Y-37409188D01*
X45075000Y-37396928D01*
X43575000Y-37396928D01*
X43450518Y-37409188D01*
X43330820Y-37445498D01*
X43220506Y-37504463D01*
X43123815Y-37583815D01*
X43044463Y-37680506D01*
X42985498Y-37790820D01*
X42949188Y-37910518D01*
X42936928Y-38035000D01*
X42936928Y-39096960D01*
X42901939Y-39090000D01*
X42698061Y-39090000D01*
X42498102Y-39129774D01*
X42335739Y-39197028D01*
X42259774Y-39121063D01*
X42090256Y-39007795D01*
X41901898Y-38929774D01*
X41701939Y-38890000D01*
X41498061Y-38890000D01*
X41298102Y-38929774D01*
X41109744Y-39007795D01*
X40940226Y-39121063D01*
X40796063Y-39265226D01*
X40682795Y-39434744D01*
X40604774Y-39623102D01*
X40565000Y-39823061D01*
X40565000Y-39885199D01*
X40313998Y-40136201D01*
X40285000Y-40159999D01*
X40261202Y-40188997D01*
X40261201Y-40188998D01*
X40190026Y-40275724D01*
X40119454Y-40407754D01*
X40101164Y-40468050D01*
X40075998Y-40551014D01*
X40073817Y-40573158D01*
X40061324Y-40700000D01*
X40065001Y-40737332D01*
X40065001Y-41271288D01*
X40021063Y-41315226D01*
X39907795Y-41484744D01*
X39829774Y-41673102D01*
X39790000Y-41873061D01*
X39790000Y-42076939D01*
X39829774Y-42276898D01*
X39907795Y-42465256D01*
X40021063Y-42634774D01*
X40165226Y-42778937D01*
X40334744Y-42892205D01*
X40523102Y-42970226D01*
X40723061Y-43010000D01*
X40926939Y-43010000D01*
X40967192Y-43001993D01*
X42250198Y-44285000D01*
X40613998Y-45921201D01*
X40585000Y-45944999D01*
X40561202Y-45973997D01*
X40561201Y-45973998D01*
X40490026Y-46060724D01*
X40419454Y-46192754D01*
X40396188Y-46269454D01*
X40375998Y-46336014D01*
X40368300Y-46414172D01*
X40361324Y-46485000D01*
X40365001Y-46522332D01*
X40365000Y-47596289D01*
X40321063Y-47640226D01*
X40207795Y-47809744D01*
X40129774Y-47998102D01*
X40090000Y-48198061D01*
X40090000Y-48401939D01*
X40129774Y-48601898D01*
X40207795Y-48790256D01*
X40321063Y-48959774D01*
X40465226Y-49103937D01*
X40634744Y-49217205D01*
X40823102Y-49295226D01*
X41023061Y-49335000D01*
X41226939Y-49335000D01*
X41426898Y-49295226D01*
X41615256Y-49217205D01*
X41784774Y-49103937D01*
X41928937Y-48959774D01*
X42042205Y-48790256D01*
X42116690Y-48610435D01*
X42154774Y-48801898D01*
X42232795Y-48990256D01*
X42346063Y-49159774D01*
X42490226Y-49303937D01*
X42659744Y-49417205D01*
X42848102Y-49495226D01*
X42936928Y-49512894D01*
X42936928Y-50785000D01*
X42949188Y-50909482D01*
X42985498Y-51029180D01*
X43044463Y-51139494D01*
X43123815Y-51236185D01*
X43220506Y-51315537D01*
X43330820Y-51374502D01*
X43450518Y-51410812D01*
X43575000Y-51423072D01*
X45075000Y-51423072D01*
X45199482Y-51410812D01*
X45319180Y-51374502D01*
X45429494Y-51315537D01*
X45526185Y-51236185D01*
X45605537Y-51139494D01*
X45664502Y-51029180D01*
X45700812Y-50909482D01*
X45713072Y-50785000D01*
X45713072Y-49285000D01*
X45700812Y-49160518D01*
X45664502Y-49040820D01*
X45605537Y-48930506D01*
X45526185Y-48833815D01*
X45429494Y-48754463D01*
X45319180Y-48695498D01*
X45199482Y-48659188D01*
X45075000Y-48646928D01*
X44176051Y-48646928D01*
X44185000Y-48601939D01*
X44185000Y-48573072D01*
X45325000Y-48573072D01*
X45449482Y-48560812D01*
X45569180Y-48524502D01*
X45679494Y-48465537D01*
X45776185Y-48386185D01*
X45855537Y-48289494D01*
X45914502Y-48179180D01*
X45950812Y-48059482D01*
X45963072Y-47935000D01*
X45963072Y-47235000D01*
X45950812Y-47110518D01*
X45927904Y-47035000D01*
X45950812Y-46959482D01*
X45963072Y-46835000D01*
X45963072Y-46145000D01*
X47275210Y-46145000D01*
X47366207Y-46235997D01*
X47390010Y-46265001D01*
X47505735Y-46359974D01*
X47598922Y-46409784D01*
X47637764Y-46430546D01*
X47781025Y-46474003D01*
X47930011Y-46488677D01*
X47967344Y-46485000D01*
X51392195Y-46485000D01*
X49264003Y-48613194D01*
X49234999Y-48636997D01*
X49186989Y-48695498D01*
X49140026Y-48752722D01*
X49089450Y-48847342D01*
X49069454Y-48884752D01*
X49025997Y-49028013D01*
X49015000Y-49139666D01*
X49015000Y-49139676D01*
X49011324Y-49176998D01*
X49015000Y-49214321D01*
X49015000Y-50473709D01*
X48934285Y-50457654D01*
X48730407Y-50457654D01*
X48530448Y-50497428D01*
X48342090Y-50575449D01*
X48172572Y-50688717D01*
X48028409Y-50832880D01*
X47915141Y-51002398D01*
X47837120Y-51190756D01*
X47797346Y-51390715D01*
X47797346Y-51594593D01*
X47837120Y-51794552D01*
X47915141Y-51982910D01*
X48028409Y-52152428D01*
X48065981Y-52190000D01*
X46837323Y-52190000D01*
X46800000Y-52186324D01*
X46762677Y-52190000D01*
X46762667Y-52190000D01*
X46651014Y-52200997D01*
X46534489Y-52236344D01*
X46507753Y-52244454D01*
X46375723Y-52315026D01*
X46320924Y-52359999D01*
X46259999Y-52409999D01*
X46236201Y-52438997D01*
X44150000Y-54525199D01*
X43394540Y-53769739D01*
X43464210Y-53659529D01*
X43544126Y-53451876D01*
X43419129Y-53277000D01*
X42831363Y-53277000D01*
X42817248Y-53269455D01*
X42673987Y-53225998D01*
X42562334Y-53215001D01*
X42562323Y-53215001D01*
X42525001Y-53211325D01*
X42487679Y-53215001D01*
X42319803Y-53215001D01*
X42315000Y-53210198D01*
X42315000Y-53038212D01*
X42311974Y-53023000D01*
X42323000Y-53023000D01*
X42323000Y-52182046D01*
X42577000Y-52182046D01*
X42577000Y-53023000D01*
X43419129Y-53023000D01*
X43544126Y-52848124D01*
X43464210Y-52640471D01*
X43345318Y-52452399D01*
X43192020Y-52291135D01*
X43010206Y-52162877D01*
X42806864Y-52072554D01*
X42751874Y-52055881D01*
X42577000Y-52182046D01*
X42323000Y-52182046D01*
X42148126Y-52055881D01*
X42093136Y-52072554D01*
X41889794Y-52162877D01*
X41819658Y-52212353D01*
X41717624Y-52144176D01*
X41511067Y-52058617D01*
X41291788Y-52015000D01*
X41119802Y-52015000D01*
X34960000Y-45855199D01*
X34960000Y-41353711D01*
X35003937Y-41309774D01*
X35117205Y-41140256D01*
X35195226Y-40951898D01*
X35235000Y-40751939D01*
X35235000Y-40548061D01*
X35195226Y-40348102D01*
X35117205Y-40159744D01*
X35030007Y-40029243D01*
X35098000Y-39961250D01*
X35098000Y-38887000D01*
X34248750Y-38887000D01*
X34090000Y-39045750D01*
X34086928Y-39485000D01*
X34099188Y-39609482D01*
X34100862Y-39615000D01*
X34098061Y-39615000D01*
X34058918Y-39622786D01*
X34058854Y-38035000D01*
X34086928Y-38035000D01*
X34090000Y-38474250D01*
X34248750Y-38633000D01*
X35098000Y-38633000D01*
X35098000Y-37558750D01*
X34939250Y-37400000D01*
X34725000Y-37396928D01*
X34600518Y-37409188D01*
X34480820Y-37445498D01*
X34370506Y-37504463D01*
X34273815Y-37583815D01*
X34194463Y-37680506D01*
X34135498Y-37790820D01*
X34099188Y-37910518D01*
X34086928Y-38035000D01*
X34058854Y-38035000D01*
X34058795Y-36600881D01*
X34678724Y-36600881D01*
X35038912Y-37090548D01*
X35606643Y-37398625D01*
X35510750Y-37400000D01*
X35352000Y-37558750D01*
X35352000Y-37901248D01*
X35349188Y-37910518D01*
X35336928Y-38035000D01*
X35336928Y-38835000D01*
X35349188Y-38959482D01*
X35352000Y-38968752D01*
X35352000Y-39961250D01*
X35510750Y-40120000D01*
X35725000Y-40123072D01*
X35849482Y-40110812D01*
X35969180Y-40074502D01*
X36079494Y-40015537D01*
X36176185Y-39936185D01*
X36255537Y-39839494D01*
X36314502Y-39729180D01*
X36350812Y-39609482D01*
X36363072Y-39485000D01*
X36362989Y-39473072D01*
X37475000Y-39473072D01*
X37599482Y-39460812D01*
X37719180Y-39424502D01*
X37829494Y-39365537D01*
X37926185Y-39286185D01*
X38005537Y-39189494D01*
X38064502Y-39079180D01*
X38100812Y-38959482D01*
X38113072Y-38835000D01*
X38113072Y-38035000D01*
X38100812Y-37910518D01*
X38064502Y-37790820D01*
X38005537Y-37680506D01*
X37992775Y-37664956D01*
X38652208Y-37469452D01*
X39320670Y-37117555D01*
X39361088Y-37090548D01*
X39721276Y-36600881D01*
X37200000Y-34079605D01*
X34678724Y-36600881D01*
X34058795Y-36600881D01*
X34058774Y-36097368D01*
X34499119Y-36421276D01*
X37020395Y-33900000D01*
X37379605Y-33900000D01*
X39900881Y-36421276D01*
X40390548Y-36061088D01*
X40750849Y-35397118D01*
X40974694Y-34675615D01*
X41000450Y-34430000D01*
X42991928Y-34430000D01*
X42991928Y-36130000D01*
X43004188Y-36254482D01*
X43040498Y-36374180D01*
X43099463Y-36484494D01*
X43178815Y-36581185D01*
X43275506Y-36660537D01*
X43385820Y-36719502D01*
X43505518Y-36755812D01*
X43630000Y-36768072D01*
X45330000Y-36768072D01*
X45454482Y-36755812D01*
X45574180Y-36719502D01*
X45684494Y-36660537D01*
X45781185Y-36581185D01*
X45860537Y-36484494D01*
X45919502Y-36374180D01*
X45943966Y-36293534D01*
X46019731Y-36377588D01*
X46253080Y-36551641D01*
X46515901Y-36676825D01*
X46663110Y-36721476D01*
X46893000Y-36600155D01*
X46893000Y-35407000D01*
X46873000Y-35407000D01*
X46873000Y-35153000D01*
X46893000Y-35153000D01*
X46893000Y-35133000D01*
X47147000Y-35133000D01*
X47147000Y-35153000D01*
X47167000Y-35153000D01*
X47167000Y-35407000D01*
X47147000Y-35407000D01*
X47147000Y-36600155D01*
X47376890Y-36721476D01*
X47435001Y-36703850D01*
X47435001Y-38407678D01*
X47431325Y-38445001D01*
X47435001Y-38482323D01*
X47435001Y-38482333D01*
X47445998Y-38593986D01*
X47478308Y-38700498D01*
X47489455Y-38737247D01*
X47560027Y-38869277D01*
X47597551Y-38915000D01*
X47655000Y-38985002D01*
X47684003Y-39008804D01*
X48040000Y-39364801D01*
X48040000Y-39426939D01*
X48079774Y-39626898D01*
X48157795Y-39815256D01*
X48271063Y-39984774D01*
X48415226Y-40128937D01*
X48584744Y-40242205D01*
X48773102Y-40320226D01*
X48973061Y-40360000D01*
X49176939Y-40360000D01*
X49376898Y-40320226D01*
X49565256Y-40242205D01*
X49734774Y-40128937D01*
X49878937Y-39984774D01*
X49992205Y-39815256D01*
X50070226Y-39626898D01*
X50110000Y-39426939D01*
X50110000Y-39223061D01*
X50070226Y-39023102D01*
X49992205Y-38834744D01*
X49878937Y-38665226D01*
X49734774Y-38521063D01*
X49565256Y-38407795D01*
X49376898Y-38329774D01*
X49176939Y-38290000D01*
X49114801Y-38290000D01*
X48955001Y-38130200D01*
X48955001Y-36628765D01*
X49055901Y-36676825D01*
X49203110Y-36721476D01*
X49433000Y-36600155D01*
X49433000Y-35407000D01*
X49687000Y-35407000D01*
X49687000Y-36600155D01*
X49916890Y-36721476D01*
X50064099Y-36676825D01*
X50326920Y-36551641D01*
X50560269Y-36377588D01*
X50755178Y-36161355D01*
X50830000Y-36035745D01*
X50904822Y-36161355D01*
X51099731Y-36377588D01*
X51333080Y-36551641D01*
X51595901Y-36676825D01*
X51743110Y-36721476D01*
X51973000Y-36600155D01*
X51973000Y-35407000D01*
X52227000Y-35407000D01*
X52227000Y-36600155D01*
X52456890Y-36721476D01*
X52604099Y-36676825D01*
X52866920Y-36551641D01*
X53100269Y-36377588D01*
X53295178Y-36161355D01*
X53370000Y-36035745D01*
X53444822Y-36161355D01*
X53639731Y-36377588D01*
X53873080Y-36551641D01*
X54135901Y-36676825D01*
X54283110Y-36721476D01*
X54513000Y-36600155D01*
X54513000Y-35407000D01*
X52227000Y-35407000D01*
X51973000Y-35407000D01*
X49687000Y-35407000D01*
X49433000Y-35407000D01*
X49413000Y-35407000D01*
X49413000Y-35153000D01*
X49433000Y-35153000D01*
X49433000Y-32867000D01*
X49687000Y-32867000D01*
X49687000Y-35153000D01*
X51973000Y-35153000D01*
X51973000Y-32867000D01*
X52227000Y-32867000D01*
X52227000Y-35153000D01*
X54513000Y-35153000D01*
X54513000Y-32867000D01*
X52227000Y-32867000D01*
X51973000Y-32867000D01*
X49687000Y-32867000D01*
X49433000Y-32867000D01*
X49413000Y-32867000D01*
X49413000Y-32613000D01*
X49433000Y-32613000D01*
X49433000Y-31419845D01*
X49687000Y-31419845D01*
X49687000Y-32613000D01*
X51973000Y-32613000D01*
X51973000Y-31419845D01*
X52227000Y-31419845D01*
X52227000Y-32613000D01*
X54513000Y-32613000D01*
X54513000Y-31419845D01*
X54767000Y-31419845D01*
X54767000Y-32613000D01*
X57053000Y-32613000D01*
X57053000Y-31419845D01*
X57307000Y-31419845D01*
X57307000Y-32613000D01*
X59593000Y-32613000D01*
X59593000Y-31419845D01*
X59363110Y-31298524D01*
X59215901Y-31343175D01*
X58953080Y-31468359D01*
X58719731Y-31642412D01*
X58524822Y-31858645D01*
X58450000Y-31984255D01*
X58375178Y-31858645D01*
X58180269Y-31642412D01*
X57946920Y-31468359D01*
X57684099Y-31343175D01*
X57536890Y-31298524D01*
X57307000Y-31419845D01*
X57053000Y-31419845D01*
X56823110Y-31298524D01*
X56675901Y-31343175D01*
X56413080Y-31468359D01*
X56179731Y-31642412D01*
X55984822Y-31858645D01*
X55910000Y-31984255D01*
X55835178Y-31858645D01*
X55640269Y-31642412D01*
X55406920Y-31468359D01*
X55144099Y-31343175D01*
X54996890Y-31298524D01*
X54767000Y-31419845D01*
X54513000Y-31419845D01*
X54283110Y-31298524D01*
X54135901Y-31343175D01*
X53873080Y-31468359D01*
X53639731Y-31642412D01*
X53444822Y-31858645D01*
X53370000Y-31984255D01*
X53295178Y-31858645D01*
X53100269Y-31642412D01*
X52866920Y-31468359D01*
X52604099Y-31343175D01*
X52456890Y-31298524D01*
X52227000Y-31419845D01*
X51973000Y-31419845D01*
X51743110Y-31298524D01*
X51595901Y-31343175D01*
X51333080Y-31468359D01*
X51099731Y-31642412D01*
X50904822Y-31858645D01*
X50830000Y-31984255D01*
X50755178Y-31858645D01*
X50560269Y-31642412D01*
X50326920Y-31468359D01*
X50064099Y-31343175D01*
X49916890Y-31298524D01*
X49687000Y-31419845D01*
X49433000Y-31419845D01*
X49203110Y-31298524D01*
X49055901Y-31343175D01*
X48793080Y-31468359D01*
X48559731Y-31642412D01*
X48364822Y-31858645D01*
X48295195Y-31975534D01*
X48173475Y-31793368D01*
X47966632Y-31586525D01*
X47723411Y-31424010D01*
X47453158Y-31312068D01*
X47166260Y-31255000D01*
X46873740Y-31255000D01*
X46586842Y-31312068D01*
X46316589Y-31424010D01*
X46073368Y-31586525D01*
X45866525Y-31793368D01*
X45744805Y-31975534D01*
X45675178Y-31858645D01*
X45480269Y-31642412D01*
X45246920Y-31468359D01*
X44984099Y-31343175D01*
X44836890Y-31298524D01*
X44607000Y-31419845D01*
X44607000Y-32613000D01*
X44627000Y-32613000D01*
X44627000Y-32867000D01*
X44607000Y-32867000D01*
X44607000Y-32887000D01*
X44353000Y-32887000D01*
X44353000Y-32867000D01*
X43159186Y-32867000D01*
X43038519Y-33096891D01*
X43135843Y-33371252D01*
X43284822Y-33621355D01*
X43461626Y-33817502D01*
X43385820Y-33840498D01*
X43275506Y-33899463D01*
X43178815Y-33978815D01*
X43099463Y-34075506D01*
X43040498Y-34185820D01*
X43004188Y-34305518D01*
X42991928Y-34430000D01*
X41000450Y-34430000D01*
X41053480Y-33924305D01*
X40984178Y-33172062D01*
X40769452Y-32447792D01*
X40735402Y-32383109D01*
X43038519Y-32383109D01*
X43159186Y-32613000D01*
X44353000Y-32613000D01*
X44353000Y-31419845D01*
X44123110Y-31298524D01*
X43975901Y-31343175D01*
X43713080Y-31468359D01*
X43479731Y-31642412D01*
X43284822Y-31858645D01*
X43135843Y-32108748D01*
X43038519Y-32383109D01*
X40735402Y-32383109D01*
X40417555Y-31779330D01*
X40390548Y-31738912D01*
X39900881Y-31378724D01*
X37379605Y-33900000D01*
X37020395Y-33900000D01*
X37006253Y-33885858D01*
X37185858Y-33706253D01*
X37200000Y-33720395D01*
X39721276Y-31199119D01*
X39398432Y-30760221D01*
X87397843Y-30765285D01*
G36*
X38967126Y-52011928D02*
G01*
X38140000Y-52011928D01*
X38015518Y-52024188D01*
X37895820Y-52060498D01*
X37785506Y-52119463D01*
X37688815Y-52198815D01*
X37609463Y-52295506D01*
X37550498Y-52405820D01*
X37514188Y-52525518D01*
X37501928Y-52650000D01*
X37501928Y-53271221D01*
X37401868Y-53229774D01*
X37201909Y-53190000D01*
X36998031Y-53190000D01*
X36798072Y-53229774D01*
X36609714Y-53307795D01*
X36440196Y-53421063D01*
X36296033Y-53565226D01*
X36182765Y-53734744D01*
X36104744Y-53923102D01*
X36064970Y-54123061D01*
X36064970Y-54326939D01*
X36104744Y-54526898D01*
X36182765Y-54715256D01*
X36296033Y-54884774D01*
X36339970Y-54928711D01*
X36339971Y-60945696D01*
X36336294Y-60983028D01*
X36339971Y-61020361D01*
X36350968Y-61132014D01*
X36356898Y-61151562D01*
X36394424Y-61275274D01*
X36464996Y-61407304D01*
X36522816Y-61477757D01*
X36559970Y-61523029D01*
X36588968Y-61546827D01*
X37296200Y-62254059D01*
X37224305Y-62246520D01*
X36472062Y-62315822D01*
X35747792Y-62530548D01*
X35079330Y-62882445D01*
X35038912Y-62909452D01*
X34678724Y-63399119D01*
X37200000Y-65920395D01*
X37214143Y-65906253D01*
X37393748Y-66085858D01*
X37379605Y-66100000D01*
X39900881Y-68621276D01*
X40390548Y-68261088D01*
X40750849Y-67597118D01*
X40974694Y-66875615D01*
X41053480Y-66124305D01*
X41042017Y-65999876D01*
X42594999Y-67552859D01*
X42595000Y-68522669D01*
X42591323Y-68560001D01*
X42595000Y-68597334D01*
X42605997Y-68708987D01*
X42611074Y-68725724D01*
X42649453Y-68852247D01*
X42720025Y-68984277D01*
X42790323Y-69069934D01*
X42814999Y-69100002D01*
X42843997Y-69123800D01*
X42982262Y-69262066D01*
X39392118Y-69248363D01*
X39721276Y-68800881D01*
X37200000Y-66279605D01*
X37185858Y-66293748D01*
X37006253Y-66114143D01*
X37020395Y-66100000D01*
X34499119Y-63578724D01*
X34059910Y-63901796D01*
X34059388Y-51123072D01*
X34425000Y-51123072D01*
X34549482Y-51110812D01*
X34669180Y-51074502D01*
X34779494Y-51015537D01*
X34780988Y-51014311D01*
X34785498Y-51029180D01*
X34844463Y-51139494D01*
X34923815Y-51236185D01*
X35020506Y-51315537D01*
X35130820Y-51374502D01*
X35250518Y-51410812D01*
X35375000Y-51423072D01*
X36775000Y-51423072D01*
X36899482Y-51410812D01*
X37019180Y-51374502D01*
X37129494Y-51315537D01*
X37226185Y-51236185D01*
X37305537Y-51139494D01*
X37364502Y-51029180D01*
X37400812Y-50909482D01*
X37413072Y-50785000D01*
X37413072Y-50457874D01*
X38967126Y-52011928D01*
G37*
X38967126Y-52011928D02*
X38140000Y-52011928D01*
X38015518Y-52024188D01*
X37895820Y-52060498D01*
X37785506Y-52119463D01*
X37688815Y-52198815D01*
X37609463Y-52295506D01*
X37550498Y-52405820D01*
X37514188Y-52525518D01*
X37501928Y-52650000D01*
X37501928Y-53271221D01*
X37401868Y-53229774D01*
X37201909Y-53190000D01*
X36998031Y-53190000D01*
X36798072Y-53229774D01*
X36609714Y-53307795D01*
X36440196Y-53421063D01*
X36296033Y-53565226D01*
X36182765Y-53734744D01*
X36104744Y-53923102D01*
X36064970Y-54123061D01*
X36064970Y-54326939D01*
X36104744Y-54526898D01*
X36182765Y-54715256D01*
X36296033Y-54884774D01*
X36339970Y-54928711D01*
X36339971Y-60945696D01*
X36336294Y-60983028D01*
X36339971Y-61020361D01*
X36350968Y-61132014D01*
X36356898Y-61151562D01*
X36394424Y-61275274D01*
X36464996Y-61407304D01*
X36522816Y-61477757D01*
X36559970Y-61523029D01*
X36588968Y-61546827D01*
X37296200Y-62254059D01*
X37224305Y-62246520D01*
X36472062Y-62315822D01*
X35747792Y-62530548D01*
X35079330Y-62882445D01*
X35038912Y-62909452D01*
X34678724Y-63399119D01*
X37200000Y-65920395D01*
X37214143Y-65906253D01*
X37393748Y-66085858D01*
X37379605Y-66100000D01*
X39900881Y-68621276D01*
X40390548Y-68261088D01*
X40750849Y-67597118D01*
X40974694Y-66875615D01*
X41053480Y-66124305D01*
X41042017Y-65999876D01*
X42594999Y-67552859D01*
X42595000Y-68522669D01*
X42591323Y-68560001D01*
X42595000Y-68597334D01*
X42605997Y-68708987D01*
X42611074Y-68725724D01*
X42649453Y-68852247D01*
X42720025Y-68984277D01*
X42790323Y-69069934D01*
X42814999Y-69100002D01*
X42843997Y-69123800D01*
X42982262Y-69262066D01*
X39392118Y-69248363D01*
X39721276Y-68800881D01*
X37200000Y-66279605D01*
X37185858Y-66293748D01*
X37006253Y-66114143D01*
X37020395Y-66100000D01*
X34499119Y-63578724D01*
X34059910Y-63901796D01*
X34059388Y-51123072D01*
X34425000Y-51123072D01*
X34549482Y-51110812D01*
X34669180Y-51074502D01*
X34779494Y-51015537D01*
X34780988Y-51014311D01*
X34785498Y-51029180D01*
X34844463Y-51139494D01*
X34923815Y-51236185D01*
X35020506Y-51315537D01*
X35130820Y-51374502D01*
X35250518Y-51410812D01*
X35375000Y-51423072D01*
X36775000Y-51423072D01*
X36899482Y-51410812D01*
X37019180Y-51374502D01*
X37129494Y-51315537D01*
X37226185Y-51236185D01*
X37305537Y-51139494D01*
X37364502Y-51029180D01*
X37400812Y-50909482D01*
X37413072Y-50785000D01*
X37413072Y-50457874D01*
X38967126Y-52011928D01*
G36*
X43636211Y-59336002D02*
G01*
X43660010Y-59365001D01*
X43775735Y-59459974D01*
X43907764Y-59530546D01*
X44051025Y-59574003D01*
X44162678Y-59585000D01*
X44162687Y-59585000D01*
X44200010Y-59588676D01*
X44237333Y-59585000D01*
X45696289Y-59585000D01*
X45740226Y-59628937D01*
X45909744Y-59742205D01*
X46098102Y-59820226D01*
X46298061Y-59860000D01*
X46310000Y-59860000D01*
X46310001Y-60631248D01*
X46310000Y-60631258D01*
X46310001Y-63631821D01*
X46123368Y-63756525D01*
X45916525Y-63963368D01*
X45800000Y-64137760D01*
X45683475Y-63963368D01*
X45476632Y-63756525D01*
X45233411Y-63594010D01*
X44963158Y-63482068D01*
X44676260Y-63425000D01*
X44383740Y-63425000D01*
X44096842Y-63482068D01*
X43826589Y-63594010D01*
X43583368Y-63756525D01*
X43376525Y-63963368D01*
X43214010Y-64206589D01*
X43102068Y-64476842D01*
X43045000Y-64763740D01*
X43045000Y-65056260D01*
X43102068Y-65343158D01*
X43214010Y-65613411D01*
X43376525Y-65856632D01*
X43508380Y-65988487D01*
X43435820Y-66010498D01*
X43325506Y-66069463D01*
X43290190Y-66098446D01*
X40826744Y-63635000D01*
X40851939Y-63635000D01*
X41051898Y-63595226D01*
X41240256Y-63517205D01*
X41409774Y-63403937D01*
X41553937Y-63259774D01*
X41667205Y-63090256D01*
X41745226Y-62901898D01*
X41785000Y-62701939D01*
X41785000Y-62498061D01*
X41745226Y-62298102D01*
X41667205Y-62109744D01*
X41553937Y-61940226D01*
X41510000Y-61896289D01*
X41510000Y-61444801D01*
X42389802Y-60565000D01*
X42561788Y-60565000D01*
X42781067Y-60521383D01*
X42987624Y-60435824D01*
X43173520Y-60311612D01*
X43331612Y-60153520D01*
X43455824Y-59967624D01*
X43541383Y-59761067D01*
X43585000Y-59541788D01*
X43585000Y-59318212D01*
X43576701Y-59276492D01*
X43636211Y-59336002D01*
G37*
X43636211Y-59336002D02*
X43660010Y-59365001D01*
X43775735Y-59459974D01*
X43907764Y-59530546D01*
X44051025Y-59574003D01*
X44162678Y-59585000D01*
X44162687Y-59585000D01*
X44200010Y-59588676D01*
X44237333Y-59585000D01*
X45696289Y-59585000D01*
X45740226Y-59628937D01*
X45909744Y-59742205D01*
X46098102Y-59820226D01*
X46298061Y-59860000D01*
X46310000Y-59860000D01*
X46310001Y-60631248D01*
X46310000Y-60631258D01*
X46310001Y-63631821D01*
X46123368Y-63756525D01*
X45916525Y-63963368D01*
X45800000Y-64137760D01*
X45683475Y-63963368D01*
X45476632Y-63756525D01*
X45233411Y-63594010D01*
X44963158Y-63482068D01*
X44676260Y-63425000D01*
X44383740Y-63425000D01*
X44096842Y-63482068D01*
X43826589Y-63594010D01*
X43583368Y-63756525D01*
X43376525Y-63963368D01*
X43214010Y-64206589D01*
X43102068Y-64476842D01*
X43045000Y-64763740D01*
X43045000Y-65056260D01*
X43102068Y-65343158D01*
X43214010Y-65613411D01*
X43376525Y-65856632D01*
X43508380Y-65988487D01*
X43435820Y-66010498D01*
X43325506Y-66069463D01*
X43290190Y-66098446D01*
X40826744Y-63635000D01*
X40851939Y-63635000D01*
X41051898Y-63595226D01*
X41240256Y-63517205D01*
X41409774Y-63403937D01*
X41553937Y-63259774D01*
X41667205Y-63090256D01*
X41745226Y-62901898D01*
X41785000Y-62701939D01*
X41785000Y-62498061D01*
X41745226Y-62298102D01*
X41667205Y-62109744D01*
X41553937Y-61940226D01*
X41510000Y-61896289D01*
X41510000Y-61444801D01*
X42389802Y-60565000D01*
X42561788Y-60565000D01*
X42781067Y-60521383D01*
X42987624Y-60435824D01*
X43173520Y-60311612D01*
X43331612Y-60153520D01*
X43455824Y-59967624D01*
X43541383Y-59761067D01*
X43585000Y-59541788D01*
X43585000Y-59318212D01*
X43576701Y-59276492D01*
X43636211Y-59336002D01*
G36*
X42597000Y-56417000D02*
G01*
X42577000Y-56417000D01*
X42577000Y-57257954D01*
X42751874Y-57384119D01*
X42806864Y-57367446D01*
X42965012Y-57297198D01*
X42965011Y-58312677D01*
X42961335Y-58350000D01*
X42965011Y-58387322D01*
X42965011Y-58387332D01*
X42967832Y-58415978D01*
X42781067Y-58338617D01*
X42561788Y-58295000D01*
X42338212Y-58295000D01*
X42118933Y-58338617D01*
X41912376Y-58424176D01*
X41815000Y-58489241D01*
X41717624Y-58424176D01*
X41511067Y-58338617D01*
X41291788Y-58295000D01*
X41068212Y-58295000D01*
X40848933Y-58338617D01*
X40642376Y-58424176D01*
X40545000Y-58489241D01*
X40447624Y-58424176D01*
X40241067Y-58338617D01*
X40021788Y-58295000D01*
X39798212Y-58295000D01*
X39578933Y-58338617D01*
X39467226Y-58384888D01*
X39384180Y-58340498D01*
X39264482Y-58304188D01*
X39140000Y-58291928D01*
X38140000Y-58291928D01*
X38015518Y-58304188D01*
X37895820Y-58340498D01*
X37859970Y-58359661D01*
X37859970Y-57360339D01*
X37895820Y-57379502D01*
X38015518Y-57415812D01*
X38140000Y-57428072D01*
X39140000Y-57428072D01*
X39264482Y-57415812D01*
X39384180Y-57379502D01*
X39467226Y-57335112D01*
X39578933Y-57381383D01*
X39798212Y-57425000D01*
X40021788Y-57425000D01*
X40241067Y-57381383D01*
X40447624Y-57295824D01*
X40545000Y-57230759D01*
X40642376Y-57295824D01*
X40848933Y-57381383D01*
X41068212Y-57425000D01*
X41291788Y-57425000D01*
X41511067Y-57381383D01*
X41717624Y-57295824D01*
X41819658Y-57227647D01*
X41889794Y-57277123D01*
X42093136Y-57367446D01*
X42148126Y-57384119D01*
X42323000Y-57257954D01*
X42323000Y-56417000D01*
X42311974Y-56417000D01*
X42315000Y-56401788D01*
X42315000Y-56224999D01*
X42597000Y-56224999D01*
X42597000Y-56417000D01*
G37*
X42597000Y-56417000D02*
X42577000Y-56417000D01*
X42577000Y-57257954D01*
X42751874Y-57384119D01*
X42806864Y-57367446D01*
X42965012Y-57297198D01*
X42965011Y-58312677D01*
X42961335Y-58350000D01*
X42965011Y-58387322D01*
X42965011Y-58387332D01*
X42967832Y-58415978D01*
X42781067Y-58338617D01*
X42561788Y-58295000D01*
X42338212Y-58295000D01*
X42118933Y-58338617D01*
X41912376Y-58424176D01*
X41815000Y-58489241D01*
X41717624Y-58424176D01*
X41511067Y-58338617D01*
X41291788Y-58295000D01*
X41068212Y-58295000D01*
X40848933Y-58338617D01*
X40642376Y-58424176D01*
X40545000Y-58489241D01*
X40447624Y-58424176D01*
X40241067Y-58338617D01*
X40021788Y-58295000D01*
X39798212Y-58295000D01*
X39578933Y-58338617D01*
X39467226Y-58384888D01*
X39384180Y-58340498D01*
X39264482Y-58304188D01*
X39140000Y-58291928D01*
X38140000Y-58291928D01*
X38015518Y-58304188D01*
X37895820Y-58340498D01*
X37859970Y-58359661D01*
X37859970Y-57360339D01*
X37895820Y-57379502D01*
X38015518Y-57415812D01*
X38140000Y-57428072D01*
X39140000Y-57428072D01*
X39264482Y-57415812D01*
X39384180Y-57379502D01*
X39467226Y-57335112D01*
X39578933Y-57381383D01*
X39798212Y-57425000D01*
X40021788Y-57425000D01*
X40241067Y-57381383D01*
X40447624Y-57295824D01*
X40545000Y-57230759D01*
X40642376Y-57295824D01*
X40848933Y-57381383D01*
X41068212Y-57425000D01*
X41291788Y-57425000D01*
X41511067Y-57381383D01*
X41717624Y-57295824D01*
X41819658Y-57227647D01*
X41889794Y-57277123D01*
X42093136Y-57367446D01*
X42148126Y-57384119D01*
X42323000Y-57257954D01*
X42323000Y-56417000D01*
X42311974Y-56417000D01*
X42315000Y-56401788D01*
X42315000Y-56224999D01*
X42597000Y-56224999D01*
X42597000Y-56417000D01*
G36*
X86445000Y-48496803D02*
G01*
X86445000Y-48558941D01*
X86484774Y-48758900D01*
X86562795Y-48947258D01*
X86676063Y-49116776D01*
X86820226Y-49260939D01*
X86989744Y-49374207D01*
X87178102Y-49452228D01*
X87378061Y-49492002D01*
X87440199Y-49492002D01*
X88245002Y-50296806D01*
X88245001Y-57991928D01*
X86980000Y-57991928D01*
X86855518Y-58004188D01*
X86743341Y-58038216D01*
X86842205Y-57890256D01*
X86920226Y-57701898D01*
X86960000Y-57501939D01*
X86960000Y-57298061D01*
X86920226Y-57098102D01*
X86842205Y-56909744D01*
X86728937Y-56740226D01*
X86584774Y-56596063D01*
X86415256Y-56482795D01*
X86226898Y-56404774D01*
X86026939Y-56365000D01*
X85823061Y-56365000D01*
X85623102Y-56404774D01*
X85434744Y-56482795D01*
X85265226Y-56596063D01*
X85221289Y-56640000D01*
X83838614Y-56640000D01*
X81620488Y-54421874D01*
X84750881Y-54421874D01*
X84830724Y-54644976D01*
X84952631Y-54832764D01*
X85108831Y-54993161D01*
X85293322Y-55120003D01*
X85499013Y-55208415D01*
X85718000Y-55255000D01*
X86268000Y-55255000D01*
X86268000Y-54247000D01*
X86522000Y-54247000D01*
X86522000Y-55255000D01*
X87072000Y-55255000D01*
X87290987Y-55208415D01*
X87496678Y-55120003D01*
X87681169Y-54993161D01*
X87837369Y-54832764D01*
X87959276Y-54644976D01*
X88039119Y-54421874D01*
X87912954Y-54247000D01*
X86522000Y-54247000D01*
X86268000Y-54247000D01*
X84877046Y-54247000D01*
X84750881Y-54421874D01*
X81620488Y-54421874D01*
X81016740Y-53818126D01*
X84750881Y-53818126D01*
X84877046Y-53993000D01*
X86268000Y-53993000D01*
X86268000Y-53973000D01*
X86522000Y-53973000D01*
X86522000Y-53993000D01*
X87912954Y-53993000D01*
X88039119Y-53818126D01*
X87959276Y-53595024D01*
X87837369Y-53407236D01*
X87681169Y-53246839D01*
X87678665Y-53245117D01*
X87745741Y-53144731D01*
X87818108Y-52970022D01*
X87855000Y-52784552D01*
X87855000Y-52595448D01*
X87818108Y-52409978D01*
X87745741Y-52235269D01*
X87640681Y-52078036D01*
X87506964Y-51944319D01*
X87349731Y-51839259D01*
X87175022Y-51766892D01*
X86989552Y-51730000D01*
X86800448Y-51730000D01*
X86614978Y-51766892D01*
X86440269Y-51839259D01*
X86283036Y-51944319D01*
X86149319Y-52078036D01*
X86044259Y-52235269D01*
X85971892Y-52409978D01*
X85935000Y-52595448D01*
X85935000Y-52784552D01*
X85971892Y-52970022D01*
X85978096Y-52985000D01*
X85718000Y-52985000D01*
X85499013Y-53031585D01*
X85293322Y-53119997D01*
X85108831Y-53246839D01*
X84952631Y-53407236D01*
X84830724Y-53595024D01*
X84750881Y-53818126D01*
X81016740Y-53818126D01*
X80383408Y-53184795D01*
X80454590Y-53113613D01*
X80567858Y-52944095D01*
X80645879Y-52755737D01*
X80685653Y-52555778D01*
X80685653Y-52360686D01*
X80735518Y-52375812D01*
X80860000Y-52388072D01*
X82860000Y-52388072D01*
X82984482Y-52375812D01*
X83104180Y-52339502D01*
X83214494Y-52280537D01*
X83311185Y-52201185D01*
X83368617Y-52131203D01*
X83534744Y-52242205D01*
X83723102Y-52320226D01*
X83923061Y-52360000D01*
X84126939Y-52360000D01*
X84326898Y-52320226D01*
X84515256Y-52242205D01*
X84684774Y-52128937D01*
X84828937Y-51984774D01*
X84942205Y-51815256D01*
X85020226Y-51626898D01*
X85060000Y-51426939D01*
X85060000Y-51223061D01*
X85020226Y-51023102D01*
X84942205Y-50834744D01*
X84828937Y-50665226D01*
X84785000Y-50621289D01*
X84785000Y-49528711D01*
X84828937Y-49484774D01*
X84942205Y-49315256D01*
X85020226Y-49126898D01*
X85060000Y-48926939D01*
X85060000Y-48723061D01*
X85020226Y-48523102D01*
X84942205Y-48334744D01*
X84925672Y-48310000D01*
X86258197Y-48310000D01*
X86445000Y-48496803D01*
G37*
X86445000Y-48496803D02*
X86445000Y-48558941D01*
X86484774Y-48758900D01*
X86562795Y-48947258D01*
X86676063Y-49116776D01*
X86820226Y-49260939D01*
X86989744Y-49374207D01*
X87178102Y-49452228D01*
X87378061Y-49492002D01*
X87440199Y-49492002D01*
X88245002Y-50296806D01*
X88245001Y-57991928D01*
X86980000Y-57991928D01*
X86855518Y-58004188D01*
X86743341Y-58038216D01*
X86842205Y-57890256D01*
X86920226Y-57701898D01*
X86960000Y-57501939D01*
X86960000Y-57298061D01*
X86920226Y-57098102D01*
X86842205Y-56909744D01*
X86728937Y-56740226D01*
X86584774Y-56596063D01*
X86415256Y-56482795D01*
X86226898Y-56404774D01*
X86026939Y-56365000D01*
X85823061Y-56365000D01*
X85623102Y-56404774D01*
X85434744Y-56482795D01*
X85265226Y-56596063D01*
X85221289Y-56640000D01*
X83838614Y-56640000D01*
X81620488Y-54421874D01*
X84750881Y-54421874D01*
X84830724Y-54644976D01*
X84952631Y-54832764D01*
X85108831Y-54993161D01*
X85293322Y-55120003D01*
X85499013Y-55208415D01*
X85718000Y-55255000D01*
X86268000Y-55255000D01*
X86268000Y-54247000D01*
X86522000Y-54247000D01*
X86522000Y-55255000D01*
X87072000Y-55255000D01*
X87290987Y-55208415D01*
X87496678Y-55120003D01*
X87681169Y-54993161D01*
X87837369Y-54832764D01*
X87959276Y-54644976D01*
X88039119Y-54421874D01*
X87912954Y-54247000D01*
X86522000Y-54247000D01*
X86268000Y-54247000D01*
X84877046Y-54247000D01*
X84750881Y-54421874D01*
X81620488Y-54421874D01*
X81016740Y-53818126D01*
X84750881Y-53818126D01*
X84877046Y-53993000D01*
X86268000Y-53993000D01*
X86268000Y-53973000D01*
X86522000Y-53973000D01*
X86522000Y-53993000D01*
X87912954Y-53993000D01*
X88039119Y-53818126D01*
X87959276Y-53595024D01*
X87837369Y-53407236D01*
X87681169Y-53246839D01*
X87678665Y-53245117D01*
X87745741Y-53144731D01*
X87818108Y-52970022D01*
X87855000Y-52784552D01*
X87855000Y-52595448D01*
X87818108Y-52409978D01*
X87745741Y-52235269D01*
X87640681Y-52078036D01*
X87506964Y-51944319D01*
X87349731Y-51839259D01*
X87175022Y-51766892D01*
X86989552Y-51730000D01*
X86800448Y-51730000D01*
X86614978Y-51766892D01*
X86440269Y-51839259D01*
X86283036Y-51944319D01*
X86149319Y-52078036D01*
X86044259Y-52235269D01*
X85971892Y-52409978D01*
X85935000Y-52595448D01*
X85935000Y-52784552D01*
X85971892Y-52970022D01*
X85978096Y-52985000D01*
X85718000Y-52985000D01*
X85499013Y-53031585D01*
X85293322Y-53119997D01*
X85108831Y-53246839D01*
X84952631Y-53407236D01*
X84830724Y-53595024D01*
X84750881Y-53818126D01*
X81016740Y-53818126D01*
X80383408Y-53184795D01*
X80454590Y-53113613D01*
X80567858Y-52944095D01*
X80645879Y-52755737D01*
X80685653Y-52555778D01*
X80685653Y-52360686D01*
X80735518Y-52375812D01*
X80860000Y-52388072D01*
X82860000Y-52388072D01*
X82984482Y-52375812D01*
X83104180Y-52339502D01*
X83214494Y-52280537D01*
X83311185Y-52201185D01*
X83368617Y-52131203D01*
X83534744Y-52242205D01*
X83723102Y-52320226D01*
X83923061Y-52360000D01*
X84126939Y-52360000D01*
X84326898Y-52320226D01*
X84515256Y-52242205D01*
X84684774Y-52128937D01*
X84828937Y-51984774D01*
X84942205Y-51815256D01*
X85020226Y-51626898D01*
X85060000Y-51426939D01*
X85060000Y-51223061D01*
X85020226Y-51023102D01*
X84942205Y-50834744D01*
X84828937Y-50665226D01*
X84785000Y-50621289D01*
X84785000Y-49528711D01*
X84828937Y-49484774D01*
X84942205Y-49315256D01*
X85020226Y-49126898D01*
X85060000Y-48926939D01*
X85060000Y-48723061D01*
X85020226Y-48523102D01*
X84942205Y-48334744D01*
X84925672Y-48310000D01*
X86258197Y-48310000D01*
X86445000Y-48496803D01*
G36*
X45110000Y-56010750D02*
G01*
X45106928Y-56045000D01*
X45115347Y-56130484D01*
X45050724Y-56165026D01*
X44976598Y-56225860D01*
X45067205Y-56090256D01*
X45145226Y-55901898D01*
X45155151Y-55852002D01*
X45268748Y-55852002D01*
X45110000Y-56010750D01*
G37*
X45110000Y-56010750D02*
X45106928Y-56045000D01*
X45115347Y-56130484D01*
X45050724Y-56165026D01*
X44976598Y-56225860D01*
X45067205Y-56090256D01*
X45145226Y-55901898D01*
X45155151Y-55852002D01*
X45268748Y-55852002D01*
X45110000Y-56010750D01*
G36*
X46076928Y-55872000D02*
G01*
X45913000Y-55872000D01*
X45913000Y-55852000D01*
X45893000Y-55852000D01*
X45893000Y-55598000D01*
X45913000Y-55598000D01*
X45913000Y-55578000D01*
X46076928Y-55578000D01*
X46076928Y-55872000D01*
G37*
X46076928Y-55872000D02*
X45913000Y-55872000D01*
X45913000Y-55852000D01*
X45893000Y-55852000D01*
X45893000Y-55598000D01*
X45913000Y-55598000D01*
X45913000Y-55578000D01*
X46076928Y-55578000D01*
X46076928Y-55872000D01*
G36*
X46066928Y-54770000D02*
G01*
X46054802Y-54770000D01*
X46066928Y-54757874D01*
X46066928Y-54770000D01*
G37*
X46066928Y-54770000D02*
X46054802Y-54770000D01*
X46066928Y-54757874D01*
X46066928Y-54770000D01*
G36*
X75687000Y-52023000D02*
G01*
X75707000Y-52023000D01*
X75707000Y-52277000D01*
X75687000Y-52277000D01*
X75687000Y-52297000D01*
X75433000Y-52297000D01*
X75433000Y-52277000D01*
X75413000Y-52277000D01*
X75413000Y-52023000D01*
X75433000Y-52023000D01*
X75433000Y-52003000D01*
X75687000Y-52003000D01*
X75687000Y-52023000D01*
G37*
X75687000Y-52023000D02*
X75707000Y-52023000D01*
X75707000Y-52277000D01*
X75687000Y-52277000D01*
X75687000Y-52297000D01*
X75433000Y-52297000D01*
X75433000Y-52277000D01*
X75413000Y-52277000D01*
X75413000Y-52023000D01*
X75433000Y-52023000D01*
X75433000Y-52003000D01*
X75687000Y-52003000D01*
X75687000Y-52023000D01*
G36*
X80221928Y-50098760D02*
G01*
X80190654Y-50060652D01*
X80161655Y-50036853D01*
X80050448Y-49925646D01*
X80085000Y-49751939D01*
X80085000Y-49548061D01*
X80045226Y-49348102D01*
X79967205Y-49159744D01*
X79853937Y-48990226D01*
X79709774Y-48846063D01*
X79540256Y-48732795D01*
X79351898Y-48654774D01*
X79151939Y-48615000D01*
X78948061Y-48615000D01*
X78748102Y-48654774D01*
X78559744Y-48732795D01*
X78390226Y-48846063D01*
X78246063Y-48990226D01*
X78132795Y-49159744D01*
X78054774Y-49348102D01*
X78015000Y-49548061D01*
X78015000Y-49751939D01*
X78035922Y-49857121D01*
X77940226Y-49921063D01*
X77796063Y-50065226D01*
X77682795Y-50234744D01*
X77604774Y-50423102D01*
X77565000Y-50623061D01*
X77565000Y-50826939D01*
X77604774Y-51026898D01*
X77682795Y-51215256D01*
X77796063Y-51384774D01*
X77840000Y-51428711D01*
X77840001Y-51647334D01*
X77676898Y-51579774D01*
X77476939Y-51540000D01*
X77273061Y-51540000D01*
X77197046Y-51555120D01*
X77198072Y-51400000D01*
X77185812Y-51275518D01*
X77149502Y-51155820D01*
X77090537Y-51045506D01*
X77053191Y-51000000D01*
X77090537Y-50954494D01*
X77149502Y-50844180D01*
X77185812Y-50724482D01*
X77198072Y-50600000D01*
X77198072Y-49100000D01*
X77185812Y-48975518D01*
X77149502Y-48855820D01*
X77090537Y-48745506D01*
X77053191Y-48700000D01*
X77090537Y-48654494D01*
X77149502Y-48544180D01*
X77185812Y-48424482D01*
X77197087Y-48310000D01*
X80221928Y-48310000D01*
X80221928Y-50098760D01*
G37*
X80221928Y-50098760D02*
X80190654Y-50060652D01*
X80161655Y-50036853D01*
X80050448Y-49925646D01*
X80085000Y-49751939D01*
X80085000Y-49548061D01*
X80045226Y-49348102D01*
X79967205Y-49159744D01*
X79853937Y-48990226D01*
X79709774Y-48846063D01*
X79540256Y-48732795D01*
X79351898Y-48654774D01*
X79151939Y-48615000D01*
X78948061Y-48615000D01*
X78748102Y-48654774D01*
X78559744Y-48732795D01*
X78390226Y-48846063D01*
X78246063Y-48990226D01*
X78132795Y-49159744D01*
X78054774Y-49348102D01*
X78015000Y-49548061D01*
X78015000Y-49751939D01*
X78035922Y-49857121D01*
X77940226Y-49921063D01*
X77796063Y-50065226D01*
X77682795Y-50234744D01*
X77604774Y-50423102D01*
X77565000Y-50623061D01*
X77565000Y-50826939D01*
X77604774Y-51026898D01*
X77682795Y-51215256D01*
X77796063Y-51384774D01*
X77840000Y-51428711D01*
X77840001Y-51647334D01*
X77676898Y-51579774D01*
X77476939Y-51540000D01*
X77273061Y-51540000D01*
X77197046Y-51555120D01*
X77198072Y-51400000D01*
X77185812Y-51275518D01*
X77149502Y-51155820D01*
X77090537Y-51045506D01*
X77053191Y-51000000D01*
X77090537Y-50954494D01*
X77149502Y-50844180D01*
X77185812Y-50724482D01*
X77198072Y-50600000D01*
X77198072Y-49100000D01*
X77185812Y-48975518D01*
X77149502Y-48855820D01*
X77090537Y-48745506D01*
X77053191Y-48700000D01*
X77090537Y-48654494D01*
X77149502Y-48544180D01*
X77185812Y-48424482D01*
X77197087Y-48310000D01*
X80221928Y-48310000D01*
X80221928Y-50098760D01*
G36*
X73332000Y-49443000D02*
G01*
X73352000Y-49443000D01*
X73352000Y-49697000D01*
X73332000Y-49697000D01*
X73332000Y-49717000D01*
X73168072Y-49717000D01*
X73168072Y-49423000D01*
X73332000Y-49423000D01*
X73332000Y-49443000D01*
G37*
X73332000Y-49443000D02*
X73352000Y-49443000D01*
X73352000Y-49697000D01*
X73332000Y-49697000D01*
X73332000Y-49717000D01*
X73168072Y-49717000D01*
X73168072Y-49423000D01*
X73332000Y-49423000D01*
X73332000Y-49443000D01*
G36*
X74029463Y-48654494D02*
G01*
X74066809Y-48700000D01*
X74029463Y-48745506D01*
X73981333Y-48835550D01*
X73951185Y-48798815D01*
X73854494Y-48719463D01*
X73845269Y-48714532D01*
X73986216Y-48573586D01*
X74029463Y-48654494D01*
G37*
X74029463Y-48654494D02*
X74066809Y-48700000D01*
X74029463Y-48745506D01*
X73981333Y-48835550D01*
X73951185Y-48798815D01*
X73854494Y-48719463D01*
X73845269Y-48714532D01*
X73986216Y-48573586D01*
X74029463Y-48654494D01*
%TD*%
M02*
