%TF.GenerationSoftware,KiCad,Pcbnew,(5.1.6)-1*%
%TF.CreationDate,2020-08-08T14:22:08+05:30*%
%TF.ProjectId,F745_DISC,46373435-5f44-4495-9343-2e6b69636164,rev?*%
%TF.SameCoordinates,Original*%
%TF.FileFunction,Paste,Bot*%
%TF.FilePolarity,Positive*%
%FSLAX46Y46*%
G04 Gerber Fmt 4.6, Leading zero omitted, Abs format (unit mm)*
G04 Created by KiCad (PCBNEW (5.1.6)-1) date 2020-08-08 14:22:08*
%MOMM*%
%LPD*%
G01*
G04 APERTURE LIST*
%ADD10R,2.000000X1.500000*%
%ADD11R,2.000000X3.800000*%
%ADD12R,1.550000X1.000000*%
%ADD13R,1.500000X1.500000*%
%ADD14R,1.750000X0.700000*%
%ADD15R,1.400000X0.800000*%
%ADD16R,1.000000X1.450000*%
%ADD17R,1.500000X0.800000*%
%ADD18R,1.500000X1.300000*%
G04 APERTURE END LIST*
D10*
%TO.C,3.3 VREG*%
X75560000Y-52150000D03*
X75560000Y-47550000D03*
X75560000Y-49850000D03*
D11*
X81860000Y-49850000D03*
%TD*%
D12*
%TO.C,J1*%
X33650000Y-49985000D03*
D13*
X44325000Y-50035000D03*
D14*
X44450000Y-47585000D03*
X44450000Y-46485000D03*
X44450000Y-45385000D03*
X44450000Y-44285000D03*
X44450000Y-43185000D03*
X44450000Y-42085000D03*
X44450000Y-40985000D03*
D15*
X36075000Y-50385000D03*
D16*
X35225000Y-38760000D03*
D17*
X36725000Y-38435000D03*
D18*
X44325000Y-38685000D03*
D14*
X44450000Y-39885000D03*
%TD*%
%TO.C,C4_ST1*%
G36*
G01*
X45745000Y-55897500D02*
X45745000Y-55552500D01*
G75*
G02*
X45892500Y-55405000I147500J0D01*
G01*
X46187500Y-55405000D01*
G75*
G02*
X46335000Y-55552500I0J-147500D01*
G01*
X46335000Y-55897500D01*
G75*
G02*
X46187500Y-56045000I-147500J0D01*
G01*
X45892500Y-56045000D01*
G75*
G02*
X45745000Y-55897500I0J147500D01*
G01*
G37*
G36*
G01*
X46715000Y-55897500D02*
X46715000Y-55552500D01*
G75*
G02*
X46862500Y-55405000I147500J0D01*
G01*
X47157500Y-55405000D01*
G75*
G02*
X47305000Y-55552500I0J-147500D01*
G01*
X47305000Y-55897500D01*
G75*
G02*
X47157500Y-56045000I-147500J0D01*
G01*
X46862500Y-56045000D01*
G75*
G02*
X46715000Y-55897500I0J147500D01*
G01*
G37*
%TD*%
%TO.C,C3_ST1*%
G36*
G01*
X45735000Y-54947500D02*
X45735000Y-54602500D01*
G75*
G02*
X45882500Y-54455000I147500J0D01*
G01*
X46177500Y-54455000D01*
G75*
G02*
X46325000Y-54602500I0J-147500D01*
G01*
X46325000Y-54947500D01*
G75*
G02*
X46177500Y-55095000I-147500J0D01*
G01*
X45882500Y-55095000D01*
G75*
G02*
X45735000Y-54947500I0J147500D01*
G01*
G37*
G36*
G01*
X46705000Y-54947500D02*
X46705000Y-54602500D01*
G75*
G02*
X46852500Y-54455000I147500J0D01*
G01*
X47147500Y-54455000D01*
G75*
G02*
X47295000Y-54602500I0J-147500D01*
G01*
X47295000Y-54947500D01*
G75*
G02*
X47147500Y-55095000I-147500J0D01*
G01*
X46852500Y-55095000D01*
G75*
G02*
X46705000Y-54947500I0J147500D01*
G01*
G37*
%TD*%
%TO.C,C2_VREG1*%
G36*
G01*
X72530000Y-50387500D02*
X72530000Y-50732500D01*
G75*
G02*
X72382500Y-50880000I-147500J0D01*
G01*
X72087500Y-50880000D01*
G75*
G02*
X71940000Y-50732500I0J147500D01*
G01*
X71940000Y-50387500D01*
G75*
G02*
X72087500Y-50240000I147500J0D01*
G01*
X72382500Y-50240000D01*
G75*
G02*
X72530000Y-50387500I0J-147500D01*
G01*
G37*
G36*
G01*
X73500000Y-50387500D02*
X73500000Y-50732500D01*
G75*
G02*
X73352500Y-50880000I-147500J0D01*
G01*
X73057500Y-50880000D01*
G75*
G02*
X72910000Y-50732500I0J147500D01*
G01*
X72910000Y-50387500D01*
G75*
G02*
X73057500Y-50240000I147500J0D01*
G01*
X73352500Y-50240000D01*
G75*
G02*
X73500000Y-50387500I0J-147500D01*
G01*
G37*
%TD*%
%TO.C,C1_VREG1*%
G36*
G01*
X72910000Y-49742500D02*
X72910000Y-49397500D01*
G75*
G02*
X73057500Y-49250000I147500J0D01*
G01*
X73352500Y-49250000D01*
G75*
G02*
X73500000Y-49397500I0J-147500D01*
G01*
X73500000Y-49742500D01*
G75*
G02*
X73352500Y-49890000I-147500J0D01*
G01*
X73057500Y-49890000D01*
G75*
G02*
X72910000Y-49742500I0J147500D01*
G01*
G37*
G36*
G01*
X71940000Y-49742500D02*
X71940000Y-49397500D01*
G75*
G02*
X72087500Y-49250000I147500J0D01*
G01*
X72382500Y-49250000D01*
G75*
G02*
X72530000Y-49397500I0J-147500D01*
G01*
X72530000Y-49742500D01*
G75*
G02*
X72382500Y-49890000I-147500J0D01*
G01*
X72087500Y-49890000D01*
G75*
G02*
X71940000Y-49742500I0J147500D01*
G01*
G37*
%TD*%
M02*
