%TF.GenerationSoftware,KiCad,Pcbnew,(5.1.6)-1*%
%TF.CreationDate,2020-08-08T14:22:08+05:30*%
%TF.ProjectId,F745_DISC,46373435-5f44-4495-9343-2e6b69636164,rev?*%
%TF.SameCoordinates,Original*%
%TF.FileFunction,Soldermask,Top*%
%TF.FilePolarity,Negative*%
%FSLAX46Y46*%
G04 Gerber Fmt 4.6, Leading zero omitted, Abs format (unit mm)*
G04 Created by KiCad (PCBNEW (5.1.6)-1) date 2020-08-08 14:22:08*
%MOMM*%
%LPD*%
G01*
G04 APERTURE LIST*
%ADD10O,1.100000X1.100000*%
%ADD11R,1.100000X1.100000*%
%ADD12O,1.800000X1.800000*%
%ADD13R,1.800000X1.800000*%
%ADD14R,2.000000X0.500000*%
%ADD15R,1.250000X0.400000*%
%ADD16C,0.750000*%
%ADD17O,1.700000X1.100000*%
%ADD18O,2.200000X1.100000*%
%ADD19C,0.900000*%
%ADD20C,6.500000*%
%ADD21R,0.900000X1.000000*%
G04 APERTURE END LIST*
D10*
%TO.C,SPI*%
X42450000Y-59430000D03*
X41180000Y-59430000D03*
X39910000Y-59430000D03*
D11*
X38640000Y-59430000D03*
%TD*%
D10*
%TO.C,SWD*%
X42450000Y-56290000D03*
X41180000Y-56290000D03*
X39910000Y-56290000D03*
D11*
X38640000Y-56290000D03*
%TD*%
D10*
%TO.C,UART*%
X42450000Y-53150000D03*
X41180000Y-53150000D03*
X39910000Y-53150000D03*
D11*
X38640000Y-53150000D03*
%TD*%
D12*
%TO.C,J4*%
X82630000Y-64910000D03*
X82630000Y-67450000D03*
X80090000Y-64910000D03*
X80090000Y-67450000D03*
X77550000Y-64910000D03*
X77550000Y-67450000D03*
X75010000Y-64910000D03*
X75010000Y-67450000D03*
X72470000Y-64910000D03*
X72470000Y-67450000D03*
X69930000Y-64910000D03*
X69930000Y-67450000D03*
X67390000Y-64910000D03*
X67390000Y-67450000D03*
X64850000Y-64910000D03*
X64850000Y-67450000D03*
X62310000Y-64910000D03*
X62310000Y-67450000D03*
X59770000Y-64910000D03*
X59770000Y-67450000D03*
X57230000Y-64910000D03*
X57230000Y-67450000D03*
X54690000Y-64910000D03*
X54690000Y-67450000D03*
X52150000Y-64910000D03*
X52150000Y-67450000D03*
X49610000Y-64910000D03*
X49610000Y-67450000D03*
X47070000Y-64910000D03*
X47070000Y-67450000D03*
X44530000Y-64910000D03*
D13*
X44530000Y-67450000D03*
%TD*%
D12*
%TO.C,J3*%
X82580000Y-32740000D03*
X82580000Y-35280000D03*
X80040000Y-32740000D03*
X80040000Y-35280000D03*
X77500000Y-32740000D03*
X77500000Y-35280000D03*
X74960000Y-32740000D03*
X74960000Y-35280000D03*
X72420000Y-32740000D03*
X72420000Y-35280000D03*
X69880000Y-32740000D03*
X69880000Y-35280000D03*
X67340000Y-32740000D03*
X67340000Y-35280000D03*
X64800000Y-32740000D03*
X64800000Y-35280000D03*
X62260000Y-32740000D03*
X62260000Y-35280000D03*
X59720000Y-32740000D03*
X59720000Y-35280000D03*
X57180000Y-32740000D03*
X57180000Y-35280000D03*
X54640000Y-32740000D03*
X54640000Y-35280000D03*
X52100000Y-32740000D03*
X52100000Y-35280000D03*
X49560000Y-32740000D03*
X49560000Y-35280000D03*
X47020000Y-32740000D03*
X47020000Y-35280000D03*
X44480000Y-32740000D03*
D13*
X44480000Y-35280000D03*
%TD*%
D14*
%TO.C,Y1*%
X50900000Y-50800000D03*
X50900000Y-49600000D03*
X50900000Y-48400000D03*
%TD*%
%TO.C,U1*%
G36*
G01*
X56200000Y-43075000D02*
X56200000Y-41575000D01*
G75*
G02*
X56300000Y-41475000I100000J0D01*
G01*
X56500000Y-41475000D01*
G75*
G02*
X56600000Y-41575000I0J-100000D01*
G01*
X56600000Y-43075000D01*
G75*
G02*
X56500000Y-43175000I-100000J0D01*
G01*
X56300000Y-43175000D01*
G75*
G02*
X56200000Y-43075000I0J100000D01*
G01*
G37*
G36*
G01*
X56700000Y-43075000D02*
X56700000Y-41575000D01*
G75*
G02*
X56800000Y-41475000I100000J0D01*
G01*
X57000000Y-41475000D01*
G75*
G02*
X57100000Y-41575000I0J-100000D01*
G01*
X57100000Y-43075000D01*
G75*
G02*
X57000000Y-43175000I-100000J0D01*
G01*
X56800000Y-43175000D01*
G75*
G02*
X56700000Y-43075000I0J100000D01*
G01*
G37*
G36*
G01*
X57200000Y-43075000D02*
X57200000Y-41575000D01*
G75*
G02*
X57300000Y-41475000I100000J0D01*
G01*
X57500000Y-41475000D01*
G75*
G02*
X57600000Y-41575000I0J-100000D01*
G01*
X57600000Y-43075000D01*
G75*
G02*
X57500000Y-43175000I-100000J0D01*
G01*
X57300000Y-43175000D01*
G75*
G02*
X57200000Y-43075000I0J100000D01*
G01*
G37*
G36*
G01*
X57700000Y-43075000D02*
X57700000Y-41575000D01*
G75*
G02*
X57800000Y-41475000I100000J0D01*
G01*
X58000000Y-41475000D01*
G75*
G02*
X58100000Y-41575000I0J-100000D01*
G01*
X58100000Y-43075000D01*
G75*
G02*
X58000000Y-43175000I-100000J0D01*
G01*
X57800000Y-43175000D01*
G75*
G02*
X57700000Y-43075000I0J100000D01*
G01*
G37*
G36*
G01*
X58200000Y-43075000D02*
X58200000Y-41575000D01*
G75*
G02*
X58300000Y-41475000I100000J0D01*
G01*
X58500000Y-41475000D01*
G75*
G02*
X58600000Y-41575000I0J-100000D01*
G01*
X58600000Y-43075000D01*
G75*
G02*
X58500000Y-43175000I-100000J0D01*
G01*
X58300000Y-43175000D01*
G75*
G02*
X58200000Y-43075000I0J100000D01*
G01*
G37*
G36*
G01*
X58700000Y-43075000D02*
X58700000Y-41575000D01*
G75*
G02*
X58800000Y-41475000I100000J0D01*
G01*
X59000000Y-41475000D01*
G75*
G02*
X59100000Y-41575000I0J-100000D01*
G01*
X59100000Y-43075000D01*
G75*
G02*
X59000000Y-43175000I-100000J0D01*
G01*
X58800000Y-43175000D01*
G75*
G02*
X58700000Y-43075000I0J100000D01*
G01*
G37*
G36*
G01*
X59200000Y-43075000D02*
X59200000Y-41575000D01*
G75*
G02*
X59300000Y-41475000I100000J0D01*
G01*
X59500000Y-41475000D01*
G75*
G02*
X59600000Y-41575000I0J-100000D01*
G01*
X59600000Y-43075000D01*
G75*
G02*
X59500000Y-43175000I-100000J0D01*
G01*
X59300000Y-43175000D01*
G75*
G02*
X59200000Y-43075000I0J100000D01*
G01*
G37*
G36*
G01*
X59700000Y-43075000D02*
X59700000Y-41575000D01*
G75*
G02*
X59800000Y-41475000I100000J0D01*
G01*
X60000000Y-41475000D01*
G75*
G02*
X60100000Y-41575000I0J-100000D01*
G01*
X60100000Y-43075000D01*
G75*
G02*
X60000000Y-43175000I-100000J0D01*
G01*
X59800000Y-43175000D01*
G75*
G02*
X59700000Y-43075000I0J100000D01*
G01*
G37*
G36*
G01*
X60200000Y-43075000D02*
X60200000Y-41575000D01*
G75*
G02*
X60300000Y-41475000I100000J0D01*
G01*
X60500000Y-41475000D01*
G75*
G02*
X60600000Y-41575000I0J-100000D01*
G01*
X60600000Y-43075000D01*
G75*
G02*
X60500000Y-43175000I-100000J0D01*
G01*
X60300000Y-43175000D01*
G75*
G02*
X60200000Y-43075000I0J100000D01*
G01*
G37*
G36*
G01*
X60700000Y-43075000D02*
X60700000Y-41575000D01*
G75*
G02*
X60800000Y-41475000I100000J0D01*
G01*
X61000000Y-41475000D01*
G75*
G02*
X61100000Y-41575000I0J-100000D01*
G01*
X61100000Y-43075000D01*
G75*
G02*
X61000000Y-43175000I-100000J0D01*
G01*
X60800000Y-43175000D01*
G75*
G02*
X60700000Y-43075000I0J100000D01*
G01*
G37*
G36*
G01*
X61200000Y-43075000D02*
X61200000Y-41575000D01*
G75*
G02*
X61300000Y-41475000I100000J0D01*
G01*
X61500000Y-41475000D01*
G75*
G02*
X61600000Y-41575000I0J-100000D01*
G01*
X61600000Y-43075000D01*
G75*
G02*
X61500000Y-43175000I-100000J0D01*
G01*
X61300000Y-43175000D01*
G75*
G02*
X61200000Y-43075000I0J100000D01*
G01*
G37*
G36*
G01*
X61700000Y-43075000D02*
X61700000Y-41575000D01*
G75*
G02*
X61800000Y-41475000I100000J0D01*
G01*
X62000000Y-41475000D01*
G75*
G02*
X62100000Y-41575000I0J-100000D01*
G01*
X62100000Y-43075000D01*
G75*
G02*
X62000000Y-43175000I-100000J0D01*
G01*
X61800000Y-43175000D01*
G75*
G02*
X61700000Y-43075000I0J100000D01*
G01*
G37*
G36*
G01*
X62200000Y-43075000D02*
X62200000Y-41575000D01*
G75*
G02*
X62300000Y-41475000I100000J0D01*
G01*
X62500000Y-41475000D01*
G75*
G02*
X62600000Y-41575000I0J-100000D01*
G01*
X62600000Y-43075000D01*
G75*
G02*
X62500000Y-43175000I-100000J0D01*
G01*
X62300000Y-43175000D01*
G75*
G02*
X62200000Y-43075000I0J100000D01*
G01*
G37*
G36*
G01*
X62700000Y-43075000D02*
X62700000Y-41575000D01*
G75*
G02*
X62800000Y-41475000I100000J0D01*
G01*
X63000000Y-41475000D01*
G75*
G02*
X63100000Y-41575000I0J-100000D01*
G01*
X63100000Y-43075000D01*
G75*
G02*
X63000000Y-43175000I-100000J0D01*
G01*
X62800000Y-43175000D01*
G75*
G02*
X62700000Y-43075000I0J100000D01*
G01*
G37*
G36*
G01*
X63200000Y-43075000D02*
X63200000Y-41575000D01*
G75*
G02*
X63300000Y-41475000I100000J0D01*
G01*
X63500000Y-41475000D01*
G75*
G02*
X63600000Y-41575000I0J-100000D01*
G01*
X63600000Y-43075000D01*
G75*
G02*
X63500000Y-43175000I-100000J0D01*
G01*
X63300000Y-43175000D01*
G75*
G02*
X63200000Y-43075000I0J100000D01*
G01*
G37*
G36*
G01*
X63700000Y-43075000D02*
X63700000Y-41575000D01*
G75*
G02*
X63800000Y-41475000I100000J0D01*
G01*
X64000000Y-41475000D01*
G75*
G02*
X64100000Y-41575000I0J-100000D01*
G01*
X64100000Y-43075000D01*
G75*
G02*
X64000000Y-43175000I-100000J0D01*
G01*
X63800000Y-43175000D01*
G75*
G02*
X63700000Y-43075000I0J100000D01*
G01*
G37*
G36*
G01*
X64200000Y-43075000D02*
X64200000Y-41575000D01*
G75*
G02*
X64300000Y-41475000I100000J0D01*
G01*
X64500000Y-41475000D01*
G75*
G02*
X64600000Y-41575000I0J-100000D01*
G01*
X64600000Y-43075000D01*
G75*
G02*
X64500000Y-43175000I-100000J0D01*
G01*
X64300000Y-43175000D01*
G75*
G02*
X64200000Y-43075000I0J100000D01*
G01*
G37*
G36*
G01*
X64700000Y-43075000D02*
X64700000Y-41575000D01*
G75*
G02*
X64800000Y-41475000I100000J0D01*
G01*
X65000000Y-41475000D01*
G75*
G02*
X65100000Y-41575000I0J-100000D01*
G01*
X65100000Y-43075000D01*
G75*
G02*
X65000000Y-43175000I-100000J0D01*
G01*
X64800000Y-43175000D01*
G75*
G02*
X64700000Y-43075000I0J100000D01*
G01*
G37*
G36*
G01*
X65200000Y-43075000D02*
X65200000Y-41575000D01*
G75*
G02*
X65300000Y-41475000I100000J0D01*
G01*
X65500000Y-41475000D01*
G75*
G02*
X65600000Y-41575000I0J-100000D01*
G01*
X65600000Y-43075000D01*
G75*
G02*
X65500000Y-43175000I-100000J0D01*
G01*
X65300000Y-43175000D01*
G75*
G02*
X65200000Y-43075000I0J100000D01*
G01*
G37*
G36*
G01*
X65700000Y-43075000D02*
X65700000Y-41575000D01*
G75*
G02*
X65800000Y-41475000I100000J0D01*
G01*
X66000000Y-41475000D01*
G75*
G02*
X66100000Y-41575000I0J-100000D01*
G01*
X66100000Y-43075000D01*
G75*
G02*
X66000000Y-43175000I-100000J0D01*
G01*
X65800000Y-43175000D01*
G75*
G02*
X65700000Y-43075000I0J100000D01*
G01*
G37*
G36*
G01*
X66200000Y-43075000D02*
X66200000Y-41575000D01*
G75*
G02*
X66300000Y-41475000I100000J0D01*
G01*
X66500000Y-41475000D01*
G75*
G02*
X66600000Y-41575000I0J-100000D01*
G01*
X66600000Y-43075000D01*
G75*
G02*
X66500000Y-43175000I-100000J0D01*
G01*
X66300000Y-43175000D01*
G75*
G02*
X66200000Y-43075000I0J100000D01*
G01*
G37*
G36*
G01*
X66700000Y-43075000D02*
X66700000Y-41575000D01*
G75*
G02*
X66800000Y-41475000I100000J0D01*
G01*
X67000000Y-41475000D01*
G75*
G02*
X67100000Y-41575000I0J-100000D01*
G01*
X67100000Y-43075000D01*
G75*
G02*
X67000000Y-43175000I-100000J0D01*
G01*
X66800000Y-43175000D01*
G75*
G02*
X66700000Y-43075000I0J100000D01*
G01*
G37*
G36*
G01*
X67200000Y-43075000D02*
X67200000Y-41575000D01*
G75*
G02*
X67300000Y-41475000I100000J0D01*
G01*
X67500000Y-41475000D01*
G75*
G02*
X67600000Y-41575000I0J-100000D01*
G01*
X67600000Y-43075000D01*
G75*
G02*
X67500000Y-43175000I-100000J0D01*
G01*
X67300000Y-43175000D01*
G75*
G02*
X67200000Y-43075000I0J100000D01*
G01*
G37*
G36*
G01*
X67700000Y-43075000D02*
X67700000Y-41575000D01*
G75*
G02*
X67800000Y-41475000I100000J0D01*
G01*
X68000000Y-41475000D01*
G75*
G02*
X68100000Y-41575000I0J-100000D01*
G01*
X68100000Y-43075000D01*
G75*
G02*
X68000000Y-43175000I-100000J0D01*
G01*
X67800000Y-43175000D01*
G75*
G02*
X67700000Y-43075000I0J100000D01*
G01*
G37*
G36*
G01*
X68200000Y-43075000D02*
X68200000Y-41575000D01*
G75*
G02*
X68300000Y-41475000I100000J0D01*
G01*
X68500000Y-41475000D01*
G75*
G02*
X68600000Y-41575000I0J-100000D01*
G01*
X68600000Y-43075000D01*
G75*
G02*
X68500000Y-43175000I-100000J0D01*
G01*
X68300000Y-43175000D01*
G75*
G02*
X68200000Y-43075000I0J100000D01*
G01*
G37*
G36*
G01*
X69225000Y-44100000D02*
X69225000Y-43900000D01*
G75*
G02*
X69325000Y-43800000I100000J0D01*
G01*
X70825000Y-43800000D01*
G75*
G02*
X70925000Y-43900000I0J-100000D01*
G01*
X70925000Y-44100000D01*
G75*
G02*
X70825000Y-44200000I-100000J0D01*
G01*
X69325000Y-44200000D01*
G75*
G02*
X69225000Y-44100000I0J100000D01*
G01*
G37*
G36*
G01*
X69225000Y-44600000D02*
X69225000Y-44400000D01*
G75*
G02*
X69325000Y-44300000I100000J0D01*
G01*
X70825000Y-44300000D01*
G75*
G02*
X70925000Y-44400000I0J-100000D01*
G01*
X70925000Y-44600000D01*
G75*
G02*
X70825000Y-44700000I-100000J0D01*
G01*
X69325000Y-44700000D01*
G75*
G02*
X69225000Y-44600000I0J100000D01*
G01*
G37*
G36*
G01*
X69225000Y-45100000D02*
X69225000Y-44900000D01*
G75*
G02*
X69325000Y-44800000I100000J0D01*
G01*
X70825000Y-44800000D01*
G75*
G02*
X70925000Y-44900000I0J-100000D01*
G01*
X70925000Y-45100000D01*
G75*
G02*
X70825000Y-45200000I-100000J0D01*
G01*
X69325000Y-45200000D01*
G75*
G02*
X69225000Y-45100000I0J100000D01*
G01*
G37*
G36*
G01*
X69225000Y-45600000D02*
X69225000Y-45400000D01*
G75*
G02*
X69325000Y-45300000I100000J0D01*
G01*
X70825000Y-45300000D01*
G75*
G02*
X70925000Y-45400000I0J-100000D01*
G01*
X70925000Y-45600000D01*
G75*
G02*
X70825000Y-45700000I-100000J0D01*
G01*
X69325000Y-45700000D01*
G75*
G02*
X69225000Y-45600000I0J100000D01*
G01*
G37*
G36*
G01*
X69225000Y-46100000D02*
X69225000Y-45900000D01*
G75*
G02*
X69325000Y-45800000I100000J0D01*
G01*
X70825000Y-45800000D01*
G75*
G02*
X70925000Y-45900000I0J-100000D01*
G01*
X70925000Y-46100000D01*
G75*
G02*
X70825000Y-46200000I-100000J0D01*
G01*
X69325000Y-46200000D01*
G75*
G02*
X69225000Y-46100000I0J100000D01*
G01*
G37*
G36*
G01*
X69225000Y-46600000D02*
X69225000Y-46400000D01*
G75*
G02*
X69325000Y-46300000I100000J0D01*
G01*
X70825000Y-46300000D01*
G75*
G02*
X70925000Y-46400000I0J-100000D01*
G01*
X70925000Y-46600000D01*
G75*
G02*
X70825000Y-46700000I-100000J0D01*
G01*
X69325000Y-46700000D01*
G75*
G02*
X69225000Y-46600000I0J100000D01*
G01*
G37*
G36*
G01*
X69225000Y-47100000D02*
X69225000Y-46900000D01*
G75*
G02*
X69325000Y-46800000I100000J0D01*
G01*
X70825000Y-46800000D01*
G75*
G02*
X70925000Y-46900000I0J-100000D01*
G01*
X70925000Y-47100000D01*
G75*
G02*
X70825000Y-47200000I-100000J0D01*
G01*
X69325000Y-47200000D01*
G75*
G02*
X69225000Y-47100000I0J100000D01*
G01*
G37*
G36*
G01*
X69225000Y-47600000D02*
X69225000Y-47400000D01*
G75*
G02*
X69325000Y-47300000I100000J0D01*
G01*
X70825000Y-47300000D01*
G75*
G02*
X70925000Y-47400000I0J-100000D01*
G01*
X70925000Y-47600000D01*
G75*
G02*
X70825000Y-47700000I-100000J0D01*
G01*
X69325000Y-47700000D01*
G75*
G02*
X69225000Y-47600000I0J100000D01*
G01*
G37*
G36*
G01*
X69225000Y-48100000D02*
X69225000Y-47900000D01*
G75*
G02*
X69325000Y-47800000I100000J0D01*
G01*
X70825000Y-47800000D01*
G75*
G02*
X70925000Y-47900000I0J-100000D01*
G01*
X70925000Y-48100000D01*
G75*
G02*
X70825000Y-48200000I-100000J0D01*
G01*
X69325000Y-48200000D01*
G75*
G02*
X69225000Y-48100000I0J100000D01*
G01*
G37*
G36*
G01*
X69225000Y-48600000D02*
X69225000Y-48400000D01*
G75*
G02*
X69325000Y-48300000I100000J0D01*
G01*
X70825000Y-48300000D01*
G75*
G02*
X70925000Y-48400000I0J-100000D01*
G01*
X70925000Y-48600000D01*
G75*
G02*
X70825000Y-48700000I-100000J0D01*
G01*
X69325000Y-48700000D01*
G75*
G02*
X69225000Y-48600000I0J100000D01*
G01*
G37*
G36*
G01*
X69225000Y-49100000D02*
X69225000Y-48900000D01*
G75*
G02*
X69325000Y-48800000I100000J0D01*
G01*
X70825000Y-48800000D01*
G75*
G02*
X70925000Y-48900000I0J-100000D01*
G01*
X70925000Y-49100000D01*
G75*
G02*
X70825000Y-49200000I-100000J0D01*
G01*
X69325000Y-49200000D01*
G75*
G02*
X69225000Y-49100000I0J100000D01*
G01*
G37*
G36*
G01*
X69225000Y-49600000D02*
X69225000Y-49400000D01*
G75*
G02*
X69325000Y-49300000I100000J0D01*
G01*
X70825000Y-49300000D01*
G75*
G02*
X70925000Y-49400000I0J-100000D01*
G01*
X70925000Y-49600000D01*
G75*
G02*
X70825000Y-49700000I-100000J0D01*
G01*
X69325000Y-49700000D01*
G75*
G02*
X69225000Y-49600000I0J100000D01*
G01*
G37*
G36*
G01*
X69225000Y-50100000D02*
X69225000Y-49900000D01*
G75*
G02*
X69325000Y-49800000I100000J0D01*
G01*
X70825000Y-49800000D01*
G75*
G02*
X70925000Y-49900000I0J-100000D01*
G01*
X70925000Y-50100000D01*
G75*
G02*
X70825000Y-50200000I-100000J0D01*
G01*
X69325000Y-50200000D01*
G75*
G02*
X69225000Y-50100000I0J100000D01*
G01*
G37*
G36*
G01*
X69225000Y-50600000D02*
X69225000Y-50400000D01*
G75*
G02*
X69325000Y-50300000I100000J0D01*
G01*
X70825000Y-50300000D01*
G75*
G02*
X70925000Y-50400000I0J-100000D01*
G01*
X70925000Y-50600000D01*
G75*
G02*
X70825000Y-50700000I-100000J0D01*
G01*
X69325000Y-50700000D01*
G75*
G02*
X69225000Y-50600000I0J100000D01*
G01*
G37*
G36*
G01*
X69225000Y-51100000D02*
X69225000Y-50900000D01*
G75*
G02*
X69325000Y-50800000I100000J0D01*
G01*
X70825000Y-50800000D01*
G75*
G02*
X70925000Y-50900000I0J-100000D01*
G01*
X70925000Y-51100000D01*
G75*
G02*
X70825000Y-51200000I-100000J0D01*
G01*
X69325000Y-51200000D01*
G75*
G02*
X69225000Y-51100000I0J100000D01*
G01*
G37*
G36*
G01*
X69225000Y-51600000D02*
X69225000Y-51400000D01*
G75*
G02*
X69325000Y-51300000I100000J0D01*
G01*
X70825000Y-51300000D01*
G75*
G02*
X70925000Y-51400000I0J-100000D01*
G01*
X70925000Y-51600000D01*
G75*
G02*
X70825000Y-51700000I-100000J0D01*
G01*
X69325000Y-51700000D01*
G75*
G02*
X69225000Y-51600000I0J100000D01*
G01*
G37*
G36*
G01*
X69225000Y-52100000D02*
X69225000Y-51900000D01*
G75*
G02*
X69325000Y-51800000I100000J0D01*
G01*
X70825000Y-51800000D01*
G75*
G02*
X70925000Y-51900000I0J-100000D01*
G01*
X70925000Y-52100000D01*
G75*
G02*
X70825000Y-52200000I-100000J0D01*
G01*
X69325000Y-52200000D01*
G75*
G02*
X69225000Y-52100000I0J100000D01*
G01*
G37*
G36*
G01*
X69225000Y-52600000D02*
X69225000Y-52400000D01*
G75*
G02*
X69325000Y-52300000I100000J0D01*
G01*
X70825000Y-52300000D01*
G75*
G02*
X70925000Y-52400000I0J-100000D01*
G01*
X70925000Y-52600000D01*
G75*
G02*
X70825000Y-52700000I-100000J0D01*
G01*
X69325000Y-52700000D01*
G75*
G02*
X69225000Y-52600000I0J100000D01*
G01*
G37*
G36*
G01*
X69225000Y-53100000D02*
X69225000Y-52900000D01*
G75*
G02*
X69325000Y-52800000I100000J0D01*
G01*
X70825000Y-52800000D01*
G75*
G02*
X70925000Y-52900000I0J-100000D01*
G01*
X70925000Y-53100000D01*
G75*
G02*
X70825000Y-53200000I-100000J0D01*
G01*
X69325000Y-53200000D01*
G75*
G02*
X69225000Y-53100000I0J100000D01*
G01*
G37*
G36*
G01*
X69225000Y-53600000D02*
X69225000Y-53400000D01*
G75*
G02*
X69325000Y-53300000I100000J0D01*
G01*
X70825000Y-53300000D01*
G75*
G02*
X70925000Y-53400000I0J-100000D01*
G01*
X70925000Y-53600000D01*
G75*
G02*
X70825000Y-53700000I-100000J0D01*
G01*
X69325000Y-53700000D01*
G75*
G02*
X69225000Y-53600000I0J100000D01*
G01*
G37*
G36*
G01*
X69225000Y-54100000D02*
X69225000Y-53900000D01*
G75*
G02*
X69325000Y-53800000I100000J0D01*
G01*
X70825000Y-53800000D01*
G75*
G02*
X70925000Y-53900000I0J-100000D01*
G01*
X70925000Y-54100000D01*
G75*
G02*
X70825000Y-54200000I-100000J0D01*
G01*
X69325000Y-54200000D01*
G75*
G02*
X69225000Y-54100000I0J100000D01*
G01*
G37*
G36*
G01*
X69225000Y-54600000D02*
X69225000Y-54400000D01*
G75*
G02*
X69325000Y-54300000I100000J0D01*
G01*
X70825000Y-54300000D01*
G75*
G02*
X70925000Y-54400000I0J-100000D01*
G01*
X70925000Y-54600000D01*
G75*
G02*
X70825000Y-54700000I-100000J0D01*
G01*
X69325000Y-54700000D01*
G75*
G02*
X69225000Y-54600000I0J100000D01*
G01*
G37*
G36*
G01*
X69225000Y-55100000D02*
X69225000Y-54900000D01*
G75*
G02*
X69325000Y-54800000I100000J0D01*
G01*
X70825000Y-54800000D01*
G75*
G02*
X70925000Y-54900000I0J-100000D01*
G01*
X70925000Y-55100000D01*
G75*
G02*
X70825000Y-55200000I-100000J0D01*
G01*
X69325000Y-55200000D01*
G75*
G02*
X69225000Y-55100000I0J100000D01*
G01*
G37*
G36*
G01*
X69225000Y-55600000D02*
X69225000Y-55400000D01*
G75*
G02*
X69325000Y-55300000I100000J0D01*
G01*
X70825000Y-55300000D01*
G75*
G02*
X70925000Y-55400000I0J-100000D01*
G01*
X70925000Y-55600000D01*
G75*
G02*
X70825000Y-55700000I-100000J0D01*
G01*
X69325000Y-55700000D01*
G75*
G02*
X69225000Y-55600000I0J100000D01*
G01*
G37*
G36*
G01*
X69225000Y-56100000D02*
X69225000Y-55900000D01*
G75*
G02*
X69325000Y-55800000I100000J0D01*
G01*
X70825000Y-55800000D01*
G75*
G02*
X70925000Y-55900000I0J-100000D01*
G01*
X70925000Y-56100000D01*
G75*
G02*
X70825000Y-56200000I-100000J0D01*
G01*
X69325000Y-56200000D01*
G75*
G02*
X69225000Y-56100000I0J100000D01*
G01*
G37*
G36*
G01*
X68200000Y-58425000D02*
X68200000Y-56925000D01*
G75*
G02*
X68300000Y-56825000I100000J0D01*
G01*
X68500000Y-56825000D01*
G75*
G02*
X68600000Y-56925000I0J-100000D01*
G01*
X68600000Y-58425000D01*
G75*
G02*
X68500000Y-58525000I-100000J0D01*
G01*
X68300000Y-58525000D01*
G75*
G02*
X68200000Y-58425000I0J100000D01*
G01*
G37*
G36*
G01*
X67700000Y-58425000D02*
X67700000Y-56925000D01*
G75*
G02*
X67800000Y-56825000I100000J0D01*
G01*
X68000000Y-56825000D01*
G75*
G02*
X68100000Y-56925000I0J-100000D01*
G01*
X68100000Y-58425000D01*
G75*
G02*
X68000000Y-58525000I-100000J0D01*
G01*
X67800000Y-58525000D01*
G75*
G02*
X67700000Y-58425000I0J100000D01*
G01*
G37*
G36*
G01*
X67200000Y-58425000D02*
X67200000Y-56925000D01*
G75*
G02*
X67300000Y-56825000I100000J0D01*
G01*
X67500000Y-56825000D01*
G75*
G02*
X67600000Y-56925000I0J-100000D01*
G01*
X67600000Y-58425000D01*
G75*
G02*
X67500000Y-58525000I-100000J0D01*
G01*
X67300000Y-58525000D01*
G75*
G02*
X67200000Y-58425000I0J100000D01*
G01*
G37*
G36*
G01*
X66700000Y-58425000D02*
X66700000Y-56925000D01*
G75*
G02*
X66800000Y-56825000I100000J0D01*
G01*
X67000000Y-56825000D01*
G75*
G02*
X67100000Y-56925000I0J-100000D01*
G01*
X67100000Y-58425000D01*
G75*
G02*
X67000000Y-58525000I-100000J0D01*
G01*
X66800000Y-58525000D01*
G75*
G02*
X66700000Y-58425000I0J100000D01*
G01*
G37*
G36*
G01*
X66200000Y-58425000D02*
X66200000Y-56925000D01*
G75*
G02*
X66300000Y-56825000I100000J0D01*
G01*
X66500000Y-56825000D01*
G75*
G02*
X66600000Y-56925000I0J-100000D01*
G01*
X66600000Y-58425000D01*
G75*
G02*
X66500000Y-58525000I-100000J0D01*
G01*
X66300000Y-58525000D01*
G75*
G02*
X66200000Y-58425000I0J100000D01*
G01*
G37*
G36*
G01*
X65700000Y-58425000D02*
X65700000Y-56925000D01*
G75*
G02*
X65800000Y-56825000I100000J0D01*
G01*
X66000000Y-56825000D01*
G75*
G02*
X66100000Y-56925000I0J-100000D01*
G01*
X66100000Y-58425000D01*
G75*
G02*
X66000000Y-58525000I-100000J0D01*
G01*
X65800000Y-58525000D01*
G75*
G02*
X65700000Y-58425000I0J100000D01*
G01*
G37*
G36*
G01*
X65200000Y-58425000D02*
X65200000Y-56925000D01*
G75*
G02*
X65300000Y-56825000I100000J0D01*
G01*
X65500000Y-56825000D01*
G75*
G02*
X65600000Y-56925000I0J-100000D01*
G01*
X65600000Y-58425000D01*
G75*
G02*
X65500000Y-58525000I-100000J0D01*
G01*
X65300000Y-58525000D01*
G75*
G02*
X65200000Y-58425000I0J100000D01*
G01*
G37*
G36*
G01*
X64700000Y-58425000D02*
X64700000Y-56925000D01*
G75*
G02*
X64800000Y-56825000I100000J0D01*
G01*
X65000000Y-56825000D01*
G75*
G02*
X65100000Y-56925000I0J-100000D01*
G01*
X65100000Y-58425000D01*
G75*
G02*
X65000000Y-58525000I-100000J0D01*
G01*
X64800000Y-58525000D01*
G75*
G02*
X64700000Y-58425000I0J100000D01*
G01*
G37*
G36*
G01*
X64200000Y-58425000D02*
X64200000Y-56925000D01*
G75*
G02*
X64300000Y-56825000I100000J0D01*
G01*
X64500000Y-56825000D01*
G75*
G02*
X64600000Y-56925000I0J-100000D01*
G01*
X64600000Y-58425000D01*
G75*
G02*
X64500000Y-58525000I-100000J0D01*
G01*
X64300000Y-58525000D01*
G75*
G02*
X64200000Y-58425000I0J100000D01*
G01*
G37*
G36*
G01*
X63700000Y-58425000D02*
X63700000Y-56925000D01*
G75*
G02*
X63800000Y-56825000I100000J0D01*
G01*
X64000000Y-56825000D01*
G75*
G02*
X64100000Y-56925000I0J-100000D01*
G01*
X64100000Y-58425000D01*
G75*
G02*
X64000000Y-58525000I-100000J0D01*
G01*
X63800000Y-58525000D01*
G75*
G02*
X63700000Y-58425000I0J100000D01*
G01*
G37*
G36*
G01*
X63200000Y-58425000D02*
X63200000Y-56925000D01*
G75*
G02*
X63300000Y-56825000I100000J0D01*
G01*
X63500000Y-56825000D01*
G75*
G02*
X63600000Y-56925000I0J-100000D01*
G01*
X63600000Y-58425000D01*
G75*
G02*
X63500000Y-58525000I-100000J0D01*
G01*
X63300000Y-58525000D01*
G75*
G02*
X63200000Y-58425000I0J100000D01*
G01*
G37*
G36*
G01*
X62700000Y-58425000D02*
X62700000Y-56925000D01*
G75*
G02*
X62800000Y-56825000I100000J0D01*
G01*
X63000000Y-56825000D01*
G75*
G02*
X63100000Y-56925000I0J-100000D01*
G01*
X63100000Y-58425000D01*
G75*
G02*
X63000000Y-58525000I-100000J0D01*
G01*
X62800000Y-58525000D01*
G75*
G02*
X62700000Y-58425000I0J100000D01*
G01*
G37*
G36*
G01*
X62200000Y-58425000D02*
X62200000Y-56925000D01*
G75*
G02*
X62300000Y-56825000I100000J0D01*
G01*
X62500000Y-56825000D01*
G75*
G02*
X62600000Y-56925000I0J-100000D01*
G01*
X62600000Y-58425000D01*
G75*
G02*
X62500000Y-58525000I-100000J0D01*
G01*
X62300000Y-58525000D01*
G75*
G02*
X62200000Y-58425000I0J100000D01*
G01*
G37*
G36*
G01*
X61700000Y-58425000D02*
X61700000Y-56925000D01*
G75*
G02*
X61800000Y-56825000I100000J0D01*
G01*
X62000000Y-56825000D01*
G75*
G02*
X62100000Y-56925000I0J-100000D01*
G01*
X62100000Y-58425000D01*
G75*
G02*
X62000000Y-58525000I-100000J0D01*
G01*
X61800000Y-58525000D01*
G75*
G02*
X61700000Y-58425000I0J100000D01*
G01*
G37*
G36*
G01*
X61200000Y-58425000D02*
X61200000Y-56925000D01*
G75*
G02*
X61300000Y-56825000I100000J0D01*
G01*
X61500000Y-56825000D01*
G75*
G02*
X61600000Y-56925000I0J-100000D01*
G01*
X61600000Y-58425000D01*
G75*
G02*
X61500000Y-58525000I-100000J0D01*
G01*
X61300000Y-58525000D01*
G75*
G02*
X61200000Y-58425000I0J100000D01*
G01*
G37*
G36*
G01*
X60700000Y-58425000D02*
X60700000Y-56925000D01*
G75*
G02*
X60800000Y-56825000I100000J0D01*
G01*
X61000000Y-56825000D01*
G75*
G02*
X61100000Y-56925000I0J-100000D01*
G01*
X61100000Y-58425000D01*
G75*
G02*
X61000000Y-58525000I-100000J0D01*
G01*
X60800000Y-58525000D01*
G75*
G02*
X60700000Y-58425000I0J100000D01*
G01*
G37*
G36*
G01*
X60200000Y-58425000D02*
X60200000Y-56925000D01*
G75*
G02*
X60300000Y-56825000I100000J0D01*
G01*
X60500000Y-56825000D01*
G75*
G02*
X60600000Y-56925000I0J-100000D01*
G01*
X60600000Y-58425000D01*
G75*
G02*
X60500000Y-58525000I-100000J0D01*
G01*
X60300000Y-58525000D01*
G75*
G02*
X60200000Y-58425000I0J100000D01*
G01*
G37*
G36*
G01*
X59700000Y-58425000D02*
X59700000Y-56925000D01*
G75*
G02*
X59800000Y-56825000I100000J0D01*
G01*
X60000000Y-56825000D01*
G75*
G02*
X60100000Y-56925000I0J-100000D01*
G01*
X60100000Y-58425000D01*
G75*
G02*
X60000000Y-58525000I-100000J0D01*
G01*
X59800000Y-58525000D01*
G75*
G02*
X59700000Y-58425000I0J100000D01*
G01*
G37*
G36*
G01*
X59200000Y-58425000D02*
X59200000Y-56925000D01*
G75*
G02*
X59300000Y-56825000I100000J0D01*
G01*
X59500000Y-56825000D01*
G75*
G02*
X59600000Y-56925000I0J-100000D01*
G01*
X59600000Y-58425000D01*
G75*
G02*
X59500000Y-58525000I-100000J0D01*
G01*
X59300000Y-58525000D01*
G75*
G02*
X59200000Y-58425000I0J100000D01*
G01*
G37*
G36*
G01*
X58700000Y-58425000D02*
X58700000Y-56925000D01*
G75*
G02*
X58800000Y-56825000I100000J0D01*
G01*
X59000000Y-56825000D01*
G75*
G02*
X59100000Y-56925000I0J-100000D01*
G01*
X59100000Y-58425000D01*
G75*
G02*
X59000000Y-58525000I-100000J0D01*
G01*
X58800000Y-58525000D01*
G75*
G02*
X58700000Y-58425000I0J100000D01*
G01*
G37*
G36*
G01*
X58200000Y-58425000D02*
X58200000Y-56925000D01*
G75*
G02*
X58300000Y-56825000I100000J0D01*
G01*
X58500000Y-56825000D01*
G75*
G02*
X58600000Y-56925000I0J-100000D01*
G01*
X58600000Y-58425000D01*
G75*
G02*
X58500000Y-58525000I-100000J0D01*
G01*
X58300000Y-58525000D01*
G75*
G02*
X58200000Y-58425000I0J100000D01*
G01*
G37*
G36*
G01*
X57700000Y-58425000D02*
X57700000Y-56925000D01*
G75*
G02*
X57800000Y-56825000I100000J0D01*
G01*
X58000000Y-56825000D01*
G75*
G02*
X58100000Y-56925000I0J-100000D01*
G01*
X58100000Y-58425000D01*
G75*
G02*
X58000000Y-58525000I-100000J0D01*
G01*
X57800000Y-58525000D01*
G75*
G02*
X57700000Y-58425000I0J100000D01*
G01*
G37*
G36*
G01*
X57200000Y-58425000D02*
X57200000Y-56925000D01*
G75*
G02*
X57300000Y-56825000I100000J0D01*
G01*
X57500000Y-56825000D01*
G75*
G02*
X57600000Y-56925000I0J-100000D01*
G01*
X57600000Y-58425000D01*
G75*
G02*
X57500000Y-58525000I-100000J0D01*
G01*
X57300000Y-58525000D01*
G75*
G02*
X57200000Y-58425000I0J100000D01*
G01*
G37*
G36*
G01*
X56700000Y-58425000D02*
X56700000Y-56925000D01*
G75*
G02*
X56800000Y-56825000I100000J0D01*
G01*
X57000000Y-56825000D01*
G75*
G02*
X57100000Y-56925000I0J-100000D01*
G01*
X57100000Y-58425000D01*
G75*
G02*
X57000000Y-58525000I-100000J0D01*
G01*
X56800000Y-58525000D01*
G75*
G02*
X56700000Y-58425000I0J100000D01*
G01*
G37*
G36*
G01*
X56200000Y-58425000D02*
X56200000Y-56925000D01*
G75*
G02*
X56300000Y-56825000I100000J0D01*
G01*
X56500000Y-56825000D01*
G75*
G02*
X56600000Y-56925000I0J-100000D01*
G01*
X56600000Y-58425000D01*
G75*
G02*
X56500000Y-58525000I-100000J0D01*
G01*
X56300000Y-58525000D01*
G75*
G02*
X56200000Y-58425000I0J100000D01*
G01*
G37*
G36*
G01*
X53875000Y-56100000D02*
X53875000Y-55900000D01*
G75*
G02*
X53975000Y-55800000I100000J0D01*
G01*
X55475000Y-55800000D01*
G75*
G02*
X55575000Y-55900000I0J-100000D01*
G01*
X55575000Y-56100000D01*
G75*
G02*
X55475000Y-56200000I-100000J0D01*
G01*
X53975000Y-56200000D01*
G75*
G02*
X53875000Y-56100000I0J100000D01*
G01*
G37*
G36*
G01*
X53875000Y-55600000D02*
X53875000Y-55400000D01*
G75*
G02*
X53975000Y-55300000I100000J0D01*
G01*
X55475000Y-55300000D01*
G75*
G02*
X55575000Y-55400000I0J-100000D01*
G01*
X55575000Y-55600000D01*
G75*
G02*
X55475000Y-55700000I-100000J0D01*
G01*
X53975000Y-55700000D01*
G75*
G02*
X53875000Y-55600000I0J100000D01*
G01*
G37*
G36*
G01*
X53875000Y-55100000D02*
X53875000Y-54900000D01*
G75*
G02*
X53975000Y-54800000I100000J0D01*
G01*
X55475000Y-54800000D01*
G75*
G02*
X55575000Y-54900000I0J-100000D01*
G01*
X55575000Y-55100000D01*
G75*
G02*
X55475000Y-55200000I-100000J0D01*
G01*
X53975000Y-55200000D01*
G75*
G02*
X53875000Y-55100000I0J100000D01*
G01*
G37*
G36*
G01*
X53875000Y-54600000D02*
X53875000Y-54400000D01*
G75*
G02*
X53975000Y-54300000I100000J0D01*
G01*
X55475000Y-54300000D01*
G75*
G02*
X55575000Y-54400000I0J-100000D01*
G01*
X55575000Y-54600000D01*
G75*
G02*
X55475000Y-54700000I-100000J0D01*
G01*
X53975000Y-54700000D01*
G75*
G02*
X53875000Y-54600000I0J100000D01*
G01*
G37*
G36*
G01*
X53875000Y-54100000D02*
X53875000Y-53900000D01*
G75*
G02*
X53975000Y-53800000I100000J0D01*
G01*
X55475000Y-53800000D01*
G75*
G02*
X55575000Y-53900000I0J-100000D01*
G01*
X55575000Y-54100000D01*
G75*
G02*
X55475000Y-54200000I-100000J0D01*
G01*
X53975000Y-54200000D01*
G75*
G02*
X53875000Y-54100000I0J100000D01*
G01*
G37*
G36*
G01*
X53875000Y-53600000D02*
X53875000Y-53400000D01*
G75*
G02*
X53975000Y-53300000I100000J0D01*
G01*
X55475000Y-53300000D01*
G75*
G02*
X55575000Y-53400000I0J-100000D01*
G01*
X55575000Y-53600000D01*
G75*
G02*
X55475000Y-53700000I-100000J0D01*
G01*
X53975000Y-53700000D01*
G75*
G02*
X53875000Y-53600000I0J100000D01*
G01*
G37*
G36*
G01*
X53875000Y-53100000D02*
X53875000Y-52900000D01*
G75*
G02*
X53975000Y-52800000I100000J0D01*
G01*
X55475000Y-52800000D01*
G75*
G02*
X55575000Y-52900000I0J-100000D01*
G01*
X55575000Y-53100000D01*
G75*
G02*
X55475000Y-53200000I-100000J0D01*
G01*
X53975000Y-53200000D01*
G75*
G02*
X53875000Y-53100000I0J100000D01*
G01*
G37*
G36*
G01*
X53875000Y-52600000D02*
X53875000Y-52400000D01*
G75*
G02*
X53975000Y-52300000I100000J0D01*
G01*
X55475000Y-52300000D01*
G75*
G02*
X55575000Y-52400000I0J-100000D01*
G01*
X55575000Y-52600000D01*
G75*
G02*
X55475000Y-52700000I-100000J0D01*
G01*
X53975000Y-52700000D01*
G75*
G02*
X53875000Y-52600000I0J100000D01*
G01*
G37*
G36*
G01*
X53875000Y-52100000D02*
X53875000Y-51900000D01*
G75*
G02*
X53975000Y-51800000I100000J0D01*
G01*
X55475000Y-51800000D01*
G75*
G02*
X55575000Y-51900000I0J-100000D01*
G01*
X55575000Y-52100000D01*
G75*
G02*
X55475000Y-52200000I-100000J0D01*
G01*
X53975000Y-52200000D01*
G75*
G02*
X53875000Y-52100000I0J100000D01*
G01*
G37*
G36*
G01*
X53875000Y-51600000D02*
X53875000Y-51400000D01*
G75*
G02*
X53975000Y-51300000I100000J0D01*
G01*
X55475000Y-51300000D01*
G75*
G02*
X55575000Y-51400000I0J-100000D01*
G01*
X55575000Y-51600000D01*
G75*
G02*
X55475000Y-51700000I-100000J0D01*
G01*
X53975000Y-51700000D01*
G75*
G02*
X53875000Y-51600000I0J100000D01*
G01*
G37*
G36*
G01*
X53875000Y-51100000D02*
X53875000Y-50900000D01*
G75*
G02*
X53975000Y-50800000I100000J0D01*
G01*
X55475000Y-50800000D01*
G75*
G02*
X55575000Y-50900000I0J-100000D01*
G01*
X55575000Y-51100000D01*
G75*
G02*
X55475000Y-51200000I-100000J0D01*
G01*
X53975000Y-51200000D01*
G75*
G02*
X53875000Y-51100000I0J100000D01*
G01*
G37*
G36*
G01*
X53875000Y-50600000D02*
X53875000Y-50400000D01*
G75*
G02*
X53975000Y-50300000I100000J0D01*
G01*
X55475000Y-50300000D01*
G75*
G02*
X55575000Y-50400000I0J-100000D01*
G01*
X55575000Y-50600000D01*
G75*
G02*
X55475000Y-50700000I-100000J0D01*
G01*
X53975000Y-50700000D01*
G75*
G02*
X53875000Y-50600000I0J100000D01*
G01*
G37*
G36*
G01*
X53875000Y-50100000D02*
X53875000Y-49900000D01*
G75*
G02*
X53975000Y-49800000I100000J0D01*
G01*
X55475000Y-49800000D01*
G75*
G02*
X55575000Y-49900000I0J-100000D01*
G01*
X55575000Y-50100000D01*
G75*
G02*
X55475000Y-50200000I-100000J0D01*
G01*
X53975000Y-50200000D01*
G75*
G02*
X53875000Y-50100000I0J100000D01*
G01*
G37*
G36*
G01*
X53875000Y-49600000D02*
X53875000Y-49400000D01*
G75*
G02*
X53975000Y-49300000I100000J0D01*
G01*
X55475000Y-49300000D01*
G75*
G02*
X55575000Y-49400000I0J-100000D01*
G01*
X55575000Y-49600000D01*
G75*
G02*
X55475000Y-49700000I-100000J0D01*
G01*
X53975000Y-49700000D01*
G75*
G02*
X53875000Y-49600000I0J100000D01*
G01*
G37*
G36*
G01*
X53875000Y-49100000D02*
X53875000Y-48900000D01*
G75*
G02*
X53975000Y-48800000I100000J0D01*
G01*
X55475000Y-48800000D01*
G75*
G02*
X55575000Y-48900000I0J-100000D01*
G01*
X55575000Y-49100000D01*
G75*
G02*
X55475000Y-49200000I-100000J0D01*
G01*
X53975000Y-49200000D01*
G75*
G02*
X53875000Y-49100000I0J100000D01*
G01*
G37*
G36*
G01*
X53875000Y-48600000D02*
X53875000Y-48400000D01*
G75*
G02*
X53975000Y-48300000I100000J0D01*
G01*
X55475000Y-48300000D01*
G75*
G02*
X55575000Y-48400000I0J-100000D01*
G01*
X55575000Y-48600000D01*
G75*
G02*
X55475000Y-48700000I-100000J0D01*
G01*
X53975000Y-48700000D01*
G75*
G02*
X53875000Y-48600000I0J100000D01*
G01*
G37*
G36*
G01*
X53875000Y-48100000D02*
X53875000Y-47900000D01*
G75*
G02*
X53975000Y-47800000I100000J0D01*
G01*
X55475000Y-47800000D01*
G75*
G02*
X55575000Y-47900000I0J-100000D01*
G01*
X55575000Y-48100000D01*
G75*
G02*
X55475000Y-48200000I-100000J0D01*
G01*
X53975000Y-48200000D01*
G75*
G02*
X53875000Y-48100000I0J100000D01*
G01*
G37*
G36*
G01*
X53875000Y-47600000D02*
X53875000Y-47400000D01*
G75*
G02*
X53975000Y-47300000I100000J0D01*
G01*
X55475000Y-47300000D01*
G75*
G02*
X55575000Y-47400000I0J-100000D01*
G01*
X55575000Y-47600000D01*
G75*
G02*
X55475000Y-47700000I-100000J0D01*
G01*
X53975000Y-47700000D01*
G75*
G02*
X53875000Y-47600000I0J100000D01*
G01*
G37*
G36*
G01*
X53875000Y-47100000D02*
X53875000Y-46900000D01*
G75*
G02*
X53975000Y-46800000I100000J0D01*
G01*
X55475000Y-46800000D01*
G75*
G02*
X55575000Y-46900000I0J-100000D01*
G01*
X55575000Y-47100000D01*
G75*
G02*
X55475000Y-47200000I-100000J0D01*
G01*
X53975000Y-47200000D01*
G75*
G02*
X53875000Y-47100000I0J100000D01*
G01*
G37*
G36*
G01*
X53875000Y-46600000D02*
X53875000Y-46400000D01*
G75*
G02*
X53975000Y-46300000I100000J0D01*
G01*
X55475000Y-46300000D01*
G75*
G02*
X55575000Y-46400000I0J-100000D01*
G01*
X55575000Y-46600000D01*
G75*
G02*
X55475000Y-46700000I-100000J0D01*
G01*
X53975000Y-46700000D01*
G75*
G02*
X53875000Y-46600000I0J100000D01*
G01*
G37*
G36*
G01*
X53875000Y-46100000D02*
X53875000Y-45900000D01*
G75*
G02*
X53975000Y-45800000I100000J0D01*
G01*
X55475000Y-45800000D01*
G75*
G02*
X55575000Y-45900000I0J-100000D01*
G01*
X55575000Y-46100000D01*
G75*
G02*
X55475000Y-46200000I-100000J0D01*
G01*
X53975000Y-46200000D01*
G75*
G02*
X53875000Y-46100000I0J100000D01*
G01*
G37*
G36*
G01*
X53875000Y-45600000D02*
X53875000Y-45400000D01*
G75*
G02*
X53975000Y-45300000I100000J0D01*
G01*
X55475000Y-45300000D01*
G75*
G02*
X55575000Y-45400000I0J-100000D01*
G01*
X55575000Y-45600000D01*
G75*
G02*
X55475000Y-45700000I-100000J0D01*
G01*
X53975000Y-45700000D01*
G75*
G02*
X53875000Y-45600000I0J100000D01*
G01*
G37*
G36*
G01*
X53875000Y-45100000D02*
X53875000Y-44900000D01*
G75*
G02*
X53975000Y-44800000I100000J0D01*
G01*
X55475000Y-44800000D01*
G75*
G02*
X55575000Y-44900000I0J-100000D01*
G01*
X55575000Y-45100000D01*
G75*
G02*
X55475000Y-45200000I-100000J0D01*
G01*
X53975000Y-45200000D01*
G75*
G02*
X53875000Y-45100000I0J100000D01*
G01*
G37*
G36*
G01*
X53875000Y-44600000D02*
X53875000Y-44400000D01*
G75*
G02*
X53975000Y-44300000I100000J0D01*
G01*
X55475000Y-44300000D01*
G75*
G02*
X55575000Y-44400000I0J-100000D01*
G01*
X55575000Y-44600000D01*
G75*
G02*
X55475000Y-44700000I-100000J0D01*
G01*
X53975000Y-44700000D01*
G75*
G02*
X53875000Y-44600000I0J100000D01*
G01*
G37*
G36*
G01*
X53875000Y-44100000D02*
X53875000Y-43900000D01*
G75*
G02*
X53975000Y-43800000I100000J0D01*
G01*
X55475000Y-43800000D01*
G75*
G02*
X55575000Y-43900000I0J-100000D01*
G01*
X55575000Y-44100000D01*
G75*
G02*
X55475000Y-44200000I-100000J0D01*
G01*
X53975000Y-44200000D01*
G75*
G02*
X53875000Y-44100000I0J100000D01*
G01*
G37*
%TD*%
%TO.C,R2_USB1*%
G36*
G01*
X81660000Y-50702500D02*
X81660000Y-51097500D01*
G75*
G02*
X81487500Y-51270000I-172500J0D01*
G01*
X81142500Y-51270000D01*
G75*
G02*
X80970000Y-51097500I0J172500D01*
G01*
X80970000Y-50702500D01*
G75*
G02*
X81142500Y-50530000I172500J0D01*
G01*
X81487500Y-50530000D01*
G75*
G02*
X81660000Y-50702500I0J-172500D01*
G01*
G37*
G36*
G01*
X82630000Y-50702500D02*
X82630000Y-51097500D01*
G75*
G02*
X82457500Y-51270000I-172500J0D01*
G01*
X82112500Y-51270000D01*
G75*
G02*
X81940000Y-51097500I0J172500D01*
G01*
X81940000Y-50702500D01*
G75*
G02*
X82112500Y-50530000I172500J0D01*
G01*
X82457500Y-50530000D01*
G75*
G02*
X82630000Y-50702500I0J-172500D01*
G01*
G37*
%TD*%
%TO.C,R2_TX1*%
G36*
G01*
X47090000Y-51922500D02*
X47090000Y-51527500D01*
G75*
G02*
X47262500Y-51355000I172500J0D01*
G01*
X47607500Y-51355000D01*
G75*
G02*
X47780000Y-51527500I0J-172500D01*
G01*
X47780000Y-51922500D01*
G75*
G02*
X47607500Y-52095000I-172500J0D01*
G01*
X47262500Y-52095000D01*
G75*
G02*
X47090000Y-51922500I0J172500D01*
G01*
G37*
G36*
G01*
X46120000Y-51922500D02*
X46120000Y-51527500D01*
G75*
G02*
X46292500Y-51355000I172500J0D01*
G01*
X46637500Y-51355000D01*
G75*
G02*
X46810000Y-51527500I0J-172500D01*
G01*
X46810000Y-51922500D01*
G75*
G02*
X46637500Y-52095000I-172500J0D01*
G01*
X46292500Y-52095000D01*
G75*
G02*
X46120000Y-51922500I0J172500D01*
G01*
G37*
%TD*%
%TO.C,R2_SCL1*%
G36*
G01*
X82665000Y-59022500D02*
X82665000Y-58627500D01*
G75*
G02*
X82837500Y-58455000I172500J0D01*
G01*
X83182500Y-58455000D01*
G75*
G02*
X83355000Y-58627500I0J-172500D01*
G01*
X83355000Y-59022500D01*
G75*
G02*
X83182500Y-59195000I-172500J0D01*
G01*
X82837500Y-59195000D01*
G75*
G02*
X82665000Y-59022500I0J172500D01*
G01*
G37*
G36*
G01*
X81695000Y-59022500D02*
X81695000Y-58627500D01*
G75*
G02*
X81867500Y-58455000I172500J0D01*
G01*
X82212500Y-58455000D01*
G75*
G02*
X82385000Y-58627500I0J-172500D01*
G01*
X82385000Y-59022500D01*
G75*
G02*
X82212500Y-59195000I-172500J0D01*
G01*
X81867500Y-59195000D01*
G75*
G02*
X81695000Y-59022500I0J172500D01*
G01*
G37*
%TD*%
%TO.C,R1_USB3*%
G36*
G01*
X81940000Y-53097500D02*
X81940000Y-52702500D01*
G75*
G02*
X82112500Y-52530000I172500J0D01*
G01*
X82457500Y-52530000D01*
G75*
G02*
X82630000Y-52702500I0J-172500D01*
G01*
X82630000Y-53097500D01*
G75*
G02*
X82457500Y-53270000I-172500J0D01*
G01*
X82112500Y-53270000D01*
G75*
G02*
X81940000Y-53097500I0J172500D01*
G01*
G37*
G36*
G01*
X80970000Y-53097500D02*
X80970000Y-52702500D01*
G75*
G02*
X81142500Y-52530000I172500J0D01*
G01*
X81487500Y-52530000D01*
G75*
G02*
X81660000Y-52702500I0J-172500D01*
G01*
X81660000Y-53097500D01*
G75*
G02*
X81487500Y-53270000I-172500J0D01*
G01*
X81142500Y-53270000D01*
G75*
G02*
X80970000Y-53097500I0J172500D01*
G01*
G37*
%TD*%
%TO.C,R1_USB2*%
G36*
G01*
X81665000Y-51702500D02*
X81665000Y-52097500D01*
G75*
G02*
X81492500Y-52270000I-172500J0D01*
G01*
X81147500Y-52270000D01*
G75*
G02*
X80975000Y-52097500I0J172500D01*
G01*
X80975000Y-51702500D01*
G75*
G02*
X81147500Y-51530000I172500J0D01*
G01*
X81492500Y-51530000D01*
G75*
G02*
X81665000Y-51702500I0J-172500D01*
G01*
G37*
G36*
G01*
X82635000Y-51702500D02*
X82635000Y-52097500D01*
G75*
G02*
X82462500Y-52270000I-172500J0D01*
G01*
X82117500Y-52270000D01*
G75*
G02*
X81945000Y-52097500I0J172500D01*
G01*
X81945000Y-51702500D01*
G75*
G02*
X82117500Y-51530000I172500J0D01*
G01*
X82462500Y-51530000D01*
G75*
G02*
X82635000Y-51702500I0J-172500D01*
G01*
G37*
%TD*%
%TO.C,R1_USB1*%
G36*
G01*
X81940000Y-50097500D02*
X81940000Y-49702500D01*
G75*
G02*
X82112500Y-49530000I172500J0D01*
G01*
X82457500Y-49530000D01*
G75*
G02*
X82630000Y-49702500I0J-172500D01*
G01*
X82630000Y-50097500D01*
G75*
G02*
X82457500Y-50270000I-172500J0D01*
G01*
X82112500Y-50270000D01*
G75*
G02*
X81940000Y-50097500I0J172500D01*
G01*
G37*
G36*
G01*
X80970000Y-50097500D02*
X80970000Y-49702500D01*
G75*
G02*
X81142500Y-49530000I172500J0D01*
G01*
X81487500Y-49530000D01*
G75*
G02*
X81660000Y-49702500I0J-172500D01*
G01*
X81660000Y-50097500D01*
G75*
G02*
X81487500Y-50270000I-172500J0D01*
G01*
X81142500Y-50270000D01*
G75*
G02*
X80970000Y-50097500I0J172500D01*
G01*
G37*
%TD*%
%TO.C,R1_SDA1*%
G36*
G01*
X82385000Y-59627500D02*
X82385000Y-60022500D01*
G75*
G02*
X82212500Y-60195000I-172500J0D01*
G01*
X81867500Y-60195000D01*
G75*
G02*
X81695000Y-60022500I0J172500D01*
G01*
X81695000Y-59627500D01*
G75*
G02*
X81867500Y-59455000I172500J0D01*
G01*
X82212500Y-59455000D01*
G75*
G02*
X82385000Y-59627500I0J-172500D01*
G01*
G37*
G36*
G01*
X83355000Y-59627500D02*
X83355000Y-60022500D01*
G75*
G02*
X83182500Y-60195000I-172500J0D01*
G01*
X82837500Y-60195000D01*
G75*
G02*
X82665000Y-60022500I0J172500D01*
G01*
X82665000Y-59627500D01*
G75*
G02*
X82837500Y-59455000I172500J0D01*
G01*
X83182500Y-59455000D01*
G75*
G02*
X83355000Y-59627500I0J-172500D01*
G01*
G37*
%TD*%
%TO.C,R1_RX1*%
G36*
G01*
X47090000Y-55972500D02*
X47090000Y-55577500D01*
G75*
G02*
X47262500Y-55405000I172500J0D01*
G01*
X47607500Y-55405000D01*
G75*
G02*
X47780000Y-55577500I0J-172500D01*
G01*
X47780000Y-55972500D01*
G75*
G02*
X47607500Y-56145000I-172500J0D01*
G01*
X47262500Y-56145000D01*
G75*
G02*
X47090000Y-55972500I0J172500D01*
G01*
G37*
G36*
G01*
X46120000Y-55972500D02*
X46120000Y-55577500D01*
G75*
G02*
X46292500Y-55405000I172500J0D01*
G01*
X46637500Y-55405000D01*
G75*
G02*
X46810000Y-55577500I0J-172500D01*
G01*
X46810000Y-55972500D01*
G75*
G02*
X46637500Y-56145000I-172500J0D01*
G01*
X46292500Y-56145000D01*
G75*
G02*
X46120000Y-55972500I0J172500D01*
G01*
G37*
%TD*%
%TO.C,R1_RST1*%
G36*
G01*
X46752500Y-44700000D02*
X47147500Y-44700000D01*
G75*
G02*
X47320000Y-44872500I0J-172500D01*
G01*
X47320000Y-45217500D01*
G75*
G02*
X47147500Y-45390000I-172500J0D01*
G01*
X46752500Y-45390000D01*
G75*
G02*
X46580000Y-45217500I0J172500D01*
G01*
X46580000Y-44872500D01*
G75*
G02*
X46752500Y-44700000I172500J0D01*
G01*
G37*
G36*
G01*
X46752500Y-43730000D02*
X47147500Y-43730000D01*
G75*
G02*
X47320000Y-43902500I0J-172500D01*
G01*
X47320000Y-44247500D01*
G75*
G02*
X47147500Y-44420000I-172500J0D01*
G01*
X46752500Y-44420000D01*
G75*
G02*
X46580000Y-44247500I0J172500D01*
G01*
X46580000Y-43902500D01*
G75*
G02*
X46752500Y-43730000I172500J0D01*
G01*
G37*
%TD*%
%TO.C,R1_PC13*%
G36*
G01*
X51315000Y-44597500D02*
X51315000Y-44202500D01*
G75*
G02*
X51487500Y-44030000I172500J0D01*
G01*
X51832500Y-44030000D01*
G75*
G02*
X52005000Y-44202500I0J-172500D01*
G01*
X52005000Y-44597500D01*
G75*
G02*
X51832500Y-44770000I-172500J0D01*
G01*
X51487500Y-44770000D01*
G75*
G02*
X51315000Y-44597500I0J172500D01*
G01*
G37*
G36*
G01*
X50345000Y-44597500D02*
X50345000Y-44202500D01*
G75*
G02*
X50517500Y-44030000I172500J0D01*
G01*
X50862500Y-44030000D01*
G75*
G02*
X51035000Y-44202500I0J-172500D01*
G01*
X51035000Y-44597500D01*
G75*
G02*
X50862500Y-44770000I-172500J0D01*
G01*
X50517500Y-44770000D01*
G75*
G02*
X50345000Y-44597500I0J172500D01*
G01*
G37*
%TD*%
%TO.C,R1_L1*%
G36*
G01*
X81955000Y-54377500D02*
X81955000Y-53982500D01*
G75*
G02*
X82127500Y-53810000I172500J0D01*
G01*
X82472500Y-53810000D01*
G75*
G02*
X82645000Y-53982500I0J-172500D01*
G01*
X82645000Y-54377500D01*
G75*
G02*
X82472500Y-54550000I-172500J0D01*
G01*
X82127500Y-54550000D01*
G75*
G02*
X81955000Y-54377500I0J172500D01*
G01*
G37*
G36*
G01*
X80985000Y-54377500D02*
X80985000Y-53982500D01*
G75*
G02*
X81157500Y-53810000I172500J0D01*
G01*
X81502500Y-53810000D01*
G75*
G02*
X81675000Y-53982500I0J-172500D01*
G01*
X81675000Y-54377500D01*
G75*
G02*
X81502500Y-54550000I-172500J0D01*
G01*
X81157500Y-54550000D01*
G75*
G02*
X80985000Y-54377500I0J172500D01*
G01*
G37*
%TD*%
%TO.C,R1_BOOT1*%
G36*
G01*
X47147500Y-42510000D02*
X46752500Y-42510000D01*
G75*
G02*
X46580000Y-42337500I0J172500D01*
G01*
X46580000Y-41992500D01*
G75*
G02*
X46752500Y-41820000I172500J0D01*
G01*
X47147500Y-41820000D01*
G75*
G02*
X47320000Y-41992500I0J-172500D01*
G01*
X47320000Y-42337500D01*
G75*
G02*
X47147500Y-42510000I-172500J0D01*
G01*
G37*
G36*
G01*
X47147500Y-43480000D02*
X46752500Y-43480000D01*
G75*
G02*
X46580000Y-43307500I0J172500D01*
G01*
X46580000Y-42962500D01*
G75*
G02*
X46752500Y-42790000I172500J0D01*
G01*
X47147500Y-42790000D01*
G75*
G02*
X47320000Y-42962500I0J-172500D01*
G01*
X47320000Y-43307500D01*
G75*
G02*
X47147500Y-43480000I-172500J0D01*
G01*
G37*
%TD*%
D12*
%TO.C,I2C*%
X90370000Y-59480000D03*
D13*
X87830000Y-59480000D03*
%TD*%
D12*
%TO.C,CAN*%
X90080000Y-40140000D03*
D13*
X87540000Y-40140000D03*
%TD*%
D15*
%TO.C,USBC*%
X85830000Y-46450000D03*
X85830000Y-47250000D03*
X85830000Y-52050000D03*
X85830000Y-52850000D03*
X85830000Y-53150000D03*
X85830000Y-52350000D03*
X85830000Y-51550000D03*
X85830000Y-51050000D03*
X85830000Y-50550000D03*
X85830000Y-50050000D03*
X85830000Y-49550000D03*
X85830000Y-49050000D03*
X85830000Y-48550000D03*
X85830000Y-48050000D03*
X85830000Y-47550000D03*
X85830000Y-46750000D03*
D16*
X86895000Y-52690000D03*
X86895000Y-46910000D03*
D17*
X90575000Y-45480000D03*
X90575000Y-54120000D03*
D18*
X86395000Y-45480000D03*
X86395000Y-54120000D03*
%TD*%
D19*
%TO.C,H3*%
X38897056Y-64402944D03*
X37200000Y-63700000D03*
X35502944Y-64402944D03*
X34800000Y-66100000D03*
X35502944Y-67797056D03*
X37200000Y-68500000D03*
X38897056Y-67797056D03*
X39600000Y-66100000D03*
D20*
X37200000Y-66100000D03*
%TD*%
D19*
%TO.C,H2*%
X91297056Y-32202944D03*
X89600000Y-31500000D03*
X87902944Y-32202944D03*
X87200000Y-33900000D03*
X87902944Y-35597056D03*
X89600000Y-36300000D03*
X91297056Y-35597056D03*
X92000000Y-33900000D03*
D20*
X89600000Y-33900000D03*
%TD*%
D19*
%TO.C,H1*%
X91297056Y-64602944D03*
X89600000Y-63900000D03*
X87902944Y-64602944D03*
X87200000Y-66300000D03*
X87902944Y-67997056D03*
X89600000Y-68700000D03*
X91297056Y-67997056D03*
X92000000Y-66300000D03*
D20*
X89600000Y-66300000D03*
%TD*%
D19*
%TO.C,H0*%
X38897056Y-32202944D03*
X37200000Y-31500000D03*
X35502944Y-32202944D03*
X34800000Y-33900000D03*
X35502944Y-35597056D03*
X37200000Y-36300000D03*
X38897056Y-35597056D03*
X39600000Y-33900000D03*
D20*
X37200000Y-33900000D03*
%TD*%
D21*
%TO.C,ESD*%
X79380000Y-46060000D03*
X80330000Y-48060000D03*
X78430000Y-48060000D03*
%TD*%
%TO.C,LED*%
G36*
G01*
X50950000Y-43406250D02*
X50950000Y-42843750D01*
G75*
G02*
X51193750Y-42600000I243750J0D01*
G01*
X51681250Y-42600000D01*
G75*
G02*
X51925000Y-42843750I0J-243750D01*
G01*
X51925000Y-43406250D01*
G75*
G02*
X51681250Y-43650000I-243750J0D01*
G01*
X51193750Y-43650000D01*
G75*
G02*
X50950000Y-43406250I0J243750D01*
G01*
G37*
G36*
G01*
X49375000Y-43406250D02*
X49375000Y-42843750D01*
G75*
G02*
X49618750Y-42600000I243750J0D01*
G01*
X50106250Y-42600000D01*
G75*
G02*
X50350000Y-42843750I0J-243750D01*
G01*
X50350000Y-43406250D01*
G75*
G02*
X50106250Y-43650000I-243750J0D01*
G01*
X49618750Y-43650000D01*
G75*
G02*
X49375000Y-43406250I0J243750D01*
G01*
G37*
%TD*%
%TO.C,TX*%
G36*
G01*
X46700000Y-53281250D02*
X46700000Y-52718750D01*
G75*
G02*
X46943750Y-52475000I243750J0D01*
G01*
X47431250Y-52475000D01*
G75*
G02*
X47675000Y-52718750I0J-243750D01*
G01*
X47675000Y-53281250D01*
G75*
G02*
X47431250Y-53525000I-243750J0D01*
G01*
X46943750Y-53525000D01*
G75*
G02*
X46700000Y-53281250I0J243750D01*
G01*
G37*
G36*
G01*
X45125000Y-53281250D02*
X45125000Y-52718750D01*
G75*
G02*
X45368750Y-52475000I243750J0D01*
G01*
X45856250Y-52475000D01*
G75*
G02*
X46100000Y-52718750I0J-243750D01*
G01*
X46100000Y-53281250D01*
G75*
G02*
X45856250Y-53525000I-243750J0D01*
G01*
X45368750Y-53525000D01*
G75*
G02*
X45125000Y-53281250I0J243750D01*
G01*
G37*
%TD*%
%TO.C,RX*%
G36*
G01*
X46700000Y-54781250D02*
X46700000Y-54218750D01*
G75*
G02*
X46943750Y-53975000I243750J0D01*
G01*
X47431250Y-53975000D01*
G75*
G02*
X47675000Y-54218750I0J-243750D01*
G01*
X47675000Y-54781250D01*
G75*
G02*
X47431250Y-55025000I-243750J0D01*
G01*
X46943750Y-55025000D01*
G75*
G02*
X46700000Y-54781250I0J243750D01*
G01*
G37*
G36*
G01*
X45125000Y-54781250D02*
X45125000Y-54218750D01*
G75*
G02*
X45368750Y-53975000I243750J0D01*
G01*
X45856250Y-53975000D01*
G75*
G02*
X46100000Y-54218750I0J-243750D01*
G01*
X46100000Y-54781250D01*
G75*
G02*
X45856250Y-55025000I-243750J0D01*
G01*
X45368750Y-55025000D01*
G75*
G02*
X45125000Y-54781250I0J243750D01*
G01*
G37*
%TD*%
%TO.C,D1*%
G36*
G01*
X82200000Y-55771250D02*
X82200000Y-55208750D01*
G75*
G02*
X82443750Y-54965000I243750J0D01*
G01*
X82931250Y-54965000D01*
G75*
G02*
X83175000Y-55208750I0J-243750D01*
G01*
X83175000Y-55771250D01*
G75*
G02*
X82931250Y-56015000I-243750J0D01*
G01*
X82443750Y-56015000D01*
G75*
G02*
X82200000Y-55771250I0J243750D01*
G01*
G37*
G36*
G01*
X80625000Y-55771250D02*
X80625000Y-55208750D01*
G75*
G02*
X80868750Y-54965000I243750J0D01*
G01*
X81356250Y-54965000D01*
G75*
G02*
X81600000Y-55208750I0J-243750D01*
G01*
X81600000Y-55771250D01*
G75*
G02*
X81356250Y-56015000I-243750J0D01*
G01*
X80868750Y-56015000D01*
G75*
G02*
X80625000Y-55771250I0J243750D01*
G01*
G37*
%TD*%
%TO.C,C7_ST2*%
G36*
G01*
X54960000Y-39452500D02*
X54960000Y-39847500D01*
G75*
G02*
X54787500Y-40020000I-172500J0D01*
G01*
X54442500Y-40020000D01*
G75*
G02*
X54270000Y-39847500I0J172500D01*
G01*
X54270000Y-39452500D01*
G75*
G02*
X54442500Y-39280000I172500J0D01*
G01*
X54787500Y-39280000D01*
G75*
G02*
X54960000Y-39452500I0J-172500D01*
G01*
G37*
G36*
G01*
X55930000Y-39452500D02*
X55930000Y-39847500D01*
G75*
G02*
X55757500Y-40020000I-172500J0D01*
G01*
X55412500Y-40020000D01*
G75*
G02*
X55240000Y-39847500I0J172500D01*
G01*
X55240000Y-39452500D01*
G75*
G02*
X55412500Y-39280000I172500J0D01*
G01*
X55757500Y-39280000D01*
G75*
G02*
X55930000Y-39452500I0J-172500D01*
G01*
G37*
%TD*%
%TO.C,C7_ST1*%
G36*
G01*
X74835000Y-42852500D02*
X74835000Y-43247500D01*
G75*
G02*
X74662500Y-43420000I-172500J0D01*
G01*
X74317500Y-43420000D01*
G75*
G02*
X74145000Y-43247500I0J172500D01*
G01*
X74145000Y-42852500D01*
G75*
G02*
X74317500Y-42680000I172500J0D01*
G01*
X74662500Y-42680000D01*
G75*
G02*
X74835000Y-42852500I0J-172500D01*
G01*
G37*
G36*
G01*
X75805000Y-42852500D02*
X75805000Y-43247500D01*
G75*
G02*
X75632500Y-43420000I-172500J0D01*
G01*
X75287500Y-43420000D01*
G75*
G02*
X75115000Y-43247500I0J172500D01*
G01*
X75115000Y-42852500D01*
G75*
G02*
X75287500Y-42680000I172500J0D01*
G01*
X75632500Y-42680000D01*
G75*
G02*
X75805000Y-42852500I0J-172500D01*
G01*
G37*
%TD*%
%TO.C,C6_ST1*%
G36*
G01*
X51315000Y-45597500D02*
X51315000Y-45202500D01*
G75*
G02*
X51487500Y-45030000I172500J0D01*
G01*
X51832500Y-45030000D01*
G75*
G02*
X52005000Y-45202500I0J-172500D01*
G01*
X52005000Y-45597500D01*
G75*
G02*
X51832500Y-45770000I-172500J0D01*
G01*
X51487500Y-45770000D01*
G75*
G02*
X51315000Y-45597500I0J172500D01*
G01*
G37*
G36*
G01*
X50345000Y-45597500D02*
X50345000Y-45202500D01*
G75*
G02*
X50517500Y-45030000I172500J0D01*
G01*
X50862500Y-45030000D01*
G75*
G02*
X51035000Y-45202500I0J-172500D01*
G01*
X51035000Y-45597500D01*
G75*
G02*
X50862500Y-45770000I-172500J0D01*
G01*
X50517500Y-45770000D01*
G75*
G02*
X50345000Y-45597500I0J172500D01*
G01*
G37*
%TD*%
%TO.C,C5_ST1*%
G36*
G01*
X51315000Y-46597500D02*
X51315000Y-46202500D01*
G75*
G02*
X51487500Y-46030000I172500J0D01*
G01*
X51832500Y-46030000D01*
G75*
G02*
X52005000Y-46202500I0J-172500D01*
G01*
X52005000Y-46597500D01*
G75*
G02*
X51832500Y-46770000I-172500J0D01*
G01*
X51487500Y-46770000D01*
G75*
G02*
X51315000Y-46597500I0J172500D01*
G01*
G37*
G36*
G01*
X50345000Y-46597500D02*
X50345000Y-46202500D01*
G75*
G02*
X50517500Y-46030000I172500J0D01*
G01*
X50862500Y-46030000D01*
G75*
G02*
X51035000Y-46202500I0J-172500D01*
G01*
X51035000Y-46597500D01*
G75*
G02*
X50862500Y-46770000I-172500J0D01*
G01*
X50517500Y-46770000D01*
G75*
G02*
X50345000Y-46597500I0J172500D01*
G01*
G37*
%TD*%
%TO.C,C2_ST1*%
G36*
G01*
X54440000Y-60172500D02*
X54440000Y-59777500D01*
G75*
G02*
X54612500Y-59605000I172500J0D01*
G01*
X54957500Y-59605000D01*
G75*
G02*
X55130000Y-59777500I0J-172500D01*
G01*
X55130000Y-60172500D01*
G75*
G02*
X54957500Y-60345000I-172500J0D01*
G01*
X54612500Y-60345000D01*
G75*
G02*
X54440000Y-60172500I0J172500D01*
G01*
G37*
G36*
G01*
X53470000Y-60172500D02*
X53470000Y-59777500D01*
G75*
G02*
X53642500Y-59605000I172500J0D01*
G01*
X53987500Y-59605000D01*
G75*
G02*
X54160000Y-59777500I0J-172500D01*
G01*
X54160000Y-60172500D01*
G75*
G02*
X53987500Y-60345000I-172500J0D01*
G01*
X53642500Y-60345000D01*
G75*
G02*
X53470000Y-60172500I0J172500D01*
G01*
G37*
%TD*%
%TO.C,C1_VCAP2*%
G36*
G01*
X75935000Y-44902500D02*
X75935000Y-45297500D01*
G75*
G02*
X75762500Y-45470000I-172500J0D01*
G01*
X75417500Y-45470000D01*
G75*
G02*
X75245000Y-45297500I0J172500D01*
G01*
X75245000Y-44902500D01*
G75*
G02*
X75417500Y-44730000I172500J0D01*
G01*
X75762500Y-44730000D01*
G75*
G02*
X75935000Y-44902500I0J-172500D01*
G01*
G37*
G36*
G01*
X76905000Y-44902500D02*
X76905000Y-45297500D01*
G75*
G02*
X76732500Y-45470000I-172500J0D01*
G01*
X76387500Y-45470000D01*
G75*
G02*
X76215000Y-45297500I0J172500D01*
G01*
X76215000Y-44902500D01*
G75*
G02*
X76387500Y-44730000I172500J0D01*
G01*
X76732500Y-44730000D01*
G75*
G02*
X76905000Y-44902500I0J-172500D01*
G01*
G37*
%TD*%
%TO.C,C1_VCAP1*%
G36*
G01*
X70240000Y-60347500D02*
X70240000Y-59952500D01*
G75*
G02*
X70412500Y-59780000I172500J0D01*
G01*
X70757500Y-59780000D01*
G75*
G02*
X70930000Y-59952500I0J-172500D01*
G01*
X70930000Y-60347500D01*
G75*
G02*
X70757500Y-60520000I-172500J0D01*
G01*
X70412500Y-60520000D01*
G75*
G02*
X70240000Y-60347500I0J172500D01*
G01*
G37*
G36*
G01*
X69270000Y-60347500D02*
X69270000Y-59952500D01*
G75*
G02*
X69442500Y-59780000I172500J0D01*
G01*
X69787500Y-59780000D01*
G75*
G02*
X69960000Y-59952500I0J-172500D01*
G01*
X69960000Y-60347500D01*
G75*
G02*
X69787500Y-60520000I-172500J0D01*
G01*
X69442500Y-60520000D01*
G75*
G02*
X69270000Y-60347500I0J172500D01*
G01*
G37*
%TD*%
%TO.C,C1_ST1*%
G36*
G01*
X72902500Y-57840000D02*
X73297500Y-57840000D01*
G75*
G02*
X73470000Y-58012500I0J-172500D01*
G01*
X73470000Y-58357500D01*
G75*
G02*
X73297500Y-58530000I-172500J0D01*
G01*
X72902500Y-58530000D01*
G75*
G02*
X72730000Y-58357500I0J172500D01*
G01*
X72730000Y-58012500D01*
G75*
G02*
X72902500Y-57840000I172500J0D01*
G01*
G37*
G36*
G01*
X72902500Y-56870000D02*
X73297500Y-56870000D01*
G75*
G02*
X73470000Y-57042500I0J-172500D01*
G01*
X73470000Y-57387500D01*
G75*
G02*
X73297500Y-57560000I-172500J0D01*
G01*
X72902500Y-57560000D01*
G75*
G02*
X72730000Y-57387500I0J172500D01*
G01*
X72730000Y-57042500D01*
G75*
G02*
X72902500Y-56870000I172500J0D01*
G01*
G37*
%TD*%
%TO.C,RESET*%
G36*
G01*
X42650000Y-44925000D02*
X42650000Y-46575000D01*
G75*
G02*
X42425000Y-46800000I-225000J0D01*
G01*
X41975000Y-46800000D01*
G75*
G02*
X41750000Y-46575000I0J225000D01*
G01*
X41750000Y-44925000D01*
G75*
G02*
X41975000Y-44700000I225000J0D01*
G01*
X42425000Y-44700000D01*
G75*
G02*
X42650000Y-44925000I0J-225000D01*
G01*
G37*
G36*
G01*
X38450000Y-44925000D02*
X38450000Y-46575000D01*
G75*
G02*
X38225000Y-46800000I-225000J0D01*
G01*
X37775000Y-46800000D01*
G75*
G02*
X37550000Y-46575000I0J225000D01*
G01*
X37550000Y-44925000D01*
G75*
G02*
X37775000Y-44700000I225000J0D01*
G01*
X38225000Y-44700000D01*
G75*
G02*
X38450000Y-44925000I0J-225000D01*
G01*
G37*
%TD*%
%TO.C,BOOT*%
G36*
G01*
X42650000Y-41450000D02*
X42650000Y-43100000D01*
G75*
G02*
X42425000Y-43325000I-225000J0D01*
G01*
X41975000Y-43325000D01*
G75*
G02*
X41750000Y-43100000I0J225000D01*
G01*
X41750000Y-41450000D01*
G75*
G02*
X41975000Y-41225000I225000J0D01*
G01*
X42425000Y-41225000D01*
G75*
G02*
X42650000Y-41450000I0J-225000D01*
G01*
G37*
G36*
G01*
X38450000Y-41450000D02*
X38450000Y-43100000D01*
G75*
G02*
X38225000Y-43325000I-225000J0D01*
G01*
X37775000Y-43325000D01*
G75*
G02*
X37550000Y-43100000I0J225000D01*
G01*
X37550000Y-41450000D01*
G75*
G02*
X37775000Y-41225000I225000J0D01*
G01*
X38225000Y-41225000D01*
G75*
G02*
X38450000Y-41450000I0J-225000D01*
G01*
G37*
%TD*%
M02*
