%TF.GenerationSoftware,KiCad,Pcbnew,(5.1.6)-1*%
%TF.CreationDate,2020-08-08T14:22:08+05:30*%
%TF.ProjectId,F745_DISC,46373435-5f44-4495-9343-2e6b69636164,rev?*%
%TF.SameCoordinates,Original*%
%TF.FileFunction,Legend,Bot*%
%TF.FilePolarity,Positive*%
%FSLAX46Y46*%
G04 Gerber Fmt 4.6, Leading zero omitted, Abs format (unit mm)*
G04 Created by KiCad (PCBNEW (5.1.6)-1) date 2020-08-08 14:22:08*
%MOMM*%
%LPD*%
G01*
G04 APERTURE LIST*
%ADD10C,0.010000*%
%ADD11C,0.120000*%
%ADD12C,0.130000*%
%ADD13C,0.100000*%
G04 APERTURE END LIST*
D10*
%TO.C, *%
G36*
X54744739Y-58567141D02*
G01*
X54581969Y-58602542D01*
X54461482Y-58660752D01*
X54384567Y-58741100D01*
X54352514Y-58842915D01*
X54351600Y-58865634D01*
X54351600Y-58954817D01*
X54415288Y-58886097D01*
X54530728Y-58794753D01*
X54678911Y-58736240D01*
X54863360Y-58709349D01*
X54935800Y-58707190D01*
X55050623Y-58708874D01*
X55130365Y-58717220D01*
X55190601Y-58735081D01*
X55244388Y-58763737D01*
X55304260Y-58808195D01*
X55349036Y-58861929D01*
X55380753Y-58932531D01*
X55401449Y-59027590D01*
X55413164Y-59154696D01*
X55417936Y-59321438D01*
X55418361Y-59411464D01*
X55416316Y-59588974D01*
X55408768Y-59724136D01*
X55393535Y-59825294D01*
X55368436Y-59900790D01*
X55331288Y-59958968D01*
X55279911Y-60008171D01*
X55257936Y-60024983D01*
X55164999Y-60067119D01*
X55039871Y-60088204D01*
X54896005Y-60089485D01*
X54746856Y-60072209D01*
X54605877Y-60037623D01*
X54486522Y-59986973D01*
X54429490Y-59948223D01*
X54351600Y-59882684D01*
X54351600Y-59969414D01*
X54373806Y-60064279D01*
X54409055Y-60110120D01*
X54491072Y-60160563D01*
X54610403Y-60199795D01*
X54754530Y-60226480D01*
X54910937Y-60239283D01*
X55067107Y-60236868D01*
X55210522Y-60217902D01*
X55272240Y-60202194D01*
X55394262Y-60143949D01*
X55499133Y-60055351D01*
X55573388Y-59949266D01*
X55594732Y-59894029D01*
X55603773Y-59836137D01*
X55611442Y-59738569D01*
X55617172Y-59612442D01*
X55620400Y-59468874D01*
X55620901Y-59379200D01*
X55618707Y-59190937D01*
X55611179Y-59045169D01*
X55596266Y-58933694D01*
X55571916Y-58848312D01*
X55536080Y-58780822D01*
X55486705Y-58723026D01*
X55448060Y-58688181D01*
X55354677Y-58624874D01*
X55246011Y-58583654D01*
X55110568Y-58561462D01*
X54948500Y-58555218D01*
X54744739Y-58567141D01*
G37*
X54744739Y-58567141D02*
X54581969Y-58602542D01*
X54461482Y-58660752D01*
X54384567Y-58741100D01*
X54352514Y-58842915D01*
X54351600Y-58865634D01*
X54351600Y-58954817D01*
X54415288Y-58886097D01*
X54530728Y-58794753D01*
X54678911Y-58736240D01*
X54863360Y-58709349D01*
X54935800Y-58707190D01*
X55050623Y-58708874D01*
X55130365Y-58717220D01*
X55190601Y-58735081D01*
X55244388Y-58763737D01*
X55304260Y-58808195D01*
X55349036Y-58861929D01*
X55380753Y-58932531D01*
X55401449Y-59027590D01*
X55413164Y-59154696D01*
X55417936Y-59321438D01*
X55418361Y-59411464D01*
X55416316Y-59588974D01*
X55408768Y-59724136D01*
X55393535Y-59825294D01*
X55368436Y-59900790D01*
X55331288Y-59958968D01*
X55279911Y-60008171D01*
X55257936Y-60024983D01*
X55164999Y-60067119D01*
X55039871Y-60088204D01*
X54896005Y-60089485D01*
X54746856Y-60072209D01*
X54605877Y-60037623D01*
X54486522Y-59986973D01*
X54429490Y-59948223D01*
X54351600Y-59882684D01*
X54351600Y-59969414D01*
X54373806Y-60064279D01*
X54409055Y-60110120D01*
X54491072Y-60160563D01*
X54610403Y-60199795D01*
X54754530Y-60226480D01*
X54910937Y-60239283D01*
X55067107Y-60236868D01*
X55210522Y-60217902D01*
X55272240Y-60202194D01*
X55394262Y-60143949D01*
X55499133Y-60055351D01*
X55573388Y-59949266D01*
X55594732Y-59894029D01*
X55603773Y-59836137D01*
X55611442Y-59738569D01*
X55617172Y-59612442D01*
X55620400Y-59468874D01*
X55620901Y-59379200D01*
X55618707Y-59190937D01*
X55611179Y-59045169D01*
X55596266Y-58933694D01*
X55571916Y-58848312D01*
X55536080Y-58780822D01*
X55486705Y-58723026D01*
X55448060Y-58688181D01*
X55354677Y-58624874D01*
X55246011Y-58583654D01*
X55110568Y-58561462D01*
X54948500Y-58555218D01*
X54744739Y-58567141D01*
G36*
X53487649Y-59044407D02*
G01*
X53375186Y-59076633D01*
X53279809Y-59130657D01*
X53215538Y-59198806D01*
X53195012Y-59232111D01*
X53180022Y-59267017D01*
X53169703Y-59311765D01*
X53163187Y-59374600D01*
X53159610Y-59463764D01*
X53158103Y-59587500D01*
X53157800Y-59748060D01*
X53157800Y-60211009D01*
X53265750Y-60210122D01*
X53343226Y-60211884D01*
X53450538Y-60217352D01*
X53566948Y-60225428D01*
X53589600Y-60227268D01*
X53702619Y-60234810D01*
X53781773Y-60233693D01*
X53843517Y-60222234D01*
X53904304Y-60198750D01*
X53914407Y-60194064D01*
X54013337Y-60122055D01*
X54075454Y-60022972D01*
X54096805Y-59908479D01*
X54093250Y-59890487D01*
X53893368Y-59890487D01*
X53874553Y-59970872D01*
X53829280Y-60030829D01*
X53789700Y-60065549D01*
X53748544Y-60083921D01*
X53689772Y-60089669D01*
X53597347Y-60086520D01*
X53591096Y-60086170D01*
X53496841Y-60076339D01*
X53419230Y-60060172D01*
X53376816Y-60042185D01*
X53354460Y-60010273D01*
X53341499Y-59953435D01*
X53336077Y-59861119D01*
X53335600Y-59807889D01*
X53337727Y-59714323D01*
X53343371Y-59644155D01*
X53351432Y-59609499D01*
X53353801Y-59607800D01*
X53387066Y-59615798D01*
X53448686Y-59635853D01*
X53474451Y-59645006D01*
X53569864Y-59676616D01*
X53671383Y-59706010D01*
X53686190Y-59709846D01*
X53796434Y-59753798D01*
X53866411Y-59816070D01*
X53893368Y-59890487D01*
X54093250Y-59890487D01*
X54073442Y-59790240D01*
X54060619Y-59762363D01*
X54008644Y-59699386D01*
X53919120Y-59643424D01*
X53787218Y-59591988D01*
X53658653Y-59555161D01*
X53518048Y-59512377D01*
X53424340Y-59467490D01*
X53373627Y-59418099D01*
X53361389Y-59372264D01*
X53382268Y-59290562D01*
X53444371Y-59235587D01*
X53548869Y-59206621D01*
X53639546Y-59201400D01*
X53792113Y-59219223D01*
X53918651Y-59270369D01*
X53989112Y-59326857D01*
X54040218Y-59381713D01*
X54055160Y-59324575D01*
X54055805Y-59239078D01*
X54015359Y-59166663D01*
X53942133Y-59108576D01*
X53844439Y-59066062D01*
X53730586Y-59040366D01*
X53608886Y-59032733D01*
X53487649Y-59044407D01*
G37*
X53487649Y-59044407D02*
X53375186Y-59076633D01*
X53279809Y-59130657D01*
X53215538Y-59198806D01*
X53195012Y-59232111D01*
X53180022Y-59267017D01*
X53169703Y-59311765D01*
X53163187Y-59374600D01*
X53159610Y-59463764D01*
X53158103Y-59587500D01*
X53157800Y-59748060D01*
X53157800Y-60211009D01*
X53265750Y-60210122D01*
X53343226Y-60211884D01*
X53450538Y-60217352D01*
X53566948Y-60225428D01*
X53589600Y-60227268D01*
X53702619Y-60234810D01*
X53781773Y-60233693D01*
X53843517Y-60222234D01*
X53904304Y-60198750D01*
X53914407Y-60194064D01*
X54013337Y-60122055D01*
X54075454Y-60022972D01*
X54096805Y-59908479D01*
X54093250Y-59890487D01*
X53893368Y-59890487D01*
X53874553Y-59970872D01*
X53829280Y-60030829D01*
X53789700Y-60065549D01*
X53748544Y-60083921D01*
X53689772Y-60089669D01*
X53597347Y-60086520D01*
X53591096Y-60086170D01*
X53496841Y-60076339D01*
X53419230Y-60060172D01*
X53376816Y-60042185D01*
X53354460Y-60010273D01*
X53341499Y-59953435D01*
X53336077Y-59861119D01*
X53335600Y-59807889D01*
X53337727Y-59714323D01*
X53343371Y-59644155D01*
X53351432Y-59609499D01*
X53353801Y-59607800D01*
X53387066Y-59615798D01*
X53448686Y-59635853D01*
X53474451Y-59645006D01*
X53569864Y-59676616D01*
X53671383Y-59706010D01*
X53686190Y-59709846D01*
X53796434Y-59753798D01*
X53866411Y-59816070D01*
X53893368Y-59890487D01*
X54093250Y-59890487D01*
X54073442Y-59790240D01*
X54060619Y-59762363D01*
X54008644Y-59699386D01*
X53919120Y-59643424D01*
X53787218Y-59591988D01*
X53658653Y-59555161D01*
X53518048Y-59512377D01*
X53424340Y-59467490D01*
X53373627Y-59418099D01*
X53361389Y-59372264D01*
X53382268Y-59290562D01*
X53444371Y-59235587D01*
X53548869Y-59206621D01*
X53639546Y-59201400D01*
X53792113Y-59219223D01*
X53918651Y-59270369D01*
X53989112Y-59326857D01*
X54040218Y-59381713D01*
X54055160Y-59324575D01*
X54055805Y-59239078D01*
X54015359Y-59166663D01*
X53942133Y-59108576D01*
X53844439Y-59066062D01*
X53730586Y-59040366D01*
X53608886Y-59032733D01*
X53487649Y-59044407D01*
G36*
X52144836Y-59049802D02*
G01*
X52035973Y-59076234D01*
X51947995Y-59129795D01*
X51900441Y-59176001D01*
X51882958Y-59198894D01*
X51869790Y-59228543D01*
X51860171Y-59272269D01*
X51853338Y-59337393D01*
X51848528Y-59431239D01*
X51844975Y-59561129D01*
X51841917Y-59734383D01*
X51841870Y-59737401D01*
X51839454Y-59909685D01*
X51838632Y-60037713D01*
X51839905Y-60128018D01*
X51843776Y-60187133D01*
X51850745Y-60221590D01*
X51861314Y-60237921D01*
X51875984Y-60242660D01*
X51880668Y-60242800D01*
X51936550Y-60228648D01*
X51983749Y-60203259D01*
X52004968Y-60186113D01*
X52020075Y-60163754D01*
X52030107Y-60128065D01*
X52036099Y-60070930D01*
X52039086Y-59984234D01*
X52040104Y-59859861D01*
X52040200Y-59760837D01*
X52041161Y-59620273D01*
X52043810Y-59495693D01*
X52047803Y-59396837D01*
X52052793Y-59333443D01*
X52055979Y-59316837D01*
X52102278Y-59262526D01*
X52186870Y-59224150D01*
X52299117Y-59203996D01*
X52428380Y-59204347D01*
X52519625Y-59217275D01*
X52599000Y-59233150D01*
X52599000Y-59737975D01*
X52599121Y-59916206D01*
X52600642Y-60049335D01*
X52605302Y-60143061D01*
X52614839Y-60203081D01*
X52630992Y-60235091D01*
X52655500Y-60244790D01*
X52690100Y-60237875D01*
X52736532Y-60220043D01*
X52745050Y-60216608D01*
X52763562Y-60208005D01*
X52777571Y-60194746D01*
X52787703Y-60170363D01*
X52794588Y-60128388D01*
X52798853Y-60062355D01*
X52801125Y-59965797D01*
X52802031Y-59832245D01*
X52802200Y-59655233D01*
X52802200Y-59061700D01*
X52637100Y-59057290D01*
X52520017Y-59053864D01*
X52385560Y-59049498D01*
X52287850Y-59046049D01*
X52144836Y-59049802D01*
G37*
X52144836Y-59049802D02*
X52035973Y-59076234D01*
X51947995Y-59129795D01*
X51900441Y-59176001D01*
X51882958Y-59198894D01*
X51869790Y-59228543D01*
X51860171Y-59272269D01*
X51853338Y-59337393D01*
X51848528Y-59431239D01*
X51844975Y-59561129D01*
X51841917Y-59734383D01*
X51841870Y-59737401D01*
X51839454Y-59909685D01*
X51838632Y-60037713D01*
X51839905Y-60128018D01*
X51843776Y-60187133D01*
X51850745Y-60221590D01*
X51861314Y-60237921D01*
X51875984Y-60242660D01*
X51880668Y-60242800D01*
X51936550Y-60228648D01*
X51983749Y-60203259D01*
X52004968Y-60186113D01*
X52020075Y-60163754D01*
X52030107Y-60128065D01*
X52036099Y-60070930D01*
X52039086Y-59984234D01*
X52040104Y-59859861D01*
X52040200Y-59760837D01*
X52041161Y-59620273D01*
X52043810Y-59495693D01*
X52047803Y-59396837D01*
X52052793Y-59333443D01*
X52055979Y-59316837D01*
X52102278Y-59262526D01*
X52186870Y-59224150D01*
X52299117Y-59203996D01*
X52428380Y-59204347D01*
X52519625Y-59217275D01*
X52599000Y-59233150D01*
X52599000Y-59737975D01*
X52599121Y-59916206D01*
X52600642Y-60049335D01*
X52605302Y-60143061D01*
X52614839Y-60203081D01*
X52630992Y-60235091D01*
X52655500Y-60244790D01*
X52690100Y-60237875D01*
X52736532Y-60220043D01*
X52745050Y-60216608D01*
X52763562Y-60208005D01*
X52777571Y-60194746D01*
X52787703Y-60170363D01*
X52794588Y-60128388D01*
X52798853Y-60062355D01*
X52801125Y-59965797D01*
X52802031Y-59832245D01*
X52802200Y-59655233D01*
X52802200Y-59061700D01*
X52637100Y-59057290D01*
X52520017Y-59053864D01*
X52385560Y-59049498D01*
X52287850Y-59046049D01*
X52144836Y-59049802D01*
G36*
X50613306Y-58507438D02*
G01*
X50567000Y-58541000D01*
X50552947Y-58557076D01*
X50541754Y-58577799D01*
X50533095Y-58608686D01*
X50526647Y-58655251D01*
X50522086Y-58723010D01*
X50519086Y-58817480D01*
X50517324Y-58944175D01*
X50516474Y-59108611D01*
X50516213Y-59316305D01*
X50516200Y-59404600D01*
X50516200Y-60217400D01*
X50611450Y-60217531D01*
X50679757Y-60219151D01*
X50781150Y-60223368D01*
X50898028Y-60229408D01*
X50948000Y-60232332D01*
X51064898Y-60238165D01*
X51146061Y-60237434D01*
X51206340Y-60228278D01*
X51260582Y-60208836D01*
X51303600Y-60187751D01*
X51379110Y-60142544D01*
X51433716Y-60091370D01*
X51470373Y-60025687D01*
X51492039Y-59936953D01*
X51501666Y-59816625D01*
X51502213Y-59656160D01*
X51501709Y-59630051D01*
X51303600Y-59630051D01*
X51300433Y-59785906D01*
X51289573Y-59899212D01*
X51268984Y-59977901D01*
X51236631Y-60029909D01*
X51192753Y-60062027D01*
X51142538Y-60074389D01*
X51062122Y-60081250D01*
X50967325Y-60082818D01*
X50873968Y-60079303D01*
X50797872Y-60070916D01*
X50754857Y-60057867D01*
X50752860Y-60056191D01*
X50742021Y-60021078D01*
X50733343Y-59947543D01*
X50727110Y-59847932D01*
X50723602Y-59734589D01*
X50723103Y-59619858D01*
X50725895Y-59516084D01*
X50732261Y-59435610D01*
X50737931Y-59403574D01*
X50785545Y-59311065D01*
X50865759Y-59244414D01*
X50965619Y-59206992D01*
X51072171Y-59202171D01*
X51172463Y-59233323D01*
X51229354Y-59275646D01*
X51261796Y-59309979D01*
X51283071Y-59342853D01*
X51295535Y-59385508D01*
X51301542Y-59449183D01*
X51303447Y-59545115D01*
X51303600Y-59630051D01*
X51501709Y-59630051D01*
X51501436Y-59615910D01*
X51495814Y-59457132D01*
X51484560Y-59339658D01*
X51464090Y-59254030D01*
X51430819Y-59190792D01*
X51381163Y-59140488D01*
X51311537Y-59093661D01*
X51301151Y-59087523D01*
X51198272Y-59050367D01*
X51072481Y-59037645D01*
X50945558Y-59049645D01*
X50848848Y-59081572D01*
X50787381Y-59109963D01*
X50745424Y-59124643D01*
X50740898Y-59125200D01*
X50732754Y-59101405D01*
X50726026Y-59036433D01*
X50721365Y-58939900D01*
X50719420Y-58821423D01*
X50719400Y-58807700D01*
X50718938Y-58675936D01*
X50716670Y-58586719D01*
X50711275Y-58531794D01*
X50701435Y-58502910D01*
X50685827Y-58491814D01*
X50668600Y-58490200D01*
X50613306Y-58507438D01*
G37*
X50613306Y-58507438D02*
X50567000Y-58541000D01*
X50552947Y-58557076D01*
X50541754Y-58577799D01*
X50533095Y-58608686D01*
X50526647Y-58655251D01*
X50522086Y-58723010D01*
X50519086Y-58817480D01*
X50517324Y-58944175D01*
X50516474Y-59108611D01*
X50516213Y-59316305D01*
X50516200Y-59404600D01*
X50516200Y-60217400D01*
X50611450Y-60217531D01*
X50679757Y-60219151D01*
X50781150Y-60223368D01*
X50898028Y-60229408D01*
X50948000Y-60232332D01*
X51064898Y-60238165D01*
X51146061Y-60237434D01*
X51206340Y-60228278D01*
X51260582Y-60208836D01*
X51303600Y-60187751D01*
X51379110Y-60142544D01*
X51433716Y-60091370D01*
X51470373Y-60025687D01*
X51492039Y-59936953D01*
X51501666Y-59816625D01*
X51502213Y-59656160D01*
X51501709Y-59630051D01*
X51303600Y-59630051D01*
X51300433Y-59785906D01*
X51289573Y-59899212D01*
X51268984Y-59977901D01*
X51236631Y-60029909D01*
X51192753Y-60062027D01*
X51142538Y-60074389D01*
X51062122Y-60081250D01*
X50967325Y-60082818D01*
X50873968Y-60079303D01*
X50797872Y-60070916D01*
X50754857Y-60057867D01*
X50752860Y-60056191D01*
X50742021Y-60021078D01*
X50733343Y-59947543D01*
X50727110Y-59847932D01*
X50723602Y-59734589D01*
X50723103Y-59619858D01*
X50725895Y-59516084D01*
X50732261Y-59435610D01*
X50737931Y-59403574D01*
X50785545Y-59311065D01*
X50865759Y-59244414D01*
X50965619Y-59206992D01*
X51072171Y-59202171D01*
X51172463Y-59233323D01*
X51229354Y-59275646D01*
X51261796Y-59309979D01*
X51283071Y-59342853D01*
X51295535Y-59385508D01*
X51301542Y-59449183D01*
X51303447Y-59545115D01*
X51303600Y-59630051D01*
X51501709Y-59630051D01*
X51501436Y-59615910D01*
X51495814Y-59457132D01*
X51484560Y-59339658D01*
X51464090Y-59254030D01*
X51430819Y-59190792D01*
X51381163Y-59140488D01*
X51311537Y-59093661D01*
X51301151Y-59087523D01*
X51198272Y-59050367D01*
X51072481Y-59037645D01*
X50945558Y-59049645D01*
X50848848Y-59081572D01*
X50787381Y-59109963D01*
X50745424Y-59124643D01*
X50740898Y-59125200D01*
X50732754Y-59101405D01*
X50726026Y-59036433D01*
X50721365Y-58939900D01*
X50719420Y-58821423D01*
X50719400Y-58807700D01*
X50718938Y-58675936D01*
X50716670Y-58586719D01*
X50711275Y-58531794D01*
X50701435Y-58502910D01*
X50685827Y-58491814D01*
X50668600Y-58490200D01*
X50613306Y-58507438D01*
G36*
X50116150Y-58480518D02*
G01*
X50078574Y-58489806D01*
X50048812Y-58501380D01*
X50025955Y-58520754D01*
X50009091Y-58553441D01*
X49997311Y-58604955D01*
X49989704Y-58680809D01*
X49985359Y-58786516D01*
X49983366Y-58927591D01*
X49982815Y-59109545D01*
X49982800Y-59288039D01*
X49982600Y-59503158D01*
X49981749Y-59673682D01*
X49979872Y-59805817D01*
X49976595Y-59905768D01*
X49971542Y-59979739D01*
X49964338Y-60033936D01*
X49954608Y-60074563D01*
X49941977Y-60107825D01*
X49932000Y-60128500D01*
X49901245Y-60190330D01*
X49883191Y-60229539D01*
X49881200Y-60235470D01*
X49902121Y-60246821D01*
X49952538Y-60244853D01*
X50013935Y-60232839D01*
X50067794Y-60214055D01*
X50091396Y-60198303D01*
X50117213Y-60165983D01*
X50137898Y-60128371D01*
X50154011Y-60079785D01*
X50166111Y-60014545D01*
X50174758Y-59926967D01*
X50180512Y-59811371D01*
X50183930Y-59662075D01*
X50185573Y-59473396D01*
X50186000Y-59239654D01*
X50186000Y-58463832D01*
X50116150Y-58480518D01*
G37*
X50116150Y-58480518D02*
X50078574Y-58489806D01*
X50048812Y-58501380D01*
X50025955Y-58520754D01*
X50009091Y-58553441D01*
X49997311Y-58604955D01*
X49989704Y-58680809D01*
X49985359Y-58786516D01*
X49983366Y-58927591D01*
X49982815Y-59109545D01*
X49982800Y-59288039D01*
X49982600Y-59503158D01*
X49981749Y-59673682D01*
X49979872Y-59805817D01*
X49976595Y-59905768D01*
X49971542Y-59979739D01*
X49964338Y-60033936D01*
X49954608Y-60074563D01*
X49941977Y-60107825D01*
X49932000Y-60128500D01*
X49901245Y-60190330D01*
X49883191Y-60229539D01*
X49881200Y-60235470D01*
X49902121Y-60246821D01*
X49952538Y-60244853D01*
X50013935Y-60232839D01*
X50067794Y-60214055D01*
X50091396Y-60198303D01*
X50117213Y-60165983D01*
X50137898Y-60128371D01*
X50154011Y-60079785D01*
X50166111Y-60014545D01*
X50174758Y-59926967D01*
X50180512Y-59811371D01*
X50183930Y-59662075D01*
X50185573Y-59473396D01*
X50186000Y-59239654D01*
X50186000Y-58463832D01*
X50116150Y-58480518D01*
G36*
X48999237Y-59053024D02*
G01*
X48869473Y-59096381D01*
X48779387Y-59169910D01*
X48727657Y-59274647D01*
X48712800Y-59397279D01*
X48717064Y-59485488D01*
X48734700Y-59544455D01*
X48772979Y-59595373D01*
X48784987Y-59607694D01*
X48857121Y-59660838D01*
X48946388Y-59702941D01*
X48968938Y-59709975D01*
X49068298Y-59725653D01*
X49184868Y-59728285D01*
X49296213Y-59718543D01*
X49378487Y-59697706D01*
X49417718Y-59698490D01*
X49438659Y-59734699D01*
X49443064Y-59795079D01*
X49432687Y-59868373D01*
X49409280Y-59943329D01*
X49374597Y-60008692D01*
X49330391Y-60053206D01*
X49322400Y-60057718D01*
X49230029Y-60084649D01*
X49114755Y-60091007D01*
X48993153Y-60078890D01*
X48881798Y-60050391D01*
X48797261Y-60007607D01*
X48776171Y-59988657D01*
X48725931Y-59944988D01*
X48696264Y-59947518D01*
X48687400Y-59990469D01*
X48708787Y-60080006D01*
X48774853Y-60152074D01*
X48848200Y-60193601D01*
X48967777Y-60228545D01*
X49111529Y-60242257D01*
X49257931Y-60234699D01*
X49385456Y-60205830D01*
X49413297Y-60194633D01*
X49491050Y-60155337D01*
X49547417Y-60113060D01*
X49585780Y-60059165D01*
X49609522Y-59985018D01*
X49622025Y-59881986D01*
X49626672Y-59741433D01*
X49627106Y-59648824D01*
X49626219Y-59501795D01*
X49625826Y-59489178D01*
X49438079Y-59489178D01*
X49412826Y-59539442D01*
X49360500Y-59563815D01*
X49270312Y-59576681D01*
X49166143Y-59578108D01*
X49072710Y-59568526D01*
X49033282Y-59558133D01*
X48971733Y-59518552D01*
X48927009Y-59469083D01*
X48899472Y-59411256D01*
X48905771Y-59355013D01*
X48914698Y-59331544D01*
X48968577Y-59257596D01*
X49057957Y-59214798D01*
X49182479Y-59201400D01*
X49296030Y-59222097D01*
X49379415Y-59281631D01*
X49427887Y-59376168D01*
X49433957Y-59404600D01*
X49438079Y-59489178D01*
X49625826Y-59489178D01*
X49622917Y-59395806D01*
X49616098Y-59321115D01*
X49604663Y-59267980D01*
X49587511Y-59226657D01*
X49577429Y-59208983D01*
X49508644Y-59126177D01*
X49416858Y-59072694D01*
X49293437Y-59044928D01*
X49170000Y-59038802D01*
X48999237Y-59053024D01*
G37*
X48999237Y-59053024D02*
X48869473Y-59096381D01*
X48779387Y-59169910D01*
X48727657Y-59274647D01*
X48712800Y-59397279D01*
X48717064Y-59485488D01*
X48734700Y-59544455D01*
X48772979Y-59595373D01*
X48784987Y-59607694D01*
X48857121Y-59660838D01*
X48946388Y-59702941D01*
X48968938Y-59709975D01*
X49068298Y-59725653D01*
X49184868Y-59728285D01*
X49296213Y-59718543D01*
X49378487Y-59697706D01*
X49417718Y-59698490D01*
X49438659Y-59734699D01*
X49443064Y-59795079D01*
X49432687Y-59868373D01*
X49409280Y-59943329D01*
X49374597Y-60008692D01*
X49330391Y-60053206D01*
X49322400Y-60057718D01*
X49230029Y-60084649D01*
X49114755Y-60091007D01*
X48993153Y-60078890D01*
X48881798Y-60050391D01*
X48797261Y-60007607D01*
X48776171Y-59988657D01*
X48725931Y-59944988D01*
X48696264Y-59947518D01*
X48687400Y-59990469D01*
X48708787Y-60080006D01*
X48774853Y-60152074D01*
X48848200Y-60193601D01*
X48967777Y-60228545D01*
X49111529Y-60242257D01*
X49257931Y-60234699D01*
X49385456Y-60205830D01*
X49413297Y-60194633D01*
X49491050Y-60155337D01*
X49547417Y-60113060D01*
X49585780Y-60059165D01*
X49609522Y-59985018D01*
X49622025Y-59881986D01*
X49626672Y-59741433D01*
X49627106Y-59648824D01*
X49626219Y-59501795D01*
X49625826Y-59489178D01*
X49438079Y-59489178D01*
X49412826Y-59539442D01*
X49360500Y-59563815D01*
X49270312Y-59576681D01*
X49166143Y-59578108D01*
X49072710Y-59568526D01*
X49033282Y-59558133D01*
X48971733Y-59518552D01*
X48927009Y-59469083D01*
X48899472Y-59411256D01*
X48905771Y-59355013D01*
X48914698Y-59331544D01*
X48968577Y-59257596D01*
X49057957Y-59214798D01*
X49182479Y-59201400D01*
X49296030Y-59222097D01*
X49379415Y-59281631D01*
X49427887Y-59376168D01*
X49433957Y-59404600D01*
X49438079Y-59489178D01*
X49625826Y-59489178D01*
X49622917Y-59395806D01*
X49616098Y-59321115D01*
X49604663Y-59267980D01*
X49587511Y-59226657D01*
X49577429Y-59208983D01*
X49508644Y-59126177D01*
X49416858Y-59072694D01*
X49293437Y-59044928D01*
X49170000Y-59038802D01*
X48999237Y-59053024D01*
G36*
X57435875Y-50686612D02*
G01*
X57474728Y-50717938D01*
X57539300Y-50758613D01*
X57724247Y-50881745D01*
X57879108Y-51014281D01*
X58012979Y-51166530D01*
X58134952Y-51348803D01*
X58251617Y-51566319D01*
X58348675Y-51785144D01*
X58415125Y-51991437D01*
X58455252Y-52203497D01*
X58473338Y-52439617D01*
X58475147Y-52521200D01*
X58475294Y-52668276D01*
X58470622Y-52779994D01*
X58459450Y-52871697D01*
X58440098Y-52958730D01*
X58419507Y-53029200D01*
X58314843Y-53301979D01*
X58183079Y-53533873D01*
X58022400Y-53728055D01*
X58016906Y-53733538D01*
X57828092Y-53900415D01*
X57641414Y-54021276D01*
X57448603Y-54099828D01*
X57241391Y-54139777D01*
X57095173Y-54146799D01*
X56869890Y-54128408D01*
X56679291Y-54073055D01*
X56522932Y-53980472D01*
X56400368Y-53850394D01*
X56311151Y-53682552D01*
X56308075Y-53674533D01*
X56276045Y-53576822D01*
X56262089Y-53489448D01*
X56262952Y-53386769D01*
X56266063Y-53343571D01*
X56277304Y-53241691D01*
X56292399Y-53150801D01*
X56307515Y-53092399D01*
X56322477Y-53038267D01*
X56320663Y-53008595D01*
X56291500Y-53013133D01*
X56232194Y-53046208D01*
X56150182Y-53102179D01*
X56052908Y-53175406D01*
X55947809Y-53260250D01*
X55842329Y-53351072D01*
X55743906Y-53442231D01*
X55727743Y-53458014D01*
X55465096Y-53751998D01*
X55240582Y-54076729D01*
X55056286Y-54427163D01*
X54914293Y-54798252D01*
X54816689Y-55184950D01*
X54765558Y-55582213D01*
X54758000Y-55804812D01*
X54781971Y-56227211D01*
X54853026Y-56632544D01*
X54969880Y-57018506D01*
X55131248Y-57382793D01*
X55335845Y-57723100D01*
X55582385Y-58037122D01*
X55869584Y-58322556D01*
X56196155Y-58577097D01*
X56365290Y-58686876D01*
X56706424Y-58867636D01*
X57072674Y-59010802D01*
X57451270Y-59112010D01*
X57747053Y-59159032D01*
X57853206Y-59170683D01*
X57667299Y-59021129D01*
X57531338Y-58906589D01*
X57422929Y-58800883D01*
X57327197Y-58687542D01*
X57229268Y-58550100D01*
X57194896Y-58498121D01*
X57072579Y-58275531D01*
X56971471Y-58020878D01*
X56896229Y-57750125D01*
X56851509Y-57479238D01*
X56840800Y-57284221D01*
X56865089Y-56960147D01*
X56935877Y-56643716D01*
X57050050Y-56340943D01*
X57204493Y-56057841D01*
X57396092Y-55800424D01*
X57621732Y-55574707D01*
X57795629Y-55440597D01*
X57903994Y-55374643D01*
X58044681Y-55301190D01*
X58201467Y-55227702D01*
X58358129Y-55161645D01*
X58498442Y-55110481D01*
X58542600Y-55096924D01*
X58682639Y-55068794D01*
X58857307Y-55051684D01*
X59051673Y-55045460D01*
X59250806Y-55049988D01*
X59439775Y-55065132D01*
X59603649Y-55090758D01*
X59670234Y-55107093D01*
X59997599Y-55225553D01*
X60295519Y-55383326D01*
X60561467Y-55577908D01*
X60792920Y-55806797D01*
X60987352Y-56067491D01*
X61142238Y-56357487D01*
X61255053Y-56674285D01*
X61256315Y-56678871D01*
X61303346Y-56850557D01*
X61344146Y-56724228D01*
X61457137Y-56292217D01*
X61521678Y-55847805D01*
X61537738Y-55393971D01*
X61505281Y-54933696D01*
X61424274Y-54469961D01*
X61372015Y-54261100D01*
X61302606Y-54034283D01*
X61216777Y-53795705D01*
X61121210Y-53561988D01*
X61022585Y-53349754D01*
X60953317Y-53219377D01*
X60678328Y-52784765D01*
X60368609Y-52382909D01*
X60026958Y-52015962D01*
X59656173Y-51686080D01*
X59259054Y-51395416D01*
X58838399Y-51146125D01*
X58397007Y-50940361D01*
X57937678Y-50780278D01*
X57704400Y-50718572D01*
X57569420Y-50688024D01*
X57481092Y-50672171D01*
X57437287Y-50671528D01*
X57435875Y-50686612D01*
G37*
X57435875Y-50686612D02*
X57474728Y-50717938D01*
X57539300Y-50758613D01*
X57724247Y-50881745D01*
X57879108Y-51014281D01*
X58012979Y-51166530D01*
X58134952Y-51348803D01*
X58251617Y-51566319D01*
X58348675Y-51785144D01*
X58415125Y-51991437D01*
X58455252Y-52203497D01*
X58473338Y-52439617D01*
X58475147Y-52521200D01*
X58475294Y-52668276D01*
X58470622Y-52779994D01*
X58459450Y-52871697D01*
X58440098Y-52958730D01*
X58419507Y-53029200D01*
X58314843Y-53301979D01*
X58183079Y-53533873D01*
X58022400Y-53728055D01*
X58016906Y-53733538D01*
X57828092Y-53900415D01*
X57641414Y-54021276D01*
X57448603Y-54099828D01*
X57241391Y-54139777D01*
X57095173Y-54146799D01*
X56869890Y-54128408D01*
X56679291Y-54073055D01*
X56522932Y-53980472D01*
X56400368Y-53850394D01*
X56311151Y-53682552D01*
X56308075Y-53674533D01*
X56276045Y-53576822D01*
X56262089Y-53489448D01*
X56262952Y-53386769D01*
X56266063Y-53343571D01*
X56277304Y-53241691D01*
X56292399Y-53150801D01*
X56307515Y-53092399D01*
X56322477Y-53038267D01*
X56320663Y-53008595D01*
X56291500Y-53013133D01*
X56232194Y-53046208D01*
X56150182Y-53102179D01*
X56052908Y-53175406D01*
X55947809Y-53260250D01*
X55842329Y-53351072D01*
X55743906Y-53442231D01*
X55727743Y-53458014D01*
X55465096Y-53751998D01*
X55240582Y-54076729D01*
X55056286Y-54427163D01*
X54914293Y-54798252D01*
X54816689Y-55184950D01*
X54765558Y-55582213D01*
X54758000Y-55804812D01*
X54781971Y-56227211D01*
X54853026Y-56632544D01*
X54969880Y-57018506D01*
X55131248Y-57382793D01*
X55335845Y-57723100D01*
X55582385Y-58037122D01*
X55869584Y-58322556D01*
X56196155Y-58577097D01*
X56365290Y-58686876D01*
X56706424Y-58867636D01*
X57072674Y-59010802D01*
X57451270Y-59112010D01*
X57747053Y-59159032D01*
X57853206Y-59170683D01*
X57667299Y-59021129D01*
X57531338Y-58906589D01*
X57422929Y-58800883D01*
X57327197Y-58687542D01*
X57229268Y-58550100D01*
X57194896Y-58498121D01*
X57072579Y-58275531D01*
X56971471Y-58020878D01*
X56896229Y-57750125D01*
X56851509Y-57479238D01*
X56840800Y-57284221D01*
X56865089Y-56960147D01*
X56935877Y-56643716D01*
X57050050Y-56340943D01*
X57204493Y-56057841D01*
X57396092Y-55800424D01*
X57621732Y-55574707D01*
X57795629Y-55440597D01*
X57903994Y-55374643D01*
X58044681Y-55301190D01*
X58201467Y-55227702D01*
X58358129Y-55161645D01*
X58498442Y-55110481D01*
X58542600Y-55096924D01*
X58682639Y-55068794D01*
X58857307Y-55051684D01*
X59051673Y-55045460D01*
X59250806Y-55049988D01*
X59439775Y-55065132D01*
X59603649Y-55090758D01*
X59670234Y-55107093D01*
X59997599Y-55225553D01*
X60295519Y-55383326D01*
X60561467Y-55577908D01*
X60792920Y-55806797D01*
X60987352Y-56067491D01*
X61142238Y-56357487D01*
X61255053Y-56674285D01*
X61256315Y-56678871D01*
X61303346Y-56850557D01*
X61344146Y-56724228D01*
X61457137Y-56292217D01*
X61521678Y-55847805D01*
X61537738Y-55393971D01*
X61505281Y-54933696D01*
X61424274Y-54469961D01*
X61372015Y-54261100D01*
X61302606Y-54034283D01*
X61216777Y-53795705D01*
X61121210Y-53561988D01*
X61022585Y-53349754D01*
X60953317Y-53219377D01*
X60678328Y-52784765D01*
X60368609Y-52382909D01*
X60026958Y-52015962D01*
X59656173Y-51686080D01*
X59259054Y-51395416D01*
X58838399Y-51146125D01*
X58397007Y-50940361D01*
X57937678Y-50780278D01*
X57704400Y-50718572D01*
X57569420Y-50688024D01*
X57481092Y-50672171D01*
X57437287Y-50671528D01*
X57435875Y-50686612D01*
G36*
X58995168Y-55932973D02*
G01*
X58760939Y-55974976D01*
X58503003Y-56065689D01*
X58273111Y-56196830D01*
X58074733Y-56364678D01*
X57911341Y-56565513D01*
X57786405Y-56795613D01*
X57703396Y-57051259D01*
X57688565Y-57124503D01*
X57665335Y-57394346D01*
X57691473Y-57656408D01*
X57765687Y-57906632D01*
X57886680Y-58140962D01*
X58053160Y-58355341D01*
X58095172Y-58398837D01*
X58297068Y-58565244D01*
X58524654Y-58691083D01*
X58770583Y-58774373D01*
X59027509Y-58813135D01*
X59288084Y-58805391D01*
X59473205Y-58770071D01*
X59732935Y-58677449D01*
X59962421Y-58544744D01*
X60159271Y-58374159D01*
X60321093Y-58167892D01*
X60445498Y-57928144D01*
X60476230Y-57846972D01*
X60512548Y-57733400D01*
X60534535Y-57634731D01*
X60545519Y-57529739D01*
X60548826Y-57397198D01*
X60548861Y-57383560D01*
X60541712Y-57192039D01*
X60516312Y-57028677D01*
X60467578Y-56872683D01*
X60390428Y-56703268D01*
X60375405Y-56674100D01*
X60235466Y-56459520D01*
X60057452Y-56276211D01*
X59845744Y-56127542D01*
X59604721Y-56016886D01*
X59467262Y-55974976D01*
X59226827Y-55932399D01*
X58995168Y-55932973D01*
G37*
X58995168Y-55932973D02*
X58760939Y-55974976D01*
X58503003Y-56065689D01*
X58273111Y-56196830D01*
X58074733Y-56364678D01*
X57911341Y-56565513D01*
X57786405Y-56795613D01*
X57703396Y-57051259D01*
X57688565Y-57124503D01*
X57665335Y-57394346D01*
X57691473Y-57656408D01*
X57765687Y-57906632D01*
X57886680Y-58140962D01*
X58053160Y-58355341D01*
X58095172Y-58398837D01*
X58297068Y-58565244D01*
X58524654Y-58691083D01*
X58770583Y-58774373D01*
X59027509Y-58813135D01*
X59288084Y-58805391D01*
X59473205Y-58770071D01*
X59732935Y-58677449D01*
X59962421Y-58544744D01*
X60159271Y-58374159D01*
X60321093Y-58167892D01*
X60445498Y-57928144D01*
X60476230Y-57846972D01*
X60512548Y-57733400D01*
X60534535Y-57634731D01*
X60545519Y-57529739D01*
X60548826Y-57397198D01*
X60548861Y-57383560D01*
X60541712Y-57192039D01*
X60516312Y-57028677D01*
X60467578Y-56872683D01*
X60390428Y-56703268D01*
X60375405Y-56674100D01*
X60235466Y-56459520D01*
X60057452Y-56276211D01*
X59845744Y-56127542D01*
X59604721Y-56016886D01*
X59467262Y-55974976D01*
X59226827Y-55932399D01*
X58995168Y-55932973D01*
D11*
%TO.C,3.3 VREG*%
X80620000Y-46440000D02*
X80620000Y-47700000D01*
X80620000Y-53260000D02*
X80620000Y-52000000D01*
X76860000Y-46440000D02*
X80620000Y-46440000D01*
X74610000Y-53260000D02*
X80620000Y-53260000D01*
%TO.C,J1*%
X37025000Y-50845000D02*
X43325000Y-50845000D01*
X37725000Y-37975000D02*
X43325000Y-37975000D01*
X33315000Y-50845000D02*
X35125000Y-50845000D01*
X33315000Y-37975000D02*
X33315000Y-49235000D01*
X34475000Y-37975000D02*
X33315000Y-37975000D01*
X33315000Y-50735000D02*
X33315000Y-50845000D01*
%TO.C,3.3 VREG*%
D12*
X80747619Y-45221904D02*
X80252380Y-45221904D01*
X80519047Y-45526666D01*
X80404761Y-45526666D01*
X80328571Y-45564761D01*
X80290476Y-45602857D01*
X80252380Y-45679047D01*
X80252380Y-45869523D01*
X80290476Y-45945714D01*
X80328571Y-45983809D01*
X80404761Y-46021904D01*
X80633333Y-46021904D01*
X80709523Y-45983809D01*
X80747619Y-45945714D01*
X79909523Y-45945714D02*
X79871428Y-45983809D01*
X79909523Y-46021904D01*
X79947619Y-45983809D01*
X79909523Y-45945714D01*
X79909523Y-46021904D01*
X79604761Y-45221904D02*
X79109523Y-45221904D01*
X79376190Y-45526666D01*
X79261904Y-45526666D01*
X79185714Y-45564761D01*
X79147619Y-45602857D01*
X79109523Y-45679047D01*
X79109523Y-45869523D01*
X79147619Y-45945714D01*
X79185714Y-45983809D01*
X79261904Y-46021904D01*
X79490476Y-46021904D01*
X79566666Y-45983809D01*
X79604761Y-45945714D01*
X78271428Y-45221904D02*
X78004761Y-46021904D01*
X77738095Y-45221904D01*
X77014285Y-46021904D02*
X77280952Y-45640952D01*
X77471428Y-46021904D02*
X77471428Y-45221904D01*
X77166666Y-45221904D01*
X77090476Y-45260000D01*
X77052380Y-45298095D01*
X77014285Y-45374285D01*
X77014285Y-45488571D01*
X77052380Y-45564761D01*
X77090476Y-45602857D01*
X77166666Y-45640952D01*
X77471428Y-45640952D01*
X76671428Y-45602857D02*
X76404761Y-45602857D01*
X76290476Y-46021904D02*
X76671428Y-46021904D01*
X76671428Y-45221904D01*
X76290476Y-45221904D01*
X75528571Y-45260000D02*
X75604761Y-45221904D01*
X75719047Y-45221904D01*
X75833333Y-45260000D01*
X75909523Y-45336190D01*
X75947619Y-45412380D01*
X75985714Y-45564761D01*
X75985714Y-45679047D01*
X75947619Y-45831428D01*
X75909523Y-45907619D01*
X75833333Y-45983809D01*
X75719047Y-46021904D01*
X75642857Y-46021904D01*
X75528571Y-45983809D01*
X75490476Y-45945714D01*
X75490476Y-45679047D01*
X75642857Y-45679047D01*
%TO.C,C4_ST1*%
D13*
X45252380Y-55842857D02*
X45271428Y-55861904D01*
X45328571Y-55880952D01*
X45366666Y-55880952D01*
X45423809Y-55861904D01*
X45461904Y-55823809D01*
X45480952Y-55785714D01*
X45500000Y-55709523D01*
X45500000Y-55652380D01*
X45480952Y-55576190D01*
X45461904Y-55538095D01*
X45423809Y-55500000D01*
X45366666Y-55480952D01*
X45328571Y-55480952D01*
X45271428Y-55500000D01*
X45252380Y-55519047D01*
X44909523Y-55614285D02*
X44909523Y-55880952D01*
X45004761Y-55461904D02*
X45100000Y-55747619D01*
X44852380Y-55747619D01*
X44795238Y-55919047D02*
X44490476Y-55919047D01*
X44414285Y-55861904D02*
X44357142Y-55880952D01*
X44261904Y-55880952D01*
X44223809Y-55861904D01*
X44204761Y-55842857D01*
X44185714Y-55804761D01*
X44185714Y-55766666D01*
X44204761Y-55728571D01*
X44223809Y-55709523D01*
X44261904Y-55690476D01*
X44338095Y-55671428D01*
X44376190Y-55652380D01*
X44395238Y-55633333D01*
X44414285Y-55595238D01*
X44414285Y-55557142D01*
X44395238Y-55519047D01*
X44376190Y-55500000D01*
X44338095Y-55480952D01*
X44242857Y-55480952D01*
X44185714Y-55500000D01*
X44071428Y-55480952D02*
X43842857Y-55480952D01*
X43957142Y-55880952D02*
X43957142Y-55480952D01*
X43500000Y-55880952D02*
X43728571Y-55880952D01*
X43614285Y-55880952D02*
X43614285Y-55480952D01*
X43652380Y-55538095D01*
X43690476Y-55576190D01*
X43728571Y-55595238D01*
%TO.C,C3_ST1*%
X45252380Y-54917857D02*
X45271428Y-54936904D01*
X45328571Y-54955952D01*
X45366666Y-54955952D01*
X45423809Y-54936904D01*
X45461904Y-54898809D01*
X45480952Y-54860714D01*
X45500000Y-54784523D01*
X45500000Y-54727380D01*
X45480952Y-54651190D01*
X45461904Y-54613095D01*
X45423809Y-54575000D01*
X45366666Y-54555952D01*
X45328571Y-54555952D01*
X45271428Y-54575000D01*
X45252380Y-54594047D01*
X45119047Y-54555952D02*
X44871428Y-54555952D01*
X45004761Y-54708333D01*
X44947619Y-54708333D01*
X44909523Y-54727380D01*
X44890476Y-54746428D01*
X44871428Y-54784523D01*
X44871428Y-54879761D01*
X44890476Y-54917857D01*
X44909523Y-54936904D01*
X44947619Y-54955952D01*
X45061904Y-54955952D01*
X45100000Y-54936904D01*
X45119047Y-54917857D01*
X44795238Y-54994047D02*
X44490476Y-54994047D01*
X44414285Y-54936904D02*
X44357142Y-54955952D01*
X44261904Y-54955952D01*
X44223809Y-54936904D01*
X44204761Y-54917857D01*
X44185714Y-54879761D01*
X44185714Y-54841666D01*
X44204761Y-54803571D01*
X44223809Y-54784523D01*
X44261904Y-54765476D01*
X44338095Y-54746428D01*
X44376190Y-54727380D01*
X44395238Y-54708333D01*
X44414285Y-54670238D01*
X44414285Y-54632142D01*
X44395238Y-54594047D01*
X44376190Y-54575000D01*
X44338095Y-54555952D01*
X44242857Y-54555952D01*
X44185714Y-54575000D01*
X44071428Y-54555952D02*
X43842857Y-54555952D01*
X43957142Y-54955952D02*
X43957142Y-54555952D01*
X43500000Y-54955952D02*
X43728571Y-54955952D01*
X43614285Y-54955952D02*
X43614285Y-54555952D01*
X43652380Y-54613095D01*
X43690476Y-54651190D01*
X43728571Y-54670238D01*
%TO.C,C2_VREG1*%
X71431904Y-50672857D02*
X71450952Y-50691904D01*
X71508095Y-50710952D01*
X71546190Y-50710952D01*
X71603333Y-50691904D01*
X71641428Y-50653809D01*
X71660476Y-50615714D01*
X71679523Y-50539523D01*
X71679523Y-50482380D01*
X71660476Y-50406190D01*
X71641428Y-50368095D01*
X71603333Y-50330000D01*
X71546190Y-50310952D01*
X71508095Y-50310952D01*
X71450952Y-50330000D01*
X71431904Y-50349047D01*
X71279523Y-50349047D02*
X71260476Y-50330000D01*
X71222380Y-50310952D01*
X71127142Y-50310952D01*
X71089047Y-50330000D01*
X71070000Y-50349047D01*
X71050952Y-50387142D01*
X71050952Y-50425238D01*
X71070000Y-50482380D01*
X71298571Y-50710952D01*
X71050952Y-50710952D01*
X70974761Y-50749047D02*
X70670000Y-50749047D01*
X70631904Y-50310952D02*
X70498571Y-50710952D01*
X70365238Y-50310952D01*
X70003333Y-50710952D02*
X70136666Y-50520476D01*
X70231904Y-50710952D02*
X70231904Y-50310952D01*
X70079523Y-50310952D01*
X70041428Y-50330000D01*
X70022380Y-50349047D01*
X70003333Y-50387142D01*
X70003333Y-50444285D01*
X70022380Y-50482380D01*
X70041428Y-50501428D01*
X70079523Y-50520476D01*
X70231904Y-50520476D01*
X69831904Y-50501428D02*
X69698571Y-50501428D01*
X69641428Y-50710952D02*
X69831904Y-50710952D01*
X69831904Y-50310952D01*
X69641428Y-50310952D01*
X69260476Y-50330000D02*
X69298571Y-50310952D01*
X69355714Y-50310952D01*
X69412857Y-50330000D01*
X69450952Y-50368095D01*
X69470000Y-50406190D01*
X69489047Y-50482380D01*
X69489047Y-50539523D01*
X69470000Y-50615714D01*
X69450952Y-50653809D01*
X69412857Y-50691904D01*
X69355714Y-50710952D01*
X69317619Y-50710952D01*
X69260476Y-50691904D01*
X69241428Y-50672857D01*
X69241428Y-50539523D01*
X69317619Y-50539523D01*
X68860476Y-50710952D02*
X69089047Y-50710952D01*
X68974761Y-50710952D02*
X68974761Y-50310952D01*
X69012857Y-50368095D01*
X69050952Y-50406190D01*
X69089047Y-50425238D01*
%TO.C,C1_VREG1*%
X71421904Y-49752857D02*
X71440952Y-49771904D01*
X71498095Y-49790952D01*
X71536190Y-49790952D01*
X71593333Y-49771904D01*
X71631428Y-49733809D01*
X71650476Y-49695714D01*
X71669523Y-49619523D01*
X71669523Y-49562380D01*
X71650476Y-49486190D01*
X71631428Y-49448095D01*
X71593333Y-49410000D01*
X71536190Y-49390952D01*
X71498095Y-49390952D01*
X71440952Y-49410000D01*
X71421904Y-49429047D01*
X71040952Y-49790952D02*
X71269523Y-49790952D01*
X71155238Y-49790952D02*
X71155238Y-49390952D01*
X71193333Y-49448095D01*
X71231428Y-49486190D01*
X71269523Y-49505238D01*
X70964761Y-49829047D02*
X70660000Y-49829047D01*
X70621904Y-49390952D02*
X70488571Y-49790952D01*
X70355238Y-49390952D01*
X69993333Y-49790952D02*
X70126666Y-49600476D01*
X70221904Y-49790952D02*
X70221904Y-49390952D01*
X70069523Y-49390952D01*
X70031428Y-49410000D01*
X70012380Y-49429047D01*
X69993333Y-49467142D01*
X69993333Y-49524285D01*
X70012380Y-49562380D01*
X70031428Y-49581428D01*
X70069523Y-49600476D01*
X70221904Y-49600476D01*
X69821904Y-49581428D02*
X69688571Y-49581428D01*
X69631428Y-49790952D02*
X69821904Y-49790952D01*
X69821904Y-49390952D01*
X69631428Y-49390952D01*
X69250476Y-49410000D02*
X69288571Y-49390952D01*
X69345714Y-49390952D01*
X69402857Y-49410000D01*
X69440952Y-49448095D01*
X69460000Y-49486190D01*
X69479047Y-49562380D01*
X69479047Y-49619523D01*
X69460000Y-49695714D01*
X69440952Y-49733809D01*
X69402857Y-49771904D01*
X69345714Y-49790952D01*
X69307619Y-49790952D01*
X69250476Y-49771904D01*
X69231428Y-49752857D01*
X69231428Y-49619523D01*
X69307619Y-49619523D01*
X68850476Y-49790952D02*
X69079047Y-49790952D01*
X68964761Y-49790952D02*
X68964761Y-49390952D01*
X69002857Y-49448095D01*
X69040952Y-49486190D01*
X69079047Y-49505238D01*
%TD*%
M02*
