%TF.GenerationSoftware,KiCad,Pcbnew,(5.1.6)-1*%
%TF.CreationDate,2020-08-08T14:22:08+05:30*%
%TF.ProjectId,F745_DISC,46373435-5f44-4495-9343-2e6b69636164,rev?*%
%TF.SameCoordinates,Original*%
%TF.FileFunction,Paste,Top*%
%TF.FilePolarity,Positive*%
%FSLAX46Y46*%
G04 Gerber Fmt 4.6, Leading zero omitted, Abs format (unit mm)*
G04 Created by KiCad (PCBNEW (5.1.6)-1) date 2020-08-08 14:22:08*
%MOMM*%
%LPD*%
G01*
G04 APERTURE LIST*
%ADD10R,1.900000X0.400000*%
%ADD11R,1.150000X0.300000*%
%ADD12R,0.800000X0.900000*%
G04 APERTURE END LIST*
D10*
%TO.C,Y1*%
X50900000Y-50800000D03*
X50900000Y-49600000D03*
X50900000Y-48400000D03*
%TD*%
%TO.C,U1*%
G36*
G01*
X56250000Y-43050000D02*
X56250000Y-41600000D01*
G75*
G02*
X56325000Y-41525000I75000J0D01*
G01*
X56475000Y-41525000D01*
G75*
G02*
X56550000Y-41600000I0J-75000D01*
G01*
X56550000Y-43050000D01*
G75*
G02*
X56475000Y-43125000I-75000J0D01*
G01*
X56325000Y-43125000D01*
G75*
G02*
X56250000Y-43050000I0J75000D01*
G01*
G37*
G36*
G01*
X56750000Y-43050000D02*
X56750000Y-41600000D01*
G75*
G02*
X56825000Y-41525000I75000J0D01*
G01*
X56975000Y-41525000D01*
G75*
G02*
X57050000Y-41600000I0J-75000D01*
G01*
X57050000Y-43050000D01*
G75*
G02*
X56975000Y-43125000I-75000J0D01*
G01*
X56825000Y-43125000D01*
G75*
G02*
X56750000Y-43050000I0J75000D01*
G01*
G37*
G36*
G01*
X57250000Y-43050000D02*
X57250000Y-41600000D01*
G75*
G02*
X57325000Y-41525000I75000J0D01*
G01*
X57475000Y-41525000D01*
G75*
G02*
X57550000Y-41600000I0J-75000D01*
G01*
X57550000Y-43050000D01*
G75*
G02*
X57475000Y-43125000I-75000J0D01*
G01*
X57325000Y-43125000D01*
G75*
G02*
X57250000Y-43050000I0J75000D01*
G01*
G37*
G36*
G01*
X57750000Y-43050000D02*
X57750000Y-41600000D01*
G75*
G02*
X57825000Y-41525000I75000J0D01*
G01*
X57975000Y-41525000D01*
G75*
G02*
X58050000Y-41600000I0J-75000D01*
G01*
X58050000Y-43050000D01*
G75*
G02*
X57975000Y-43125000I-75000J0D01*
G01*
X57825000Y-43125000D01*
G75*
G02*
X57750000Y-43050000I0J75000D01*
G01*
G37*
G36*
G01*
X58250000Y-43050000D02*
X58250000Y-41600000D01*
G75*
G02*
X58325000Y-41525000I75000J0D01*
G01*
X58475000Y-41525000D01*
G75*
G02*
X58550000Y-41600000I0J-75000D01*
G01*
X58550000Y-43050000D01*
G75*
G02*
X58475000Y-43125000I-75000J0D01*
G01*
X58325000Y-43125000D01*
G75*
G02*
X58250000Y-43050000I0J75000D01*
G01*
G37*
G36*
G01*
X58750000Y-43050000D02*
X58750000Y-41600000D01*
G75*
G02*
X58825000Y-41525000I75000J0D01*
G01*
X58975000Y-41525000D01*
G75*
G02*
X59050000Y-41600000I0J-75000D01*
G01*
X59050000Y-43050000D01*
G75*
G02*
X58975000Y-43125000I-75000J0D01*
G01*
X58825000Y-43125000D01*
G75*
G02*
X58750000Y-43050000I0J75000D01*
G01*
G37*
G36*
G01*
X59250000Y-43050000D02*
X59250000Y-41600000D01*
G75*
G02*
X59325000Y-41525000I75000J0D01*
G01*
X59475000Y-41525000D01*
G75*
G02*
X59550000Y-41600000I0J-75000D01*
G01*
X59550000Y-43050000D01*
G75*
G02*
X59475000Y-43125000I-75000J0D01*
G01*
X59325000Y-43125000D01*
G75*
G02*
X59250000Y-43050000I0J75000D01*
G01*
G37*
G36*
G01*
X60250000Y-43050000D02*
X60250000Y-41600000D01*
G75*
G02*
X60325000Y-41525000I75000J0D01*
G01*
X60475000Y-41525000D01*
G75*
G02*
X60550000Y-41600000I0J-75000D01*
G01*
X60550000Y-43050000D01*
G75*
G02*
X60475000Y-43125000I-75000J0D01*
G01*
X60325000Y-43125000D01*
G75*
G02*
X60250000Y-43050000I0J75000D01*
G01*
G37*
G36*
G01*
X60750000Y-43050000D02*
X60750000Y-41600000D01*
G75*
G02*
X60825000Y-41525000I75000J0D01*
G01*
X60975000Y-41525000D01*
G75*
G02*
X61050000Y-41600000I0J-75000D01*
G01*
X61050000Y-43050000D01*
G75*
G02*
X60975000Y-43125000I-75000J0D01*
G01*
X60825000Y-43125000D01*
G75*
G02*
X60750000Y-43050000I0J75000D01*
G01*
G37*
G36*
G01*
X61250000Y-43050000D02*
X61250000Y-41600000D01*
G75*
G02*
X61325000Y-41525000I75000J0D01*
G01*
X61475000Y-41525000D01*
G75*
G02*
X61550000Y-41600000I0J-75000D01*
G01*
X61550000Y-43050000D01*
G75*
G02*
X61475000Y-43125000I-75000J0D01*
G01*
X61325000Y-43125000D01*
G75*
G02*
X61250000Y-43050000I0J75000D01*
G01*
G37*
G36*
G01*
X61750000Y-43050000D02*
X61750000Y-41600000D01*
G75*
G02*
X61825000Y-41525000I75000J0D01*
G01*
X61975000Y-41525000D01*
G75*
G02*
X62050000Y-41600000I0J-75000D01*
G01*
X62050000Y-43050000D01*
G75*
G02*
X61975000Y-43125000I-75000J0D01*
G01*
X61825000Y-43125000D01*
G75*
G02*
X61750000Y-43050000I0J75000D01*
G01*
G37*
G36*
G01*
X62250000Y-43050000D02*
X62250000Y-41600000D01*
G75*
G02*
X62325000Y-41525000I75000J0D01*
G01*
X62475000Y-41525000D01*
G75*
G02*
X62550000Y-41600000I0J-75000D01*
G01*
X62550000Y-43050000D01*
G75*
G02*
X62475000Y-43125000I-75000J0D01*
G01*
X62325000Y-43125000D01*
G75*
G02*
X62250000Y-43050000I0J75000D01*
G01*
G37*
G36*
G01*
X62750000Y-43050000D02*
X62750000Y-41600000D01*
G75*
G02*
X62825000Y-41525000I75000J0D01*
G01*
X62975000Y-41525000D01*
G75*
G02*
X63050000Y-41600000I0J-75000D01*
G01*
X63050000Y-43050000D01*
G75*
G02*
X62975000Y-43125000I-75000J0D01*
G01*
X62825000Y-43125000D01*
G75*
G02*
X62750000Y-43050000I0J75000D01*
G01*
G37*
G36*
G01*
X63250000Y-43050000D02*
X63250000Y-41600000D01*
G75*
G02*
X63325000Y-41525000I75000J0D01*
G01*
X63475000Y-41525000D01*
G75*
G02*
X63550000Y-41600000I0J-75000D01*
G01*
X63550000Y-43050000D01*
G75*
G02*
X63475000Y-43125000I-75000J0D01*
G01*
X63325000Y-43125000D01*
G75*
G02*
X63250000Y-43050000I0J75000D01*
G01*
G37*
G36*
G01*
X63750000Y-43050000D02*
X63750000Y-41600000D01*
G75*
G02*
X63825000Y-41525000I75000J0D01*
G01*
X63975000Y-41525000D01*
G75*
G02*
X64050000Y-41600000I0J-75000D01*
G01*
X64050000Y-43050000D01*
G75*
G02*
X63975000Y-43125000I-75000J0D01*
G01*
X63825000Y-43125000D01*
G75*
G02*
X63750000Y-43050000I0J75000D01*
G01*
G37*
G36*
G01*
X64250000Y-43050000D02*
X64250000Y-41600000D01*
G75*
G02*
X64325000Y-41525000I75000J0D01*
G01*
X64475000Y-41525000D01*
G75*
G02*
X64550000Y-41600000I0J-75000D01*
G01*
X64550000Y-43050000D01*
G75*
G02*
X64475000Y-43125000I-75000J0D01*
G01*
X64325000Y-43125000D01*
G75*
G02*
X64250000Y-43050000I0J75000D01*
G01*
G37*
G36*
G01*
X64750000Y-43050000D02*
X64750000Y-41600000D01*
G75*
G02*
X64825000Y-41525000I75000J0D01*
G01*
X64975000Y-41525000D01*
G75*
G02*
X65050000Y-41600000I0J-75000D01*
G01*
X65050000Y-43050000D01*
G75*
G02*
X64975000Y-43125000I-75000J0D01*
G01*
X64825000Y-43125000D01*
G75*
G02*
X64750000Y-43050000I0J75000D01*
G01*
G37*
G36*
G01*
X65250000Y-43050000D02*
X65250000Y-41600000D01*
G75*
G02*
X65325000Y-41525000I75000J0D01*
G01*
X65475000Y-41525000D01*
G75*
G02*
X65550000Y-41600000I0J-75000D01*
G01*
X65550000Y-43050000D01*
G75*
G02*
X65475000Y-43125000I-75000J0D01*
G01*
X65325000Y-43125000D01*
G75*
G02*
X65250000Y-43050000I0J75000D01*
G01*
G37*
G36*
G01*
X65750000Y-43050000D02*
X65750000Y-41600000D01*
G75*
G02*
X65825000Y-41525000I75000J0D01*
G01*
X65975000Y-41525000D01*
G75*
G02*
X66050000Y-41600000I0J-75000D01*
G01*
X66050000Y-43050000D01*
G75*
G02*
X65975000Y-43125000I-75000J0D01*
G01*
X65825000Y-43125000D01*
G75*
G02*
X65750000Y-43050000I0J75000D01*
G01*
G37*
G36*
G01*
X66250000Y-43050000D02*
X66250000Y-41600000D01*
G75*
G02*
X66325000Y-41525000I75000J0D01*
G01*
X66475000Y-41525000D01*
G75*
G02*
X66550000Y-41600000I0J-75000D01*
G01*
X66550000Y-43050000D01*
G75*
G02*
X66475000Y-43125000I-75000J0D01*
G01*
X66325000Y-43125000D01*
G75*
G02*
X66250000Y-43050000I0J75000D01*
G01*
G37*
G36*
G01*
X66750000Y-43050000D02*
X66750000Y-41600000D01*
G75*
G02*
X66825000Y-41525000I75000J0D01*
G01*
X66975000Y-41525000D01*
G75*
G02*
X67050000Y-41600000I0J-75000D01*
G01*
X67050000Y-43050000D01*
G75*
G02*
X66975000Y-43125000I-75000J0D01*
G01*
X66825000Y-43125000D01*
G75*
G02*
X66750000Y-43050000I0J75000D01*
G01*
G37*
G36*
G01*
X67250000Y-43050000D02*
X67250000Y-41600000D01*
G75*
G02*
X67325000Y-41525000I75000J0D01*
G01*
X67475000Y-41525000D01*
G75*
G02*
X67550000Y-41600000I0J-75000D01*
G01*
X67550000Y-43050000D01*
G75*
G02*
X67475000Y-43125000I-75000J0D01*
G01*
X67325000Y-43125000D01*
G75*
G02*
X67250000Y-43050000I0J75000D01*
G01*
G37*
G36*
G01*
X67750000Y-43050000D02*
X67750000Y-41600000D01*
G75*
G02*
X67825000Y-41525000I75000J0D01*
G01*
X67975000Y-41525000D01*
G75*
G02*
X68050000Y-41600000I0J-75000D01*
G01*
X68050000Y-43050000D01*
G75*
G02*
X67975000Y-43125000I-75000J0D01*
G01*
X67825000Y-43125000D01*
G75*
G02*
X67750000Y-43050000I0J75000D01*
G01*
G37*
G36*
G01*
X68250000Y-43050000D02*
X68250000Y-41600000D01*
G75*
G02*
X68325000Y-41525000I75000J0D01*
G01*
X68475000Y-41525000D01*
G75*
G02*
X68550000Y-41600000I0J-75000D01*
G01*
X68550000Y-43050000D01*
G75*
G02*
X68475000Y-43125000I-75000J0D01*
G01*
X68325000Y-43125000D01*
G75*
G02*
X68250000Y-43050000I0J75000D01*
G01*
G37*
G36*
G01*
X69275000Y-44075000D02*
X69275000Y-43925000D01*
G75*
G02*
X69350000Y-43850000I75000J0D01*
G01*
X70800000Y-43850000D01*
G75*
G02*
X70875000Y-43925000I0J-75000D01*
G01*
X70875000Y-44075000D01*
G75*
G02*
X70800000Y-44150000I-75000J0D01*
G01*
X69350000Y-44150000D01*
G75*
G02*
X69275000Y-44075000I0J75000D01*
G01*
G37*
G36*
G01*
X69275000Y-44575000D02*
X69275000Y-44425000D01*
G75*
G02*
X69350000Y-44350000I75000J0D01*
G01*
X70800000Y-44350000D01*
G75*
G02*
X70875000Y-44425000I0J-75000D01*
G01*
X70875000Y-44575000D01*
G75*
G02*
X70800000Y-44650000I-75000J0D01*
G01*
X69350000Y-44650000D01*
G75*
G02*
X69275000Y-44575000I0J75000D01*
G01*
G37*
G36*
G01*
X69275000Y-45075000D02*
X69275000Y-44925000D01*
G75*
G02*
X69350000Y-44850000I75000J0D01*
G01*
X70800000Y-44850000D01*
G75*
G02*
X70875000Y-44925000I0J-75000D01*
G01*
X70875000Y-45075000D01*
G75*
G02*
X70800000Y-45150000I-75000J0D01*
G01*
X69350000Y-45150000D01*
G75*
G02*
X69275000Y-45075000I0J75000D01*
G01*
G37*
G36*
G01*
X69275000Y-45575000D02*
X69275000Y-45425000D01*
G75*
G02*
X69350000Y-45350000I75000J0D01*
G01*
X70800000Y-45350000D01*
G75*
G02*
X70875000Y-45425000I0J-75000D01*
G01*
X70875000Y-45575000D01*
G75*
G02*
X70800000Y-45650000I-75000J0D01*
G01*
X69350000Y-45650000D01*
G75*
G02*
X69275000Y-45575000I0J75000D01*
G01*
G37*
G36*
G01*
X69275000Y-46075000D02*
X69275000Y-45925000D01*
G75*
G02*
X69350000Y-45850000I75000J0D01*
G01*
X70800000Y-45850000D01*
G75*
G02*
X70875000Y-45925000I0J-75000D01*
G01*
X70875000Y-46075000D01*
G75*
G02*
X70800000Y-46150000I-75000J0D01*
G01*
X69350000Y-46150000D01*
G75*
G02*
X69275000Y-46075000I0J75000D01*
G01*
G37*
G36*
G01*
X69275000Y-46575000D02*
X69275000Y-46425000D01*
G75*
G02*
X69350000Y-46350000I75000J0D01*
G01*
X70800000Y-46350000D01*
G75*
G02*
X70875000Y-46425000I0J-75000D01*
G01*
X70875000Y-46575000D01*
G75*
G02*
X70800000Y-46650000I-75000J0D01*
G01*
X69350000Y-46650000D01*
G75*
G02*
X69275000Y-46575000I0J75000D01*
G01*
G37*
G36*
G01*
X69275000Y-47075000D02*
X69275000Y-46925000D01*
G75*
G02*
X69350000Y-46850000I75000J0D01*
G01*
X70800000Y-46850000D01*
G75*
G02*
X70875000Y-46925000I0J-75000D01*
G01*
X70875000Y-47075000D01*
G75*
G02*
X70800000Y-47150000I-75000J0D01*
G01*
X69350000Y-47150000D01*
G75*
G02*
X69275000Y-47075000I0J75000D01*
G01*
G37*
G36*
G01*
X69275000Y-47575000D02*
X69275000Y-47425000D01*
G75*
G02*
X69350000Y-47350000I75000J0D01*
G01*
X70800000Y-47350000D01*
G75*
G02*
X70875000Y-47425000I0J-75000D01*
G01*
X70875000Y-47575000D01*
G75*
G02*
X70800000Y-47650000I-75000J0D01*
G01*
X69350000Y-47650000D01*
G75*
G02*
X69275000Y-47575000I0J75000D01*
G01*
G37*
G36*
G01*
X69275000Y-48075000D02*
X69275000Y-47925000D01*
G75*
G02*
X69350000Y-47850000I75000J0D01*
G01*
X70800000Y-47850000D01*
G75*
G02*
X70875000Y-47925000I0J-75000D01*
G01*
X70875000Y-48075000D01*
G75*
G02*
X70800000Y-48150000I-75000J0D01*
G01*
X69350000Y-48150000D01*
G75*
G02*
X69275000Y-48075000I0J75000D01*
G01*
G37*
G36*
G01*
X69275000Y-48575000D02*
X69275000Y-48425000D01*
G75*
G02*
X69350000Y-48350000I75000J0D01*
G01*
X70800000Y-48350000D01*
G75*
G02*
X70875000Y-48425000I0J-75000D01*
G01*
X70875000Y-48575000D01*
G75*
G02*
X70800000Y-48650000I-75000J0D01*
G01*
X69350000Y-48650000D01*
G75*
G02*
X69275000Y-48575000I0J75000D01*
G01*
G37*
G36*
G01*
X69275000Y-49075000D02*
X69275000Y-48925000D01*
G75*
G02*
X69350000Y-48850000I75000J0D01*
G01*
X70800000Y-48850000D01*
G75*
G02*
X70875000Y-48925000I0J-75000D01*
G01*
X70875000Y-49075000D01*
G75*
G02*
X70800000Y-49150000I-75000J0D01*
G01*
X69350000Y-49150000D01*
G75*
G02*
X69275000Y-49075000I0J75000D01*
G01*
G37*
G36*
G01*
X69275000Y-49575000D02*
X69275000Y-49425000D01*
G75*
G02*
X69350000Y-49350000I75000J0D01*
G01*
X70800000Y-49350000D01*
G75*
G02*
X70875000Y-49425000I0J-75000D01*
G01*
X70875000Y-49575000D01*
G75*
G02*
X70800000Y-49650000I-75000J0D01*
G01*
X69350000Y-49650000D01*
G75*
G02*
X69275000Y-49575000I0J75000D01*
G01*
G37*
G36*
G01*
X69275000Y-50075000D02*
X69275000Y-49925000D01*
G75*
G02*
X69350000Y-49850000I75000J0D01*
G01*
X70800000Y-49850000D01*
G75*
G02*
X70875000Y-49925000I0J-75000D01*
G01*
X70875000Y-50075000D01*
G75*
G02*
X70800000Y-50150000I-75000J0D01*
G01*
X69350000Y-50150000D01*
G75*
G02*
X69275000Y-50075000I0J75000D01*
G01*
G37*
G36*
G01*
X69275000Y-50575000D02*
X69275000Y-50425000D01*
G75*
G02*
X69350000Y-50350000I75000J0D01*
G01*
X70800000Y-50350000D01*
G75*
G02*
X70875000Y-50425000I0J-75000D01*
G01*
X70875000Y-50575000D01*
G75*
G02*
X70800000Y-50650000I-75000J0D01*
G01*
X69350000Y-50650000D01*
G75*
G02*
X69275000Y-50575000I0J75000D01*
G01*
G37*
G36*
G01*
X69275000Y-51075000D02*
X69275000Y-50925000D01*
G75*
G02*
X69350000Y-50850000I75000J0D01*
G01*
X70800000Y-50850000D01*
G75*
G02*
X70875000Y-50925000I0J-75000D01*
G01*
X70875000Y-51075000D01*
G75*
G02*
X70800000Y-51150000I-75000J0D01*
G01*
X69350000Y-51150000D01*
G75*
G02*
X69275000Y-51075000I0J75000D01*
G01*
G37*
G36*
G01*
X69275000Y-51575000D02*
X69275000Y-51425000D01*
G75*
G02*
X69350000Y-51350000I75000J0D01*
G01*
X70800000Y-51350000D01*
G75*
G02*
X70875000Y-51425000I0J-75000D01*
G01*
X70875000Y-51575000D01*
G75*
G02*
X70800000Y-51650000I-75000J0D01*
G01*
X69350000Y-51650000D01*
G75*
G02*
X69275000Y-51575000I0J75000D01*
G01*
G37*
G36*
G01*
X69275000Y-52075000D02*
X69275000Y-51925000D01*
G75*
G02*
X69350000Y-51850000I75000J0D01*
G01*
X70800000Y-51850000D01*
G75*
G02*
X70875000Y-51925000I0J-75000D01*
G01*
X70875000Y-52075000D01*
G75*
G02*
X70800000Y-52150000I-75000J0D01*
G01*
X69350000Y-52150000D01*
G75*
G02*
X69275000Y-52075000I0J75000D01*
G01*
G37*
G36*
G01*
X69275000Y-52575000D02*
X69275000Y-52425000D01*
G75*
G02*
X69350000Y-52350000I75000J0D01*
G01*
X70800000Y-52350000D01*
G75*
G02*
X70875000Y-52425000I0J-75000D01*
G01*
X70875000Y-52575000D01*
G75*
G02*
X70800000Y-52650000I-75000J0D01*
G01*
X69350000Y-52650000D01*
G75*
G02*
X69275000Y-52575000I0J75000D01*
G01*
G37*
G36*
G01*
X69275000Y-53075000D02*
X69275000Y-52925000D01*
G75*
G02*
X69350000Y-52850000I75000J0D01*
G01*
X70800000Y-52850000D01*
G75*
G02*
X70875000Y-52925000I0J-75000D01*
G01*
X70875000Y-53075000D01*
G75*
G02*
X70800000Y-53150000I-75000J0D01*
G01*
X69350000Y-53150000D01*
G75*
G02*
X69275000Y-53075000I0J75000D01*
G01*
G37*
G36*
G01*
X69275000Y-53575000D02*
X69275000Y-53425000D01*
G75*
G02*
X69350000Y-53350000I75000J0D01*
G01*
X70800000Y-53350000D01*
G75*
G02*
X70875000Y-53425000I0J-75000D01*
G01*
X70875000Y-53575000D01*
G75*
G02*
X70800000Y-53650000I-75000J0D01*
G01*
X69350000Y-53650000D01*
G75*
G02*
X69275000Y-53575000I0J75000D01*
G01*
G37*
G36*
G01*
X69275000Y-54075000D02*
X69275000Y-53925000D01*
G75*
G02*
X69350000Y-53850000I75000J0D01*
G01*
X70800000Y-53850000D01*
G75*
G02*
X70875000Y-53925000I0J-75000D01*
G01*
X70875000Y-54075000D01*
G75*
G02*
X70800000Y-54150000I-75000J0D01*
G01*
X69350000Y-54150000D01*
G75*
G02*
X69275000Y-54075000I0J75000D01*
G01*
G37*
G36*
G01*
X69275000Y-54575000D02*
X69275000Y-54425000D01*
G75*
G02*
X69350000Y-54350000I75000J0D01*
G01*
X70800000Y-54350000D01*
G75*
G02*
X70875000Y-54425000I0J-75000D01*
G01*
X70875000Y-54575000D01*
G75*
G02*
X70800000Y-54650000I-75000J0D01*
G01*
X69350000Y-54650000D01*
G75*
G02*
X69275000Y-54575000I0J75000D01*
G01*
G37*
G36*
G01*
X69275000Y-55075000D02*
X69275000Y-54925000D01*
G75*
G02*
X69350000Y-54850000I75000J0D01*
G01*
X70800000Y-54850000D01*
G75*
G02*
X70875000Y-54925000I0J-75000D01*
G01*
X70875000Y-55075000D01*
G75*
G02*
X70800000Y-55150000I-75000J0D01*
G01*
X69350000Y-55150000D01*
G75*
G02*
X69275000Y-55075000I0J75000D01*
G01*
G37*
G36*
G01*
X69275000Y-55575000D02*
X69275000Y-55425000D01*
G75*
G02*
X69350000Y-55350000I75000J0D01*
G01*
X70800000Y-55350000D01*
G75*
G02*
X70875000Y-55425000I0J-75000D01*
G01*
X70875000Y-55575000D01*
G75*
G02*
X70800000Y-55650000I-75000J0D01*
G01*
X69350000Y-55650000D01*
G75*
G02*
X69275000Y-55575000I0J75000D01*
G01*
G37*
G36*
G01*
X69275000Y-56075000D02*
X69275000Y-55925000D01*
G75*
G02*
X69350000Y-55850000I75000J0D01*
G01*
X70800000Y-55850000D01*
G75*
G02*
X70875000Y-55925000I0J-75000D01*
G01*
X70875000Y-56075000D01*
G75*
G02*
X70800000Y-56150000I-75000J0D01*
G01*
X69350000Y-56150000D01*
G75*
G02*
X69275000Y-56075000I0J75000D01*
G01*
G37*
G36*
G01*
X68250000Y-58400000D02*
X68250000Y-56950000D01*
G75*
G02*
X68325000Y-56875000I75000J0D01*
G01*
X68475000Y-56875000D01*
G75*
G02*
X68550000Y-56950000I0J-75000D01*
G01*
X68550000Y-58400000D01*
G75*
G02*
X68475000Y-58475000I-75000J0D01*
G01*
X68325000Y-58475000D01*
G75*
G02*
X68250000Y-58400000I0J75000D01*
G01*
G37*
G36*
G01*
X67750000Y-58400000D02*
X67750000Y-56950000D01*
G75*
G02*
X67825000Y-56875000I75000J0D01*
G01*
X67975000Y-56875000D01*
G75*
G02*
X68050000Y-56950000I0J-75000D01*
G01*
X68050000Y-58400000D01*
G75*
G02*
X67975000Y-58475000I-75000J0D01*
G01*
X67825000Y-58475000D01*
G75*
G02*
X67750000Y-58400000I0J75000D01*
G01*
G37*
G36*
G01*
X67250000Y-58400000D02*
X67250000Y-56950000D01*
G75*
G02*
X67325000Y-56875000I75000J0D01*
G01*
X67475000Y-56875000D01*
G75*
G02*
X67550000Y-56950000I0J-75000D01*
G01*
X67550000Y-58400000D01*
G75*
G02*
X67475000Y-58475000I-75000J0D01*
G01*
X67325000Y-58475000D01*
G75*
G02*
X67250000Y-58400000I0J75000D01*
G01*
G37*
G36*
G01*
X66750000Y-58400000D02*
X66750000Y-56950000D01*
G75*
G02*
X66825000Y-56875000I75000J0D01*
G01*
X66975000Y-56875000D01*
G75*
G02*
X67050000Y-56950000I0J-75000D01*
G01*
X67050000Y-58400000D01*
G75*
G02*
X66975000Y-58475000I-75000J0D01*
G01*
X66825000Y-58475000D01*
G75*
G02*
X66750000Y-58400000I0J75000D01*
G01*
G37*
G36*
G01*
X66250000Y-58400000D02*
X66250000Y-56950000D01*
G75*
G02*
X66325000Y-56875000I75000J0D01*
G01*
X66475000Y-56875000D01*
G75*
G02*
X66550000Y-56950000I0J-75000D01*
G01*
X66550000Y-58400000D01*
G75*
G02*
X66475000Y-58475000I-75000J0D01*
G01*
X66325000Y-58475000D01*
G75*
G02*
X66250000Y-58400000I0J75000D01*
G01*
G37*
G36*
G01*
X65750000Y-58400000D02*
X65750000Y-56950000D01*
G75*
G02*
X65825000Y-56875000I75000J0D01*
G01*
X65975000Y-56875000D01*
G75*
G02*
X66050000Y-56950000I0J-75000D01*
G01*
X66050000Y-58400000D01*
G75*
G02*
X65975000Y-58475000I-75000J0D01*
G01*
X65825000Y-58475000D01*
G75*
G02*
X65750000Y-58400000I0J75000D01*
G01*
G37*
G36*
G01*
X65250000Y-58400000D02*
X65250000Y-56950000D01*
G75*
G02*
X65325000Y-56875000I75000J0D01*
G01*
X65475000Y-56875000D01*
G75*
G02*
X65550000Y-56950000I0J-75000D01*
G01*
X65550000Y-58400000D01*
G75*
G02*
X65475000Y-58475000I-75000J0D01*
G01*
X65325000Y-58475000D01*
G75*
G02*
X65250000Y-58400000I0J75000D01*
G01*
G37*
G36*
G01*
X64750000Y-58400000D02*
X64750000Y-56950000D01*
G75*
G02*
X64825000Y-56875000I75000J0D01*
G01*
X64975000Y-56875000D01*
G75*
G02*
X65050000Y-56950000I0J-75000D01*
G01*
X65050000Y-58400000D01*
G75*
G02*
X64975000Y-58475000I-75000J0D01*
G01*
X64825000Y-58475000D01*
G75*
G02*
X64750000Y-58400000I0J75000D01*
G01*
G37*
G36*
G01*
X64250000Y-58400000D02*
X64250000Y-56950000D01*
G75*
G02*
X64325000Y-56875000I75000J0D01*
G01*
X64475000Y-56875000D01*
G75*
G02*
X64550000Y-56950000I0J-75000D01*
G01*
X64550000Y-58400000D01*
G75*
G02*
X64475000Y-58475000I-75000J0D01*
G01*
X64325000Y-58475000D01*
G75*
G02*
X64250000Y-58400000I0J75000D01*
G01*
G37*
G36*
G01*
X63750000Y-58400000D02*
X63750000Y-56950000D01*
G75*
G02*
X63825000Y-56875000I75000J0D01*
G01*
X63975000Y-56875000D01*
G75*
G02*
X64050000Y-56950000I0J-75000D01*
G01*
X64050000Y-58400000D01*
G75*
G02*
X63975000Y-58475000I-75000J0D01*
G01*
X63825000Y-58475000D01*
G75*
G02*
X63750000Y-58400000I0J75000D01*
G01*
G37*
G36*
G01*
X63250000Y-58400000D02*
X63250000Y-56950000D01*
G75*
G02*
X63325000Y-56875000I75000J0D01*
G01*
X63475000Y-56875000D01*
G75*
G02*
X63550000Y-56950000I0J-75000D01*
G01*
X63550000Y-58400000D01*
G75*
G02*
X63475000Y-58475000I-75000J0D01*
G01*
X63325000Y-58475000D01*
G75*
G02*
X63250000Y-58400000I0J75000D01*
G01*
G37*
G36*
G01*
X62750000Y-58400000D02*
X62750000Y-56950000D01*
G75*
G02*
X62825000Y-56875000I75000J0D01*
G01*
X62975000Y-56875000D01*
G75*
G02*
X63050000Y-56950000I0J-75000D01*
G01*
X63050000Y-58400000D01*
G75*
G02*
X62975000Y-58475000I-75000J0D01*
G01*
X62825000Y-58475000D01*
G75*
G02*
X62750000Y-58400000I0J75000D01*
G01*
G37*
G36*
G01*
X62250000Y-58400000D02*
X62250000Y-56950000D01*
G75*
G02*
X62325000Y-56875000I75000J0D01*
G01*
X62475000Y-56875000D01*
G75*
G02*
X62550000Y-56950000I0J-75000D01*
G01*
X62550000Y-58400000D01*
G75*
G02*
X62475000Y-58475000I-75000J0D01*
G01*
X62325000Y-58475000D01*
G75*
G02*
X62250000Y-58400000I0J75000D01*
G01*
G37*
G36*
G01*
X61750000Y-58400000D02*
X61750000Y-56950000D01*
G75*
G02*
X61825000Y-56875000I75000J0D01*
G01*
X61975000Y-56875000D01*
G75*
G02*
X62050000Y-56950000I0J-75000D01*
G01*
X62050000Y-58400000D01*
G75*
G02*
X61975000Y-58475000I-75000J0D01*
G01*
X61825000Y-58475000D01*
G75*
G02*
X61750000Y-58400000I0J75000D01*
G01*
G37*
G36*
G01*
X61250000Y-58400000D02*
X61250000Y-56950000D01*
G75*
G02*
X61325000Y-56875000I75000J0D01*
G01*
X61475000Y-56875000D01*
G75*
G02*
X61550000Y-56950000I0J-75000D01*
G01*
X61550000Y-58400000D01*
G75*
G02*
X61475000Y-58475000I-75000J0D01*
G01*
X61325000Y-58475000D01*
G75*
G02*
X61250000Y-58400000I0J75000D01*
G01*
G37*
G36*
G01*
X60750000Y-58400000D02*
X60750000Y-56950000D01*
G75*
G02*
X60825000Y-56875000I75000J0D01*
G01*
X60975000Y-56875000D01*
G75*
G02*
X61050000Y-56950000I0J-75000D01*
G01*
X61050000Y-58400000D01*
G75*
G02*
X60975000Y-58475000I-75000J0D01*
G01*
X60825000Y-58475000D01*
G75*
G02*
X60750000Y-58400000I0J75000D01*
G01*
G37*
G36*
G01*
X60250000Y-58400000D02*
X60250000Y-56950000D01*
G75*
G02*
X60325000Y-56875000I75000J0D01*
G01*
X60475000Y-56875000D01*
G75*
G02*
X60550000Y-56950000I0J-75000D01*
G01*
X60550000Y-58400000D01*
G75*
G02*
X60475000Y-58475000I-75000J0D01*
G01*
X60325000Y-58475000D01*
G75*
G02*
X60250000Y-58400000I0J75000D01*
G01*
G37*
G36*
G01*
X59750000Y-58400000D02*
X59750000Y-56950000D01*
G75*
G02*
X59825000Y-56875000I75000J0D01*
G01*
X59975000Y-56875000D01*
G75*
G02*
X60050000Y-56950000I0J-75000D01*
G01*
X60050000Y-58400000D01*
G75*
G02*
X59975000Y-58475000I-75000J0D01*
G01*
X59825000Y-58475000D01*
G75*
G02*
X59750000Y-58400000I0J75000D01*
G01*
G37*
G36*
G01*
X59250000Y-58400000D02*
X59250000Y-56950000D01*
G75*
G02*
X59325000Y-56875000I75000J0D01*
G01*
X59475000Y-56875000D01*
G75*
G02*
X59550000Y-56950000I0J-75000D01*
G01*
X59550000Y-58400000D01*
G75*
G02*
X59475000Y-58475000I-75000J0D01*
G01*
X59325000Y-58475000D01*
G75*
G02*
X59250000Y-58400000I0J75000D01*
G01*
G37*
G36*
G01*
X58750000Y-58400000D02*
X58750000Y-56950000D01*
G75*
G02*
X58825000Y-56875000I75000J0D01*
G01*
X58975000Y-56875000D01*
G75*
G02*
X59050000Y-56950000I0J-75000D01*
G01*
X59050000Y-58400000D01*
G75*
G02*
X58975000Y-58475000I-75000J0D01*
G01*
X58825000Y-58475000D01*
G75*
G02*
X58750000Y-58400000I0J75000D01*
G01*
G37*
G36*
G01*
X58250000Y-58400000D02*
X58250000Y-56950000D01*
G75*
G02*
X58325000Y-56875000I75000J0D01*
G01*
X58475000Y-56875000D01*
G75*
G02*
X58550000Y-56950000I0J-75000D01*
G01*
X58550000Y-58400000D01*
G75*
G02*
X58475000Y-58475000I-75000J0D01*
G01*
X58325000Y-58475000D01*
G75*
G02*
X58250000Y-58400000I0J75000D01*
G01*
G37*
G36*
G01*
X57750000Y-58400000D02*
X57750000Y-56950000D01*
G75*
G02*
X57825000Y-56875000I75000J0D01*
G01*
X57975000Y-56875000D01*
G75*
G02*
X58050000Y-56950000I0J-75000D01*
G01*
X58050000Y-58400000D01*
G75*
G02*
X57975000Y-58475000I-75000J0D01*
G01*
X57825000Y-58475000D01*
G75*
G02*
X57750000Y-58400000I0J75000D01*
G01*
G37*
G36*
G01*
X57250000Y-58400000D02*
X57250000Y-56950000D01*
G75*
G02*
X57325000Y-56875000I75000J0D01*
G01*
X57475000Y-56875000D01*
G75*
G02*
X57550000Y-56950000I0J-75000D01*
G01*
X57550000Y-58400000D01*
G75*
G02*
X57475000Y-58475000I-75000J0D01*
G01*
X57325000Y-58475000D01*
G75*
G02*
X57250000Y-58400000I0J75000D01*
G01*
G37*
G36*
G01*
X56750000Y-58400000D02*
X56750000Y-56950000D01*
G75*
G02*
X56825000Y-56875000I75000J0D01*
G01*
X56975000Y-56875000D01*
G75*
G02*
X57050000Y-56950000I0J-75000D01*
G01*
X57050000Y-58400000D01*
G75*
G02*
X56975000Y-58475000I-75000J0D01*
G01*
X56825000Y-58475000D01*
G75*
G02*
X56750000Y-58400000I0J75000D01*
G01*
G37*
G36*
G01*
X56250000Y-58400000D02*
X56250000Y-56950000D01*
G75*
G02*
X56325000Y-56875000I75000J0D01*
G01*
X56475000Y-56875000D01*
G75*
G02*
X56550000Y-56950000I0J-75000D01*
G01*
X56550000Y-58400000D01*
G75*
G02*
X56475000Y-58475000I-75000J0D01*
G01*
X56325000Y-58475000D01*
G75*
G02*
X56250000Y-58400000I0J75000D01*
G01*
G37*
G36*
G01*
X53925000Y-56075000D02*
X53925000Y-55925000D01*
G75*
G02*
X54000000Y-55850000I75000J0D01*
G01*
X55450000Y-55850000D01*
G75*
G02*
X55525000Y-55925000I0J-75000D01*
G01*
X55525000Y-56075000D01*
G75*
G02*
X55450000Y-56150000I-75000J0D01*
G01*
X54000000Y-56150000D01*
G75*
G02*
X53925000Y-56075000I0J75000D01*
G01*
G37*
G36*
G01*
X53925000Y-55575000D02*
X53925000Y-55425000D01*
G75*
G02*
X54000000Y-55350000I75000J0D01*
G01*
X55450000Y-55350000D01*
G75*
G02*
X55525000Y-55425000I0J-75000D01*
G01*
X55525000Y-55575000D01*
G75*
G02*
X55450000Y-55650000I-75000J0D01*
G01*
X54000000Y-55650000D01*
G75*
G02*
X53925000Y-55575000I0J75000D01*
G01*
G37*
G36*
G01*
X53925000Y-55075000D02*
X53925000Y-54925000D01*
G75*
G02*
X54000000Y-54850000I75000J0D01*
G01*
X55450000Y-54850000D01*
G75*
G02*
X55525000Y-54925000I0J-75000D01*
G01*
X55525000Y-55075000D01*
G75*
G02*
X55450000Y-55150000I-75000J0D01*
G01*
X54000000Y-55150000D01*
G75*
G02*
X53925000Y-55075000I0J75000D01*
G01*
G37*
G36*
G01*
X53925000Y-54575000D02*
X53925000Y-54425000D01*
G75*
G02*
X54000000Y-54350000I75000J0D01*
G01*
X55450000Y-54350000D01*
G75*
G02*
X55525000Y-54425000I0J-75000D01*
G01*
X55525000Y-54575000D01*
G75*
G02*
X55450000Y-54650000I-75000J0D01*
G01*
X54000000Y-54650000D01*
G75*
G02*
X53925000Y-54575000I0J75000D01*
G01*
G37*
G36*
G01*
X53925000Y-54075000D02*
X53925000Y-53925000D01*
G75*
G02*
X54000000Y-53850000I75000J0D01*
G01*
X55450000Y-53850000D01*
G75*
G02*
X55525000Y-53925000I0J-75000D01*
G01*
X55525000Y-54075000D01*
G75*
G02*
X55450000Y-54150000I-75000J0D01*
G01*
X54000000Y-54150000D01*
G75*
G02*
X53925000Y-54075000I0J75000D01*
G01*
G37*
G36*
G01*
X53925000Y-53575000D02*
X53925000Y-53425000D01*
G75*
G02*
X54000000Y-53350000I75000J0D01*
G01*
X55450000Y-53350000D01*
G75*
G02*
X55525000Y-53425000I0J-75000D01*
G01*
X55525000Y-53575000D01*
G75*
G02*
X55450000Y-53650000I-75000J0D01*
G01*
X54000000Y-53650000D01*
G75*
G02*
X53925000Y-53575000I0J75000D01*
G01*
G37*
G36*
G01*
X53925000Y-53075000D02*
X53925000Y-52925000D01*
G75*
G02*
X54000000Y-52850000I75000J0D01*
G01*
X55450000Y-52850000D01*
G75*
G02*
X55525000Y-52925000I0J-75000D01*
G01*
X55525000Y-53075000D01*
G75*
G02*
X55450000Y-53150000I-75000J0D01*
G01*
X54000000Y-53150000D01*
G75*
G02*
X53925000Y-53075000I0J75000D01*
G01*
G37*
G36*
G01*
X53925000Y-52575000D02*
X53925000Y-52425000D01*
G75*
G02*
X54000000Y-52350000I75000J0D01*
G01*
X55450000Y-52350000D01*
G75*
G02*
X55525000Y-52425000I0J-75000D01*
G01*
X55525000Y-52575000D01*
G75*
G02*
X55450000Y-52650000I-75000J0D01*
G01*
X54000000Y-52650000D01*
G75*
G02*
X53925000Y-52575000I0J75000D01*
G01*
G37*
G36*
G01*
X53925000Y-52075000D02*
X53925000Y-51925000D01*
G75*
G02*
X54000000Y-51850000I75000J0D01*
G01*
X55450000Y-51850000D01*
G75*
G02*
X55525000Y-51925000I0J-75000D01*
G01*
X55525000Y-52075000D01*
G75*
G02*
X55450000Y-52150000I-75000J0D01*
G01*
X54000000Y-52150000D01*
G75*
G02*
X53925000Y-52075000I0J75000D01*
G01*
G37*
G36*
G01*
X53925000Y-51575000D02*
X53925000Y-51425000D01*
G75*
G02*
X54000000Y-51350000I75000J0D01*
G01*
X55450000Y-51350000D01*
G75*
G02*
X55525000Y-51425000I0J-75000D01*
G01*
X55525000Y-51575000D01*
G75*
G02*
X55450000Y-51650000I-75000J0D01*
G01*
X54000000Y-51650000D01*
G75*
G02*
X53925000Y-51575000I0J75000D01*
G01*
G37*
G36*
G01*
X53925000Y-51075000D02*
X53925000Y-50925000D01*
G75*
G02*
X54000000Y-50850000I75000J0D01*
G01*
X55450000Y-50850000D01*
G75*
G02*
X55525000Y-50925000I0J-75000D01*
G01*
X55525000Y-51075000D01*
G75*
G02*
X55450000Y-51150000I-75000J0D01*
G01*
X54000000Y-51150000D01*
G75*
G02*
X53925000Y-51075000I0J75000D01*
G01*
G37*
G36*
G01*
X53925000Y-50575000D02*
X53925000Y-50425000D01*
G75*
G02*
X54000000Y-50350000I75000J0D01*
G01*
X55450000Y-50350000D01*
G75*
G02*
X55525000Y-50425000I0J-75000D01*
G01*
X55525000Y-50575000D01*
G75*
G02*
X55450000Y-50650000I-75000J0D01*
G01*
X54000000Y-50650000D01*
G75*
G02*
X53925000Y-50575000I0J75000D01*
G01*
G37*
G36*
G01*
X53925000Y-50075000D02*
X53925000Y-49925000D01*
G75*
G02*
X54000000Y-49850000I75000J0D01*
G01*
X55450000Y-49850000D01*
G75*
G02*
X55525000Y-49925000I0J-75000D01*
G01*
X55525000Y-50075000D01*
G75*
G02*
X55450000Y-50150000I-75000J0D01*
G01*
X54000000Y-50150000D01*
G75*
G02*
X53925000Y-50075000I0J75000D01*
G01*
G37*
G36*
G01*
X53925000Y-49575000D02*
X53925000Y-49425000D01*
G75*
G02*
X54000000Y-49350000I75000J0D01*
G01*
X55450000Y-49350000D01*
G75*
G02*
X55525000Y-49425000I0J-75000D01*
G01*
X55525000Y-49575000D01*
G75*
G02*
X55450000Y-49650000I-75000J0D01*
G01*
X54000000Y-49650000D01*
G75*
G02*
X53925000Y-49575000I0J75000D01*
G01*
G37*
G36*
G01*
X53925000Y-49075000D02*
X53925000Y-48925000D01*
G75*
G02*
X54000000Y-48850000I75000J0D01*
G01*
X55450000Y-48850000D01*
G75*
G02*
X55525000Y-48925000I0J-75000D01*
G01*
X55525000Y-49075000D01*
G75*
G02*
X55450000Y-49150000I-75000J0D01*
G01*
X54000000Y-49150000D01*
G75*
G02*
X53925000Y-49075000I0J75000D01*
G01*
G37*
G36*
G01*
X53925000Y-48575000D02*
X53925000Y-48425000D01*
G75*
G02*
X54000000Y-48350000I75000J0D01*
G01*
X55450000Y-48350000D01*
G75*
G02*
X55525000Y-48425000I0J-75000D01*
G01*
X55525000Y-48575000D01*
G75*
G02*
X55450000Y-48650000I-75000J0D01*
G01*
X54000000Y-48650000D01*
G75*
G02*
X53925000Y-48575000I0J75000D01*
G01*
G37*
G36*
G01*
X53925000Y-48075000D02*
X53925000Y-47925000D01*
G75*
G02*
X54000000Y-47850000I75000J0D01*
G01*
X55450000Y-47850000D01*
G75*
G02*
X55525000Y-47925000I0J-75000D01*
G01*
X55525000Y-48075000D01*
G75*
G02*
X55450000Y-48150000I-75000J0D01*
G01*
X54000000Y-48150000D01*
G75*
G02*
X53925000Y-48075000I0J75000D01*
G01*
G37*
G36*
G01*
X53925000Y-47575000D02*
X53925000Y-47425000D01*
G75*
G02*
X54000000Y-47350000I75000J0D01*
G01*
X55450000Y-47350000D01*
G75*
G02*
X55525000Y-47425000I0J-75000D01*
G01*
X55525000Y-47575000D01*
G75*
G02*
X55450000Y-47650000I-75000J0D01*
G01*
X54000000Y-47650000D01*
G75*
G02*
X53925000Y-47575000I0J75000D01*
G01*
G37*
G36*
G01*
X53925000Y-47075000D02*
X53925000Y-46925000D01*
G75*
G02*
X54000000Y-46850000I75000J0D01*
G01*
X55450000Y-46850000D01*
G75*
G02*
X55525000Y-46925000I0J-75000D01*
G01*
X55525000Y-47075000D01*
G75*
G02*
X55450000Y-47150000I-75000J0D01*
G01*
X54000000Y-47150000D01*
G75*
G02*
X53925000Y-47075000I0J75000D01*
G01*
G37*
G36*
G01*
X53925000Y-46575000D02*
X53925000Y-46425000D01*
G75*
G02*
X54000000Y-46350000I75000J0D01*
G01*
X55450000Y-46350000D01*
G75*
G02*
X55525000Y-46425000I0J-75000D01*
G01*
X55525000Y-46575000D01*
G75*
G02*
X55450000Y-46650000I-75000J0D01*
G01*
X54000000Y-46650000D01*
G75*
G02*
X53925000Y-46575000I0J75000D01*
G01*
G37*
G36*
G01*
X53925000Y-46075000D02*
X53925000Y-45925000D01*
G75*
G02*
X54000000Y-45850000I75000J0D01*
G01*
X55450000Y-45850000D01*
G75*
G02*
X55525000Y-45925000I0J-75000D01*
G01*
X55525000Y-46075000D01*
G75*
G02*
X55450000Y-46150000I-75000J0D01*
G01*
X54000000Y-46150000D01*
G75*
G02*
X53925000Y-46075000I0J75000D01*
G01*
G37*
G36*
G01*
X53925000Y-45575000D02*
X53925000Y-45425000D01*
G75*
G02*
X54000000Y-45350000I75000J0D01*
G01*
X55450000Y-45350000D01*
G75*
G02*
X55525000Y-45425000I0J-75000D01*
G01*
X55525000Y-45575000D01*
G75*
G02*
X55450000Y-45650000I-75000J0D01*
G01*
X54000000Y-45650000D01*
G75*
G02*
X53925000Y-45575000I0J75000D01*
G01*
G37*
G36*
G01*
X53925000Y-45075000D02*
X53925000Y-44925000D01*
G75*
G02*
X54000000Y-44850000I75000J0D01*
G01*
X55450000Y-44850000D01*
G75*
G02*
X55525000Y-44925000I0J-75000D01*
G01*
X55525000Y-45075000D01*
G75*
G02*
X55450000Y-45150000I-75000J0D01*
G01*
X54000000Y-45150000D01*
G75*
G02*
X53925000Y-45075000I0J75000D01*
G01*
G37*
G36*
G01*
X53925000Y-44575000D02*
X53925000Y-44425000D01*
G75*
G02*
X54000000Y-44350000I75000J0D01*
G01*
X55450000Y-44350000D01*
G75*
G02*
X55525000Y-44425000I0J-75000D01*
G01*
X55525000Y-44575000D01*
G75*
G02*
X55450000Y-44650000I-75000J0D01*
G01*
X54000000Y-44650000D01*
G75*
G02*
X53925000Y-44575000I0J75000D01*
G01*
G37*
G36*
G01*
X53925000Y-44075000D02*
X53925000Y-43925000D01*
G75*
G02*
X54000000Y-43850000I75000J0D01*
G01*
X55450000Y-43850000D01*
G75*
G02*
X55525000Y-43925000I0J-75000D01*
G01*
X55525000Y-44075000D01*
G75*
G02*
X55450000Y-44150000I-75000J0D01*
G01*
X54000000Y-44150000D01*
G75*
G02*
X53925000Y-44075000I0J75000D01*
G01*
G37*
%TD*%
%TO.C,R2_USB1*%
G36*
G01*
X81610000Y-50727500D02*
X81610000Y-51072500D01*
G75*
G02*
X81462500Y-51220000I-147500J0D01*
G01*
X81167500Y-51220000D01*
G75*
G02*
X81020000Y-51072500I0J147500D01*
G01*
X81020000Y-50727500D01*
G75*
G02*
X81167500Y-50580000I147500J0D01*
G01*
X81462500Y-50580000D01*
G75*
G02*
X81610000Y-50727500I0J-147500D01*
G01*
G37*
G36*
G01*
X82580000Y-50727500D02*
X82580000Y-51072500D01*
G75*
G02*
X82432500Y-51220000I-147500J0D01*
G01*
X82137500Y-51220000D01*
G75*
G02*
X81990000Y-51072500I0J147500D01*
G01*
X81990000Y-50727500D01*
G75*
G02*
X82137500Y-50580000I147500J0D01*
G01*
X82432500Y-50580000D01*
G75*
G02*
X82580000Y-50727500I0J-147500D01*
G01*
G37*
%TD*%
%TO.C,R2_TX1*%
G36*
G01*
X47140000Y-51897500D02*
X47140000Y-51552500D01*
G75*
G02*
X47287500Y-51405000I147500J0D01*
G01*
X47582500Y-51405000D01*
G75*
G02*
X47730000Y-51552500I0J-147500D01*
G01*
X47730000Y-51897500D01*
G75*
G02*
X47582500Y-52045000I-147500J0D01*
G01*
X47287500Y-52045000D01*
G75*
G02*
X47140000Y-51897500I0J147500D01*
G01*
G37*
G36*
G01*
X46170000Y-51897500D02*
X46170000Y-51552500D01*
G75*
G02*
X46317500Y-51405000I147500J0D01*
G01*
X46612500Y-51405000D01*
G75*
G02*
X46760000Y-51552500I0J-147500D01*
G01*
X46760000Y-51897500D01*
G75*
G02*
X46612500Y-52045000I-147500J0D01*
G01*
X46317500Y-52045000D01*
G75*
G02*
X46170000Y-51897500I0J147500D01*
G01*
G37*
%TD*%
%TO.C,R2_SCL1*%
G36*
G01*
X82715000Y-58997500D02*
X82715000Y-58652500D01*
G75*
G02*
X82862500Y-58505000I147500J0D01*
G01*
X83157500Y-58505000D01*
G75*
G02*
X83305000Y-58652500I0J-147500D01*
G01*
X83305000Y-58997500D01*
G75*
G02*
X83157500Y-59145000I-147500J0D01*
G01*
X82862500Y-59145000D01*
G75*
G02*
X82715000Y-58997500I0J147500D01*
G01*
G37*
G36*
G01*
X81745000Y-58997500D02*
X81745000Y-58652500D01*
G75*
G02*
X81892500Y-58505000I147500J0D01*
G01*
X82187500Y-58505000D01*
G75*
G02*
X82335000Y-58652500I0J-147500D01*
G01*
X82335000Y-58997500D01*
G75*
G02*
X82187500Y-59145000I-147500J0D01*
G01*
X81892500Y-59145000D01*
G75*
G02*
X81745000Y-58997500I0J147500D01*
G01*
G37*
%TD*%
%TO.C,R1_USB3*%
G36*
G01*
X81990000Y-53072500D02*
X81990000Y-52727500D01*
G75*
G02*
X82137500Y-52580000I147500J0D01*
G01*
X82432500Y-52580000D01*
G75*
G02*
X82580000Y-52727500I0J-147500D01*
G01*
X82580000Y-53072500D01*
G75*
G02*
X82432500Y-53220000I-147500J0D01*
G01*
X82137500Y-53220000D01*
G75*
G02*
X81990000Y-53072500I0J147500D01*
G01*
G37*
G36*
G01*
X81020000Y-53072500D02*
X81020000Y-52727500D01*
G75*
G02*
X81167500Y-52580000I147500J0D01*
G01*
X81462500Y-52580000D01*
G75*
G02*
X81610000Y-52727500I0J-147500D01*
G01*
X81610000Y-53072500D01*
G75*
G02*
X81462500Y-53220000I-147500J0D01*
G01*
X81167500Y-53220000D01*
G75*
G02*
X81020000Y-53072500I0J147500D01*
G01*
G37*
%TD*%
%TO.C,R1_USB2*%
G36*
G01*
X81615000Y-51727500D02*
X81615000Y-52072500D01*
G75*
G02*
X81467500Y-52220000I-147500J0D01*
G01*
X81172500Y-52220000D01*
G75*
G02*
X81025000Y-52072500I0J147500D01*
G01*
X81025000Y-51727500D01*
G75*
G02*
X81172500Y-51580000I147500J0D01*
G01*
X81467500Y-51580000D01*
G75*
G02*
X81615000Y-51727500I0J-147500D01*
G01*
G37*
G36*
G01*
X82585000Y-51727500D02*
X82585000Y-52072500D01*
G75*
G02*
X82437500Y-52220000I-147500J0D01*
G01*
X82142500Y-52220000D01*
G75*
G02*
X81995000Y-52072500I0J147500D01*
G01*
X81995000Y-51727500D01*
G75*
G02*
X82142500Y-51580000I147500J0D01*
G01*
X82437500Y-51580000D01*
G75*
G02*
X82585000Y-51727500I0J-147500D01*
G01*
G37*
%TD*%
%TO.C,R1_USB1*%
G36*
G01*
X81990000Y-50072500D02*
X81990000Y-49727500D01*
G75*
G02*
X82137500Y-49580000I147500J0D01*
G01*
X82432500Y-49580000D01*
G75*
G02*
X82580000Y-49727500I0J-147500D01*
G01*
X82580000Y-50072500D01*
G75*
G02*
X82432500Y-50220000I-147500J0D01*
G01*
X82137500Y-50220000D01*
G75*
G02*
X81990000Y-50072500I0J147500D01*
G01*
G37*
G36*
G01*
X81020000Y-50072500D02*
X81020000Y-49727500D01*
G75*
G02*
X81167500Y-49580000I147500J0D01*
G01*
X81462500Y-49580000D01*
G75*
G02*
X81610000Y-49727500I0J-147500D01*
G01*
X81610000Y-50072500D01*
G75*
G02*
X81462500Y-50220000I-147500J0D01*
G01*
X81167500Y-50220000D01*
G75*
G02*
X81020000Y-50072500I0J147500D01*
G01*
G37*
%TD*%
%TO.C,R1_SDA1*%
G36*
G01*
X82335000Y-59652500D02*
X82335000Y-59997500D01*
G75*
G02*
X82187500Y-60145000I-147500J0D01*
G01*
X81892500Y-60145000D01*
G75*
G02*
X81745000Y-59997500I0J147500D01*
G01*
X81745000Y-59652500D01*
G75*
G02*
X81892500Y-59505000I147500J0D01*
G01*
X82187500Y-59505000D01*
G75*
G02*
X82335000Y-59652500I0J-147500D01*
G01*
G37*
G36*
G01*
X83305000Y-59652500D02*
X83305000Y-59997500D01*
G75*
G02*
X83157500Y-60145000I-147500J0D01*
G01*
X82862500Y-60145000D01*
G75*
G02*
X82715000Y-59997500I0J147500D01*
G01*
X82715000Y-59652500D01*
G75*
G02*
X82862500Y-59505000I147500J0D01*
G01*
X83157500Y-59505000D01*
G75*
G02*
X83305000Y-59652500I0J-147500D01*
G01*
G37*
%TD*%
%TO.C,R1_RX1*%
G36*
G01*
X47140000Y-55947500D02*
X47140000Y-55602500D01*
G75*
G02*
X47287500Y-55455000I147500J0D01*
G01*
X47582500Y-55455000D01*
G75*
G02*
X47730000Y-55602500I0J-147500D01*
G01*
X47730000Y-55947500D01*
G75*
G02*
X47582500Y-56095000I-147500J0D01*
G01*
X47287500Y-56095000D01*
G75*
G02*
X47140000Y-55947500I0J147500D01*
G01*
G37*
G36*
G01*
X46170000Y-55947500D02*
X46170000Y-55602500D01*
G75*
G02*
X46317500Y-55455000I147500J0D01*
G01*
X46612500Y-55455000D01*
G75*
G02*
X46760000Y-55602500I0J-147500D01*
G01*
X46760000Y-55947500D01*
G75*
G02*
X46612500Y-56095000I-147500J0D01*
G01*
X46317500Y-56095000D01*
G75*
G02*
X46170000Y-55947500I0J147500D01*
G01*
G37*
%TD*%
%TO.C,R1_RST1*%
G36*
G01*
X46777500Y-44750000D02*
X47122500Y-44750000D01*
G75*
G02*
X47270000Y-44897500I0J-147500D01*
G01*
X47270000Y-45192500D01*
G75*
G02*
X47122500Y-45340000I-147500J0D01*
G01*
X46777500Y-45340000D01*
G75*
G02*
X46630000Y-45192500I0J147500D01*
G01*
X46630000Y-44897500D01*
G75*
G02*
X46777500Y-44750000I147500J0D01*
G01*
G37*
G36*
G01*
X46777500Y-43780000D02*
X47122500Y-43780000D01*
G75*
G02*
X47270000Y-43927500I0J-147500D01*
G01*
X47270000Y-44222500D01*
G75*
G02*
X47122500Y-44370000I-147500J0D01*
G01*
X46777500Y-44370000D01*
G75*
G02*
X46630000Y-44222500I0J147500D01*
G01*
X46630000Y-43927500D01*
G75*
G02*
X46777500Y-43780000I147500J0D01*
G01*
G37*
%TD*%
%TO.C,R1_PC13*%
G36*
G01*
X51365000Y-44572500D02*
X51365000Y-44227500D01*
G75*
G02*
X51512500Y-44080000I147500J0D01*
G01*
X51807500Y-44080000D01*
G75*
G02*
X51955000Y-44227500I0J-147500D01*
G01*
X51955000Y-44572500D01*
G75*
G02*
X51807500Y-44720000I-147500J0D01*
G01*
X51512500Y-44720000D01*
G75*
G02*
X51365000Y-44572500I0J147500D01*
G01*
G37*
G36*
G01*
X50395000Y-44572500D02*
X50395000Y-44227500D01*
G75*
G02*
X50542500Y-44080000I147500J0D01*
G01*
X50837500Y-44080000D01*
G75*
G02*
X50985000Y-44227500I0J-147500D01*
G01*
X50985000Y-44572500D01*
G75*
G02*
X50837500Y-44720000I-147500J0D01*
G01*
X50542500Y-44720000D01*
G75*
G02*
X50395000Y-44572500I0J147500D01*
G01*
G37*
%TD*%
%TO.C,R1_L1*%
G36*
G01*
X82005000Y-54352500D02*
X82005000Y-54007500D01*
G75*
G02*
X82152500Y-53860000I147500J0D01*
G01*
X82447500Y-53860000D01*
G75*
G02*
X82595000Y-54007500I0J-147500D01*
G01*
X82595000Y-54352500D01*
G75*
G02*
X82447500Y-54500000I-147500J0D01*
G01*
X82152500Y-54500000D01*
G75*
G02*
X82005000Y-54352500I0J147500D01*
G01*
G37*
G36*
G01*
X81035000Y-54352500D02*
X81035000Y-54007500D01*
G75*
G02*
X81182500Y-53860000I147500J0D01*
G01*
X81477500Y-53860000D01*
G75*
G02*
X81625000Y-54007500I0J-147500D01*
G01*
X81625000Y-54352500D01*
G75*
G02*
X81477500Y-54500000I-147500J0D01*
G01*
X81182500Y-54500000D01*
G75*
G02*
X81035000Y-54352500I0J147500D01*
G01*
G37*
%TD*%
%TO.C,R1_BOOT1*%
G36*
G01*
X47122500Y-42460000D02*
X46777500Y-42460000D01*
G75*
G02*
X46630000Y-42312500I0J147500D01*
G01*
X46630000Y-42017500D01*
G75*
G02*
X46777500Y-41870000I147500J0D01*
G01*
X47122500Y-41870000D01*
G75*
G02*
X47270000Y-42017500I0J-147500D01*
G01*
X47270000Y-42312500D01*
G75*
G02*
X47122500Y-42460000I-147500J0D01*
G01*
G37*
G36*
G01*
X47122500Y-43430000D02*
X46777500Y-43430000D01*
G75*
G02*
X46630000Y-43282500I0J147500D01*
G01*
X46630000Y-42987500D01*
G75*
G02*
X46777500Y-42840000I147500J0D01*
G01*
X47122500Y-42840000D01*
G75*
G02*
X47270000Y-42987500I0J-147500D01*
G01*
X47270000Y-43282500D01*
G75*
G02*
X47122500Y-43430000I-147500J0D01*
G01*
G37*
%TD*%
D11*
%TO.C,USBC*%
X85830000Y-46450000D03*
X85830000Y-47250000D03*
X85830000Y-52050000D03*
X85830000Y-52850000D03*
X85830000Y-53150000D03*
X85830000Y-52350000D03*
X85830000Y-51550000D03*
X85830000Y-51050000D03*
X85830000Y-50550000D03*
X85830000Y-50050000D03*
X85830000Y-49550000D03*
X85830000Y-49050000D03*
X85830000Y-48550000D03*
X85830000Y-48050000D03*
X85830000Y-47550000D03*
X85830000Y-46750000D03*
%TD*%
D12*
%TO.C,ESD*%
X79380000Y-46060000D03*
X80330000Y-48060000D03*
X78430000Y-48060000D03*
%TD*%
%TO.C,LED*%
G36*
G01*
X51000000Y-43381250D02*
X51000000Y-42868750D01*
G75*
G02*
X51218750Y-42650000I218750J0D01*
G01*
X51656250Y-42650000D01*
G75*
G02*
X51875000Y-42868750I0J-218750D01*
G01*
X51875000Y-43381250D01*
G75*
G02*
X51656250Y-43600000I-218750J0D01*
G01*
X51218750Y-43600000D01*
G75*
G02*
X51000000Y-43381250I0J218750D01*
G01*
G37*
G36*
G01*
X49425000Y-43381250D02*
X49425000Y-42868750D01*
G75*
G02*
X49643750Y-42650000I218750J0D01*
G01*
X50081250Y-42650000D01*
G75*
G02*
X50300000Y-42868750I0J-218750D01*
G01*
X50300000Y-43381250D01*
G75*
G02*
X50081250Y-43600000I-218750J0D01*
G01*
X49643750Y-43600000D01*
G75*
G02*
X49425000Y-43381250I0J218750D01*
G01*
G37*
%TD*%
%TO.C,TX*%
G36*
G01*
X46750000Y-53256250D02*
X46750000Y-52743750D01*
G75*
G02*
X46968750Y-52525000I218750J0D01*
G01*
X47406250Y-52525000D01*
G75*
G02*
X47625000Y-52743750I0J-218750D01*
G01*
X47625000Y-53256250D01*
G75*
G02*
X47406250Y-53475000I-218750J0D01*
G01*
X46968750Y-53475000D01*
G75*
G02*
X46750000Y-53256250I0J218750D01*
G01*
G37*
G36*
G01*
X45175000Y-53256250D02*
X45175000Y-52743750D01*
G75*
G02*
X45393750Y-52525000I218750J0D01*
G01*
X45831250Y-52525000D01*
G75*
G02*
X46050000Y-52743750I0J-218750D01*
G01*
X46050000Y-53256250D01*
G75*
G02*
X45831250Y-53475000I-218750J0D01*
G01*
X45393750Y-53475000D01*
G75*
G02*
X45175000Y-53256250I0J218750D01*
G01*
G37*
%TD*%
%TO.C,RX*%
G36*
G01*
X46750000Y-54756250D02*
X46750000Y-54243750D01*
G75*
G02*
X46968750Y-54025000I218750J0D01*
G01*
X47406250Y-54025000D01*
G75*
G02*
X47625000Y-54243750I0J-218750D01*
G01*
X47625000Y-54756250D01*
G75*
G02*
X47406250Y-54975000I-218750J0D01*
G01*
X46968750Y-54975000D01*
G75*
G02*
X46750000Y-54756250I0J218750D01*
G01*
G37*
G36*
G01*
X45175000Y-54756250D02*
X45175000Y-54243750D01*
G75*
G02*
X45393750Y-54025000I218750J0D01*
G01*
X45831250Y-54025000D01*
G75*
G02*
X46050000Y-54243750I0J-218750D01*
G01*
X46050000Y-54756250D01*
G75*
G02*
X45831250Y-54975000I-218750J0D01*
G01*
X45393750Y-54975000D01*
G75*
G02*
X45175000Y-54756250I0J218750D01*
G01*
G37*
%TD*%
%TO.C,D1*%
G36*
G01*
X82250000Y-55746250D02*
X82250000Y-55233750D01*
G75*
G02*
X82468750Y-55015000I218750J0D01*
G01*
X82906250Y-55015000D01*
G75*
G02*
X83125000Y-55233750I0J-218750D01*
G01*
X83125000Y-55746250D01*
G75*
G02*
X82906250Y-55965000I-218750J0D01*
G01*
X82468750Y-55965000D01*
G75*
G02*
X82250000Y-55746250I0J218750D01*
G01*
G37*
G36*
G01*
X80675000Y-55746250D02*
X80675000Y-55233750D01*
G75*
G02*
X80893750Y-55015000I218750J0D01*
G01*
X81331250Y-55015000D01*
G75*
G02*
X81550000Y-55233750I0J-218750D01*
G01*
X81550000Y-55746250D01*
G75*
G02*
X81331250Y-55965000I-218750J0D01*
G01*
X80893750Y-55965000D01*
G75*
G02*
X80675000Y-55746250I0J218750D01*
G01*
G37*
%TD*%
%TO.C,C7_ST2*%
G36*
G01*
X54910000Y-39477500D02*
X54910000Y-39822500D01*
G75*
G02*
X54762500Y-39970000I-147500J0D01*
G01*
X54467500Y-39970000D01*
G75*
G02*
X54320000Y-39822500I0J147500D01*
G01*
X54320000Y-39477500D01*
G75*
G02*
X54467500Y-39330000I147500J0D01*
G01*
X54762500Y-39330000D01*
G75*
G02*
X54910000Y-39477500I0J-147500D01*
G01*
G37*
G36*
G01*
X55880000Y-39477500D02*
X55880000Y-39822500D01*
G75*
G02*
X55732500Y-39970000I-147500J0D01*
G01*
X55437500Y-39970000D01*
G75*
G02*
X55290000Y-39822500I0J147500D01*
G01*
X55290000Y-39477500D01*
G75*
G02*
X55437500Y-39330000I147500J0D01*
G01*
X55732500Y-39330000D01*
G75*
G02*
X55880000Y-39477500I0J-147500D01*
G01*
G37*
%TD*%
%TO.C,C7_ST1*%
G36*
G01*
X74785000Y-42877500D02*
X74785000Y-43222500D01*
G75*
G02*
X74637500Y-43370000I-147500J0D01*
G01*
X74342500Y-43370000D01*
G75*
G02*
X74195000Y-43222500I0J147500D01*
G01*
X74195000Y-42877500D01*
G75*
G02*
X74342500Y-42730000I147500J0D01*
G01*
X74637500Y-42730000D01*
G75*
G02*
X74785000Y-42877500I0J-147500D01*
G01*
G37*
G36*
G01*
X75755000Y-42877500D02*
X75755000Y-43222500D01*
G75*
G02*
X75607500Y-43370000I-147500J0D01*
G01*
X75312500Y-43370000D01*
G75*
G02*
X75165000Y-43222500I0J147500D01*
G01*
X75165000Y-42877500D01*
G75*
G02*
X75312500Y-42730000I147500J0D01*
G01*
X75607500Y-42730000D01*
G75*
G02*
X75755000Y-42877500I0J-147500D01*
G01*
G37*
%TD*%
%TO.C,C6_ST1*%
G36*
G01*
X51365000Y-45572500D02*
X51365000Y-45227500D01*
G75*
G02*
X51512500Y-45080000I147500J0D01*
G01*
X51807500Y-45080000D01*
G75*
G02*
X51955000Y-45227500I0J-147500D01*
G01*
X51955000Y-45572500D01*
G75*
G02*
X51807500Y-45720000I-147500J0D01*
G01*
X51512500Y-45720000D01*
G75*
G02*
X51365000Y-45572500I0J147500D01*
G01*
G37*
G36*
G01*
X50395000Y-45572500D02*
X50395000Y-45227500D01*
G75*
G02*
X50542500Y-45080000I147500J0D01*
G01*
X50837500Y-45080000D01*
G75*
G02*
X50985000Y-45227500I0J-147500D01*
G01*
X50985000Y-45572500D01*
G75*
G02*
X50837500Y-45720000I-147500J0D01*
G01*
X50542500Y-45720000D01*
G75*
G02*
X50395000Y-45572500I0J147500D01*
G01*
G37*
%TD*%
%TO.C,C5_ST1*%
G36*
G01*
X51365000Y-46572500D02*
X51365000Y-46227500D01*
G75*
G02*
X51512500Y-46080000I147500J0D01*
G01*
X51807500Y-46080000D01*
G75*
G02*
X51955000Y-46227500I0J-147500D01*
G01*
X51955000Y-46572500D01*
G75*
G02*
X51807500Y-46720000I-147500J0D01*
G01*
X51512500Y-46720000D01*
G75*
G02*
X51365000Y-46572500I0J147500D01*
G01*
G37*
G36*
G01*
X50395000Y-46572500D02*
X50395000Y-46227500D01*
G75*
G02*
X50542500Y-46080000I147500J0D01*
G01*
X50837500Y-46080000D01*
G75*
G02*
X50985000Y-46227500I0J-147500D01*
G01*
X50985000Y-46572500D01*
G75*
G02*
X50837500Y-46720000I-147500J0D01*
G01*
X50542500Y-46720000D01*
G75*
G02*
X50395000Y-46572500I0J147500D01*
G01*
G37*
%TD*%
%TO.C,C2_ST1*%
G36*
G01*
X54490000Y-60147500D02*
X54490000Y-59802500D01*
G75*
G02*
X54637500Y-59655000I147500J0D01*
G01*
X54932500Y-59655000D01*
G75*
G02*
X55080000Y-59802500I0J-147500D01*
G01*
X55080000Y-60147500D01*
G75*
G02*
X54932500Y-60295000I-147500J0D01*
G01*
X54637500Y-60295000D01*
G75*
G02*
X54490000Y-60147500I0J147500D01*
G01*
G37*
G36*
G01*
X53520000Y-60147500D02*
X53520000Y-59802500D01*
G75*
G02*
X53667500Y-59655000I147500J0D01*
G01*
X53962500Y-59655000D01*
G75*
G02*
X54110000Y-59802500I0J-147500D01*
G01*
X54110000Y-60147500D01*
G75*
G02*
X53962500Y-60295000I-147500J0D01*
G01*
X53667500Y-60295000D01*
G75*
G02*
X53520000Y-60147500I0J147500D01*
G01*
G37*
%TD*%
%TO.C,C1_VCAP2*%
G36*
G01*
X75885000Y-44927500D02*
X75885000Y-45272500D01*
G75*
G02*
X75737500Y-45420000I-147500J0D01*
G01*
X75442500Y-45420000D01*
G75*
G02*
X75295000Y-45272500I0J147500D01*
G01*
X75295000Y-44927500D01*
G75*
G02*
X75442500Y-44780000I147500J0D01*
G01*
X75737500Y-44780000D01*
G75*
G02*
X75885000Y-44927500I0J-147500D01*
G01*
G37*
G36*
G01*
X76855000Y-44927500D02*
X76855000Y-45272500D01*
G75*
G02*
X76707500Y-45420000I-147500J0D01*
G01*
X76412500Y-45420000D01*
G75*
G02*
X76265000Y-45272500I0J147500D01*
G01*
X76265000Y-44927500D01*
G75*
G02*
X76412500Y-44780000I147500J0D01*
G01*
X76707500Y-44780000D01*
G75*
G02*
X76855000Y-44927500I0J-147500D01*
G01*
G37*
%TD*%
%TO.C,C1_VCAP1*%
G36*
G01*
X70290000Y-60322500D02*
X70290000Y-59977500D01*
G75*
G02*
X70437500Y-59830000I147500J0D01*
G01*
X70732500Y-59830000D01*
G75*
G02*
X70880000Y-59977500I0J-147500D01*
G01*
X70880000Y-60322500D01*
G75*
G02*
X70732500Y-60470000I-147500J0D01*
G01*
X70437500Y-60470000D01*
G75*
G02*
X70290000Y-60322500I0J147500D01*
G01*
G37*
G36*
G01*
X69320000Y-60322500D02*
X69320000Y-59977500D01*
G75*
G02*
X69467500Y-59830000I147500J0D01*
G01*
X69762500Y-59830000D01*
G75*
G02*
X69910000Y-59977500I0J-147500D01*
G01*
X69910000Y-60322500D01*
G75*
G02*
X69762500Y-60470000I-147500J0D01*
G01*
X69467500Y-60470000D01*
G75*
G02*
X69320000Y-60322500I0J147500D01*
G01*
G37*
%TD*%
%TO.C,C1_ST1*%
G36*
G01*
X72927500Y-57890000D02*
X73272500Y-57890000D01*
G75*
G02*
X73420000Y-58037500I0J-147500D01*
G01*
X73420000Y-58332500D01*
G75*
G02*
X73272500Y-58480000I-147500J0D01*
G01*
X72927500Y-58480000D01*
G75*
G02*
X72780000Y-58332500I0J147500D01*
G01*
X72780000Y-58037500D01*
G75*
G02*
X72927500Y-57890000I147500J0D01*
G01*
G37*
G36*
G01*
X72927500Y-56920000D02*
X73272500Y-56920000D01*
G75*
G02*
X73420000Y-57067500I0J-147500D01*
G01*
X73420000Y-57362500D01*
G75*
G02*
X73272500Y-57510000I-147500J0D01*
G01*
X72927500Y-57510000D01*
G75*
G02*
X72780000Y-57362500I0J147500D01*
G01*
X72780000Y-57067500D01*
G75*
G02*
X72927500Y-56920000I147500J0D01*
G01*
G37*
%TD*%
%TO.C,RESET*%
G36*
G01*
X42600000Y-44950000D02*
X42600000Y-46550000D01*
G75*
G02*
X42400000Y-46750000I-200000J0D01*
G01*
X42000000Y-46750000D01*
G75*
G02*
X41800000Y-46550000I0J200000D01*
G01*
X41800000Y-44950000D01*
G75*
G02*
X42000000Y-44750000I200000J0D01*
G01*
X42400000Y-44750000D01*
G75*
G02*
X42600000Y-44950000I0J-200000D01*
G01*
G37*
G36*
G01*
X38400000Y-44950000D02*
X38400000Y-46550000D01*
G75*
G02*
X38200000Y-46750000I-200000J0D01*
G01*
X37800000Y-46750000D01*
G75*
G02*
X37600000Y-46550000I0J200000D01*
G01*
X37600000Y-44950000D01*
G75*
G02*
X37800000Y-44750000I200000J0D01*
G01*
X38200000Y-44750000D01*
G75*
G02*
X38400000Y-44950000I0J-200000D01*
G01*
G37*
%TD*%
%TO.C,BOOT*%
G36*
G01*
X42600000Y-41475000D02*
X42600000Y-43075000D01*
G75*
G02*
X42400000Y-43275000I-200000J0D01*
G01*
X42000000Y-43275000D01*
G75*
G02*
X41800000Y-43075000I0J200000D01*
G01*
X41800000Y-41475000D01*
G75*
G02*
X42000000Y-41275000I200000J0D01*
G01*
X42400000Y-41275000D01*
G75*
G02*
X42600000Y-41475000I0J-200000D01*
G01*
G37*
G36*
G01*
X38400000Y-41475000D02*
X38400000Y-43075000D01*
G75*
G02*
X38200000Y-43275000I-200000J0D01*
G01*
X37800000Y-43275000D01*
G75*
G02*
X37600000Y-43075000I0J200000D01*
G01*
X37600000Y-41475000D01*
G75*
G02*
X37800000Y-41275000I200000J0D01*
G01*
X38200000Y-41275000D01*
G75*
G02*
X38400000Y-41475000I0J-200000D01*
G01*
G37*
%TD*%
M02*
